%TF.GenerationSoftware,KiCad,Pcbnew,5.1.10-88a1d61d58~88~ubuntu20.04.1*%
%TF.CreationDate,2021-07-03T03:55:51+02:00*%
%TF.ProjectId,smd-balanced,736d642d-6261-46c6-916e-6365642e6b69,rev?*%
%TF.SameCoordinates,Original*%
%TF.FileFunction,Paste,Top*%
%TF.FilePolarity,Positive*%
%FSLAX46Y46*%
G04 Gerber Fmt 4.6, Leading zero omitted, Abs format (unit mm)*
G04 Created by KiCad (PCBNEW 5.1.10-88a1d61d58~88~ubuntu20.04.1) date 2021-07-03 03:55:51*
%MOMM*%
%LPD*%
G01*
G04 APERTURE LIST*
%ADD10R,1.200000X0.900000*%
%ADD11R,2.500000X1.140000*%
%ADD12R,2.000000X0.600000*%
G04 APERTURE END LIST*
%TO.C,C1*%
G36*
G01*
X107338500Y-52590000D02*
X107338500Y-52410000D01*
G75*
G02*
X107428500Y-52320000I90000J0D01*
G01*
X107706500Y-52320000D01*
G75*
G02*
X107796500Y-52410000I0J-90000D01*
G01*
X107796500Y-52590000D01*
G75*
G02*
X107706500Y-52680000I-90000J0D01*
G01*
X107428500Y-52680000D01*
G75*
G02*
X107338500Y-52590000I0J90000D01*
G01*
G37*
G36*
G01*
X108203500Y-52590000D02*
X108203500Y-52410000D01*
G75*
G02*
X108293500Y-52320000I90000J0D01*
G01*
X108571500Y-52320000D01*
G75*
G02*
X108661500Y-52410000I0J-90000D01*
G01*
X108661500Y-52590000D01*
G75*
G02*
X108571500Y-52680000I-90000J0D01*
G01*
X108293500Y-52680000D01*
G75*
G02*
X108203500Y-52590000I0J90000D01*
G01*
G37*
%TD*%
%TO.C,C2*%
G36*
G01*
X117388500Y-58785000D02*
X117388500Y-58605000D01*
G75*
G02*
X117478500Y-58515000I90000J0D01*
G01*
X117756500Y-58515000D01*
G75*
G02*
X117846500Y-58605000I0J-90000D01*
G01*
X117846500Y-58785000D01*
G75*
G02*
X117756500Y-58875000I-90000J0D01*
G01*
X117478500Y-58875000D01*
G75*
G02*
X117388500Y-58785000I0J90000D01*
G01*
G37*
G36*
G01*
X116523500Y-58785000D02*
X116523500Y-58605000D01*
G75*
G02*
X116613500Y-58515000I90000J0D01*
G01*
X116891500Y-58515000D01*
G75*
G02*
X116981500Y-58605000I0J-90000D01*
G01*
X116981500Y-58785000D01*
G75*
G02*
X116891500Y-58875000I-90000J0D01*
G01*
X116613500Y-58875000D01*
G75*
G02*
X116523500Y-58785000I0J90000D01*
G01*
G37*
%TD*%
%TO.C,C3*%
G36*
G01*
X117295500Y-61090000D02*
X117295500Y-60910000D01*
G75*
G02*
X117385500Y-60820000I90000J0D01*
G01*
X117663500Y-60820000D01*
G75*
G02*
X117753500Y-60910000I0J-90000D01*
G01*
X117753500Y-61090000D01*
G75*
G02*
X117663500Y-61180000I-90000J0D01*
G01*
X117385500Y-61180000D01*
G75*
G02*
X117295500Y-61090000I0J90000D01*
G01*
G37*
G36*
G01*
X116430500Y-61090000D02*
X116430500Y-60910000D01*
G75*
G02*
X116520500Y-60820000I90000J0D01*
G01*
X116798500Y-60820000D01*
G75*
G02*
X116888500Y-60910000I0J-90000D01*
G01*
X116888500Y-61090000D01*
G75*
G02*
X116798500Y-61180000I-90000J0D01*
G01*
X116520500Y-61180000D01*
G75*
G02*
X116430500Y-61090000I0J90000D01*
G01*
G37*
%TD*%
%TO.C,C4*%
G36*
G01*
X108203500Y-56590000D02*
X108203500Y-56410000D01*
G75*
G02*
X108293500Y-56320000I90000J0D01*
G01*
X108571500Y-56320000D01*
G75*
G02*
X108661500Y-56410000I0J-90000D01*
G01*
X108661500Y-56590000D01*
G75*
G02*
X108571500Y-56680000I-90000J0D01*
G01*
X108293500Y-56680000D01*
G75*
G02*
X108203500Y-56590000I0J90000D01*
G01*
G37*
G36*
G01*
X107338500Y-56590000D02*
X107338500Y-56410000D01*
G75*
G02*
X107428500Y-56320000I90000J0D01*
G01*
X107706500Y-56320000D01*
G75*
G02*
X107796500Y-56410000I0J-90000D01*
G01*
X107796500Y-56590000D01*
G75*
G02*
X107706500Y-56680000I-90000J0D01*
G01*
X107428500Y-56680000D01*
G75*
G02*
X107338500Y-56590000I0J90000D01*
G01*
G37*
%TD*%
%TO.C,C5*%
G36*
G01*
X107270500Y-63590000D02*
X107270500Y-63410000D01*
G75*
G02*
X107360500Y-63320000I90000J0D01*
G01*
X107638500Y-63320000D01*
G75*
G02*
X107728500Y-63410000I0J-90000D01*
G01*
X107728500Y-63590000D01*
G75*
G02*
X107638500Y-63680000I-90000J0D01*
G01*
X107360500Y-63680000D01*
G75*
G02*
X107270500Y-63590000I0J90000D01*
G01*
G37*
G36*
G01*
X108135500Y-63590000D02*
X108135500Y-63410000D01*
G75*
G02*
X108225500Y-63320000I90000J0D01*
G01*
X108503500Y-63320000D01*
G75*
G02*
X108593500Y-63410000I0J-90000D01*
G01*
X108593500Y-63590000D01*
G75*
G02*
X108503500Y-63680000I-90000J0D01*
G01*
X108225500Y-63680000D01*
G75*
G02*
X108135500Y-63590000I0J90000D01*
G01*
G37*
%TD*%
%TO.C,C6*%
G36*
G01*
X51661500Y-65910000D02*
X51661500Y-66090000D01*
G75*
G02*
X51571500Y-66180000I-90000J0D01*
G01*
X51293500Y-66180000D01*
G75*
G02*
X51203500Y-66090000I0J90000D01*
G01*
X51203500Y-65910000D01*
G75*
G02*
X51293500Y-65820000I90000J0D01*
G01*
X51571500Y-65820000D01*
G75*
G02*
X51661500Y-65910000I0J-90000D01*
G01*
G37*
G36*
G01*
X50796500Y-65910000D02*
X50796500Y-66090000D01*
G75*
G02*
X50706500Y-66180000I-90000J0D01*
G01*
X50428500Y-66180000D01*
G75*
G02*
X50338500Y-66090000I0J90000D01*
G01*
X50338500Y-65910000D01*
G75*
G02*
X50428500Y-65820000I90000J0D01*
G01*
X50706500Y-65820000D01*
G75*
G02*
X50796500Y-65910000I0J-90000D01*
G01*
G37*
%TD*%
%TO.C,C7*%
G36*
G01*
X108203500Y-67590000D02*
X108203500Y-67410000D01*
G75*
G02*
X108293500Y-67320000I90000J0D01*
G01*
X108571500Y-67320000D01*
G75*
G02*
X108661500Y-67410000I0J-90000D01*
G01*
X108661500Y-67590000D01*
G75*
G02*
X108571500Y-67680000I-90000J0D01*
G01*
X108293500Y-67680000D01*
G75*
G02*
X108203500Y-67590000I0J90000D01*
G01*
G37*
G36*
G01*
X107338500Y-67590000D02*
X107338500Y-67410000D01*
G75*
G02*
X107428500Y-67320000I90000J0D01*
G01*
X107706500Y-67320000D01*
G75*
G02*
X107796500Y-67410000I0J-90000D01*
G01*
X107796500Y-67590000D01*
G75*
G02*
X107706500Y-67680000I-90000J0D01*
G01*
X107428500Y-67680000D01*
G75*
G02*
X107338500Y-67590000I0J90000D01*
G01*
G37*
%TD*%
%TO.C,C8*%
G36*
G01*
X56910000Y-65838500D02*
X57090000Y-65838500D01*
G75*
G02*
X57180000Y-65928500I0J-90000D01*
G01*
X57180000Y-66206500D01*
G75*
G02*
X57090000Y-66296500I-90000J0D01*
G01*
X56910000Y-66296500D01*
G75*
G02*
X56820000Y-66206500I0J90000D01*
G01*
X56820000Y-65928500D01*
G75*
G02*
X56910000Y-65838500I90000J0D01*
G01*
G37*
G36*
G01*
X56910000Y-66703500D02*
X57090000Y-66703500D01*
G75*
G02*
X57180000Y-66793500I0J-90000D01*
G01*
X57180000Y-67071500D01*
G75*
G02*
X57090000Y-67161500I-90000J0D01*
G01*
X56910000Y-67161500D01*
G75*
G02*
X56820000Y-67071500I0J90000D01*
G01*
X56820000Y-66793500D01*
G75*
G02*
X56910000Y-66703500I90000J0D01*
G01*
G37*
%TD*%
%TO.C,C9*%
G36*
G01*
X116523500Y-56590000D02*
X116523500Y-56410000D01*
G75*
G02*
X116613500Y-56320000I90000J0D01*
G01*
X116891500Y-56320000D01*
G75*
G02*
X116981500Y-56410000I0J-90000D01*
G01*
X116981500Y-56590000D01*
G75*
G02*
X116891500Y-56680000I-90000J0D01*
G01*
X116613500Y-56680000D01*
G75*
G02*
X116523500Y-56590000I0J90000D01*
G01*
G37*
G36*
G01*
X117388500Y-56590000D02*
X117388500Y-56410000D01*
G75*
G02*
X117478500Y-56320000I90000J0D01*
G01*
X117756500Y-56320000D01*
G75*
G02*
X117846500Y-56410000I0J-90000D01*
G01*
X117846500Y-56590000D01*
G75*
G02*
X117756500Y-56680000I-90000J0D01*
G01*
X117478500Y-56680000D01*
G75*
G02*
X117388500Y-56590000I0J90000D01*
G01*
G37*
%TD*%
D10*
%TO.C,D1*%
X108000000Y-61650000D03*
X108000000Y-58350000D03*
%TD*%
%TO.C,D2*%
X57000000Y-52850000D03*
X57000000Y-56150000D03*
%TD*%
%TO.C,D3*%
X57000000Y-63150000D03*
X57000000Y-59850000D03*
%TD*%
%TO.C,D4*%
X51000000Y-52850000D03*
X51000000Y-56150000D03*
%TD*%
%TO.C,D5*%
X51000000Y-62150000D03*
X51000000Y-58850000D03*
%TD*%
%TO.C,R1*%
G36*
G01*
X111775000Y-54775000D02*
X111775000Y-54225000D01*
G75*
G02*
X111975000Y-54025000I200000J0D01*
G01*
X112375000Y-54025000D01*
G75*
G02*
X112575000Y-54225000I0J-200000D01*
G01*
X112575000Y-54775000D01*
G75*
G02*
X112375000Y-54975000I-200000J0D01*
G01*
X111975000Y-54975000D01*
G75*
G02*
X111775000Y-54775000I0J200000D01*
G01*
G37*
G36*
G01*
X113425000Y-54775000D02*
X113425000Y-54225000D01*
G75*
G02*
X113625000Y-54025000I200000J0D01*
G01*
X114025000Y-54025000D01*
G75*
G02*
X114225000Y-54225000I0J-200000D01*
G01*
X114225000Y-54775000D01*
G75*
G02*
X114025000Y-54975000I-200000J0D01*
G01*
X113625000Y-54975000D01*
G75*
G02*
X113425000Y-54775000I0J200000D01*
G01*
G37*
%TD*%
%TO.C,R2*%
G36*
G01*
X93550000Y-52725000D02*
X93550000Y-53275000D01*
G75*
G02*
X93350000Y-53475000I-200000J0D01*
G01*
X92950000Y-53475000D01*
G75*
G02*
X92750000Y-53275000I0J200000D01*
G01*
X92750000Y-52725000D01*
G75*
G02*
X92950000Y-52525000I200000J0D01*
G01*
X93350000Y-52525000D01*
G75*
G02*
X93550000Y-52725000I0J-200000D01*
G01*
G37*
G36*
G01*
X91900000Y-52725000D02*
X91900000Y-53275000D01*
G75*
G02*
X91700000Y-53475000I-200000J0D01*
G01*
X91300000Y-53475000D01*
G75*
G02*
X91100000Y-53275000I0J200000D01*
G01*
X91100000Y-52725000D01*
G75*
G02*
X91300000Y-52525000I200000J0D01*
G01*
X91700000Y-52525000D01*
G75*
G02*
X91900000Y-52725000I0J-200000D01*
G01*
G37*
%TD*%
%TO.C,R3*%
G36*
G01*
X111775000Y-62275000D02*
X111775000Y-61725000D01*
G75*
G02*
X111975000Y-61525000I200000J0D01*
G01*
X112375000Y-61525000D01*
G75*
G02*
X112575000Y-61725000I0J-200000D01*
G01*
X112575000Y-62275000D01*
G75*
G02*
X112375000Y-62475000I-200000J0D01*
G01*
X111975000Y-62475000D01*
G75*
G02*
X111775000Y-62275000I0J200000D01*
G01*
G37*
G36*
G01*
X113425000Y-62275000D02*
X113425000Y-61725000D01*
G75*
G02*
X113625000Y-61525000I200000J0D01*
G01*
X114025000Y-61525000D01*
G75*
G02*
X114225000Y-61725000I0J-200000D01*
G01*
X114225000Y-62275000D01*
G75*
G02*
X114025000Y-62475000I-200000J0D01*
G01*
X113625000Y-62475000D01*
G75*
G02*
X113425000Y-62275000I0J200000D01*
G01*
G37*
%TD*%
%TO.C,R4*%
G36*
G01*
X117275000Y-64575000D02*
X116725000Y-64575000D01*
G75*
G02*
X116525000Y-64375000I0J200000D01*
G01*
X116525000Y-63975000D01*
G75*
G02*
X116725000Y-63775000I200000J0D01*
G01*
X117275000Y-63775000D01*
G75*
G02*
X117475000Y-63975000I0J-200000D01*
G01*
X117475000Y-64375000D01*
G75*
G02*
X117275000Y-64575000I-200000J0D01*
G01*
G37*
G36*
G01*
X117275000Y-66225000D02*
X116725000Y-66225000D01*
G75*
G02*
X116525000Y-66025000I0J200000D01*
G01*
X116525000Y-65625000D01*
G75*
G02*
X116725000Y-65425000I200000J0D01*
G01*
X117275000Y-65425000D01*
G75*
G02*
X117475000Y-65625000I0J-200000D01*
G01*
X117475000Y-66025000D01*
G75*
G02*
X117275000Y-66225000I-200000J0D01*
G01*
G37*
%TD*%
%TO.C,R5*%
G36*
G01*
X113425000Y-58775000D02*
X113425000Y-58225000D01*
G75*
G02*
X113625000Y-58025000I200000J0D01*
G01*
X114025000Y-58025000D01*
G75*
G02*
X114225000Y-58225000I0J-200000D01*
G01*
X114225000Y-58775000D01*
G75*
G02*
X114025000Y-58975000I-200000J0D01*
G01*
X113625000Y-58975000D01*
G75*
G02*
X113425000Y-58775000I0J200000D01*
G01*
G37*
G36*
G01*
X111775000Y-58775000D02*
X111775000Y-58225000D01*
G75*
G02*
X111975000Y-58025000I200000J0D01*
G01*
X112375000Y-58025000D01*
G75*
G02*
X112575000Y-58225000I0J-200000D01*
G01*
X112575000Y-58775000D01*
G75*
G02*
X112375000Y-58975000I-200000J0D01*
G01*
X111975000Y-58975000D01*
G75*
G02*
X111775000Y-58775000I0J200000D01*
G01*
G37*
%TD*%
%TO.C,R6*%
G36*
G01*
X51600000Y-48775000D02*
X51600000Y-48225000D01*
G75*
G02*
X51800000Y-48025000I200000J0D01*
G01*
X52200000Y-48025000D01*
G75*
G02*
X52400000Y-48225000I0J-200000D01*
G01*
X52400000Y-48775000D01*
G75*
G02*
X52200000Y-48975000I-200000J0D01*
G01*
X51800000Y-48975000D01*
G75*
G02*
X51600000Y-48775000I0J200000D01*
G01*
G37*
G36*
G01*
X49950000Y-48775000D02*
X49950000Y-48225000D01*
G75*
G02*
X50150000Y-48025000I200000J0D01*
G01*
X50550000Y-48025000D01*
G75*
G02*
X50750000Y-48225000I0J-200000D01*
G01*
X50750000Y-48775000D01*
G75*
G02*
X50550000Y-48975000I-200000J0D01*
G01*
X50150000Y-48975000D01*
G75*
G02*
X49950000Y-48775000I0J200000D01*
G01*
G37*
%TD*%
%TO.C,R8*%
G36*
G01*
X113425000Y-65775000D02*
X113425000Y-65225000D01*
G75*
G02*
X113625000Y-65025000I200000J0D01*
G01*
X114025000Y-65025000D01*
G75*
G02*
X114225000Y-65225000I0J-200000D01*
G01*
X114225000Y-65775000D01*
G75*
G02*
X114025000Y-65975000I-200000J0D01*
G01*
X113625000Y-65975000D01*
G75*
G02*
X113425000Y-65775000I0J200000D01*
G01*
G37*
G36*
G01*
X111775000Y-65775000D02*
X111775000Y-65225000D01*
G75*
G02*
X111975000Y-65025000I200000J0D01*
G01*
X112375000Y-65025000D01*
G75*
G02*
X112575000Y-65225000I0J-200000D01*
G01*
X112575000Y-65775000D01*
G75*
G02*
X112375000Y-65975000I-200000J0D01*
G01*
X111975000Y-65975000D01*
G75*
G02*
X111775000Y-65775000I0J200000D01*
G01*
G37*
%TD*%
%TO.C,R9*%
G36*
G01*
X46275000Y-61075000D02*
X45725000Y-61075000D01*
G75*
G02*
X45525000Y-60875000I0J200000D01*
G01*
X45525000Y-60475000D01*
G75*
G02*
X45725000Y-60275000I200000J0D01*
G01*
X46275000Y-60275000D01*
G75*
G02*
X46475000Y-60475000I0J-200000D01*
G01*
X46475000Y-60875000D01*
G75*
G02*
X46275000Y-61075000I-200000J0D01*
G01*
G37*
G36*
G01*
X46275000Y-62725000D02*
X45725000Y-62725000D01*
G75*
G02*
X45525000Y-62525000I0J200000D01*
G01*
X45525000Y-62125000D01*
G75*
G02*
X45725000Y-61925000I200000J0D01*
G01*
X46275000Y-61925000D01*
G75*
G02*
X46475000Y-62125000I0J-200000D01*
G01*
X46475000Y-62525000D01*
G75*
G02*
X46275000Y-62725000I-200000J0D01*
G01*
G37*
%TD*%
%TO.C,R10*%
G36*
G01*
X49600000Y-70775000D02*
X49600000Y-70225000D01*
G75*
G02*
X49800000Y-70025000I200000J0D01*
G01*
X50200000Y-70025000D01*
G75*
G02*
X50400000Y-70225000I0J-200000D01*
G01*
X50400000Y-70775000D01*
G75*
G02*
X50200000Y-70975000I-200000J0D01*
G01*
X49800000Y-70975000D01*
G75*
G02*
X49600000Y-70775000I0J200000D01*
G01*
G37*
G36*
G01*
X51250000Y-70775000D02*
X51250000Y-70225000D01*
G75*
G02*
X51450000Y-70025000I200000J0D01*
G01*
X51850000Y-70025000D01*
G75*
G02*
X52050000Y-70225000I0J-200000D01*
G01*
X52050000Y-70775000D01*
G75*
G02*
X51850000Y-70975000I-200000J0D01*
G01*
X51450000Y-70975000D01*
G75*
G02*
X51250000Y-70775000I0J200000D01*
G01*
G37*
%TD*%
%TO.C,R11*%
G36*
G01*
X46275000Y-54725000D02*
X45725000Y-54725000D01*
G75*
G02*
X45525000Y-54525000I0J200000D01*
G01*
X45525000Y-54125000D01*
G75*
G02*
X45725000Y-53925000I200000J0D01*
G01*
X46275000Y-53925000D01*
G75*
G02*
X46475000Y-54125000I0J-200000D01*
G01*
X46475000Y-54525000D01*
G75*
G02*
X46275000Y-54725000I-200000J0D01*
G01*
G37*
G36*
G01*
X46275000Y-53075000D02*
X45725000Y-53075000D01*
G75*
G02*
X45525000Y-52875000I0J200000D01*
G01*
X45525000Y-52475000D01*
G75*
G02*
X45725000Y-52275000I200000J0D01*
G01*
X46275000Y-52275000D01*
G75*
G02*
X46475000Y-52475000I0J-200000D01*
G01*
X46475000Y-52875000D01*
G75*
G02*
X46275000Y-53075000I-200000J0D01*
G01*
G37*
%TD*%
%TO.C,R12*%
G36*
G01*
X46275000Y-67225000D02*
X45725000Y-67225000D01*
G75*
G02*
X45525000Y-67025000I0J200000D01*
G01*
X45525000Y-66625000D01*
G75*
G02*
X45725000Y-66425000I200000J0D01*
G01*
X46275000Y-66425000D01*
G75*
G02*
X46475000Y-66625000I0J-200000D01*
G01*
X46475000Y-67025000D01*
G75*
G02*
X46275000Y-67225000I-200000J0D01*
G01*
G37*
G36*
G01*
X46275000Y-65575000D02*
X45725000Y-65575000D01*
G75*
G02*
X45525000Y-65375000I0J200000D01*
G01*
X45525000Y-64975000D01*
G75*
G02*
X45725000Y-64775000I200000J0D01*
G01*
X46275000Y-64775000D01*
G75*
G02*
X46475000Y-64975000I0J-200000D01*
G01*
X46475000Y-65375000D01*
G75*
G02*
X46275000Y-65575000I-200000J0D01*
G01*
G37*
%TD*%
%TO.C,R13*%
G36*
G01*
X92075000Y-55225000D02*
X92075000Y-55775000D01*
G75*
G02*
X91875000Y-55975000I-200000J0D01*
G01*
X91475000Y-55975000D01*
G75*
G02*
X91275000Y-55775000I0J200000D01*
G01*
X91275000Y-55225000D01*
G75*
G02*
X91475000Y-55025000I200000J0D01*
G01*
X91875000Y-55025000D01*
G75*
G02*
X92075000Y-55225000I0J-200000D01*
G01*
G37*
G36*
G01*
X93725000Y-55225000D02*
X93725000Y-55775000D01*
G75*
G02*
X93525000Y-55975000I-200000J0D01*
G01*
X93125000Y-55975000D01*
G75*
G02*
X92925000Y-55775000I0J200000D01*
G01*
X92925000Y-55225000D01*
G75*
G02*
X93125000Y-55025000I200000J0D01*
G01*
X93525000Y-55025000D01*
G75*
G02*
X93725000Y-55225000I0J-200000D01*
G01*
G37*
%TD*%
%TO.C,R14*%
G36*
G01*
X93725000Y-57725000D02*
X93725000Y-58275000D01*
G75*
G02*
X93525000Y-58475000I-200000J0D01*
G01*
X93125000Y-58475000D01*
G75*
G02*
X92925000Y-58275000I0J200000D01*
G01*
X92925000Y-57725000D01*
G75*
G02*
X93125000Y-57525000I200000J0D01*
G01*
X93525000Y-57525000D01*
G75*
G02*
X93725000Y-57725000I0J-200000D01*
G01*
G37*
G36*
G01*
X92075000Y-57725000D02*
X92075000Y-58275000D01*
G75*
G02*
X91875000Y-58475000I-200000J0D01*
G01*
X91475000Y-58475000D01*
G75*
G02*
X91275000Y-58275000I0J200000D01*
G01*
X91275000Y-57725000D01*
G75*
G02*
X91475000Y-57525000I200000J0D01*
G01*
X91875000Y-57525000D01*
G75*
G02*
X92075000Y-57725000I0J-200000D01*
G01*
G37*
%TD*%
%TO.C,R15*%
G36*
G01*
X92075000Y-60225000D02*
X92075000Y-60775000D01*
G75*
G02*
X91875000Y-60975000I-200000J0D01*
G01*
X91475000Y-60975000D01*
G75*
G02*
X91275000Y-60775000I0J200000D01*
G01*
X91275000Y-60225000D01*
G75*
G02*
X91475000Y-60025000I200000J0D01*
G01*
X91875000Y-60025000D01*
G75*
G02*
X92075000Y-60225000I0J-200000D01*
G01*
G37*
G36*
G01*
X93725000Y-60225000D02*
X93725000Y-60775000D01*
G75*
G02*
X93525000Y-60975000I-200000J0D01*
G01*
X93125000Y-60975000D01*
G75*
G02*
X92925000Y-60775000I0J200000D01*
G01*
X92925000Y-60225000D01*
G75*
G02*
X93125000Y-60025000I200000J0D01*
G01*
X93525000Y-60025000D01*
G75*
G02*
X93725000Y-60225000I0J-200000D01*
G01*
G37*
%TD*%
%TO.C,R16*%
G36*
G01*
X92075000Y-62725000D02*
X92075000Y-63275000D01*
G75*
G02*
X91875000Y-63475000I-200000J0D01*
G01*
X91475000Y-63475000D01*
G75*
G02*
X91275000Y-63275000I0J200000D01*
G01*
X91275000Y-62725000D01*
G75*
G02*
X91475000Y-62525000I200000J0D01*
G01*
X91875000Y-62525000D01*
G75*
G02*
X92075000Y-62725000I0J-200000D01*
G01*
G37*
G36*
G01*
X93725000Y-62725000D02*
X93725000Y-63275000D01*
G75*
G02*
X93525000Y-63475000I-200000J0D01*
G01*
X93125000Y-63475000D01*
G75*
G02*
X92925000Y-63275000I0J200000D01*
G01*
X92925000Y-62725000D01*
G75*
G02*
X93125000Y-62525000I200000J0D01*
G01*
X93525000Y-62525000D01*
G75*
G02*
X93725000Y-62725000I0J-200000D01*
G01*
G37*
%TD*%
%TO.C,R17*%
G36*
G01*
X94425000Y-65049999D02*
X94425000Y-65950001D01*
G75*
G02*
X94175001Y-66200000I-249999J0D01*
G01*
X93649999Y-66200000D01*
G75*
G02*
X93400000Y-65950001I0J249999D01*
G01*
X93400000Y-65049999D01*
G75*
G02*
X93649999Y-64800000I249999J0D01*
G01*
X94175001Y-64800000D01*
G75*
G02*
X94425000Y-65049999I0J-249999D01*
G01*
G37*
G36*
G01*
X92600000Y-65049999D02*
X92600000Y-65950001D01*
G75*
G02*
X92350001Y-66200000I-249999J0D01*
G01*
X91824999Y-66200000D01*
G75*
G02*
X91575000Y-65950001I0J249999D01*
G01*
X91575000Y-65049999D01*
G75*
G02*
X91824999Y-64800000I249999J0D01*
G01*
X92350001Y-64800000D01*
G75*
G02*
X92600000Y-65049999I0J-249999D01*
G01*
G37*
%TD*%
%TO.C,R18*%
G36*
G01*
X92687500Y-68049999D02*
X92687500Y-68950001D01*
G75*
G02*
X92437501Y-69200000I-249999J0D01*
G01*
X91912499Y-69200000D01*
G75*
G02*
X91662500Y-68950001I0J249999D01*
G01*
X91662500Y-68049999D01*
G75*
G02*
X91912499Y-67800000I249999J0D01*
G01*
X92437501Y-67800000D01*
G75*
G02*
X92687500Y-68049999I0J-249999D01*
G01*
G37*
G36*
G01*
X94512500Y-68049999D02*
X94512500Y-68950001D01*
G75*
G02*
X94262501Y-69200000I-249999J0D01*
G01*
X93737499Y-69200000D01*
G75*
G02*
X93487500Y-68950001I0J249999D01*
G01*
X93487500Y-68049999D01*
G75*
G02*
X93737499Y-67800000I249999J0D01*
G01*
X94262501Y-67800000D01*
G75*
G02*
X94512500Y-68049999I0J-249999D01*
G01*
G37*
%TD*%
%TO.C,R19*%
G36*
G01*
X76725000Y-52725000D02*
X76725000Y-53275000D01*
G75*
G02*
X76525000Y-53475000I-200000J0D01*
G01*
X76125000Y-53475000D01*
G75*
G02*
X75925000Y-53275000I0J200000D01*
G01*
X75925000Y-52725000D01*
G75*
G02*
X76125000Y-52525000I200000J0D01*
G01*
X76525000Y-52525000D01*
G75*
G02*
X76725000Y-52725000I0J-200000D01*
G01*
G37*
G36*
G01*
X75075000Y-52725000D02*
X75075000Y-53275000D01*
G75*
G02*
X74875000Y-53475000I-200000J0D01*
G01*
X74475000Y-53475000D01*
G75*
G02*
X74275000Y-53275000I0J200000D01*
G01*
X74275000Y-52725000D01*
G75*
G02*
X74475000Y-52525000I200000J0D01*
G01*
X74875000Y-52525000D01*
G75*
G02*
X75075000Y-52725000I0J-200000D01*
G01*
G37*
%TD*%
%TO.C,R20*%
G36*
G01*
X76725000Y-55225000D02*
X76725000Y-55775000D01*
G75*
G02*
X76525000Y-55975000I-200000J0D01*
G01*
X76125000Y-55975000D01*
G75*
G02*
X75925000Y-55775000I0J200000D01*
G01*
X75925000Y-55225000D01*
G75*
G02*
X76125000Y-55025000I200000J0D01*
G01*
X76525000Y-55025000D01*
G75*
G02*
X76725000Y-55225000I0J-200000D01*
G01*
G37*
G36*
G01*
X75075000Y-55225000D02*
X75075000Y-55775000D01*
G75*
G02*
X74875000Y-55975000I-200000J0D01*
G01*
X74475000Y-55975000D01*
G75*
G02*
X74275000Y-55775000I0J200000D01*
G01*
X74275000Y-55225000D01*
G75*
G02*
X74475000Y-55025000I200000J0D01*
G01*
X74875000Y-55025000D01*
G75*
G02*
X75075000Y-55225000I0J-200000D01*
G01*
G37*
%TD*%
%TO.C,R21*%
G36*
G01*
X75075000Y-57725000D02*
X75075000Y-58275000D01*
G75*
G02*
X74875000Y-58475000I-200000J0D01*
G01*
X74475000Y-58475000D01*
G75*
G02*
X74275000Y-58275000I0J200000D01*
G01*
X74275000Y-57725000D01*
G75*
G02*
X74475000Y-57525000I200000J0D01*
G01*
X74875000Y-57525000D01*
G75*
G02*
X75075000Y-57725000I0J-200000D01*
G01*
G37*
G36*
G01*
X76725000Y-57725000D02*
X76725000Y-58275000D01*
G75*
G02*
X76525000Y-58475000I-200000J0D01*
G01*
X76125000Y-58475000D01*
G75*
G02*
X75925000Y-58275000I0J200000D01*
G01*
X75925000Y-57725000D01*
G75*
G02*
X76125000Y-57525000I200000J0D01*
G01*
X76525000Y-57525000D01*
G75*
G02*
X76725000Y-57725000I0J-200000D01*
G01*
G37*
%TD*%
%TO.C,R22*%
G36*
G01*
X76725000Y-60225000D02*
X76725000Y-60775000D01*
G75*
G02*
X76525000Y-60975000I-200000J0D01*
G01*
X76125000Y-60975000D01*
G75*
G02*
X75925000Y-60775000I0J200000D01*
G01*
X75925000Y-60225000D01*
G75*
G02*
X76125000Y-60025000I200000J0D01*
G01*
X76525000Y-60025000D01*
G75*
G02*
X76725000Y-60225000I0J-200000D01*
G01*
G37*
G36*
G01*
X75075000Y-60225000D02*
X75075000Y-60775000D01*
G75*
G02*
X74875000Y-60975000I-200000J0D01*
G01*
X74475000Y-60975000D01*
G75*
G02*
X74275000Y-60775000I0J200000D01*
G01*
X74275000Y-60225000D01*
G75*
G02*
X74475000Y-60025000I200000J0D01*
G01*
X74875000Y-60025000D01*
G75*
G02*
X75075000Y-60225000I0J-200000D01*
G01*
G37*
%TD*%
%TO.C,R23*%
G36*
G01*
X75075000Y-62725000D02*
X75075000Y-63275000D01*
G75*
G02*
X74875000Y-63475000I-200000J0D01*
G01*
X74475000Y-63475000D01*
G75*
G02*
X74275000Y-63275000I0J200000D01*
G01*
X74275000Y-62725000D01*
G75*
G02*
X74475000Y-62525000I200000J0D01*
G01*
X74875000Y-62525000D01*
G75*
G02*
X75075000Y-62725000I0J-200000D01*
G01*
G37*
G36*
G01*
X76725000Y-62725000D02*
X76725000Y-63275000D01*
G75*
G02*
X76525000Y-63475000I-200000J0D01*
G01*
X76125000Y-63475000D01*
G75*
G02*
X75925000Y-63275000I0J200000D01*
G01*
X75925000Y-62725000D01*
G75*
G02*
X76125000Y-62525000I200000J0D01*
G01*
X76525000Y-62525000D01*
G75*
G02*
X76725000Y-62725000I0J-200000D01*
G01*
G37*
%TD*%
%TO.C,R24*%
G36*
G01*
X75100000Y-65049999D02*
X75100000Y-65950001D01*
G75*
G02*
X74850001Y-66200000I-249999J0D01*
G01*
X74324999Y-66200000D01*
G75*
G02*
X74075000Y-65950001I0J249999D01*
G01*
X74075000Y-65049999D01*
G75*
G02*
X74324999Y-64800000I249999J0D01*
G01*
X74850001Y-64800000D01*
G75*
G02*
X75100000Y-65049999I0J-249999D01*
G01*
G37*
G36*
G01*
X76925000Y-65049999D02*
X76925000Y-65950001D01*
G75*
G02*
X76675001Y-66200000I-249999J0D01*
G01*
X76149999Y-66200000D01*
G75*
G02*
X75900000Y-65950001I0J249999D01*
G01*
X75900000Y-65049999D01*
G75*
G02*
X76149999Y-64800000I249999J0D01*
G01*
X76675001Y-64800000D01*
G75*
G02*
X76925000Y-65049999I0J-249999D01*
G01*
G37*
%TD*%
%TO.C,R25*%
G36*
G01*
X76925000Y-68049999D02*
X76925000Y-68950001D01*
G75*
G02*
X76675001Y-69200000I-249999J0D01*
G01*
X76149999Y-69200000D01*
G75*
G02*
X75900000Y-68950001I0J249999D01*
G01*
X75900000Y-68049999D01*
G75*
G02*
X76149999Y-67800000I249999J0D01*
G01*
X76675001Y-67800000D01*
G75*
G02*
X76925000Y-68049999I0J-249999D01*
G01*
G37*
G36*
G01*
X75100000Y-68049999D02*
X75100000Y-68950001D01*
G75*
G02*
X74850001Y-69200000I-249999J0D01*
G01*
X74324999Y-69200000D01*
G75*
G02*
X74075000Y-68950001I0J249999D01*
G01*
X74075000Y-68049999D01*
G75*
G02*
X74324999Y-67800000I249999J0D01*
G01*
X74850001Y-67800000D01*
G75*
G02*
X75100000Y-68049999I0J-249999D01*
G01*
G37*
%TD*%
D11*
%TO.C,SW1*%
X88670000Y-53000000D03*
X82500000Y-53000000D03*
X88670000Y-55540000D03*
X82500000Y-55540000D03*
X88670000Y-58080000D03*
X82500000Y-58080000D03*
X88670000Y-60620000D03*
X82500000Y-60620000D03*
X88670000Y-63160000D03*
X82500000Y-63160000D03*
X88670000Y-65700000D03*
X82500000Y-65700000D03*
X88670000Y-68240000D03*
X82500000Y-68240000D03*
%TD*%
%TO.C,SW2*%
X65500000Y-68240000D03*
X71670000Y-68240000D03*
X65500000Y-65700000D03*
X71670000Y-65700000D03*
X65500000Y-63160000D03*
X71670000Y-63160000D03*
X65500000Y-60620000D03*
X71670000Y-60620000D03*
X65500000Y-58080000D03*
X71670000Y-58080000D03*
X65500000Y-55540000D03*
X71670000Y-55540000D03*
X65500000Y-53000000D03*
X71670000Y-53000000D03*
%TD*%
D12*
%TO.C,U1*%
X72000000Y-41500000D03*
X72000000Y-42770000D03*
X72000000Y-44040000D03*
X72000000Y-45310000D03*
X66550000Y-45310000D03*
X66550000Y-44040000D03*
X66550000Y-42770000D03*
X66550000Y-41500000D03*
%TD*%
%TO.C,U2*%
X66275000Y-74595000D03*
X66275000Y-75865000D03*
X66275000Y-77135000D03*
X66275000Y-78405000D03*
X71725000Y-78405000D03*
X71725000Y-77135000D03*
X71725000Y-75865000D03*
X71725000Y-74595000D03*
%TD*%
%TO.C,R7*%
G36*
G01*
X45725000Y-56275000D02*
X46275000Y-56275000D01*
G75*
G02*
X46475000Y-56475000I0J-200000D01*
G01*
X46475000Y-56875000D01*
G75*
G02*
X46275000Y-57075000I-200000J0D01*
G01*
X45725000Y-57075000D01*
G75*
G02*
X45525000Y-56875000I0J200000D01*
G01*
X45525000Y-56475000D01*
G75*
G02*
X45725000Y-56275000I200000J0D01*
G01*
G37*
G36*
G01*
X45725000Y-57925000D02*
X46275000Y-57925000D01*
G75*
G02*
X46475000Y-58125000I0J-200000D01*
G01*
X46475000Y-58525000D01*
G75*
G02*
X46275000Y-58725000I-200000J0D01*
G01*
X45725000Y-58725000D01*
G75*
G02*
X45525000Y-58525000I0J200000D01*
G01*
X45525000Y-58125000D01*
G75*
G02*
X45725000Y-57925000I200000J0D01*
G01*
G37*
%TD*%
M02*
