%TF.GenerationSoftware,KiCad,Pcbnew,5.1.10-88a1d61d58~88~ubuntu20.04.1*%
%TF.CreationDate,2021-07-03T03:55:51+02:00*%
%TF.ProjectId,smd-balanced,736d642d-6261-46c6-916e-6365642e6b69,rev?*%
%TF.SameCoordinates,Original*%
%TF.FileFunction,Legend,Bot*%
%TF.FilePolarity,Positive*%
%FSLAX46Y46*%
G04 Gerber Fmt 4.6, Leading zero omitted, Abs format (unit mm)*
G04 Created by KiCad (PCBNEW 5.1.10-88a1d61d58~88~ubuntu20.04.1) date 2021-07-03 03:55:51*
%MOMM*%
%LPD*%
G01*
G04 APERTURE LIST*
%ADD10C,0.010000*%
G04 APERTURE END LIST*
D10*
%TO.C,REF\u002A\u002A*%
G36*
X72179192Y-55384834D02*
G01*
X72266985Y-55341460D01*
X72375249Y-55265878D01*
X72454155Y-55183458D01*
X72508195Y-55079963D01*
X72541859Y-54941157D01*
X72559637Y-54752806D01*
X72566020Y-54500672D01*
X72566393Y-54392276D01*
X72565304Y-54154713D01*
X72560778Y-53984932D01*
X72550932Y-53867450D01*
X72533882Y-53786785D01*
X72507741Y-53727455D01*
X72480542Y-53686980D01*
X72306920Y-53514775D01*
X72102462Y-53411194D01*
X71881896Y-53380040D01*
X71659954Y-53425115D01*
X71589640Y-53456991D01*
X71421311Y-53544729D01*
X71421311Y-52169828D01*
X71544162Y-52233357D01*
X71706033Y-52282509D01*
X71904995Y-52295100D01*
X72103672Y-52271853D01*
X72253710Y-52219630D01*
X72378159Y-52120174D01*
X72484492Y-51977857D01*
X72492487Y-51963245D01*
X72526207Y-51894418D01*
X72550834Y-51825044D01*
X72567786Y-51741004D01*
X72578481Y-51628184D01*
X72584338Y-51472467D01*
X72586773Y-51259735D01*
X72587213Y-51020336D01*
X72587213Y-50256557D01*
X72129180Y-50256557D01*
X72129180Y-51664892D01*
X72001067Y-51772692D01*
X71867982Y-51858921D01*
X71741952Y-51874599D01*
X71615222Y-51834253D01*
X71547683Y-51794746D01*
X71497414Y-51738473D01*
X71461662Y-51653428D01*
X71437672Y-51527606D01*
X71422689Y-51349002D01*
X71413960Y-51105609D01*
X71410886Y-50943606D01*
X71400492Y-50277377D01*
X71181885Y-50264791D01*
X70963279Y-50252205D01*
X70963279Y-54386536D01*
X71421311Y-54386536D01*
X71432989Y-54156047D01*
X71472338Y-53996050D01*
X71545834Y-53896503D01*
X71659951Y-53847361D01*
X71775246Y-53837541D01*
X71905762Y-53848825D01*
X71992383Y-53893236D01*
X72046549Y-53951919D01*
X72089190Y-54015038D01*
X72114574Y-54085355D01*
X72125869Y-54183877D01*
X72126240Y-54331613D01*
X72122440Y-54455317D01*
X72113712Y-54641672D01*
X72100720Y-54764018D01*
X72078841Y-54841623D01*
X72043454Y-54893755D01*
X72010059Y-54923889D01*
X71870525Y-54989601D01*
X71705381Y-55000213D01*
X71610554Y-54977577D01*
X71516666Y-54897119D01*
X71454474Y-54740608D01*
X71424331Y-54509148D01*
X71421311Y-54386536D01*
X70963279Y-54386536D01*
X70963279Y-55419836D01*
X71192295Y-55419836D01*
X71329794Y-55414398D01*
X71400733Y-55395091D01*
X71421303Y-55357424D01*
X71421311Y-55356308D01*
X71430855Y-55319419D01*
X71472949Y-55323607D01*
X71556639Y-55364141D01*
X71751646Y-55426150D01*
X71971046Y-55432668D01*
X72179192Y-55384834D01*
G37*
X72179192Y-55384834D02*
X72266985Y-55341460D01*
X72375249Y-55265878D01*
X72454155Y-55183458D01*
X72508195Y-55079963D01*
X72541859Y-54941157D01*
X72559637Y-54752806D01*
X72566020Y-54500672D01*
X72566393Y-54392276D01*
X72565304Y-54154713D01*
X72560778Y-53984932D01*
X72550932Y-53867450D01*
X72533882Y-53786785D01*
X72507741Y-53727455D01*
X72480542Y-53686980D01*
X72306920Y-53514775D01*
X72102462Y-53411194D01*
X71881896Y-53380040D01*
X71659954Y-53425115D01*
X71589640Y-53456991D01*
X71421311Y-53544729D01*
X71421311Y-52169828D01*
X71544162Y-52233357D01*
X71706033Y-52282509D01*
X71904995Y-52295100D01*
X72103672Y-52271853D01*
X72253710Y-52219630D01*
X72378159Y-52120174D01*
X72484492Y-51977857D01*
X72492487Y-51963245D01*
X72526207Y-51894418D01*
X72550834Y-51825044D01*
X72567786Y-51741004D01*
X72578481Y-51628184D01*
X72584338Y-51472467D01*
X72586773Y-51259735D01*
X72587213Y-51020336D01*
X72587213Y-50256557D01*
X72129180Y-50256557D01*
X72129180Y-51664892D01*
X72001067Y-51772692D01*
X71867982Y-51858921D01*
X71741952Y-51874599D01*
X71615222Y-51834253D01*
X71547683Y-51794746D01*
X71497414Y-51738473D01*
X71461662Y-51653428D01*
X71437672Y-51527606D01*
X71422689Y-51349002D01*
X71413960Y-51105609D01*
X71410886Y-50943606D01*
X71400492Y-50277377D01*
X71181885Y-50264791D01*
X70963279Y-50252205D01*
X70963279Y-54386536D01*
X71421311Y-54386536D01*
X71432989Y-54156047D01*
X71472338Y-53996050D01*
X71545834Y-53896503D01*
X71659951Y-53847361D01*
X71775246Y-53837541D01*
X71905762Y-53848825D01*
X71992383Y-53893236D01*
X72046549Y-53951919D01*
X72089190Y-54015038D01*
X72114574Y-54085355D01*
X72125869Y-54183877D01*
X72126240Y-54331613D01*
X72122440Y-54455317D01*
X72113712Y-54641672D01*
X72100720Y-54764018D01*
X72078841Y-54841623D01*
X72043454Y-54893755D01*
X72010059Y-54923889D01*
X71870525Y-54989601D01*
X71705381Y-55000213D01*
X71610554Y-54977577D01*
X71516666Y-54897119D01*
X71454474Y-54740608D01*
X71424331Y-54509148D01*
X71421311Y-54386536D01*
X70963279Y-54386536D01*
X70963279Y-55419836D01*
X71192295Y-55419836D01*
X71329794Y-55414398D01*
X71400733Y-55395091D01*
X71421303Y-55357424D01*
X71421311Y-55356308D01*
X71430855Y-55319419D01*
X71472949Y-55323607D01*
X71556639Y-55364141D01*
X71751646Y-55426150D01*
X71971046Y-55432668D01*
X72179192Y-55384834D01*
G36*
X73916221Y-52280753D02*
G01*
X74112111Y-52228486D01*
X74261233Y-52133747D01*
X74366465Y-52009662D01*
X74399179Y-51956704D01*
X74423331Y-51901232D01*
X74440216Y-51830270D01*
X74451127Y-51730846D01*
X74457360Y-51589984D01*
X74460209Y-51394711D01*
X74460968Y-51132052D01*
X74460984Y-51062367D01*
X74460984Y-50256557D01*
X74261115Y-50256557D01*
X74133630Y-50265485D01*
X74039366Y-50288104D01*
X74015749Y-50302054D01*
X73951185Y-50326130D01*
X73885241Y-50302054D01*
X73776668Y-50271997D01*
X73618958Y-50259900D01*
X73444156Y-50265149D01*
X73284307Y-50287131D01*
X73190984Y-50315337D01*
X73010391Y-50431269D01*
X72897530Y-50592153D01*
X72846791Y-50806064D01*
X72846320Y-50811557D01*
X72850773Y-50906453D01*
X73253443Y-50906453D01*
X73288646Y-50798516D01*
X73345986Y-50737771D01*
X73461087Y-50691828D01*
X73613014Y-50673488D01*
X73767939Y-50682515D01*
X73892036Y-50718668D01*
X73926803Y-50741863D01*
X73987556Y-50849040D01*
X74002951Y-50970880D01*
X74002951Y-51130983D01*
X73772597Y-51130983D01*
X73553759Y-51114137D01*
X73387863Y-51066407D01*
X73284662Y-50992014D01*
X73253443Y-50906453D01*
X72850773Y-50906453D01*
X72857287Y-51045269D01*
X72934369Y-51230054D01*
X73079286Y-51369794D01*
X73099317Y-51382505D01*
X73185390Y-51423895D01*
X73291927Y-51448959D01*
X73440859Y-51461142D01*
X73617787Y-51463943D01*
X74002951Y-51464098D01*
X74002951Y-51625557D01*
X73986613Y-51750832D01*
X73944922Y-51834759D01*
X73940041Y-51839227D01*
X73847264Y-51875941D01*
X73707216Y-51890172D01*
X73552445Y-51883179D01*
X73415501Y-51856220D01*
X73334241Y-51815788D01*
X73290210Y-51783399D01*
X73243715Y-51777216D01*
X73179549Y-51803752D01*
X73082505Y-51869521D01*
X72937374Y-51981037D01*
X72924053Y-51991484D01*
X72930879Y-52030138D01*
X72987822Y-52094428D01*
X73074370Y-52165869D01*
X73170008Y-52225979D01*
X73200056Y-52240173D01*
X73309659Y-52268497D01*
X73470265Y-52288700D01*
X73649698Y-52296804D01*
X73658089Y-52296820D01*
X73916221Y-52280753D01*
G37*
X73916221Y-52280753D02*
X74112111Y-52228486D01*
X74261233Y-52133747D01*
X74366465Y-52009662D01*
X74399179Y-51956704D01*
X74423331Y-51901232D01*
X74440216Y-51830270D01*
X74451127Y-51730846D01*
X74457360Y-51589984D01*
X74460209Y-51394711D01*
X74460968Y-51132052D01*
X74460984Y-51062367D01*
X74460984Y-50256557D01*
X74261115Y-50256557D01*
X74133630Y-50265485D01*
X74039366Y-50288104D01*
X74015749Y-50302054D01*
X73951185Y-50326130D01*
X73885241Y-50302054D01*
X73776668Y-50271997D01*
X73618958Y-50259900D01*
X73444156Y-50265149D01*
X73284307Y-50287131D01*
X73190984Y-50315337D01*
X73010391Y-50431269D01*
X72897530Y-50592153D01*
X72846791Y-50806064D01*
X72846320Y-50811557D01*
X72850773Y-50906453D01*
X73253443Y-50906453D01*
X73288646Y-50798516D01*
X73345986Y-50737771D01*
X73461087Y-50691828D01*
X73613014Y-50673488D01*
X73767939Y-50682515D01*
X73892036Y-50718668D01*
X73926803Y-50741863D01*
X73987556Y-50849040D01*
X74002951Y-50970880D01*
X74002951Y-51130983D01*
X73772597Y-51130983D01*
X73553759Y-51114137D01*
X73387863Y-51066407D01*
X73284662Y-50992014D01*
X73253443Y-50906453D01*
X72850773Y-50906453D01*
X72857287Y-51045269D01*
X72934369Y-51230054D01*
X73079286Y-51369794D01*
X73099317Y-51382505D01*
X73185390Y-51423895D01*
X73291927Y-51448959D01*
X73440859Y-51461142D01*
X73617787Y-51463943D01*
X74002951Y-51464098D01*
X74002951Y-51625557D01*
X73986613Y-51750832D01*
X73944922Y-51834759D01*
X73940041Y-51839227D01*
X73847264Y-51875941D01*
X73707216Y-51890172D01*
X73552445Y-51883179D01*
X73415501Y-51856220D01*
X73334241Y-51815788D01*
X73290210Y-51783399D01*
X73243715Y-51777216D01*
X73179549Y-51803752D01*
X73082505Y-51869521D01*
X72937374Y-51981037D01*
X72924053Y-51991484D01*
X72930879Y-52030138D01*
X72987822Y-52094428D01*
X73074370Y-52165869D01*
X73170008Y-52225979D01*
X73200056Y-52240173D01*
X73309659Y-52268497D01*
X73470265Y-52288700D01*
X73649698Y-52296804D01*
X73658089Y-52296820D01*
X73916221Y-52280753D01*
G36*
X75210525Y-52292460D02*
G01*
X75272837Y-52273782D01*
X75292925Y-52232745D01*
X75293770Y-52214218D01*
X75297375Y-52162617D01*
X75322200Y-52154516D01*
X75389263Y-52189892D01*
X75429098Y-52214063D01*
X75554773Y-52265825D01*
X75704877Y-52291419D01*
X75862263Y-52293387D01*
X76009786Y-52274271D01*
X76130300Y-52236613D01*
X76206660Y-52182956D01*
X76221719Y-52115842D01*
X76214119Y-52097667D01*
X76158718Y-52022223D01*
X76072810Y-51929432D01*
X76057272Y-51914432D01*
X75975388Y-51845460D01*
X75904737Y-51823175D01*
X75805932Y-51838728D01*
X75766348Y-51849062D01*
X75643172Y-51873884D01*
X75556564Y-51862722D01*
X75483424Y-51823354D01*
X75416426Y-51770521D01*
X75367082Y-51704076D01*
X75332791Y-51611348D01*
X75310952Y-51479666D01*
X75298966Y-51296359D01*
X75294231Y-51048754D01*
X75293770Y-50899256D01*
X75293770Y-50256557D01*
X74877377Y-50256557D01*
X74877377Y-52296885D01*
X75085574Y-52296885D01*
X75210525Y-52292460D01*
G37*
X75210525Y-52292460D02*
X75272837Y-52273782D01*
X75292925Y-52232745D01*
X75293770Y-52214218D01*
X75297375Y-52162617D01*
X75322200Y-52154516D01*
X75389263Y-52189892D01*
X75429098Y-52214063D01*
X75554773Y-52265825D01*
X75704877Y-52291419D01*
X75862263Y-52293387D01*
X76009786Y-52274271D01*
X76130300Y-52236613D01*
X76206660Y-52182956D01*
X76221719Y-52115842D01*
X76214119Y-52097667D01*
X76158718Y-52022223D01*
X76072810Y-51929432D01*
X76057272Y-51914432D01*
X75975388Y-51845460D01*
X75904737Y-51823175D01*
X75805932Y-51838728D01*
X75766348Y-51849062D01*
X75643172Y-51873884D01*
X75556564Y-51862722D01*
X75483424Y-51823354D01*
X75416426Y-51770521D01*
X75367082Y-51704076D01*
X75332791Y-51611348D01*
X75310952Y-51479666D01*
X75298966Y-51296359D01*
X75294231Y-51048754D01*
X75293770Y-50899256D01*
X75293770Y-50256557D01*
X74877377Y-50256557D01*
X74877377Y-52296885D01*
X75085574Y-52296885D01*
X75210525Y-52292460D01*
G36*
X77833770Y-50256557D02*
G01*
X77604754Y-50256557D01*
X77471825Y-50260454D01*
X77402595Y-50276593D01*
X77377668Y-50311646D01*
X77375738Y-50335347D01*
X77371534Y-50382877D01*
X77345026Y-50391992D01*
X77275367Y-50362692D01*
X77221196Y-50335347D01*
X77013223Y-50270549D01*
X76787147Y-50266799D01*
X76603345Y-50315127D01*
X76432187Y-50431882D01*
X76301716Y-50604219D01*
X76230273Y-50807494D01*
X76228454Y-50818859D01*
X76217839Y-50942864D01*
X76212560Y-51120883D01*
X76212984Y-51255520D01*
X76667828Y-51255520D01*
X76678365Y-51076572D01*
X76702334Y-50929076D01*
X76734783Y-50845783D01*
X76857544Y-50731959D01*
X77003299Y-50691155D01*
X77153607Y-50724152D01*
X77282049Y-50822578D01*
X77330692Y-50888776D01*
X77359134Y-50967769D01*
X77372456Y-51083074D01*
X77375738Y-51256264D01*
X77369865Y-51427771D01*
X77354353Y-51578460D01*
X77332362Y-51679302D01*
X77328697Y-51688341D01*
X77240012Y-51795805D01*
X77110572Y-51854805D01*
X76965743Y-51864331D01*
X76830891Y-51823374D01*
X76731383Y-51730924D01*
X76721060Y-51712527D01*
X76688750Y-51600354D01*
X76671148Y-51439066D01*
X76667828Y-51255520D01*
X76212984Y-51255520D01*
X76213200Y-51323788D01*
X76216194Y-51432990D01*
X76236558Y-51703144D01*
X76278883Y-51905976D01*
X76349294Y-52055923D01*
X76453912Y-52167421D01*
X76555479Y-52232873D01*
X76697384Y-52278883D01*
X76873879Y-52294664D01*
X77054607Y-52281810D01*
X77209213Y-52241919D01*
X77290899Y-52194199D01*
X77375738Y-52117421D01*
X77375738Y-53088033D01*
X77833770Y-53088033D01*
X77833770Y-50256557D01*
G37*
X77833770Y-50256557D02*
X77604754Y-50256557D01*
X77471825Y-50260454D01*
X77402595Y-50276593D01*
X77377668Y-50311646D01*
X77375738Y-50335347D01*
X77371534Y-50382877D01*
X77345026Y-50391992D01*
X77275367Y-50362692D01*
X77221196Y-50335347D01*
X77013223Y-50270549D01*
X76787147Y-50266799D01*
X76603345Y-50315127D01*
X76432187Y-50431882D01*
X76301716Y-50604219D01*
X76230273Y-50807494D01*
X76228454Y-50818859D01*
X76217839Y-50942864D01*
X76212560Y-51120883D01*
X76212984Y-51255520D01*
X76667828Y-51255520D01*
X76678365Y-51076572D01*
X76702334Y-50929076D01*
X76734783Y-50845783D01*
X76857544Y-50731959D01*
X77003299Y-50691155D01*
X77153607Y-50724152D01*
X77282049Y-50822578D01*
X77330692Y-50888776D01*
X77359134Y-50967769D01*
X77372456Y-51083074D01*
X77375738Y-51256264D01*
X77369865Y-51427771D01*
X77354353Y-51578460D01*
X77332362Y-51679302D01*
X77328697Y-51688341D01*
X77240012Y-51795805D01*
X77110572Y-51854805D01*
X76965743Y-51864331D01*
X76830891Y-51823374D01*
X76731383Y-51730924D01*
X76721060Y-51712527D01*
X76688750Y-51600354D01*
X76671148Y-51439066D01*
X76667828Y-51255520D01*
X76212984Y-51255520D01*
X76213200Y-51323788D01*
X76216194Y-51432990D01*
X76236558Y-51703144D01*
X76278883Y-51905976D01*
X76349294Y-52055923D01*
X76453912Y-52167421D01*
X76555479Y-52232873D01*
X76697384Y-52278883D01*
X76873879Y-52294664D01*
X77054607Y-52281810D01*
X77209213Y-52241919D01*
X77290899Y-52194199D01*
X77375738Y-52117421D01*
X77375738Y-53088033D01*
X77833770Y-53088033D01*
X77833770Y-50256557D01*
G36*
X79596942Y-52276065D02*
G01*
X79812248Y-51630656D01*
X80027555Y-50985246D01*
X80095064Y-51214262D01*
X80135691Y-51355796D01*
X80189133Y-51547064D01*
X80246842Y-51757307D01*
X80277355Y-51870082D01*
X80392136Y-52296885D01*
X80865687Y-52296885D01*
X80724139Y-51849262D01*
X80654433Y-51629097D01*
X80570223Y-51363529D01*
X80482281Y-51086508D01*
X80403772Y-50839508D01*
X80224952Y-50277377D01*
X80031882Y-50264815D01*
X79838811Y-50252254D01*
X79734118Y-50597930D01*
X79669553Y-50812665D01*
X79599092Y-51049396D01*
X79537511Y-51258474D01*
X79535081Y-51266795D01*
X79489085Y-51408463D01*
X79448503Y-51505126D01*
X79420080Y-51541679D01*
X79414239Y-51537451D01*
X79393738Y-51480783D01*
X79354785Y-51359395D01*
X79302122Y-51188552D01*
X79240491Y-50983518D01*
X79207143Y-50870738D01*
X79026546Y-50256557D01*
X78643267Y-50256557D01*
X78336867Y-51224672D01*
X78250791Y-51496241D01*
X78172380Y-51742862D01*
X78105339Y-51952952D01*
X78053369Y-52114924D01*
X78020174Y-52217192D01*
X78010084Y-52247072D01*
X78018072Y-52277666D01*
X78080792Y-52291065D01*
X78211315Y-52289725D01*
X78231747Y-52288712D01*
X78473792Y-52276065D01*
X78632317Y-51693115D01*
X78690585Y-51480514D01*
X78742655Y-51293623D01*
X78783944Y-51148669D01*
X78809866Y-51061880D01*
X78814656Y-51047731D01*
X78834504Y-51064002D01*
X78874530Y-51148303D01*
X78930138Y-51289158D01*
X78996731Y-51475089D01*
X79053024Y-51643044D01*
X79267578Y-52300791D01*
X79596942Y-52276065D01*
G37*
X79596942Y-52276065D02*
X79812248Y-51630656D01*
X80027555Y-50985246D01*
X80095064Y-51214262D01*
X80135691Y-51355796D01*
X80189133Y-51547064D01*
X80246842Y-51757307D01*
X80277355Y-51870082D01*
X80392136Y-52296885D01*
X80865687Y-52296885D01*
X80724139Y-51849262D01*
X80654433Y-51629097D01*
X80570223Y-51363529D01*
X80482281Y-51086508D01*
X80403772Y-50839508D01*
X80224952Y-50277377D01*
X80031882Y-50264815D01*
X79838811Y-50252254D01*
X79734118Y-50597930D01*
X79669553Y-50812665D01*
X79599092Y-51049396D01*
X79537511Y-51258474D01*
X79535081Y-51266795D01*
X79489085Y-51408463D01*
X79448503Y-51505126D01*
X79420080Y-51541679D01*
X79414239Y-51537451D01*
X79393738Y-51480783D01*
X79354785Y-51359395D01*
X79302122Y-51188552D01*
X79240491Y-50983518D01*
X79207143Y-50870738D01*
X79026546Y-50256557D01*
X78643267Y-50256557D01*
X78336867Y-51224672D01*
X78250791Y-51496241D01*
X78172380Y-51742862D01*
X78105339Y-51952952D01*
X78053369Y-52114924D01*
X78020174Y-52217192D01*
X78010084Y-52247072D01*
X78018072Y-52277666D01*
X78080792Y-52291065D01*
X78211315Y-52289725D01*
X78231747Y-52288712D01*
X78473792Y-52276065D01*
X78632317Y-51693115D01*
X78690585Y-51480514D01*
X78742655Y-51293623D01*
X78783944Y-51148669D01*
X78809866Y-51061880D01*
X78814656Y-51047731D01*
X78834504Y-51064002D01*
X78874530Y-51148303D01*
X78930138Y-51289158D01*
X78996731Y-51475089D01*
X79053024Y-51643044D01*
X79267578Y-52300791D01*
X79596942Y-52276065D01*
G36*
X81938670Y-52284520D02*
G01*
X82114179Y-52241891D01*
X82164912Y-52219307D01*
X82263254Y-52160153D01*
X82338727Y-52093528D01*
X82394571Y-52007865D01*
X82434026Y-51891595D01*
X82460332Y-51733152D01*
X82476729Y-51520966D01*
X82486457Y-51243471D01*
X82490151Y-51058115D01*
X82503745Y-50256557D01*
X82271544Y-50256557D01*
X82130677Y-50262464D01*
X82058102Y-50282650D01*
X82039344Y-50316547D01*
X82029441Y-50353201D01*
X81985166Y-50346193D01*
X81924836Y-50316803D01*
X81773803Y-50271754D01*
X81579693Y-50259615D01*
X81375531Y-50279471D01*
X81194340Y-50330408D01*
X81178089Y-50337478D01*
X81012491Y-50453812D01*
X80903324Y-50615533D01*
X80853091Y-50804570D01*
X80856928Y-50872485D01*
X81266763Y-50872485D01*
X81302875Y-50781086D01*
X81409942Y-50715589D01*
X81582684Y-50680437D01*
X81675000Y-50675769D01*
X81828850Y-50687718D01*
X81931115Y-50734156D01*
X81956066Y-50756229D01*
X82023661Y-50876319D01*
X82039344Y-50985246D01*
X82039344Y-51130983D01*
X81836352Y-51130983D01*
X81600387Y-51118957D01*
X81434881Y-51081129D01*
X81330305Y-51014879D01*
X81306891Y-50985344D01*
X81266763Y-50872485D01*
X80856928Y-50872485D01*
X80864295Y-51002852D01*
X80939440Y-51192308D01*
X81041968Y-51320344D01*
X81104065Y-51375698D01*
X81164855Y-51412076D01*
X81243952Y-51434256D01*
X81360971Y-51447018D01*
X81535527Y-51455143D01*
X81604763Y-51457479D01*
X82039344Y-51471679D01*
X82038707Y-51603216D01*
X82021876Y-51741481D01*
X81961026Y-51825083D01*
X81838095Y-51878493D01*
X81834797Y-51879445D01*
X81660504Y-51900445D01*
X81489952Y-51873015D01*
X81363200Y-51806311D01*
X81312342Y-51773375D01*
X81257565Y-51777932D01*
X81173272Y-51825651D01*
X81123773Y-51859329D01*
X81026955Y-51931284D01*
X80966982Y-51985221D01*
X80957359Y-52000663D01*
X80996985Y-52080576D01*
X81114064Y-52176011D01*
X81164918Y-52208211D01*
X81311113Y-52263668D01*
X81508137Y-52295087D01*
X81726989Y-52302145D01*
X81938670Y-52284520D01*
G37*
X81938670Y-52284520D02*
X82114179Y-52241891D01*
X82164912Y-52219307D01*
X82263254Y-52160153D01*
X82338727Y-52093528D01*
X82394571Y-52007865D01*
X82434026Y-51891595D01*
X82460332Y-51733152D01*
X82476729Y-51520966D01*
X82486457Y-51243471D01*
X82490151Y-51058115D01*
X82503745Y-50256557D01*
X82271544Y-50256557D01*
X82130677Y-50262464D01*
X82058102Y-50282650D01*
X82039344Y-50316547D01*
X82029441Y-50353201D01*
X81985166Y-50346193D01*
X81924836Y-50316803D01*
X81773803Y-50271754D01*
X81579693Y-50259615D01*
X81375531Y-50279471D01*
X81194340Y-50330408D01*
X81178089Y-50337478D01*
X81012491Y-50453812D01*
X80903324Y-50615533D01*
X80853091Y-50804570D01*
X80856928Y-50872485D01*
X81266763Y-50872485D01*
X81302875Y-50781086D01*
X81409942Y-50715589D01*
X81582684Y-50680437D01*
X81675000Y-50675769D01*
X81828850Y-50687718D01*
X81931115Y-50734156D01*
X81956066Y-50756229D01*
X82023661Y-50876319D01*
X82039344Y-50985246D01*
X82039344Y-51130983D01*
X81836352Y-51130983D01*
X81600387Y-51118957D01*
X81434881Y-51081129D01*
X81330305Y-51014879D01*
X81306891Y-50985344D01*
X81266763Y-50872485D01*
X80856928Y-50872485D01*
X80864295Y-51002852D01*
X80939440Y-51192308D01*
X81041968Y-51320344D01*
X81104065Y-51375698D01*
X81164855Y-51412076D01*
X81243952Y-51434256D01*
X81360971Y-51447018D01*
X81535527Y-51455143D01*
X81604763Y-51457479D01*
X82039344Y-51471679D01*
X82038707Y-51603216D01*
X82021876Y-51741481D01*
X81961026Y-51825083D01*
X81838095Y-51878493D01*
X81834797Y-51879445D01*
X81660504Y-51900445D01*
X81489952Y-51873015D01*
X81363200Y-51806311D01*
X81312342Y-51773375D01*
X81257565Y-51777932D01*
X81173272Y-51825651D01*
X81123773Y-51859329D01*
X81026955Y-51931284D01*
X80966982Y-51985221D01*
X80957359Y-52000663D01*
X80996985Y-52080576D01*
X81114064Y-52176011D01*
X81164918Y-52208211D01*
X81311113Y-52263668D01*
X81508137Y-52295087D01*
X81726989Y-52302145D01*
X81938670Y-52284520D01*
G36*
X83915107Y-52297540D02*
G01*
X84075182Y-52265983D01*
X84166312Y-52219257D01*
X84262179Y-52141630D01*
X84125787Y-51969421D01*
X84041694Y-51865133D01*
X83984592Y-51814254D01*
X83927844Y-51806481D01*
X83844811Y-51831512D01*
X83805833Y-51845673D01*
X83646926Y-51866567D01*
X83501399Y-51821780D01*
X83394560Y-51720601D01*
X83377205Y-51688341D01*
X83358303Y-51602885D01*
X83343716Y-51445394D01*
X83334126Y-51227031D01*
X83330219Y-50958962D01*
X83330164Y-50920828D01*
X83330164Y-50256557D01*
X82872131Y-50256557D01*
X82872131Y-52296885D01*
X83101148Y-52296885D01*
X83233199Y-52293437D01*
X83301992Y-52278093D01*
X83327430Y-52243352D01*
X83330164Y-52210584D01*
X83330164Y-52124283D01*
X83439878Y-52210584D01*
X83565680Y-52269462D01*
X83734681Y-52298574D01*
X83915107Y-52297540D01*
G37*
X83915107Y-52297540D02*
X84075182Y-52265983D01*
X84166312Y-52219257D01*
X84262179Y-52141630D01*
X84125787Y-51969421D01*
X84041694Y-51865133D01*
X83984592Y-51814254D01*
X83927844Y-51806481D01*
X83844811Y-51831512D01*
X83805833Y-51845673D01*
X83646926Y-51866567D01*
X83501399Y-51821780D01*
X83394560Y-51720601D01*
X83377205Y-51688341D01*
X83358303Y-51602885D01*
X83343716Y-51445394D01*
X83334126Y-51227031D01*
X83330219Y-50958962D01*
X83330164Y-50920828D01*
X83330164Y-50256557D01*
X82872131Y-50256557D01*
X82872131Y-52296885D01*
X83101148Y-52296885D01*
X83233199Y-52293437D01*
X83301992Y-52278093D01*
X83327430Y-52243352D01*
X83330164Y-52210584D01*
X83330164Y-52124283D01*
X83439878Y-52210584D01*
X83565680Y-52269462D01*
X83734681Y-52298574D01*
X83915107Y-52297540D01*
G36*
X85230842Y-52286001D02*
G01*
X85429876Y-52234254D01*
X85596561Y-52127456D01*
X85677269Y-52047674D01*
X85809568Y-51859069D01*
X85885390Y-51640280D01*
X85911438Y-51371332D01*
X85911571Y-51349590D01*
X85911803Y-51130983D01*
X84653595Y-51130983D01*
X84680415Y-51016475D01*
X84728841Y-50912768D01*
X84813596Y-50804710D01*
X84831323Y-50787459D01*
X84983680Y-50694096D01*
X85157424Y-50678262D01*
X85357411Y-50739687D01*
X85391311Y-50756229D01*
X85495288Y-50806516D01*
X85564931Y-50835166D01*
X85577083Y-50837816D01*
X85619501Y-50812087D01*
X85700399Y-50749139D01*
X85741465Y-50714741D01*
X85826560Y-50635724D01*
X85854503Y-50583549D01*
X85835110Y-50535554D01*
X85824743Y-50522430D01*
X85754531Y-50464992D01*
X85638674Y-50395187D01*
X85557869Y-50354436D01*
X85328501Y-50282638D01*
X85074564Y-50259375D01*
X84834074Y-50286941D01*
X84766721Y-50306679D01*
X84558262Y-50418388D01*
X84403746Y-50590279D01*
X84302278Y-50824021D01*
X84252965Y-51121284D01*
X84247551Y-51276721D01*
X84263359Y-51503027D01*
X84662623Y-51503027D01*
X84701240Y-51486298D01*
X84805042Y-51473171D01*
X84955956Y-51465425D01*
X85058197Y-51464098D01*
X85242101Y-51465377D01*
X85358174Y-51471362D01*
X85421852Y-51485276D01*
X85448567Y-51510345D01*
X85453770Y-51546720D01*
X85418073Y-51658771D01*
X85328196Y-51769512D01*
X85209966Y-51854511D01*
X85091690Y-51889282D01*
X84931044Y-51858437D01*
X84791978Y-51769268D01*
X84695557Y-51640737D01*
X84662623Y-51503027D01*
X84263359Y-51503027D01*
X84270572Y-51606267D01*
X84341624Y-51868825D01*
X84462210Y-52066475D01*
X84633834Y-52201298D01*
X84857998Y-52275374D01*
X84979438Y-52289640D01*
X85230842Y-52286001D01*
G37*
X85230842Y-52286001D02*
X85429876Y-52234254D01*
X85596561Y-52127456D01*
X85677269Y-52047674D01*
X85809568Y-51859069D01*
X85885390Y-51640280D01*
X85911438Y-51371332D01*
X85911571Y-51349590D01*
X85911803Y-51130983D01*
X84653595Y-51130983D01*
X84680415Y-51016475D01*
X84728841Y-50912768D01*
X84813596Y-50804710D01*
X84831323Y-50787459D01*
X84983680Y-50694096D01*
X85157424Y-50678262D01*
X85357411Y-50739687D01*
X85391311Y-50756229D01*
X85495288Y-50806516D01*
X85564931Y-50835166D01*
X85577083Y-50837816D01*
X85619501Y-50812087D01*
X85700399Y-50749139D01*
X85741465Y-50714741D01*
X85826560Y-50635724D01*
X85854503Y-50583549D01*
X85835110Y-50535554D01*
X85824743Y-50522430D01*
X85754531Y-50464992D01*
X85638674Y-50395187D01*
X85557869Y-50354436D01*
X85328501Y-50282638D01*
X85074564Y-50259375D01*
X84834074Y-50286941D01*
X84766721Y-50306679D01*
X84558262Y-50418388D01*
X84403746Y-50590279D01*
X84302278Y-50824021D01*
X84252965Y-51121284D01*
X84247551Y-51276721D01*
X84263359Y-51503027D01*
X84662623Y-51503027D01*
X84701240Y-51486298D01*
X84805042Y-51473171D01*
X84955956Y-51465425D01*
X85058197Y-51464098D01*
X85242101Y-51465377D01*
X85358174Y-51471362D01*
X85421852Y-51485276D01*
X85448567Y-51510345D01*
X85453770Y-51546720D01*
X85418073Y-51658771D01*
X85328196Y-51769512D01*
X85209966Y-51854511D01*
X85091690Y-51889282D01*
X84931044Y-51858437D01*
X84791978Y-51769268D01*
X84695557Y-51640737D01*
X84662623Y-51503027D01*
X84263359Y-51503027D01*
X84270572Y-51606267D01*
X84341624Y-51868825D01*
X84462210Y-52066475D01*
X84633834Y-52201298D01*
X84857998Y-52275374D01*
X84979438Y-52289640D01*
X85230842Y-52286001D01*
G36*
X70094610Y-55398198D02*
G01*
X70312447Y-55301892D01*
X70477816Y-55141081D01*
X70590957Y-54915518D01*
X70652112Y-54624958D01*
X70656495Y-54579592D01*
X70659930Y-54259744D01*
X70615398Y-53979386D01*
X70525609Y-53752153D01*
X70477529Y-53679059D01*
X70310055Y-53524357D01*
X70096768Y-53424162D01*
X69858154Y-53382582D01*
X69614697Y-53403728D01*
X69429630Y-53468855D01*
X69270479Y-53578607D01*
X69140404Y-53722504D01*
X69138154Y-53725870D01*
X69085330Y-53814686D01*
X69051001Y-53903995D01*
X69030212Y-54016706D01*
X69018009Y-54175727D01*
X69012633Y-54306132D01*
X69010395Y-54424389D01*
X69426706Y-54424389D01*
X69430775Y-54306665D01*
X69445545Y-54149951D01*
X69471602Y-54049379D01*
X69518593Y-53977827D01*
X69562603Y-53936029D01*
X69718623Y-53848516D01*
X69881869Y-53836821D01*
X70033904Y-53899788D01*
X70109920Y-53970347D01*
X70164697Y-54041450D01*
X70196737Y-54109488D01*
X70210800Y-54198033D01*
X70211642Y-54330661D01*
X70207309Y-54452805D01*
X70197989Y-54627290D01*
X70183212Y-54740462D01*
X70156580Y-54814279D01*
X70111691Y-54870702D01*
X70076120Y-54902950D01*
X69927329Y-54987660D01*
X69766813Y-54991883D01*
X69632220Y-54941708D01*
X69517400Y-54836925D01*
X69448996Y-54664802D01*
X69426706Y-54424389D01*
X69010395Y-54424389D01*
X69007724Y-54565452D01*
X69016107Y-54759390D01*
X69041228Y-54905255D01*
X69086532Y-55020359D01*
X69155464Y-55122014D01*
X69181022Y-55152198D01*
X69340825Y-55302588D01*
X69512231Y-55390434D01*
X69721849Y-55427238D01*
X69824064Y-55430246D01*
X70094610Y-55398198D01*
G37*
X70094610Y-55398198D02*
X70312447Y-55301892D01*
X70477816Y-55141081D01*
X70590957Y-54915518D01*
X70652112Y-54624958D01*
X70656495Y-54579592D01*
X70659930Y-54259744D01*
X70615398Y-53979386D01*
X70525609Y-53752153D01*
X70477529Y-53679059D01*
X70310055Y-53524357D01*
X70096768Y-53424162D01*
X69858154Y-53382582D01*
X69614697Y-53403728D01*
X69429630Y-53468855D01*
X69270479Y-53578607D01*
X69140404Y-53722504D01*
X69138154Y-53725870D01*
X69085330Y-53814686D01*
X69051001Y-53903995D01*
X69030212Y-54016706D01*
X69018009Y-54175727D01*
X69012633Y-54306132D01*
X69010395Y-54424389D01*
X69426706Y-54424389D01*
X69430775Y-54306665D01*
X69445545Y-54149951D01*
X69471602Y-54049379D01*
X69518593Y-53977827D01*
X69562603Y-53936029D01*
X69718623Y-53848516D01*
X69881869Y-53836821D01*
X70033904Y-53899788D01*
X70109920Y-53970347D01*
X70164697Y-54041450D01*
X70196737Y-54109488D01*
X70210800Y-54198033D01*
X70211642Y-54330661D01*
X70207309Y-54452805D01*
X70197989Y-54627290D01*
X70183212Y-54740462D01*
X70156580Y-54814279D01*
X70111691Y-54870702D01*
X70076120Y-54902950D01*
X69927329Y-54987660D01*
X69766813Y-54991883D01*
X69632220Y-54941708D01*
X69517400Y-54836925D01*
X69448996Y-54664802D01*
X69426706Y-54424389D01*
X69010395Y-54424389D01*
X69007724Y-54565452D01*
X69016107Y-54759390D01*
X69041228Y-54905255D01*
X69086532Y-55020359D01*
X69155464Y-55122014D01*
X69181022Y-55152198D01*
X69340825Y-55302588D01*
X69512231Y-55390434D01*
X69721849Y-55427238D01*
X69824064Y-55430246D01*
X70094610Y-55398198D01*
G36*
X74007325Y-55373474D02*
G01*
X74048819Y-55353939D01*
X74192434Y-55248737D01*
X74328236Y-55095207D01*
X74429638Y-54926155D01*
X74458480Y-54848433D01*
X74484794Y-54709602D01*
X74500485Y-54541823D01*
X74502391Y-54472541D01*
X74502623Y-54253934D01*
X73244415Y-54253934D01*
X73271234Y-54139426D01*
X73337066Y-54003996D01*
X73452161Y-53886954D01*
X73589087Y-53811558D01*
X73676342Y-53795902D01*
X73794672Y-53814901D01*
X73935851Y-53862554D01*
X73983811Y-53884479D01*
X74161171Y-53973056D01*
X74312530Y-53857609D01*
X74399869Y-53779526D01*
X74446342Y-53715078D01*
X74448695Y-53696163D01*
X74407178Y-53650319D01*
X74316190Y-53580651D01*
X74233605Y-53526300D01*
X74010751Y-53428595D01*
X73760913Y-53384372D01*
X73513290Y-53395870D01*
X73315902Y-53455971D01*
X73112424Y-53584716D01*
X72967821Y-53754226D01*
X72877361Y-53973538D01*
X72836311Y-54251691D01*
X72832671Y-54378966D01*
X72847239Y-54670625D01*
X72849028Y-54679109D01*
X73265941Y-54679109D01*
X73277423Y-54651758D01*
X73324616Y-54636676D01*
X73421951Y-54630212D01*
X73583864Y-54628715D01*
X73646210Y-54628688D01*
X73835897Y-54630948D01*
X73956189Y-54639156D01*
X74020884Y-54655450D01*
X74043780Y-54681973D01*
X74044590Y-54690490D01*
X74018460Y-54758175D01*
X73953063Y-54852995D01*
X73924948Y-54886195D01*
X73820574Y-54980094D01*
X73711775Y-55017012D01*
X73653157Y-55020098D01*
X73494574Y-54981507D01*
X73361587Y-54877845D01*
X73277228Y-54727283D01*
X73275733Y-54722377D01*
X73265941Y-54679109D01*
X72849028Y-54679109D01*
X72895684Y-54900278D01*
X72982955Y-55084017D01*
X73089689Y-55214443D01*
X73287020Y-55355869D01*
X73518985Y-55431444D01*
X73765712Y-55438276D01*
X74007325Y-55373474D01*
G37*
X74007325Y-55373474D02*
X74048819Y-55353939D01*
X74192434Y-55248737D01*
X74328236Y-55095207D01*
X74429638Y-54926155D01*
X74458480Y-54848433D01*
X74484794Y-54709602D01*
X74500485Y-54541823D01*
X74502391Y-54472541D01*
X74502623Y-54253934D01*
X73244415Y-54253934D01*
X73271234Y-54139426D01*
X73337066Y-54003996D01*
X73452161Y-53886954D01*
X73589087Y-53811558D01*
X73676342Y-53795902D01*
X73794672Y-53814901D01*
X73935851Y-53862554D01*
X73983811Y-53884479D01*
X74161171Y-53973056D01*
X74312530Y-53857609D01*
X74399869Y-53779526D01*
X74446342Y-53715078D01*
X74448695Y-53696163D01*
X74407178Y-53650319D01*
X74316190Y-53580651D01*
X74233605Y-53526300D01*
X74010751Y-53428595D01*
X73760913Y-53384372D01*
X73513290Y-53395870D01*
X73315902Y-53455971D01*
X73112424Y-53584716D01*
X72967821Y-53754226D01*
X72877361Y-53973538D01*
X72836311Y-54251691D01*
X72832671Y-54378966D01*
X72847239Y-54670625D01*
X72849028Y-54679109D01*
X73265941Y-54679109D01*
X73277423Y-54651758D01*
X73324616Y-54636676D01*
X73421951Y-54630212D01*
X73583864Y-54628715D01*
X73646210Y-54628688D01*
X73835897Y-54630948D01*
X73956189Y-54639156D01*
X74020884Y-54655450D01*
X74043780Y-54681973D01*
X74044590Y-54690490D01*
X74018460Y-54758175D01*
X73953063Y-54852995D01*
X73924948Y-54886195D01*
X73820574Y-54980094D01*
X73711775Y-55017012D01*
X73653157Y-55020098D01*
X73494574Y-54981507D01*
X73361587Y-54877845D01*
X73277228Y-54727283D01*
X73275733Y-54722377D01*
X73265941Y-54679109D01*
X72849028Y-54679109D01*
X72895684Y-54900278D01*
X72982955Y-55084017D01*
X73089689Y-55214443D01*
X73287020Y-55355869D01*
X73518985Y-55431444D01*
X73765712Y-55438276D01*
X74007325Y-55373474D01*
G36*
X78546418Y-55426997D02*
G01*
X78704100Y-55397093D01*
X78867685Y-55334548D01*
X78885164Y-55326574D01*
X79009217Y-55261344D01*
X79095129Y-55200726D01*
X79122898Y-55161894D01*
X79096453Y-55098563D01*
X79032220Y-55005119D01*
X79003708Y-54970238D01*
X78886211Y-54832934D01*
X78734732Y-54922309D01*
X78590570Y-54981848D01*
X78424000Y-55013674D01*
X78264262Y-55015684D01*
X78140594Y-54985779D01*
X78110916Y-54967114D01*
X78054398Y-54881534D01*
X78047529Y-54782951D01*
X78089820Y-54705938D01*
X78114836Y-54691002D01*
X78189796Y-54672453D01*
X78321561Y-54650652D01*
X78483991Y-54629820D01*
X78513956Y-54626553D01*
X78774840Y-54581425D01*
X78964055Y-54504770D01*
X79089543Y-54389509D01*
X79159243Y-54228565D01*
X79180956Y-54031985D01*
X79150961Y-53808527D01*
X79053559Y-53633051D01*
X78888361Y-53505242D01*
X78654977Y-53424782D01*
X78395902Y-53393038D01*
X78184633Y-53393420D01*
X78013265Y-53422251D01*
X77896230Y-53462056D01*
X77748350Y-53531413D01*
X77611687Y-53611903D01*
X77563115Y-53647330D01*
X77438197Y-53749295D01*
X77739509Y-54054187D01*
X77910796Y-53940835D01*
X78082594Y-53855700D01*
X78266048Y-53811170D01*
X78442397Y-53806472D01*
X78592881Y-53840830D01*
X78698740Y-53913471D01*
X78732921Y-53974762D01*
X78727794Y-54073059D01*
X78642857Y-54148227D01*
X78478343Y-54200134D01*
X78298101Y-54224125D01*
X78020709Y-54269896D01*
X77814635Y-54356252D01*
X77677122Y-54485720D01*
X77605413Y-54660828D01*
X77595479Y-54868435D01*
X77644548Y-55085286D01*
X77756420Y-55249195D01*
X77932097Y-55360912D01*
X78172581Y-55421186D01*
X78350743Y-55433001D01*
X78546418Y-55426997D01*
G37*
X78546418Y-55426997D02*
X78704100Y-55397093D01*
X78867685Y-55334548D01*
X78885164Y-55326574D01*
X79009217Y-55261344D01*
X79095129Y-55200726D01*
X79122898Y-55161894D01*
X79096453Y-55098563D01*
X79032220Y-55005119D01*
X79003708Y-54970238D01*
X78886211Y-54832934D01*
X78734732Y-54922309D01*
X78590570Y-54981848D01*
X78424000Y-55013674D01*
X78264262Y-55015684D01*
X78140594Y-54985779D01*
X78110916Y-54967114D01*
X78054398Y-54881534D01*
X78047529Y-54782951D01*
X78089820Y-54705938D01*
X78114836Y-54691002D01*
X78189796Y-54672453D01*
X78321561Y-54650652D01*
X78483991Y-54629820D01*
X78513956Y-54626553D01*
X78774840Y-54581425D01*
X78964055Y-54504770D01*
X79089543Y-54389509D01*
X79159243Y-54228565D01*
X79180956Y-54031985D01*
X79150961Y-53808527D01*
X79053559Y-53633051D01*
X78888361Y-53505242D01*
X78654977Y-53424782D01*
X78395902Y-53393038D01*
X78184633Y-53393420D01*
X78013265Y-53422251D01*
X77896230Y-53462056D01*
X77748350Y-53531413D01*
X77611687Y-53611903D01*
X77563115Y-53647330D01*
X77438197Y-53749295D01*
X77739509Y-54054187D01*
X77910796Y-53940835D01*
X78082594Y-53855700D01*
X78266048Y-53811170D01*
X78442397Y-53806472D01*
X78592881Y-53840830D01*
X78698740Y-53913471D01*
X78732921Y-53974762D01*
X78727794Y-54073059D01*
X78642857Y-54148227D01*
X78478343Y-54200134D01*
X78298101Y-54224125D01*
X78020709Y-54269896D01*
X77814635Y-54356252D01*
X77677122Y-54485720D01*
X77605413Y-54660828D01*
X77595479Y-54868435D01*
X77644548Y-55085286D01*
X77756420Y-55249195D01*
X77932097Y-55360912D01*
X78172581Y-55421186D01*
X78350743Y-55433001D01*
X78546418Y-55426997D01*
G36*
X80522521Y-55395195D02*
G01*
X80733136Y-55280495D01*
X80897915Y-55099426D01*
X80975554Y-54952162D01*
X81008886Y-54822093D01*
X81030483Y-54636667D01*
X81039739Y-54423061D01*
X81036045Y-54208450D01*
X81018794Y-54020009D01*
X80998643Y-53919363D01*
X80930667Y-53781677D01*
X80812942Y-53635434D01*
X80671065Y-53507548D01*
X80530632Y-53424937D01*
X80527207Y-53423627D01*
X80352945Y-53387528D01*
X80146427Y-53386635D01*
X79950174Y-53419499D01*
X79874396Y-53445839D01*
X79679221Y-53556516D01*
X79539438Y-53701522D01*
X79447599Y-53893497D01*
X79396254Y-54145080D01*
X79384637Y-54276858D01*
X79386119Y-54442447D01*
X79832459Y-54442447D01*
X79847494Y-54200823D01*
X79890772Y-54016697D01*
X79959551Y-53899051D01*
X80008550Y-53865410D01*
X80134093Y-53841950D01*
X80283318Y-53848896D01*
X80412333Y-53882655D01*
X80446166Y-53901228D01*
X80535428Y-54009401D01*
X80594345Y-54174949D01*
X80619424Y-54376419D01*
X80607174Y-54592354D01*
X80579796Y-54722310D01*
X80501191Y-54872809D01*
X80377104Y-54966886D01*
X80227661Y-54999413D01*
X80072987Y-54965262D01*
X79954174Y-54881727D01*
X79891735Y-54812807D01*
X79855293Y-54744874D01*
X79837923Y-54652936D01*
X79832699Y-54512001D01*
X79832459Y-54442447D01*
X79386119Y-54442447D01*
X79387785Y-54628505D01*
X79445056Y-54916866D01*
X79556457Y-55141951D01*
X79721993Y-55303770D01*
X79941670Y-55402334D01*
X79988842Y-55413764D01*
X80272336Y-55440594D01*
X80522521Y-55395195D01*
G37*
X80522521Y-55395195D02*
X80733136Y-55280495D01*
X80897915Y-55099426D01*
X80975554Y-54952162D01*
X81008886Y-54822093D01*
X81030483Y-54636667D01*
X81039739Y-54423061D01*
X81036045Y-54208450D01*
X81018794Y-54020009D01*
X80998643Y-53919363D01*
X80930667Y-53781677D01*
X80812942Y-53635434D01*
X80671065Y-53507548D01*
X80530632Y-53424937D01*
X80527207Y-53423627D01*
X80352945Y-53387528D01*
X80146427Y-53386635D01*
X79950174Y-53419499D01*
X79874396Y-53445839D01*
X79679221Y-53556516D01*
X79539438Y-53701522D01*
X79447599Y-53893497D01*
X79396254Y-54145080D01*
X79384637Y-54276858D01*
X79386119Y-54442447D01*
X79832459Y-54442447D01*
X79847494Y-54200823D01*
X79890772Y-54016697D01*
X79959551Y-53899051D01*
X80008550Y-53865410D01*
X80134093Y-53841950D01*
X80283318Y-53848896D01*
X80412333Y-53882655D01*
X80446166Y-53901228D01*
X80535428Y-54009401D01*
X80594345Y-54174949D01*
X80619424Y-54376419D01*
X80607174Y-54592354D01*
X80579796Y-54722310D01*
X80501191Y-54872809D01*
X80377104Y-54966886D01*
X80227661Y-54999413D01*
X80072987Y-54965262D01*
X79954174Y-54881727D01*
X79891735Y-54812807D01*
X79855293Y-54744874D01*
X79837923Y-54652936D01*
X79832699Y-54512001D01*
X79832459Y-54442447D01*
X79386119Y-54442447D01*
X79387785Y-54628505D01*
X79445056Y-54916866D01*
X79556457Y-55141951D01*
X79721993Y-55303770D01*
X79941670Y-55402334D01*
X79988842Y-55413764D01*
X80272336Y-55440594D01*
X80522521Y-55395195D01*
G36*
X81789508Y-54771689D02*
G01*
X81793444Y-54466302D01*
X81807823Y-54234340D01*
X81836504Y-54066214D01*
X81883348Y-53952329D01*
X81952211Y-53883095D01*
X82046954Y-53848920D01*
X82164262Y-53840189D01*
X82287123Y-53849972D01*
X82380444Y-53885713D01*
X82448084Y-53957005D01*
X82493901Y-54073439D01*
X82521755Y-54244609D01*
X82535504Y-54480104D01*
X82539016Y-54771689D01*
X82539016Y-55419836D01*
X82997049Y-55419836D01*
X82997049Y-53421147D01*
X82768033Y-53421147D01*
X82629971Y-53426742D01*
X82558878Y-53446389D01*
X82539016Y-53483687D01*
X82527054Y-53516906D01*
X82479447Y-53509879D01*
X82383485Y-53462868D01*
X82163548Y-53390346D01*
X81930274Y-53395484D01*
X81706755Y-53474234D01*
X81600313Y-53536442D01*
X81519122Y-53603796D01*
X81459808Y-53688072D01*
X81418996Y-53801043D01*
X81393312Y-53954485D01*
X81379381Y-54160173D01*
X81373829Y-54429882D01*
X81373115Y-54638449D01*
X81373115Y-55419836D01*
X81789508Y-55419836D01*
X81789508Y-54771689D01*
G37*
X81789508Y-54771689D02*
X81793444Y-54466302D01*
X81807823Y-54234340D01*
X81836504Y-54066214D01*
X81883348Y-53952329D01*
X81952211Y-53883095D01*
X82046954Y-53848920D01*
X82164262Y-53840189D01*
X82287123Y-53849972D01*
X82380444Y-53885713D01*
X82448084Y-53957005D01*
X82493901Y-54073439D01*
X82521755Y-54244609D01*
X82535504Y-54480104D01*
X82539016Y-54771689D01*
X82539016Y-55419836D01*
X82997049Y-55419836D01*
X82997049Y-53421147D01*
X82768033Y-53421147D01*
X82629971Y-53426742D01*
X82558878Y-53446389D01*
X82539016Y-53483687D01*
X82527054Y-53516906D01*
X82479447Y-53509879D01*
X82383485Y-53462868D01*
X82163548Y-53390346D01*
X81930274Y-53395484D01*
X81706755Y-53474234D01*
X81600313Y-53536442D01*
X81519122Y-53603796D01*
X81459808Y-53688072D01*
X81418996Y-53801043D01*
X81393312Y-53954485D01*
X81379381Y-54160173D01*
X81373829Y-54429882D01*
X81373115Y-54638449D01*
X81373115Y-55419836D01*
X81789508Y-55419836D01*
X81789508Y-54771689D01*
G36*
X85842288Y-55402398D02*
G01*
X86083543Y-55299910D01*
X86159531Y-55250019D01*
X86256648Y-55173349D01*
X86317612Y-55113064D01*
X86328197Y-55093429D01*
X86298308Y-55049858D01*
X86221819Y-54975923D01*
X86160582Y-54924321D01*
X85992967Y-54789622D01*
X85860614Y-54900990D01*
X85758336Y-54972887D01*
X85658610Y-54997704D01*
X85544475Y-54991643D01*
X85363234Y-54946582D01*
X85238475Y-54853051D01*
X85162658Y-54701846D01*
X85128240Y-54483764D01*
X85128231Y-54483627D01*
X85131208Y-54239876D01*
X85177467Y-54061034D01*
X85269742Y-53939270D01*
X85332650Y-53898036D01*
X85499717Y-53846689D01*
X85678162Y-53846658D01*
X85833415Y-53896478D01*
X85870164Y-53920820D01*
X85962330Y-53982996D01*
X86034387Y-53993187D01*
X86112102Y-53946908D01*
X86198018Y-53863788D01*
X86334011Y-53723479D01*
X86183023Y-53599022D01*
X85949740Y-53458557D01*
X85686673Y-53389334D01*
X85411760Y-53394347D01*
X85231216Y-53440245D01*
X85020194Y-53553751D01*
X84851426Y-53732315D01*
X84774753Y-53858361D01*
X84712654Y-54039209D01*
X84681581Y-54268255D01*
X84681342Y-54516490D01*
X84711743Y-54754907D01*
X84772592Y-54954497D01*
X84782176Y-54974961D01*
X84924102Y-55175659D01*
X85116259Y-55321783D01*
X85343464Y-55410302D01*
X85590535Y-55438185D01*
X85842288Y-55402398D01*
G37*
X85842288Y-55402398D02*
X86083543Y-55299910D01*
X86159531Y-55250019D01*
X86256648Y-55173349D01*
X86317612Y-55113064D01*
X86328197Y-55093429D01*
X86298308Y-55049858D01*
X86221819Y-54975923D01*
X86160582Y-54924321D01*
X85992967Y-54789622D01*
X85860614Y-54900990D01*
X85758336Y-54972887D01*
X85658610Y-54997704D01*
X85544475Y-54991643D01*
X85363234Y-54946582D01*
X85238475Y-54853051D01*
X85162658Y-54701846D01*
X85128240Y-54483764D01*
X85128231Y-54483627D01*
X85131208Y-54239876D01*
X85177467Y-54061034D01*
X85269742Y-53939270D01*
X85332650Y-53898036D01*
X85499717Y-53846689D01*
X85678162Y-53846658D01*
X85833415Y-53896478D01*
X85870164Y-53920820D01*
X85962330Y-53982996D01*
X86034387Y-53993187D01*
X86112102Y-53946908D01*
X86198018Y-53863788D01*
X86334011Y-53723479D01*
X86183023Y-53599022D01*
X85949740Y-53458557D01*
X85686673Y-53389334D01*
X85411760Y-53394347D01*
X85231216Y-53440245D01*
X85020194Y-53553751D01*
X84851426Y-53732315D01*
X84774753Y-53858361D01*
X84712654Y-54039209D01*
X84681581Y-54268255D01*
X84681342Y-54516490D01*
X84711743Y-54754907D01*
X84772592Y-54954497D01*
X84782176Y-54974961D01*
X84924102Y-55175659D01*
X85116259Y-55321783D01*
X85343464Y-55410302D01*
X85590535Y-55438185D01*
X85842288Y-55402398D01*
G36*
X87367792Y-55426981D02*
G01*
X87474414Y-55401078D01*
X87678830Y-55306228D01*
X87853625Y-55161367D01*
X87974597Y-54987680D01*
X87991217Y-54948683D01*
X88014016Y-54846535D01*
X88029975Y-54695427D01*
X88035410Y-54542699D01*
X88035410Y-54253934D01*
X87431639Y-54253934D01*
X87182619Y-54252993D01*
X87007189Y-54247277D01*
X86895665Y-54232450D01*
X86838360Y-54204173D01*
X86825588Y-54158110D01*
X86847662Y-54089923D01*
X86887205Y-54010137D01*
X86997509Y-53876983D01*
X87150792Y-53810645D01*
X87338141Y-53812806D01*
X87550363Y-53885009D01*
X87733773Y-53974117D01*
X87885962Y-53853780D01*
X88038151Y-53733442D01*
X87894974Y-53601157D01*
X87703828Y-53476168D01*
X87468753Y-53400811D01*
X87215898Y-53379722D01*
X86971413Y-53417540D01*
X86931967Y-53430372D01*
X86717090Y-53542586D01*
X86557250Y-53709882D01*
X86449080Y-53937252D01*
X86389210Y-54229692D01*
X86388513Y-54235960D01*
X86383152Y-54554668D01*
X86404823Y-54668368D01*
X86827869Y-54668368D01*
X86866722Y-54650884D01*
X86972205Y-54637492D01*
X87127707Y-54629845D01*
X87226249Y-54628688D01*
X87410013Y-54629412D01*
X87524914Y-54634017D01*
X87585366Y-54646152D01*
X87605783Y-54669470D01*
X87600581Y-54707618D01*
X87596217Y-54722377D01*
X87521724Y-54861056D01*
X87404566Y-54972821D01*
X87301173Y-55021934D01*
X87163816Y-55018968D01*
X87024629Y-54957722D01*
X86907874Y-54856317D01*
X86837810Y-54732878D01*
X86827869Y-54668368D01*
X86404823Y-54668368D01*
X86436579Y-54834980D01*
X86542572Y-55070220D01*
X86694911Y-55253716D01*
X86887374Y-55378791D01*
X87113742Y-55438771D01*
X87367792Y-55426981D01*
G37*
X87367792Y-55426981D02*
X87474414Y-55401078D01*
X87678830Y-55306228D01*
X87853625Y-55161367D01*
X87974597Y-54987680D01*
X87991217Y-54948683D01*
X88014016Y-54846535D01*
X88029975Y-54695427D01*
X88035410Y-54542699D01*
X88035410Y-54253934D01*
X87431639Y-54253934D01*
X87182619Y-54252993D01*
X87007189Y-54247277D01*
X86895665Y-54232450D01*
X86838360Y-54204173D01*
X86825588Y-54158110D01*
X86847662Y-54089923D01*
X86887205Y-54010137D01*
X86997509Y-53876983D01*
X87150792Y-53810645D01*
X87338141Y-53812806D01*
X87550363Y-53885009D01*
X87733773Y-53974117D01*
X87885962Y-53853780D01*
X88038151Y-53733442D01*
X87894974Y-53601157D01*
X87703828Y-53476168D01*
X87468753Y-53400811D01*
X87215898Y-53379722D01*
X86971413Y-53417540D01*
X86931967Y-53430372D01*
X86717090Y-53542586D01*
X86557250Y-53709882D01*
X86449080Y-53937252D01*
X86389210Y-54229692D01*
X86388513Y-54235960D01*
X86383152Y-54554668D01*
X86404823Y-54668368D01*
X86827869Y-54668368D01*
X86866722Y-54650884D01*
X86972205Y-54637492D01*
X87127707Y-54629845D01*
X87226249Y-54628688D01*
X87410013Y-54629412D01*
X87524914Y-54634017D01*
X87585366Y-54646152D01*
X87605783Y-54669470D01*
X87600581Y-54707618D01*
X87596217Y-54722377D01*
X87521724Y-54861056D01*
X87404566Y-54972821D01*
X87301173Y-55021934D01*
X87163816Y-55018968D01*
X87024629Y-54957722D01*
X86907874Y-54856317D01*
X86837810Y-54732878D01*
X86827869Y-54668368D01*
X86404823Y-54668368D01*
X86436579Y-54834980D01*
X86542572Y-55070220D01*
X86694911Y-55253716D01*
X86887374Y-55378791D01*
X87113742Y-55438771D01*
X87367792Y-55426981D01*
G36*
X76003108Y-55385437D02*
G01*
X76106740Y-55335938D01*
X76207106Y-55264439D01*
X76283568Y-55182147D01*
X76339262Y-55077189D01*
X76377323Y-54937687D01*
X76400885Y-54751767D01*
X76413085Y-54507552D01*
X76417056Y-54193167D01*
X76417118Y-54160246D01*
X76418033Y-53421147D01*
X75960000Y-53421147D01*
X75960000Y-54102519D01*
X75959674Y-54354950D01*
X75957419Y-54537907D01*
X75951319Y-54665193D01*
X75939459Y-54750614D01*
X75919924Y-54807974D01*
X75890797Y-54851076D01*
X75850224Y-54893666D01*
X75708269Y-54985176D01*
X75553306Y-55002157D01*
X75405677Y-54944299D01*
X75354337Y-54901237D01*
X75316647Y-54860751D01*
X75289587Y-54817393D01*
X75271397Y-54757537D01*
X75260316Y-54667559D01*
X75254586Y-54533832D01*
X75252444Y-54342730D01*
X75252131Y-54110089D01*
X75252131Y-53421147D01*
X74794098Y-53421147D01*
X74794098Y-55419836D01*
X75023115Y-55419836D01*
X75160614Y-55414398D01*
X75231553Y-55395091D01*
X75252122Y-55357424D01*
X75252131Y-55356308D01*
X75261675Y-55319419D01*
X75303767Y-55323605D01*
X75387459Y-55364139D01*
X75577273Y-55423776D01*
X75794401Y-55430409D01*
X76003108Y-55385437D01*
G37*
X76003108Y-55385437D02*
X76106740Y-55335938D01*
X76207106Y-55264439D01*
X76283568Y-55182147D01*
X76339262Y-55077189D01*
X76377323Y-54937687D01*
X76400885Y-54751767D01*
X76413085Y-54507552D01*
X76417056Y-54193167D01*
X76417118Y-54160246D01*
X76418033Y-53421147D01*
X75960000Y-53421147D01*
X75960000Y-54102519D01*
X75959674Y-54354950D01*
X75957419Y-54537907D01*
X75951319Y-54665193D01*
X75939459Y-54750614D01*
X75919924Y-54807974D01*
X75890797Y-54851076D01*
X75850224Y-54893666D01*
X75708269Y-54985176D01*
X75553306Y-55002157D01*
X75405677Y-54944299D01*
X75354337Y-54901237D01*
X75316647Y-54860751D01*
X75289587Y-54817393D01*
X75271397Y-54757537D01*
X75260316Y-54667559D01*
X75254586Y-54533832D01*
X75252444Y-54342730D01*
X75252131Y-54110089D01*
X75252131Y-53421147D01*
X74794098Y-53421147D01*
X74794098Y-55419836D01*
X75023115Y-55419836D01*
X75160614Y-55414398D01*
X75231553Y-55395091D01*
X75252122Y-55357424D01*
X75252131Y-55356308D01*
X75261675Y-55319419D01*
X75303767Y-55323605D01*
X75387459Y-55364139D01*
X75577273Y-55423776D01*
X75794401Y-55430409D01*
X76003108Y-55385437D01*
G36*
X84458869Y-55421769D02*
G01*
X84602092Y-55378011D01*
X84694306Y-55322720D01*
X84724344Y-55278996D01*
X84716076Y-55227166D01*
X84662427Y-55145741D01*
X84617063Y-55088073D01*
X84523546Y-54983818D01*
X84453287Y-54939955D01*
X84393393Y-54942818D01*
X84215720Y-54988033D01*
X84085234Y-54985980D01*
X83979273Y-54934739D01*
X83943700Y-54904748D01*
X83829836Y-54799222D01*
X83829836Y-53421147D01*
X83371803Y-53421147D01*
X83371803Y-55419836D01*
X83600820Y-55419836D01*
X83738318Y-55414398D01*
X83809258Y-55395091D01*
X83829827Y-55357424D01*
X83829836Y-55356308D01*
X83839550Y-55316854D01*
X83883478Y-55322000D01*
X83944344Y-55350464D01*
X84070054Y-55403431D01*
X84172134Y-55435297D01*
X84303480Y-55443467D01*
X84458869Y-55421769D01*
G37*
X84458869Y-55421769D02*
X84602092Y-55378011D01*
X84694306Y-55322720D01*
X84724344Y-55278996D01*
X84716076Y-55227166D01*
X84662427Y-55145741D01*
X84617063Y-55088073D01*
X84523546Y-54983818D01*
X84453287Y-54939955D01*
X84393393Y-54942818D01*
X84215720Y-54988033D01*
X84085234Y-54985980D01*
X83979273Y-54934739D01*
X83943700Y-54904748D01*
X83829836Y-54799222D01*
X83829836Y-53421147D01*
X83371803Y-53421147D01*
X83371803Y-55419836D01*
X83600820Y-55419836D01*
X83738318Y-55414398D01*
X83809258Y-55395091D01*
X83829827Y-55357424D01*
X83829836Y-55356308D01*
X83839550Y-55316854D01*
X83883478Y-55322000D01*
X83944344Y-55350464D01*
X84070054Y-55403431D01*
X84172134Y-55435297D01*
X84303480Y-55443467D01*
X84458869Y-55421769D01*
G36*
X79748305Y-69224040D02*
G01*
X79936557Y-68225458D01*
X80631183Y-67939111D01*
X81325808Y-67652763D01*
X82159128Y-68219414D01*
X82392501Y-68377189D01*
X82603457Y-68518061D01*
X82782153Y-68635599D01*
X82918744Y-68723371D01*
X83003386Y-68774945D01*
X83026437Y-68786065D01*
X83067963Y-68757465D01*
X83156698Y-68678396D01*
X83282697Y-68558959D01*
X83436014Y-68409256D01*
X83606702Y-68239385D01*
X83784814Y-68059449D01*
X83960406Y-67879546D01*
X84123530Y-67709778D01*
X84264241Y-67560246D01*
X84372592Y-67441048D01*
X84438637Y-67362287D01*
X84454426Y-67335928D01*
X84431703Y-67287334D01*
X84367999Y-67180874D01*
X84270013Y-67026961D01*
X84144441Y-66836009D01*
X83997982Y-66618431D01*
X83913115Y-66494329D01*
X83758426Y-66267721D01*
X83620970Y-66063230D01*
X83507414Y-65891035D01*
X83424428Y-65761315D01*
X83378678Y-65684249D01*
X83371803Y-65668053D01*
X83387388Y-65622025D01*
X83429868Y-65514750D01*
X83492835Y-65361313D01*
X83569879Y-65176794D01*
X83654590Y-64976279D01*
X83740558Y-64774848D01*
X83821373Y-64587585D01*
X83890627Y-64429572D01*
X83941908Y-64315893D01*
X83968809Y-64261630D01*
X83970396Y-64259494D01*
X84012635Y-64249133D01*
X84125126Y-64226018D01*
X84296209Y-64192421D01*
X84514223Y-64150615D01*
X84767509Y-64102873D01*
X84915288Y-64075341D01*
X85185938Y-64023810D01*
X85430397Y-63974775D01*
X85636300Y-63930919D01*
X85791277Y-63894926D01*
X85882962Y-63869479D01*
X85901393Y-63861405D01*
X85919445Y-63806758D01*
X85934010Y-63683338D01*
X85945098Y-63505577D01*
X85952719Y-63287909D01*
X85956884Y-63044765D01*
X85957602Y-62790577D01*
X85954882Y-62539780D01*
X85948735Y-62306804D01*
X85939171Y-62106082D01*
X85926199Y-61952046D01*
X85909829Y-61859130D01*
X85900011Y-61839787D01*
X85841323Y-61816602D01*
X85716966Y-61783456D01*
X85543390Y-61744242D01*
X85337042Y-61702855D01*
X85265011Y-61689466D01*
X84917719Y-61625853D01*
X84643383Y-61574622D01*
X84432939Y-61533739D01*
X84277322Y-61501166D01*
X84167467Y-61474868D01*
X84094311Y-61452808D01*
X84048787Y-61432951D01*
X84021833Y-61413259D01*
X84018061Y-61409368D01*
X83980415Y-61346676D01*
X83922986Y-61224669D01*
X83851508Y-61058288D01*
X83771715Y-60862471D01*
X83689343Y-60652160D01*
X83610125Y-60442292D01*
X83539796Y-60247809D01*
X83484089Y-60083650D01*
X83448741Y-59964755D01*
X83439484Y-59906064D01*
X83440256Y-59904008D01*
X83471620Y-59856036D01*
X83542774Y-59750484D01*
X83646240Y-59598340D01*
X83774540Y-59410590D01*
X83920199Y-59198220D01*
X83961680Y-59137870D01*
X84109587Y-58919071D01*
X84239739Y-58719438D01*
X84345045Y-58550435D01*
X84418416Y-58423525D01*
X84452763Y-58350171D01*
X84454426Y-58341159D01*
X84425569Y-58293793D01*
X84345831Y-58199958D01*
X84225462Y-58069739D01*
X84074713Y-57913221D01*
X83903836Y-57740490D01*
X83723079Y-57561629D01*
X83542694Y-57386724D01*
X83372932Y-57225860D01*
X83224042Y-57089122D01*
X83106276Y-56986593D01*
X83029883Y-56928360D01*
X83008750Y-56918852D01*
X82959560Y-56941246D01*
X82858847Y-57001644D01*
X82723017Y-57089871D01*
X82618510Y-57160885D01*
X82429149Y-57291189D01*
X82204899Y-57444616D01*
X81979964Y-57597799D01*
X81859032Y-57679782D01*
X81449704Y-57956647D01*
X81106102Y-57770864D01*
X80949565Y-57689477D01*
X80816454Y-57626216D01*
X80726389Y-57590135D01*
X80703463Y-57585115D01*
X80675895Y-57622183D01*
X80621508Y-57726931D01*
X80544363Y-57889697D01*
X80448518Y-58100819D01*
X80338034Y-58350635D01*
X80216971Y-58629483D01*
X80089389Y-58927701D01*
X79959347Y-59235626D01*
X79830906Y-59543596D01*
X79708126Y-59841950D01*
X79595067Y-60121025D01*
X79495788Y-60371159D01*
X79414349Y-60582690D01*
X79354811Y-60745957D01*
X79321234Y-60851295D01*
X79315834Y-60887473D01*
X79358634Y-60933619D01*
X79452344Y-61008528D01*
X79577373Y-61096636D01*
X79587867Y-61103606D01*
X79911020Y-61362279D01*
X80171587Y-61664062D01*
X80367310Y-61999305D01*
X80495932Y-62358358D01*
X80555195Y-62731574D01*
X80542839Y-63109300D01*
X80456607Y-63481889D01*
X80294241Y-63839690D01*
X80246472Y-63917973D01*
X79998009Y-64234081D01*
X79704481Y-64487921D01*
X79376047Y-64678173D01*
X79022865Y-64803515D01*
X78655095Y-64862628D01*
X78282897Y-64854193D01*
X77916429Y-64776888D01*
X77565851Y-64629394D01*
X77241323Y-64410390D01*
X77140936Y-64321502D01*
X76885449Y-64043256D01*
X76699278Y-63750344D01*
X76571570Y-63422014D01*
X76500444Y-63096867D01*
X76482886Y-62731298D01*
X76541434Y-62363914D01*
X76670142Y-62007134D01*
X76863062Y-61673374D01*
X77114248Y-61375053D01*
X77417752Y-61124589D01*
X77457640Y-61098187D01*
X77584009Y-61011728D01*
X77680073Y-60936816D01*
X77726000Y-60888985D01*
X77726668Y-60887473D01*
X77716808Y-60835733D01*
X77677722Y-60718304D01*
X77613472Y-60544846D01*
X77528120Y-60325021D01*
X77425727Y-60068487D01*
X77310354Y-59784904D01*
X77186063Y-59483933D01*
X77056916Y-59175233D01*
X76926974Y-58868464D01*
X76800298Y-58573286D01*
X76680951Y-58299360D01*
X76572994Y-58056344D01*
X76480488Y-57853899D01*
X76407496Y-57701685D01*
X76358077Y-57609362D01*
X76338177Y-57585115D01*
X76277366Y-57603996D01*
X76163582Y-57654636D01*
X76016445Y-57727983D01*
X75935538Y-57770864D01*
X75591935Y-57956647D01*
X75182607Y-57679782D01*
X74973654Y-57537946D01*
X74744887Y-57381859D01*
X74530509Y-57234891D01*
X74423129Y-57160885D01*
X74272102Y-57059469D01*
X74144218Y-56979102D01*
X74056158Y-56929959D01*
X74027555Y-56919571D01*
X73985924Y-56947595D01*
X73893789Y-57025828D01*
X73760082Y-57146148D01*
X73593735Y-57300432D01*
X73403680Y-57480557D01*
X73283479Y-57596210D01*
X73073185Y-57802833D01*
X72891444Y-57987642D01*
X72745603Y-58142730D01*
X72643009Y-58260193D01*
X72591009Y-58332125D01*
X72586020Y-58346722D01*
X72609171Y-58402247D01*
X72673146Y-58514516D01*
X72770847Y-58672163D01*
X72895180Y-58863821D01*
X73039046Y-59078124D01*
X73079959Y-59137870D01*
X73229033Y-59355018D01*
X73362775Y-59550525D01*
X73473709Y-59713401D01*
X73554356Y-59832663D01*
X73597241Y-59897322D01*
X73601383Y-59904008D01*
X73595188Y-59955538D01*
X73562300Y-60068834D01*
X73508455Y-60228958D01*
X73439387Y-60420968D01*
X73360831Y-60629926D01*
X73278520Y-60840891D01*
X73198189Y-61038924D01*
X73125572Y-61209084D01*
X73066405Y-61336433D01*
X73026420Y-61406029D01*
X73023578Y-61409368D01*
X72999127Y-61429258D01*
X72957831Y-61448927D01*
X72890623Y-61470411D01*
X72788441Y-61495747D01*
X72642219Y-61526971D01*
X72442893Y-61566118D01*
X72181397Y-61615225D01*
X71848669Y-61676328D01*
X71776628Y-61689466D01*
X71563115Y-61730718D01*
X71376978Y-61771074D01*
X71234666Y-61806639D01*
X71152629Y-61833520D01*
X71141628Y-61839787D01*
X71123502Y-61895346D01*
X71108767Y-62019505D01*
X71097436Y-62197831D01*
X71089516Y-62415891D01*
X71085019Y-62659254D01*
X71083954Y-62913486D01*
X71086330Y-63164155D01*
X71092159Y-63396829D01*
X71101449Y-63597076D01*
X71114211Y-63750462D01*
X71130454Y-63842556D01*
X71140246Y-63861405D01*
X71194761Y-63880418D01*
X71318896Y-63911350D01*
X71500285Y-63951518D01*
X71726560Y-63998238D01*
X71985353Y-64048827D01*
X72126351Y-64075341D01*
X72393873Y-64125350D01*
X72632438Y-64170654D01*
X72830386Y-64208979D01*
X72976057Y-64238053D01*
X73057791Y-64255603D01*
X73071243Y-64259494D01*
X73093979Y-64303362D01*
X73142040Y-64409024D01*
X73209019Y-64561387D01*
X73288510Y-64745354D01*
X73374108Y-64945830D01*
X73459405Y-65147719D01*
X73537995Y-65335927D01*
X73603473Y-65495358D01*
X73649431Y-65610916D01*
X73669463Y-65667506D01*
X73669836Y-65669979D01*
X73647126Y-65714621D01*
X73583459Y-65817353D01*
X73485525Y-65967963D01*
X73360017Y-66156243D01*
X73213626Y-66371982D01*
X73128525Y-66495902D01*
X72973455Y-66723117D01*
X72835725Y-66929405D01*
X72722053Y-67104329D01*
X72639161Y-67237455D01*
X72593769Y-67318347D01*
X72587213Y-67336480D01*
X72615395Y-67378688D01*
X72693304Y-67468809D01*
X72810990Y-67596746D01*
X72958500Y-67752404D01*
X73125881Y-67925685D01*
X73303181Y-68106493D01*
X73480448Y-68284733D01*
X73647730Y-68450307D01*
X73795075Y-68593120D01*
X73912530Y-68703075D01*
X73990143Y-68770076D01*
X74016108Y-68786065D01*
X74058384Y-68763581D01*
X74159501Y-68700415D01*
X74309627Y-68602997D01*
X74498930Y-68477757D01*
X74717579Y-68331125D01*
X74882511Y-68219414D01*
X75715831Y-67652763D01*
X76410456Y-67939111D01*
X77105082Y-68225458D01*
X77293334Y-69224040D01*
X77481587Y-70222623D01*
X79560052Y-70222623D01*
X79748305Y-69224040D01*
G37*
X79748305Y-69224040D02*
X79936557Y-68225458D01*
X80631183Y-67939111D01*
X81325808Y-67652763D01*
X82159128Y-68219414D01*
X82392501Y-68377189D01*
X82603457Y-68518061D01*
X82782153Y-68635599D01*
X82918744Y-68723371D01*
X83003386Y-68774945D01*
X83026437Y-68786065D01*
X83067963Y-68757465D01*
X83156698Y-68678396D01*
X83282697Y-68558959D01*
X83436014Y-68409256D01*
X83606702Y-68239385D01*
X83784814Y-68059449D01*
X83960406Y-67879546D01*
X84123530Y-67709778D01*
X84264241Y-67560246D01*
X84372592Y-67441048D01*
X84438637Y-67362287D01*
X84454426Y-67335928D01*
X84431703Y-67287334D01*
X84367999Y-67180874D01*
X84270013Y-67026961D01*
X84144441Y-66836009D01*
X83997982Y-66618431D01*
X83913115Y-66494329D01*
X83758426Y-66267721D01*
X83620970Y-66063230D01*
X83507414Y-65891035D01*
X83424428Y-65761315D01*
X83378678Y-65684249D01*
X83371803Y-65668053D01*
X83387388Y-65622025D01*
X83429868Y-65514750D01*
X83492835Y-65361313D01*
X83569879Y-65176794D01*
X83654590Y-64976279D01*
X83740558Y-64774848D01*
X83821373Y-64587585D01*
X83890627Y-64429572D01*
X83941908Y-64315893D01*
X83968809Y-64261630D01*
X83970396Y-64259494D01*
X84012635Y-64249133D01*
X84125126Y-64226018D01*
X84296209Y-64192421D01*
X84514223Y-64150615D01*
X84767509Y-64102873D01*
X84915288Y-64075341D01*
X85185938Y-64023810D01*
X85430397Y-63974775D01*
X85636300Y-63930919D01*
X85791277Y-63894926D01*
X85882962Y-63869479D01*
X85901393Y-63861405D01*
X85919445Y-63806758D01*
X85934010Y-63683338D01*
X85945098Y-63505577D01*
X85952719Y-63287909D01*
X85956884Y-63044765D01*
X85957602Y-62790577D01*
X85954882Y-62539780D01*
X85948735Y-62306804D01*
X85939171Y-62106082D01*
X85926199Y-61952046D01*
X85909829Y-61859130D01*
X85900011Y-61839787D01*
X85841323Y-61816602D01*
X85716966Y-61783456D01*
X85543390Y-61744242D01*
X85337042Y-61702855D01*
X85265011Y-61689466D01*
X84917719Y-61625853D01*
X84643383Y-61574622D01*
X84432939Y-61533739D01*
X84277322Y-61501166D01*
X84167467Y-61474868D01*
X84094311Y-61452808D01*
X84048787Y-61432951D01*
X84021833Y-61413259D01*
X84018061Y-61409368D01*
X83980415Y-61346676D01*
X83922986Y-61224669D01*
X83851508Y-61058288D01*
X83771715Y-60862471D01*
X83689343Y-60652160D01*
X83610125Y-60442292D01*
X83539796Y-60247809D01*
X83484089Y-60083650D01*
X83448741Y-59964755D01*
X83439484Y-59906064D01*
X83440256Y-59904008D01*
X83471620Y-59856036D01*
X83542774Y-59750484D01*
X83646240Y-59598340D01*
X83774540Y-59410590D01*
X83920199Y-59198220D01*
X83961680Y-59137870D01*
X84109587Y-58919071D01*
X84239739Y-58719438D01*
X84345045Y-58550435D01*
X84418416Y-58423525D01*
X84452763Y-58350171D01*
X84454426Y-58341159D01*
X84425569Y-58293793D01*
X84345831Y-58199958D01*
X84225462Y-58069739D01*
X84074713Y-57913221D01*
X83903836Y-57740490D01*
X83723079Y-57561629D01*
X83542694Y-57386724D01*
X83372932Y-57225860D01*
X83224042Y-57089122D01*
X83106276Y-56986593D01*
X83029883Y-56928360D01*
X83008750Y-56918852D01*
X82959560Y-56941246D01*
X82858847Y-57001644D01*
X82723017Y-57089871D01*
X82618510Y-57160885D01*
X82429149Y-57291189D01*
X82204899Y-57444616D01*
X81979964Y-57597799D01*
X81859032Y-57679782D01*
X81449704Y-57956647D01*
X81106102Y-57770864D01*
X80949565Y-57689477D01*
X80816454Y-57626216D01*
X80726389Y-57590135D01*
X80703463Y-57585115D01*
X80675895Y-57622183D01*
X80621508Y-57726931D01*
X80544363Y-57889697D01*
X80448518Y-58100819D01*
X80338034Y-58350635D01*
X80216971Y-58629483D01*
X80089389Y-58927701D01*
X79959347Y-59235626D01*
X79830906Y-59543596D01*
X79708126Y-59841950D01*
X79595067Y-60121025D01*
X79495788Y-60371159D01*
X79414349Y-60582690D01*
X79354811Y-60745957D01*
X79321234Y-60851295D01*
X79315834Y-60887473D01*
X79358634Y-60933619D01*
X79452344Y-61008528D01*
X79577373Y-61096636D01*
X79587867Y-61103606D01*
X79911020Y-61362279D01*
X80171587Y-61664062D01*
X80367310Y-61999305D01*
X80495932Y-62358358D01*
X80555195Y-62731574D01*
X80542839Y-63109300D01*
X80456607Y-63481889D01*
X80294241Y-63839690D01*
X80246472Y-63917973D01*
X79998009Y-64234081D01*
X79704481Y-64487921D01*
X79376047Y-64678173D01*
X79022865Y-64803515D01*
X78655095Y-64862628D01*
X78282897Y-64854193D01*
X77916429Y-64776888D01*
X77565851Y-64629394D01*
X77241323Y-64410390D01*
X77140936Y-64321502D01*
X76885449Y-64043256D01*
X76699278Y-63750344D01*
X76571570Y-63422014D01*
X76500444Y-63096867D01*
X76482886Y-62731298D01*
X76541434Y-62363914D01*
X76670142Y-62007134D01*
X76863062Y-61673374D01*
X77114248Y-61375053D01*
X77417752Y-61124589D01*
X77457640Y-61098187D01*
X77584009Y-61011728D01*
X77680073Y-60936816D01*
X77726000Y-60888985D01*
X77726668Y-60887473D01*
X77716808Y-60835733D01*
X77677722Y-60718304D01*
X77613472Y-60544846D01*
X77528120Y-60325021D01*
X77425727Y-60068487D01*
X77310354Y-59784904D01*
X77186063Y-59483933D01*
X77056916Y-59175233D01*
X76926974Y-58868464D01*
X76800298Y-58573286D01*
X76680951Y-58299360D01*
X76572994Y-58056344D01*
X76480488Y-57853899D01*
X76407496Y-57701685D01*
X76358077Y-57609362D01*
X76338177Y-57585115D01*
X76277366Y-57603996D01*
X76163582Y-57654636D01*
X76016445Y-57727983D01*
X75935538Y-57770864D01*
X75591935Y-57956647D01*
X75182607Y-57679782D01*
X74973654Y-57537946D01*
X74744887Y-57381859D01*
X74530509Y-57234891D01*
X74423129Y-57160885D01*
X74272102Y-57059469D01*
X74144218Y-56979102D01*
X74056158Y-56929959D01*
X74027555Y-56919571D01*
X73985924Y-56947595D01*
X73893789Y-57025828D01*
X73760082Y-57146148D01*
X73593735Y-57300432D01*
X73403680Y-57480557D01*
X73283479Y-57596210D01*
X73073185Y-57802833D01*
X72891444Y-57987642D01*
X72745603Y-58142730D01*
X72643009Y-58260193D01*
X72591009Y-58332125D01*
X72586020Y-58346722D01*
X72609171Y-58402247D01*
X72673146Y-58514516D01*
X72770847Y-58672163D01*
X72895180Y-58863821D01*
X73039046Y-59078124D01*
X73079959Y-59137870D01*
X73229033Y-59355018D01*
X73362775Y-59550525D01*
X73473709Y-59713401D01*
X73554356Y-59832663D01*
X73597241Y-59897322D01*
X73601383Y-59904008D01*
X73595188Y-59955538D01*
X73562300Y-60068834D01*
X73508455Y-60228958D01*
X73439387Y-60420968D01*
X73360831Y-60629926D01*
X73278520Y-60840891D01*
X73198189Y-61038924D01*
X73125572Y-61209084D01*
X73066405Y-61336433D01*
X73026420Y-61406029D01*
X73023578Y-61409368D01*
X72999127Y-61429258D01*
X72957831Y-61448927D01*
X72890623Y-61470411D01*
X72788441Y-61495747D01*
X72642219Y-61526971D01*
X72442893Y-61566118D01*
X72181397Y-61615225D01*
X71848669Y-61676328D01*
X71776628Y-61689466D01*
X71563115Y-61730718D01*
X71376978Y-61771074D01*
X71234666Y-61806639D01*
X71152629Y-61833520D01*
X71141628Y-61839787D01*
X71123502Y-61895346D01*
X71108767Y-62019505D01*
X71097436Y-62197831D01*
X71089516Y-62415891D01*
X71085019Y-62659254D01*
X71083954Y-62913486D01*
X71086330Y-63164155D01*
X71092159Y-63396829D01*
X71101449Y-63597076D01*
X71114211Y-63750462D01*
X71130454Y-63842556D01*
X71140246Y-63861405D01*
X71194761Y-63880418D01*
X71318896Y-63911350D01*
X71500285Y-63951518D01*
X71726560Y-63998238D01*
X71985353Y-64048827D01*
X72126351Y-64075341D01*
X72393873Y-64125350D01*
X72632438Y-64170654D01*
X72830386Y-64208979D01*
X72976057Y-64238053D01*
X73057791Y-64255603D01*
X73071243Y-64259494D01*
X73093979Y-64303362D01*
X73142040Y-64409024D01*
X73209019Y-64561387D01*
X73288510Y-64745354D01*
X73374108Y-64945830D01*
X73459405Y-65147719D01*
X73537995Y-65335927D01*
X73603473Y-65495358D01*
X73649431Y-65610916D01*
X73669463Y-65667506D01*
X73669836Y-65669979D01*
X73647126Y-65714621D01*
X73583459Y-65817353D01*
X73485525Y-65967963D01*
X73360017Y-66156243D01*
X73213626Y-66371982D01*
X73128525Y-66495902D01*
X72973455Y-66723117D01*
X72835725Y-66929405D01*
X72722053Y-67104329D01*
X72639161Y-67237455D01*
X72593769Y-67318347D01*
X72587213Y-67336480D01*
X72615395Y-67378688D01*
X72693304Y-67468809D01*
X72810990Y-67596746D01*
X72958500Y-67752404D01*
X73125881Y-67925685D01*
X73303181Y-68106493D01*
X73480448Y-68284733D01*
X73647730Y-68450307D01*
X73795075Y-68593120D01*
X73912530Y-68703075D01*
X73990143Y-68770076D01*
X74016108Y-68786065D01*
X74058384Y-68763581D01*
X74159501Y-68700415D01*
X74309627Y-68602997D01*
X74498930Y-68477757D01*
X74717579Y-68331125D01*
X74882511Y-68219414D01*
X75715831Y-67652763D01*
X76410456Y-67939111D01*
X77105082Y-68225458D01*
X77293334Y-69224040D01*
X77481587Y-70222623D01*
X79560052Y-70222623D01*
X79748305Y-69224040D01*
%TD*%
M02*
