%TF.GenerationSoftware,KiCad,Pcbnew,5.1.10*%
%TF.CreationDate,2021-07-17T21:09:20+02:00*%
%TF.ProjectId,smd-balanced,736d642d-6261-46c6-916e-6365642e6b69,rev?*%
%TF.SameCoordinates,Original*%
%TF.FileFunction,Copper,L2,Bot*%
%TF.FilePolarity,Positive*%
%FSLAX46Y46*%
G04 Gerber Fmt 4.6, Leading zero omitted, Abs format (unit mm)*
G04 Created by KiCad (PCBNEW 5.1.10) date 2021-07-17 21:09:20*
%MOMM*%
%LPD*%
G01*
G04 APERTURE LIST*
%TA.AperFunction,ComponentPad*%
%ADD10C,3.500000*%
%TD*%
%TA.AperFunction,ViaPad*%
%ADD11C,0.800000*%
%TD*%
%TA.AperFunction,Conductor*%
%ADD12C,0.600000*%
%TD*%
%TA.AperFunction,Conductor*%
%ADD13C,0.254000*%
%TD*%
%TA.AperFunction,Conductor*%
%ADD14C,0.100000*%
%TD*%
G04 APERTURE END LIST*
D10*
%TO.P,J1,1*%
%TO.N,Net-(D2-Pad2)*%
X40500000Y-66500000D03*
%TD*%
%TO.P,J2,1*%
%TO.N,/2*%
X123000000Y-53500000D03*
%TD*%
%TO.P,J3,1*%
%TO.N,/3*%
X123000000Y-60500000D03*
%TD*%
%TO.P,J4,1*%
%TO.N,V-*%
X123000000Y-66500000D03*
%TD*%
%TO.P,J6,1*%
%TO.N,Earth*%
X40500000Y-38000000D03*
%TD*%
%TO.P,J7,1*%
%TO.N,Earth*%
X123000000Y-38000000D03*
%TD*%
%TO.P,J8,1*%
%TO.N,Earth*%
X123000000Y-78000000D03*
%TD*%
%TO.P,J9,1*%
%TO.N,Earth*%
X40500000Y-78000000D03*
%TD*%
%TO.P,J10,1*%
%TO.N,ind*%
X40500000Y-52000000D03*
%TD*%
%TO.P,J11,1*%
%TO.N,V-*%
X40500000Y-59000000D03*
%TD*%
D11*
%TO.N,V-*%
X58891800Y-64108300D03*
%TO.N,/2*%
X108499200Y-55302300D03*
%TO.N,Net-(D1-Pad1)*%
X111061700Y-53849600D03*
X110572000Y-61216500D03*
%TO.N,Net-(D2-Pad2)*%
X48225000Y-63125200D03*
%TO.N,ind*%
X52964000Y-61928400D03*
X75871300Y-62510800D03*
X50751900Y-53969600D03*
%TO.N,Earth*%
X81000000Y-52000000D03*
X80000000Y-57000000D03*
X67000000Y-45500000D03*
X60500000Y-47500000D03*
X54500000Y-51500000D03*
X48500000Y-56000000D03*
X43500000Y-58000000D03*
X43500000Y-68000000D03*
X57500000Y-72000000D03*
X67000000Y-76000000D03*
X87500000Y-75500000D03*
X94000000Y-56000000D03*
X96000000Y-63000000D03*
X118500000Y-62500000D03*
X121500000Y-64000000D03*
X115000000Y-55500000D03*
X111000000Y-63000000D03*
X85000000Y-68500000D03*
X85500000Y-59500000D03*
X49500000Y-64500000D03*
X61500000Y-64000000D03*
%TO.N,Rout*%
X86181000Y-56691600D03*
X94000000Y-60624900D03*
%TO.N,Net-(R18-Pad2)*%
X91154400Y-65586800D03*
X77190400Y-58455600D03*
%TD*%
D12*
%TO.N,V-*%
X58891800Y-64108300D02*
X51296400Y-64108300D01*
X51296400Y-64108300D02*
X46188100Y-59000000D01*
X46188100Y-59000000D02*
X40500000Y-59000000D01*
X123000000Y-66500000D02*
X61283500Y-66500000D01*
X61283500Y-66500000D02*
X58891800Y-64108300D01*
%TO.N,/2*%
X123000000Y-53500000D02*
X122449200Y-52949200D01*
X122449200Y-52949200D02*
X110682900Y-52949200D01*
X110682900Y-52949200D02*
X108499200Y-55132900D01*
X108499200Y-55132900D02*
X108499200Y-55302300D01*
%TO.N,Net-(D1-Pad1)*%
X110572000Y-61216500D02*
X110572000Y-54339300D01*
X110572000Y-54339300D02*
X111061700Y-53849600D01*
%TO.N,Net-(D2-Pad2)*%
X40500000Y-66500000D02*
X43874800Y-63125200D01*
X43874800Y-63125200D02*
X48225000Y-63125200D01*
%TO.N,ind*%
X52964000Y-61928400D02*
X52964000Y-56181700D01*
X52964000Y-56181700D02*
X50751900Y-53969600D01*
X75871300Y-62510800D02*
X53546400Y-62510800D01*
X53546400Y-62510800D02*
X52964000Y-61928400D01*
X50751900Y-53969600D02*
X42469600Y-53969600D01*
X42469600Y-53969600D02*
X40500000Y-52000000D01*
%TO.N,Earth*%
X40500000Y-38000000D02*
X123000000Y-38000000D01*
X40500000Y-78000000D02*
X38191400Y-75691400D01*
X38191400Y-75691400D02*
X38191400Y-40308600D01*
X38191400Y-40308600D02*
X40500000Y-38000000D01*
X123000000Y-78000000D02*
X125255900Y-75744100D01*
X125255900Y-75744100D02*
X125255900Y-40255900D01*
X125255900Y-40255900D02*
X123000000Y-38000000D01*
%TO.N,Rout*%
X94000000Y-60624900D02*
X90114300Y-60624900D01*
X90114300Y-60624900D02*
X86181000Y-56691600D01*
%TO.N,Net-(R18-Pad2)*%
X77190400Y-58455600D02*
X84321600Y-65586800D01*
X84321600Y-65586800D02*
X91154400Y-65586800D01*
%TD*%
D13*
%TO.N,Earth*%
X126840001Y-81840000D02*
X35660000Y-81840000D01*
X35660000Y-51765098D01*
X38115000Y-51765098D01*
X38115000Y-52234902D01*
X38206654Y-52695679D01*
X38386440Y-53129721D01*
X38647450Y-53520349D01*
X38979651Y-53852550D01*
X39370279Y-54113560D01*
X39804321Y-54293346D01*
X40265098Y-54385000D01*
X40734902Y-54385000D01*
X41195679Y-54293346D01*
X41390400Y-54212690D01*
X41775974Y-54598264D01*
X41805256Y-54633944D01*
X41947628Y-54750786D01*
X42110060Y-54837607D01*
X42232843Y-54874853D01*
X42286307Y-54891071D01*
X42469599Y-54909124D01*
X42515531Y-54904600D01*
X50304605Y-54904600D01*
X50407042Y-54947031D01*
X52029001Y-56568990D01*
X52029000Y-61481104D01*
X51968774Y-61626502D01*
X51929000Y-61826461D01*
X51929000Y-62030339D01*
X51968774Y-62230298D01*
X52046795Y-62418656D01*
X52160063Y-62588174D01*
X52304226Y-62732337D01*
X52473744Y-62845605D01*
X52619143Y-62905832D01*
X52852766Y-63139454D01*
X52880543Y-63173300D01*
X51683690Y-63173300D01*
X46881730Y-58371341D01*
X46852444Y-58335656D01*
X46710072Y-58218814D01*
X46547640Y-58131993D01*
X46371392Y-58078529D01*
X46234032Y-58065000D01*
X46188100Y-58060476D01*
X46142168Y-58065000D01*
X42694216Y-58065000D01*
X42613560Y-57870279D01*
X42352550Y-57479651D01*
X42020349Y-57147450D01*
X41629721Y-56886440D01*
X41195679Y-56706654D01*
X40734902Y-56615000D01*
X40265098Y-56615000D01*
X39804321Y-56706654D01*
X39370279Y-56886440D01*
X38979651Y-57147450D01*
X38647450Y-57479651D01*
X38386440Y-57870279D01*
X38206654Y-58304321D01*
X38115000Y-58765098D01*
X38115000Y-59234902D01*
X38206654Y-59695679D01*
X38386440Y-60129721D01*
X38647450Y-60520349D01*
X38979651Y-60852550D01*
X39370279Y-61113560D01*
X39804321Y-61293346D01*
X40265098Y-61385000D01*
X40734902Y-61385000D01*
X41195679Y-61293346D01*
X41629721Y-61113560D01*
X42020349Y-60852550D01*
X42352550Y-60520349D01*
X42613560Y-60129721D01*
X42694216Y-59935000D01*
X45800811Y-59935000D01*
X47983726Y-62117915D01*
X47923102Y-62129974D01*
X47777705Y-62190200D01*
X43920732Y-62190200D01*
X43874800Y-62185676D01*
X43828868Y-62190200D01*
X43691508Y-62203729D01*
X43515260Y-62257193D01*
X43352828Y-62344014D01*
X43210456Y-62460856D01*
X43181170Y-62496541D01*
X41390401Y-64287310D01*
X41195679Y-64206654D01*
X40734902Y-64115000D01*
X40265098Y-64115000D01*
X39804321Y-64206654D01*
X39370279Y-64386440D01*
X38979651Y-64647450D01*
X38647450Y-64979651D01*
X38386440Y-65370279D01*
X38206654Y-65804321D01*
X38115000Y-66265098D01*
X38115000Y-66734902D01*
X38206654Y-67195679D01*
X38386440Y-67629721D01*
X38647450Y-68020349D01*
X38979651Y-68352550D01*
X39370279Y-68613560D01*
X39804321Y-68793346D01*
X40265098Y-68885000D01*
X40734902Y-68885000D01*
X41195679Y-68793346D01*
X41629721Y-68613560D01*
X42020349Y-68352550D01*
X42352550Y-68020349D01*
X42613560Y-67629721D01*
X42793346Y-67195679D01*
X42885000Y-66734902D01*
X42885000Y-66265098D01*
X42793346Y-65804321D01*
X42712690Y-65609599D01*
X44262089Y-64060200D01*
X47777705Y-64060200D01*
X47923102Y-64120426D01*
X48123061Y-64160200D01*
X48326939Y-64160200D01*
X48526898Y-64120426D01*
X48715256Y-64042405D01*
X48884774Y-63929137D01*
X49028937Y-63784974D01*
X49142205Y-63615456D01*
X49220226Y-63427098D01*
X49232285Y-63366474D01*
X50602775Y-64736964D01*
X50632056Y-64772644D01*
X50774428Y-64889486D01*
X50936860Y-64976307D01*
X51059643Y-65013553D01*
X51113107Y-65029771D01*
X51296399Y-65047824D01*
X51342331Y-65043300D01*
X58444505Y-65043300D01*
X58546942Y-65085731D01*
X60589870Y-67128659D01*
X60619156Y-67164344D01*
X60761528Y-67281186D01*
X60867380Y-67337765D01*
X60923959Y-67368007D01*
X61100208Y-67421472D01*
X61283500Y-67439524D01*
X61329435Y-67435000D01*
X120805784Y-67435000D01*
X120886440Y-67629721D01*
X121147450Y-68020349D01*
X121479651Y-68352550D01*
X121870279Y-68613560D01*
X122304321Y-68793346D01*
X122765098Y-68885000D01*
X123234902Y-68885000D01*
X123695679Y-68793346D01*
X124129721Y-68613560D01*
X124520349Y-68352550D01*
X124852550Y-68020349D01*
X125113560Y-67629721D01*
X125293346Y-67195679D01*
X125385000Y-66734902D01*
X125385000Y-66265098D01*
X125293346Y-65804321D01*
X125113560Y-65370279D01*
X124852550Y-64979651D01*
X124520349Y-64647450D01*
X124129721Y-64386440D01*
X123695679Y-64206654D01*
X123234902Y-64115000D01*
X122765098Y-64115000D01*
X122304321Y-64206654D01*
X121870279Y-64386440D01*
X121479651Y-64647450D01*
X121147450Y-64979651D01*
X120886440Y-65370279D01*
X120805784Y-65565000D01*
X92189400Y-65565000D01*
X92189400Y-65484861D01*
X92149626Y-65284902D01*
X92071605Y-65096544D01*
X91958337Y-64927026D01*
X91814174Y-64782863D01*
X91644656Y-64669595D01*
X91456298Y-64591574D01*
X91256339Y-64551800D01*
X91052461Y-64551800D01*
X90852502Y-64591574D01*
X90707105Y-64651800D01*
X84708889Y-64651800D01*
X78167831Y-58110742D01*
X78107605Y-57965344D01*
X77994337Y-57795826D01*
X77850174Y-57651663D01*
X77680656Y-57538395D01*
X77492298Y-57460374D01*
X77292339Y-57420600D01*
X77088461Y-57420600D01*
X76888502Y-57460374D01*
X76700144Y-57538395D01*
X76530626Y-57651663D01*
X76386463Y-57795826D01*
X76273195Y-57965344D01*
X76195174Y-58153702D01*
X76155400Y-58353661D01*
X76155400Y-58557539D01*
X76195174Y-58757498D01*
X76273195Y-58945856D01*
X76386463Y-59115374D01*
X76530626Y-59259537D01*
X76700144Y-59372805D01*
X76845542Y-59433031D01*
X82977511Y-65565000D01*
X61670789Y-65565000D01*
X59869231Y-63763442D01*
X59809005Y-63618044D01*
X59695737Y-63448526D01*
X59693011Y-63445800D01*
X75424005Y-63445800D01*
X75569402Y-63506026D01*
X75769361Y-63545800D01*
X75973239Y-63545800D01*
X76173198Y-63506026D01*
X76361556Y-63428005D01*
X76531074Y-63314737D01*
X76675237Y-63170574D01*
X76788505Y-63001056D01*
X76866526Y-62812698D01*
X76906300Y-62612739D01*
X76906300Y-62408861D01*
X76866526Y-62208902D01*
X76788505Y-62020544D01*
X76675237Y-61851026D01*
X76531074Y-61706863D01*
X76361556Y-61593595D01*
X76173198Y-61515574D01*
X75973239Y-61475800D01*
X75769361Y-61475800D01*
X75569402Y-61515574D01*
X75424005Y-61575800D01*
X53938224Y-61575800D01*
X53899000Y-61481105D01*
X53899000Y-56589661D01*
X85146000Y-56589661D01*
X85146000Y-56793539D01*
X85185774Y-56993498D01*
X85263795Y-57181856D01*
X85377063Y-57351374D01*
X85521226Y-57495537D01*
X85690744Y-57608805D01*
X85836142Y-57669031D01*
X89420674Y-61253564D01*
X89449956Y-61289244D01*
X89592328Y-61406086D01*
X89754760Y-61492907D01*
X89877543Y-61530153D01*
X89931007Y-61546371D01*
X90114299Y-61564424D01*
X90160231Y-61559900D01*
X93552705Y-61559900D01*
X93698102Y-61620126D01*
X93898061Y-61659900D01*
X94101939Y-61659900D01*
X94301898Y-61620126D01*
X94490256Y-61542105D01*
X94659774Y-61428837D01*
X94803937Y-61284674D01*
X94917205Y-61115156D01*
X94995226Y-60926798D01*
X95035000Y-60726839D01*
X95035000Y-60522961D01*
X94995226Y-60323002D01*
X94917205Y-60134644D01*
X94803937Y-59965126D01*
X94659774Y-59820963D01*
X94490256Y-59707695D01*
X94301898Y-59629674D01*
X94101939Y-59589900D01*
X93898061Y-59589900D01*
X93698102Y-59629674D01*
X93552705Y-59689900D01*
X90501590Y-59689900D01*
X87158431Y-56346742D01*
X87098205Y-56201344D01*
X86984937Y-56031826D01*
X86840774Y-55887663D01*
X86671256Y-55774395D01*
X86482898Y-55696374D01*
X86282939Y-55656600D01*
X86079061Y-55656600D01*
X85879102Y-55696374D01*
X85690744Y-55774395D01*
X85521226Y-55887663D01*
X85377063Y-56031826D01*
X85263795Y-56201344D01*
X85185774Y-56389702D01*
X85146000Y-56589661D01*
X53899000Y-56589661D01*
X53899000Y-56227632D01*
X53903524Y-56181700D01*
X53885471Y-55998408D01*
X53885340Y-55997977D01*
X53832007Y-55822160D01*
X53745186Y-55659728D01*
X53628344Y-55517356D01*
X53592659Y-55488070D01*
X53304950Y-55200361D01*
X107464200Y-55200361D01*
X107464200Y-55404239D01*
X107503974Y-55604198D01*
X107581995Y-55792556D01*
X107695263Y-55962074D01*
X107839426Y-56106237D01*
X108008944Y-56219505D01*
X108197302Y-56297526D01*
X108397261Y-56337300D01*
X108601139Y-56337300D01*
X108801098Y-56297526D01*
X108989456Y-56219505D01*
X109158974Y-56106237D01*
X109303137Y-55962074D01*
X109416405Y-55792556D01*
X109494426Y-55604198D01*
X109530240Y-55424150D01*
X109637001Y-55317388D01*
X109637000Y-60769204D01*
X109576774Y-60914602D01*
X109537000Y-61114561D01*
X109537000Y-61318439D01*
X109576774Y-61518398D01*
X109654795Y-61706756D01*
X109768063Y-61876274D01*
X109912226Y-62020437D01*
X110081744Y-62133705D01*
X110270102Y-62211726D01*
X110470061Y-62251500D01*
X110673939Y-62251500D01*
X110873898Y-62211726D01*
X111062256Y-62133705D01*
X111231774Y-62020437D01*
X111375937Y-61876274D01*
X111489205Y-61706756D01*
X111567226Y-61518398D01*
X111607000Y-61318439D01*
X111607000Y-61114561D01*
X111567226Y-60914602D01*
X111507000Y-60769205D01*
X111507000Y-60265098D01*
X120615000Y-60265098D01*
X120615000Y-60734902D01*
X120706654Y-61195679D01*
X120886440Y-61629721D01*
X121147450Y-62020349D01*
X121479651Y-62352550D01*
X121870279Y-62613560D01*
X122304321Y-62793346D01*
X122765098Y-62885000D01*
X123234902Y-62885000D01*
X123695679Y-62793346D01*
X124129721Y-62613560D01*
X124520349Y-62352550D01*
X124852550Y-62020349D01*
X125113560Y-61629721D01*
X125293346Y-61195679D01*
X125385000Y-60734902D01*
X125385000Y-60265098D01*
X125293346Y-59804321D01*
X125113560Y-59370279D01*
X124852550Y-58979651D01*
X124520349Y-58647450D01*
X124129721Y-58386440D01*
X123695679Y-58206654D01*
X123234902Y-58115000D01*
X122765098Y-58115000D01*
X122304321Y-58206654D01*
X121870279Y-58386440D01*
X121479651Y-58647450D01*
X121147450Y-58979651D01*
X120886440Y-59370279D01*
X120706654Y-59804321D01*
X120615000Y-60265098D01*
X111507000Y-60265098D01*
X111507000Y-54785427D01*
X111551956Y-54766805D01*
X111721474Y-54653537D01*
X111865637Y-54509374D01*
X111978905Y-54339856D01*
X112056926Y-54151498D01*
X112096700Y-53951539D01*
X112096700Y-53884200D01*
X120644697Y-53884200D01*
X120706654Y-54195679D01*
X120886440Y-54629721D01*
X121147450Y-55020349D01*
X121479651Y-55352550D01*
X121870279Y-55613560D01*
X122304321Y-55793346D01*
X122765098Y-55885000D01*
X123234902Y-55885000D01*
X123695679Y-55793346D01*
X124129721Y-55613560D01*
X124520349Y-55352550D01*
X124852550Y-55020349D01*
X125113560Y-54629721D01*
X125293346Y-54195679D01*
X125385000Y-53734902D01*
X125385000Y-53265098D01*
X125293346Y-52804321D01*
X125113560Y-52370279D01*
X124852550Y-51979651D01*
X124520349Y-51647450D01*
X124129721Y-51386440D01*
X123695679Y-51206654D01*
X123234902Y-51115000D01*
X122765098Y-51115000D01*
X122304321Y-51206654D01*
X121870279Y-51386440D01*
X121479651Y-51647450D01*
X121147450Y-51979651D01*
X121124365Y-52014200D01*
X110728831Y-52014200D01*
X110682899Y-52009676D01*
X110499607Y-52027729D01*
X110446143Y-52043947D01*
X110323360Y-52081193D01*
X110160928Y-52168014D01*
X110018556Y-52284856D01*
X109989274Y-52320536D01*
X107870541Y-54439270D01*
X107834856Y-54468556D01*
X107718014Y-54610929D01*
X107707857Y-54629932D01*
X107695263Y-54642526D01*
X107581995Y-54812044D01*
X107503974Y-55000402D01*
X107464200Y-55200361D01*
X53304950Y-55200361D01*
X51729331Y-53624742D01*
X51669105Y-53479344D01*
X51555837Y-53309826D01*
X51411674Y-53165663D01*
X51242156Y-53052395D01*
X51053798Y-52974374D01*
X50853839Y-52934600D01*
X50649961Y-52934600D01*
X50450002Y-52974374D01*
X50304605Y-53034600D01*
X42856890Y-53034600D01*
X42712690Y-52890400D01*
X42793346Y-52695679D01*
X42885000Y-52234902D01*
X42885000Y-51765098D01*
X42793346Y-51304321D01*
X42613560Y-50870279D01*
X42352550Y-50479651D01*
X42020349Y-50147450D01*
X41629721Y-49886440D01*
X41195679Y-49706654D01*
X40734902Y-49615000D01*
X40265098Y-49615000D01*
X39804321Y-49706654D01*
X39370279Y-49886440D01*
X38979651Y-50147450D01*
X38647450Y-50479651D01*
X38386440Y-50870279D01*
X38206654Y-51304321D01*
X38115000Y-51765098D01*
X35660000Y-51765098D01*
X35660000Y-33160000D01*
X126840000Y-33160000D01*
X126840001Y-81840000D01*
%TA.AperFunction,Conductor*%
D14*
G36*
X126840001Y-81840000D02*
G01*
X35660000Y-81840000D01*
X35660000Y-51765098D01*
X38115000Y-51765098D01*
X38115000Y-52234902D01*
X38206654Y-52695679D01*
X38386440Y-53129721D01*
X38647450Y-53520349D01*
X38979651Y-53852550D01*
X39370279Y-54113560D01*
X39804321Y-54293346D01*
X40265098Y-54385000D01*
X40734902Y-54385000D01*
X41195679Y-54293346D01*
X41390400Y-54212690D01*
X41775974Y-54598264D01*
X41805256Y-54633944D01*
X41947628Y-54750786D01*
X42110060Y-54837607D01*
X42232843Y-54874853D01*
X42286307Y-54891071D01*
X42469599Y-54909124D01*
X42515531Y-54904600D01*
X50304605Y-54904600D01*
X50407042Y-54947031D01*
X52029001Y-56568990D01*
X52029000Y-61481104D01*
X51968774Y-61626502D01*
X51929000Y-61826461D01*
X51929000Y-62030339D01*
X51968774Y-62230298D01*
X52046795Y-62418656D01*
X52160063Y-62588174D01*
X52304226Y-62732337D01*
X52473744Y-62845605D01*
X52619143Y-62905832D01*
X52852766Y-63139454D01*
X52880543Y-63173300D01*
X51683690Y-63173300D01*
X46881730Y-58371341D01*
X46852444Y-58335656D01*
X46710072Y-58218814D01*
X46547640Y-58131993D01*
X46371392Y-58078529D01*
X46234032Y-58065000D01*
X46188100Y-58060476D01*
X46142168Y-58065000D01*
X42694216Y-58065000D01*
X42613560Y-57870279D01*
X42352550Y-57479651D01*
X42020349Y-57147450D01*
X41629721Y-56886440D01*
X41195679Y-56706654D01*
X40734902Y-56615000D01*
X40265098Y-56615000D01*
X39804321Y-56706654D01*
X39370279Y-56886440D01*
X38979651Y-57147450D01*
X38647450Y-57479651D01*
X38386440Y-57870279D01*
X38206654Y-58304321D01*
X38115000Y-58765098D01*
X38115000Y-59234902D01*
X38206654Y-59695679D01*
X38386440Y-60129721D01*
X38647450Y-60520349D01*
X38979651Y-60852550D01*
X39370279Y-61113560D01*
X39804321Y-61293346D01*
X40265098Y-61385000D01*
X40734902Y-61385000D01*
X41195679Y-61293346D01*
X41629721Y-61113560D01*
X42020349Y-60852550D01*
X42352550Y-60520349D01*
X42613560Y-60129721D01*
X42694216Y-59935000D01*
X45800811Y-59935000D01*
X47983726Y-62117915D01*
X47923102Y-62129974D01*
X47777705Y-62190200D01*
X43920732Y-62190200D01*
X43874800Y-62185676D01*
X43828868Y-62190200D01*
X43691508Y-62203729D01*
X43515260Y-62257193D01*
X43352828Y-62344014D01*
X43210456Y-62460856D01*
X43181170Y-62496541D01*
X41390401Y-64287310D01*
X41195679Y-64206654D01*
X40734902Y-64115000D01*
X40265098Y-64115000D01*
X39804321Y-64206654D01*
X39370279Y-64386440D01*
X38979651Y-64647450D01*
X38647450Y-64979651D01*
X38386440Y-65370279D01*
X38206654Y-65804321D01*
X38115000Y-66265098D01*
X38115000Y-66734902D01*
X38206654Y-67195679D01*
X38386440Y-67629721D01*
X38647450Y-68020349D01*
X38979651Y-68352550D01*
X39370279Y-68613560D01*
X39804321Y-68793346D01*
X40265098Y-68885000D01*
X40734902Y-68885000D01*
X41195679Y-68793346D01*
X41629721Y-68613560D01*
X42020349Y-68352550D01*
X42352550Y-68020349D01*
X42613560Y-67629721D01*
X42793346Y-67195679D01*
X42885000Y-66734902D01*
X42885000Y-66265098D01*
X42793346Y-65804321D01*
X42712690Y-65609599D01*
X44262089Y-64060200D01*
X47777705Y-64060200D01*
X47923102Y-64120426D01*
X48123061Y-64160200D01*
X48326939Y-64160200D01*
X48526898Y-64120426D01*
X48715256Y-64042405D01*
X48884774Y-63929137D01*
X49028937Y-63784974D01*
X49142205Y-63615456D01*
X49220226Y-63427098D01*
X49232285Y-63366474D01*
X50602775Y-64736964D01*
X50632056Y-64772644D01*
X50774428Y-64889486D01*
X50936860Y-64976307D01*
X51059643Y-65013553D01*
X51113107Y-65029771D01*
X51296399Y-65047824D01*
X51342331Y-65043300D01*
X58444505Y-65043300D01*
X58546942Y-65085731D01*
X60589870Y-67128659D01*
X60619156Y-67164344D01*
X60761528Y-67281186D01*
X60867380Y-67337765D01*
X60923959Y-67368007D01*
X61100208Y-67421472D01*
X61283500Y-67439524D01*
X61329435Y-67435000D01*
X120805784Y-67435000D01*
X120886440Y-67629721D01*
X121147450Y-68020349D01*
X121479651Y-68352550D01*
X121870279Y-68613560D01*
X122304321Y-68793346D01*
X122765098Y-68885000D01*
X123234902Y-68885000D01*
X123695679Y-68793346D01*
X124129721Y-68613560D01*
X124520349Y-68352550D01*
X124852550Y-68020349D01*
X125113560Y-67629721D01*
X125293346Y-67195679D01*
X125385000Y-66734902D01*
X125385000Y-66265098D01*
X125293346Y-65804321D01*
X125113560Y-65370279D01*
X124852550Y-64979651D01*
X124520349Y-64647450D01*
X124129721Y-64386440D01*
X123695679Y-64206654D01*
X123234902Y-64115000D01*
X122765098Y-64115000D01*
X122304321Y-64206654D01*
X121870279Y-64386440D01*
X121479651Y-64647450D01*
X121147450Y-64979651D01*
X120886440Y-65370279D01*
X120805784Y-65565000D01*
X92189400Y-65565000D01*
X92189400Y-65484861D01*
X92149626Y-65284902D01*
X92071605Y-65096544D01*
X91958337Y-64927026D01*
X91814174Y-64782863D01*
X91644656Y-64669595D01*
X91456298Y-64591574D01*
X91256339Y-64551800D01*
X91052461Y-64551800D01*
X90852502Y-64591574D01*
X90707105Y-64651800D01*
X84708889Y-64651800D01*
X78167831Y-58110742D01*
X78107605Y-57965344D01*
X77994337Y-57795826D01*
X77850174Y-57651663D01*
X77680656Y-57538395D01*
X77492298Y-57460374D01*
X77292339Y-57420600D01*
X77088461Y-57420600D01*
X76888502Y-57460374D01*
X76700144Y-57538395D01*
X76530626Y-57651663D01*
X76386463Y-57795826D01*
X76273195Y-57965344D01*
X76195174Y-58153702D01*
X76155400Y-58353661D01*
X76155400Y-58557539D01*
X76195174Y-58757498D01*
X76273195Y-58945856D01*
X76386463Y-59115374D01*
X76530626Y-59259537D01*
X76700144Y-59372805D01*
X76845542Y-59433031D01*
X82977511Y-65565000D01*
X61670789Y-65565000D01*
X59869231Y-63763442D01*
X59809005Y-63618044D01*
X59695737Y-63448526D01*
X59693011Y-63445800D01*
X75424005Y-63445800D01*
X75569402Y-63506026D01*
X75769361Y-63545800D01*
X75973239Y-63545800D01*
X76173198Y-63506026D01*
X76361556Y-63428005D01*
X76531074Y-63314737D01*
X76675237Y-63170574D01*
X76788505Y-63001056D01*
X76866526Y-62812698D01*
X76906300Y-62612739D01*
X76906300Y-62408861D01*
X76866526Y-62208902D01*
X76788505Y-62020544D01*
X76675237Y-61851026D01*
X76531074Y-61706863D01*
X76361556Y-61593595D01*
X76173198Y-61515574D01*
X75973239Y-61475800D01*
X75769361Y-61475800D01*
X75569402Y-61515574D01*
X75424005Y-61575800D01*
X53938224Y-61575800D01*
X53899000Y-61481105D01*
X53899000Y-56589661D01*
X85146000Y-56589661D01*
X85146000Y-56793539D01*
X85185774Y-56993498D01*
X85263795Y-57181856D01*
X85377063Y-57351374D01*
X85521226Y-57495537D01*
X85690744Y-57608805D01*
X85836142Y-57669031D01*
X89420674Y-61253564D01*
X89449956Y-61289244D01*
X89592328Y-61406086D01*
X89754760Y-61492907D01*
X89877543Y-61530153D01*
X89931007Y-61546371D01*
X90114299Y-61564424D01*
X90160231Y-61559900D01*
X93552705Y-61559900D01*
X93698102Y-61620126D01*
X93898061Y-61659900D01*
X94101939Y-61659900D01*
X94301898Y-61620126D01*
X94490256Y-61542105D01*
X94659774Y-61428837D01*
X94803937Y-61284674D01*
X94917205Y-61115156D01*
X94995226Y-60926798D01*
X95035000Y-60726839D01*
X95035000Y-60522961D01*
X94995226Y-60323002D01*
X94917205Y-60134644D01*
X94803937Y-59965126D01*
X94659774Y-59820963D01*
X94490256Y-59707695D01*
X94301898Y-59629674D01*
X94101939Y-59589900D01*
X93898061Y-59589900D01*
X93698102Y-59629674D01*
X93552705Y-59689900D01*
X90501590Y-59689900D01*
X87158431Y-56346742D01*
X87098205Y-56201344D01*
X86984937Y-56031826D01*
X86840774Y-55887663D01*
X86671256Y-55774395D01*
X86482898Y-55696374D01*
X86282939Y-55656600D01*
X86079061Y-55656600D01*
X85879102Y-55696374D01*
X85690744Y-55774395D01*
X85521226Y-55887663D01*
X85377063Y-56031826D01*
X85263795Y-56201344D01*
X85185774Y-56389702D01*
X85146000Y-56589661D01*
X53899000Y-56589661D01*
X53899000Y-56227632D01*
X53903524Y-56181700D01*
X53885471Y-55998408D01*
X53885340Y-55997977D01*
X53832007Y-55822160D01*
X53745186Y-55659728D01*
X53628344Y-55517356D01*
X53592659Y-55488070D01*
X53304950Y-55200361D01*
X107464200Y-55200361D01*
X107464200Y-55404239D01*
X107503974Y-55604198D01*
X107581995Y-55792556D01*
X107695263Y-55962074D01*
X107839426Y-56106237D01*
X108008944Y-56219505D01*
X108197302Y-56297526D01*
X108397261Y-56337300D01*
X108601139Y-56337300D01*
X108801098Y-56297526D01*
X108989456Y-56219505D01*
X109158974Y-56106237D01*
X109303137Y-55962074D01*
X109416405Y-55792556D01*
X109494426Y-55604198D01*
X109530240Y-55424150D01*
X109637001Y-55317388D01*
X109637000Y-60769204D01*
X109576774Y-60914602D01*
X109537000Y-61114561D01*
X109537000Y-61318439D01*
X109576774Y-61518398D01*
X109654795Y-61706756D01*
X109768063Y-61876274D01*
X109912226Y-62020437D01*
X110081744Y-62133705D01*
X110270102Y-62211726D01*
X110470061Y-62251500D01*
X110673939Y-62251500D01*
X110873898Y-62211726D01*
X111062256Y-62133705D01*
X111231774Y-62020437D01*
X111375937Y-61876274D01*
X111489205Y-61706756D01*
X111567226Y-61518398D01*
X111607000Y-61318439D01*
X111607000Y-61114561D01*
X111567226Y-60914602D01*
X111507000Y-60769205D01*
X111507000Y-60265098D01*
X120615000Y-60265098D01*
X120615000Y-60734902D01*
X120706654Y-61195679D01*
X120886440Y-61629721D01*
X121147450Y-62020349D01*
X121479651Y-62352550D01*
X121870279Y-62613560D01*
X122304321Y-62793346D01*
X122765098Y-62885000D01*
X123234902Y-62885000D01*
X123695679Y-62793346D01*
X124129721Y-62613560D01*
X124520349Y-62352550D01*
X124852550Y-62020349D01*
X125113560Y-61629721D01*
X125293346Y-61195679D01*
X125385000Y-60734902D01*
X125385000Y-60265098D01*
X125293346Y-59804321D01*
X125113560Y-59370279D01*
X124852550Y-58979651D01*
X124520349Y-58647450D01*
X124129721Y-58386440D01*
X123695679Y-58206654D01*
X123234902Y-58115000D01*
X122765098Y-58115000D01*
X122304321Y-58206654D01*
X121870279Y-58386440D01*
X121479651Y-58647450D01*
X121147450Y-58979651D01*
X120886440Y-59370279D01*
X120706654Y-59804321D01*
X120615000Y-60265098D01*
X111507000Y-60265098D01*
X111507000Y-54785427D01*
X111551956Y-54766805D01*
X111721474Y-54653537D01*
X111865637Y-54509374D01*
X111978905Y-54339856D01*
X112056926Y-54151498D01*
X112096700Y-53951539D01*
X112096700Y-53884200D01*
X120644697Y-53884200D01*
X120706654Y-54195679D01*
X120886440Y-54629721D01*
X121147450Y-55020349D01*
X121479651Y-55352550D01*
X121870279Y-55613560D01*
X122304321Y-55793346D01*
X122765098Y-55885000D01*
X123234902Y-55885000D01*
X123695679Y-55793346D01*
X124129721Y-55613560D01*
X124520349Y-55352550D01*
X124852550Y-55020349D01*
X125113560Y-54629721D01*
X125293346Y-54195679D01*
X125385000Y-53734902D01*
X125385000Y-53265098D01*
X125293346Y-52804321D01*
X125113560Y-52370279D01*
X124852550Y-51979651D01*
X124520349Y-51647450D01*
X124129721Y-51386440D01*
X123695679Y-51206654D01*
X123234902Y-51115000D01*
X122765098Y-51115000D01*
X122304321Y-51206654D01*
X121870279Y-51386440D01*
X121479651Y-51647450D01*
X121147450Y-51979651D01*
X121124365Y-52014200D01*
X110728831Y-52014200D01*
X110682899Y-52009676D01*
X110499607Y-52027729D01*
X110446143Y-52043947D01*
X110323360Y-52081193D01*
X110160928Y-52168014D01*
X110018556Y-52284856D01*
X109989274Y-52320536D01*
X107870541Y-54439270D01*
X107834856Y-54468556D01*
X107718014Y-54610929D01*
X107707857Y-54629932D01*
X107695263Y-54642526D01*
X107581995Y-54812044D01*
X107503974Y-55000402D01*
X107464200Y-55200361D01*
X53304950Y-55200361D01*
X51729331Y-53624742D01*
X51669105Y-53479344D01*
X51555837Y-53309826D01*
X51411674Y-53165663D01*
X51242156Y-53052395D01*
X51053798Y-52974374D01*
X50853839Y-52934600D01*
X50649961Y-52934600D01*
X50450002Y-52974374D01*
X50304605Y-53034600D01*
X42856890Y-53034600D01*
X42712690Y-52890400D01*
X42793346Y-52695679D01*
X42885000Y-52234902D01*
X42885000Y-51765098D01*
X42793346Y-51304321D01*
X42613560Y-50870279D01*
X42352550Y-50479651D01*
X42020349Y-50147450D01*
X41629721Y-49886440D01*
X41195679Y-49706654D01*
X40734902Y-49615000D01*
X40265098Y-49615000D01*
X39804321Y-49706654D01*
X39370279Y-49886440D01*
X38979651Y-50147450D01*
X38647450Y-50479651D01*
X38386440Y-50870279D01*
X38206654Y-51304321D01*
X38115000Y-51765098D01*
X35660000Y-51765098D01*
X35660000Y-33160000D01*
X126840000Y-33160000D01*
X126840001Y-81840000D01*
G37*
%TD.AperFunction*%
%TD*%
M02*
