M48
; DRILL file {KiCad 5.1.10} date Sat Jul 17 21:09:18 2021
; FORMAT={-:-/ absolute / inch / decimal}
; #@! TF.CreationDate,2021-07-17T21:09:18+02:00
; #@! TF.GenerationSoftware,Kicad,Pcbnew,5.1.10
; #@! TF.FileFunction,Plated,1,2,PTH
FMAT,2
INCH
T1C0.0157
T2C0.0866
%
G90
G05
T1
X1.7126Y-2.2835
X1.7126Y-2.6772
X1.8986Y-2.4852
X1.9094Y-2.2047
X1.9488Y-2.5394
X1.9981Y-2.1248
X2.0852Y-2.4381
X2.1457Y-2.0276
X2.2638Y-2.8346
X2.3186Y-2.5239
X2.3819Y-1.8701
X2.4213Y-2.5197
X2.6378Y-1.7913
X2.6378Y-2.9921
X2.9871Y-2.4611
X3.039Y-2.3014
X3.1496Y-2.2441
X3.189Y-2.0472
X3.3465Y-2.6969
X3.3661Y-2.3425
X3.393Y-2.232
X3.4449Y-2.9724
X3.5888Y-2.5822
X3.7008Y-2.2047
X3.7008Y-2.3868
X3.7795Y-2.4803
X4.2716Y-2.1773
X4.3532Y-2.4101
X4.3701Y-2.4803
X4.3725Y-2.1201
X4.5276Y-2.185
X4.6654Y-2.4606
X4.7835Y-2.5197
T2
X1.5945Y-1.4961
X1.5945Y-2.0472
X1.5945Y-2.3228
X1.5945Y-2.6181
X1.5945Y-3.0709
X4.8425Y-1.4961
X4.8425Y-2.1063
X4.8425Y-2.3819
X4.8425Y-2.6181
X4.8425Y-3.0709
T0
M30
