M48
; DRILL file {KiCad 5.1.10} date Wed Aug  4 12:07:03 2021
; FORMAT={-:-/ absolute / inch / decimal}
; #@! TF.CreationDate,2021-08-04T12:07:03+02:00
; #@! TF.GenerationSoftware,Kicad,Pcbnew,5.1.10
; #@! TF.FileFunction,Plated,1,2,PTH
FMAT,2
INCH
T1C0.0157
T2C0.0866
%
G90
G05
T1
X1.7126Y-2.0472
X1.7126Y-2.2736
X1.7224Y-2.4508
X1.7815Y-2.0866
X1.7815Y-2.5197
X1.8012Y-2.0472
X1.9916Y-2.398
X2.1063Y-2.7067
X2.2343Y-2.4705
X2.2539Y-2.2933
X2.372Y-1.9488
X2.3819Y-2.8839
X2.6575Y-1.7815
X2.6575Y-2.5098
X3.0217Y-2.5098
X3.1398Y-2.3425
X3.189Y-2.0374
X3.2776Y-2.9724
X3.3751Y-2.2636
X3.4646Y-2.1949
X3.4941Y-2.4595
X3.5236Y-2.5098
X3.8831Y-2.4158
X3.8976Y-2.9331
X4.3209Y-2.1457
X4.3392Y-2.5178
X4.3406Y-2.4705
X4.3602Y-2.3622
X4.4203Y-2.1957
X4.4506Y-2.2678
X4.5134Y-2.4088
X4.7047Y-2.4508
X4.7539Y-2.5492
T2
X1.5945Y-1.4961
X1.5945Y-2.0472
X1.5945Y-2.3228
X1.5945Y-2.6181
X1.5945Y-3.0709
X4.8425Y-1.4961
X4.8425Y-2.1063
X4.8425Y-2.3819
X4.8425Y-2.6181
X4.8425Y-3.0709
T0
M30
