%TF.GenerationSoftware,KiCad,Pcbnew,5.1.10*%
%TF.CreationDate,2021-07-17T21:09:20+02:00*%
%TF.ProjectId,smd-balanced,736d642d-6261-46c6-916e-6365642e6b69,rev?*%
%TF.SameCoordinates,Original*%
%TF.FileFunction,Soldermask,Top*%
%TF.FilePolarity,Negative*%
%FSLAX46Y46*%
G04 Gerber Fmt 4.6, Leading zero omitted, Abs format (unit mm)*
G04 Created by KiCad (PCBNEW 5.1.10) date 2021-07-17 21:09:20*
%MOMM*%
%LPD*%
G01*
G04 APERTURE LIST*
%ADD10R,1.200000X0.900000*%
%ADD11C,3.500000*%
%ADD12R,2.500000X1.140000*%
G04 APERTURE END LIST*
%TO.C,C1*%
G36*
G01*
X107275000Y-52600000D02*
X107275000Y-52400000D01*
G75*
G02*
X107375000Y-52300000I100000J0D01*
G01*
X107810000Y-52300000D01*
G75*
G02*
X107910000Y-52400000I0J-100000D01*
G01*
X107910000Y-52600000D01*
G75*
G02*
X107810000Y-52700000I-100000J0D01*
G01*
X107375000Y-52700000D01*
G75*
G02*
X107275000Y-52600000I0J100000D01*
G01*
G37*
G36*
G01*
X108090000Y-52600000D02*
X108090000Y-52400000D01*
G75*
G02*
X108190000Y-52300000I100000J0D01*
G01*
X108625000Y-52300000D01*
G75*
G02*
X108725000Y-52400000I0J-100000D01*
G01*
X108725000Y-52600000D01*
G75*
G02*
X108625000Y-52700000I-100000J0D01*
G01*
X108190000Y-52700000D01*
G75*
G02*
X108090000Y-52600000I0J100000D01*
G01*
G37*
%TD*%
%TO.C,C2*%
G36*
G01*
X117275000Y-58795000D02*
X117275000Y-58595000D01*
G75*
G02*
X117375000Y-58495000I100000J0D01*
G01*
X117810000Y-58495000D01*
G75*
G02*
X117910000Y-58595000I0J-100000D01*
G01*
X117910000Y-58795000D01*
G75*
G02*
X117810000Y-58895000I-100000J0D01*
G01*
X117375000Y-58895000D01*
G75*
G02*
X117275000Y-58795000I0J100000D01*
G01*
G37*
G36*
G01*
X116460000Y-58795000D02*
X116460000Y-58595000D01*
G75*
G02*
X116560000Y-58495000I100000J0D01*
G01*
X116995000Y-58495000D01*
G75*
G02*
X117095000Y-58595000I0J-100000D01*
G01*
X117095000Y-58795000D01*
G75*
G02*
X116995000Y-58895000I-100000J0D01*
G01*
X116560000Y-58895000D01*
G75*
G02*
X116460000Y-58795000I0J100000D01*
G01*
G37*
%TD*%
%TO.C,C3*%
G36*
G01*
X117182000Y-61100000D02*
X117182000Y-60900000D01*
G75*
G02*
X117282000Y-60800000I100000J0D01*
G01*
X117717000Y-60800000D01*
G75*
G02*
X117817000Y-60900000I0J-100000D01*
G01*
X117817000Y-61100000D01*
G75*
G02*
X117717000Y-61200000I-100000J0D01*
G01*
X117282000Y-61200000D01*
G75*
G02*
X117182000Y-61100000I0J100000D01*
G01*
G37*
G36*
G01*
X116367000Y-61100000D02*
X116367000Y-60900000D01*
G75*
G02*
X116467000Y-60800000I100000J0D01*
G01*
X116902000Y-60800000D01*
G75*
G02*
X117002000Y-60900000I0J-100000D01*
G01*
X117002000Y-61100000D01*
G75*
G02*
X116902000Y-61200000I-100000J0D01*
G01*
X116467000Y-61200000D01*
G75*
G02*
X116367000Y-61100000I0J100000D01*
G01*
G37*
%TD*%
%TO.C,C4*%
G36*
G01*
X108090000Y-56600000D02*
X108090000Y-56400000D01*
G75*
G02*
X108190000Y-56300000I100000J0D01*
G01*
X108625000Y-56300000D01*
G75*
G02*
X108725000Y-56400000I0J-100000D01*
G01*
X108725000Y-56600000D01*
G75*
G02*
X108625000Y-56700000I-100000J0D01*
G01*
X108190000Y-56700000D01*
G75*
G02*
X108090000Y-56600000I0J100000D01*
G01*
G37*
G36*
G01*
X107275000Y-56600000D02*
X107275000Y-56400000D01*
G75*
G02*
X107375000Y-56300000I100000J0D01*
G01*
X107810000Y-56300000D01*
G75*
G02*
X107910000Y-56400000I0J-100000D01*
G01*
X107910000Y-56600000D01*
G75*
G02*
X107810000Y-56700000I-100000J0D01*
G01*
X107375000Y-56700000D01*
G75*
G02*
X107275000Y-56600000I0J100000D01*
G01*
G37*
%TD*%
%TO.C,C5*%
G36*
G01*
X107207000Y-63600000D02*
X107207000Y-63400000D01*
G75*
G02*
X107307000Y-63300000I100000J0D01*
G01*
X107742000Y-63300000D01*
G75*
G02*
X107842000Y-63400000I0J-100000D01*
G01*
X107842000Y-63600000D01*
G75*
G02*
X107742000Y-63700000I-100000J0D01*
G01*
X107307000Y-63700000D01*
G75*
G02*
X107207000Y-63600000I0J100000D01*
G01*
G37*
G36*
G01*
X108022000Y-63600000D02*
X108022000Y-63400000D01*
G75*
G02*
X108122000Y-63300000I100000J0D01*
G01*
X108557000Y-63300000D01*
G75*
G02*
X108657000Y-63400000I0J-100000D01*
G01*
X108657000Y-63600000D01*
G75*
G02*
X108557000Y-63700000I-100000J0D01*
G01*
X108122000Y-63700000D01*
G75*
G02*
X108022000Y-63600000I0J100000D01*
G01*
G37*
%TD*%
%TO.C,C6*%
G36*
G01*
X51725000Y-65900000D02*
X51725000Y-66100000D01*
G75*
G02*
X51625000Y-66200000I-100000J0D01*
G01*
X51190000Y-66200000D01*
G75*
G02*
X51090000Y-66100000I0J100000D01*
G01*
X51090000Y-65900000D01*
G75*
G02*
X51190000Y-65800000I100000J0D01*
G01*
X51625000Y-65800000D01*
G75*
G02*
X51725000Y-65900000I0J-100000D01*
G01*
G37*
G36*
G01*
X50910000Y-65900000D02*
X50910000Y-66100000D01*
G75*
G02*
X50810000Y-66200000I-100000J0D01*
G01*
X50375000Y-66200000D01*
G75*
G02*
X50275000Y-66100000I0J100000D01*
G01*
X50275000Y-65900000D01*
G75*
G02*
X50375000Y-65800000I100000J0D01*
G01*
X50810000Y-65800000D01*
G75*
G02*
X50910000Y-65900000I0J-100000D01*
G01*
G37*
%TD*%
%TO.C,C7*%
G36*
G01*
X108090000Y-67600000D02*
X108090000Y-67400000D01*
G75*
G02*
X108190000Y-67300000I100000J0D01*
G01*
X108625000Y-67300000D01*
G75*
G02*
X108725000Y-67400000I0J-100000D01*
G01*
X108725000Y-67600000D01*
G75*
G02*
X108625000Y-67700000I-100000J0D01*
G01*
X108190000Y-67700000D01*
G75*
G02*
X108090000Y-67600000I0J100000D01*
G01*
G37*
G36*
G01*
X107275000Y-67600000D02*
X107275000Y-67400000D01*
G75*
G02*
X107375000Y-67300000I100000J0D01*
G01*
X107810000Y-67300000D01*
G75*
G02*
X107910000Y-67400000I0J-100000D01*
G01*
X107910000Y-67600000D01*
G75*
G02*
X107810000Y-67700000I-100000J0D01*
G01*
X107375000Y-67700000D01*
G75*
G02*
X107275000Y-67600000I0J100000D01*
G01*
G37*
%TD*%
%TO.C,C8*%
G36*
G01*
X56900000Y-65775000D02*
X57100000Y-65775000D01*
G75*
G02*
X57200000Y-65875000I0J-100000D01*
G01*
X57200000Y-66310000D01*
G75*
G02*
X57100000Y-66410000I-100000J0D01*
G01*
X56900000Y-66410000D01*
G75*
G02*
X56800000Y-66310000I0J100000D01*
G01*
X56800000Y-65875000D01*
G75*
G02*
X56900000Y-65775000I100000J0D01*
G01*
G37*
G36*
G01*
X56900000Y-66590000D02*
X57100000Y-66590000D01*
G75*
G02*
X57200000Y-66690000I0J-100000D01*
G01*
X57200000Y-67125000D01*
G75*
G02*
X57100000Y-67225000I-100000J0D01*
G01*
X56900000Y-67225000D01*
G75*
G02*
X56800000Y-67125000I0J100000D01*
G01*
X56800000Y-66690000D01*
G75*
G02*
X56900000Y-66590000I100000J0D01*
G01*
G37*
%TD*%
%TO.C,C9*%
G36*
G01*
X116460000Y-56600000D02*
X116460000Y-56400000D01*
G75*
G02*
X116560000Y-56300000I100000J0D01*
G01*
X116995000Y-56300000D01*
G75*
G02*
X117095000Y-56400000I0J-100000D01*
G01*
X117095000Y-56600000D01*
G75*
G02*
X116995000Y-56700000I-100000J0D01*
G01*
X116560000Y-56700000D01*
G75*
G02*
X116460000Y-56600000I0J100000D01*
G01*
G37*
G36*
G01*
X117275000Y-56600000D02*
X117275000Y-56400000D01*
G75*
G02*
X117375000Y-56300000I100000J0D01*
G01*
X117810000Y-56300000D01*
G75*
G02*
X117910000Y-56400000I0J-100000D01*
G01*
X117910000Y-56600000D01*
G75*
G02*
X117810000Y-56700000I-100000J0D01*
G01*
X117375000Y-56700000D01*
G75*
G02*
X117275000Y-56600000I0J100000D01*
G01*
G37*
%TD*%
D10*
%TO.C,D1*%
X108000000Y-61650000D03*
X108000000Y-58350000D03*
%TD*%
%TO.C,D2*%
X57000000Y-52850000D03*
X57000000Y-56150000D03*
%TD*%
%TO.C,D3*%
X57000000Y-63150000D03*
X57000000Y-59850000D03*
%TD*%
%TO.C,D4*%
X51000000Y-52850000D03*
X51000000Y-56150000D03*
%TD*%
%TO.C,D5*%
X51000000Y-62150000D03*
X51000000Y-58850000D03*
%TD*%
D11*
%TO.C,J1*%
X40500000Y-66500000D03*
%TD*%
%TO.C,J2*%
X123000000Y-53500000D03*
%TD*%
%TO.C,J3*%
X123000000Y-60500000D03*
%TD*%
%TO.C,J4*%
X123000000Y-66500000D03*
%TD*%
%TO.C,J6*%
X40500000Y-38000000D03*
%TD*%
%TO.C,J7*%
X123000000Y-38000000D03*
%TD*%
%TO.C,J8*%
X123000000Y-78000000D03*
%TD*%
%TO.C,J9*%
X40500000Y-78000000D03*
%TD*%
%TO.C,J10*%
X40500000Y-52000000D03*
%TD*%
%TO.C,J11*%
X40500000Y-59000000D03*
%TD*%
%TO.C,R1*%
G36*
G01*
X111775000Y-54775000D02*
X111775000Y-54225000D01*
G75*
G02*
X111975000Y-54025000I200000J0D01*
G01*
X112375000Y-54025000D01*
G75*
G02*
X112575000Y-54225000I0J-200000D01*
G01*
X112575000Y-54775000D01*
G75*
G02*
X112375000Y-54975000I-200000J0D01*
G01*
X111975000Y-54975000D01*
G75*
G02*
X111775000Y-54775000I0J200000D01*
G01*
G37*
G36*
G01*
X113425000Y-54775000D02*
X113425000Y-54225000D01*
G75*
G02*
X113625000Y-54025000I200000J0D01*
G01*
X114025000Y-54025000D01*
G75*
G02*
X114225000Y-54225000I0J-200000D01*
G01*
X114225000Y-54775000D01*
G75*
G02*
X114025000Y-54975000I-200000J0D01*
G01*
X113625000Y-54975000D01*
G75*
G02*
X113425000Y-54775000I0J200000D01*
G01*
G37*
%TD*%
%TO.C,R2*%
G36*
G01*
X75050000Y-42725000D02*
X75050000Y-43275000D01*
G75*
G02*
X74850000Y-43475000I-200000J0D01*
G01*
X74450000Y-43475000D01*
G75*
G02*
X74250000Y-43275000I0J200000D01*
G01*
X74250000Y-42725000D01*
G75*
G02*
X74450000Y-42525000I200000J0D01*
G01*
X74850000Y-42525000D01*
G75*
G02*
X75050000Y-42725000I0J-200000D01*
G01*
G37*
G36*
G01*
X73400000Y-42725000D02*
X73400000Y-43275000D01*
G75*
G02*
X73200000Y-43475000I-200000J0D01*
G01*
X72800000Y-43475000D01*
G75*
G02*
X72600000Y-43275000I0J200000D01*
G01*
X72600000Y-42725000D01*
G75*
G02*
X72800000Y-42525000I200000J0D01*
G01*
X73200000Y-42525000D01*
G75*
G02*
X73400000Y-42725000I0J-200000D01*
G01*
G37*
%TD*%
%TO.C,R3*%
G36*
G01*
X111775000Y-62275000D02*
X111775000Y-61725000D01*
G75*
G02*
X111975000Y-61525000I200000J0D01*
G01*
X112375000Y-61525000D01*
G75*
G02*
X112575000Y-61725000I0J-200000D01*
G01*
X112575000Y-62275000D01*
G75*
G02*
X112375000Y-62475000I-200000J0D01*
G01*
X111975000Y-62475000D01*
G75*
G02*
X111775000Y-62275000I0J200000D01*
G01*
G37*
G36*
G01*
X113425000Y-62275000D02*
X113425000Y-61725000D01*
G75*
G02*
X113625000Y-61525000I200000J0D01*
G01*
X114025000Y-61525000D01*
G75*
G02*
X114225000Y-61725000I0J-200000D01*
G01*
X114225000Y-62275000D01*
G75*
G02*
X114025000Y-62475000I-200000J0D01*
G01*
X113625000Y-62475000D01*
G75*
G02*
X113425000Y-62275000I0J200000D01*
G01*
G37*
%TD*%
%TO.C,R4*%
G36*
G01*
X117275000Y-64575000D02*
X116725000Y-64575000D01*
G75*
G02*
X116525000Y-64375000I0J200000D01*
G01*
X116525000Y-63975000D01*
G75*
G02*
X116725000Y-63775000I200000J0D01*
G01*
X117275000Y-63775000D01*
G75*
G02*
X117475000Y-63975000I0J-200000D01*
G01*
X117475000Y-64375000D01*
G75*
G02*
X117275000Y-64575000I-200000J0D01*
G01*
G37*
G36*
G01*
X117275000Y-66225000D02*
X116725000Y-66225000D01*
G75*
G02*
X116525000Y-66025000I0J200000D01*
G01*
X116525000Y-65625000D01*
G75*
G02*
X116725000Y-65425000I200000J0D01*
G01*
X117275000Y-65425000D01*
G75*
G02*
X117475000Y-65625000I0J-200000D01*
G01*
X117475000Y-66025000D01*
G75*
G02*
X117275000Y-66225000I-200000J0D01*
G01*
G37*
%TD*%
%TO.C,R5*%
G36*
G01*
X113425000Y-58775000D02*
X113425000Y-58225000D01*
G75*
G02*
X113625000Y-58025000I200000J0D01*
G01*
X114025000Y-58025000D01*
G75*
G02*
X114225000Y-58225000I0J-200000D01*
G01*
X114225000Y-58775000D01*
G75*
G02*
X114025000Y-58975000I-200000J0D01*
G01*
X113625000Y-58975000D01*
G75*
G02*
X113425000Y-58775000I0J200000D01*
G01*
G37*
G36*
G01*
X111775000Y-58775000D02*
X111775000Y-58225000D01*
G75*
G02*
X111975000Y-58025000I200000J0D01*
G01*
X112375000Y-58025000D01*
G75*
G02*
X112575000Y-58225000I0J-200000D01*
G01*
X112575000Y-58775000D01*
G75*
G02*
X112375000Y-58975000I-200000J0D01*
G01*
X111975000Y-58975000D01*
G75*
G02*
X111775000Y-58775000I0J200000D01*
G01*
G37*
%TD*%
%TO.C,R6*%
G36*
G01*
X51600000Y-48775000D02*
X51600000Y-48225000D01*
G75*
G02*
X51800000Y-48025000I200000J0D01*
G01*
X52200000Y-48025000D01*
G75*
G02*
X52400000Y-48225000I0J-200000D01*
G01*
X52400000Y-48775000D01*
G75*
G02*
X52200000Y-48975000I-200000J0D01*
G01*
X51800000Y-48975000D01*
G75*
G02*
X51600000Y-48775000I0J200000D01*
G01*
G37*
G36*
G01*
X49950000Y-48775000D02*
X49950000Y-48225000D01*
G75*
G02*
X50150000Y-48025000I200000J0D01*
G01*
X50550000Y-48025000D01*
G75*
G02*
X50750000Y-48225000I0J-200000D01*
G01*
X50750000Y-48775000D01*
G75*
G02*
X50550000Y-48975000I-200000J0D01*
G01*
X50150000Y-48975000D01*
G75*
G02*
X49950000Y-48775000I0J200000D01*
G01*
G37*
%TD*%
%TO.C,R8*%
G36*
G01*
X113425000Y-65775000D02*
X113425000Y-65225000D01*
G75*
G02*
X113625000Y-65025000I200000J0D01*
G01*
X114025000Y-65025000D01*
G75*
G02*
X114225000Y-65225000I0J-200000D01*
G01*
X114225000Y-65775000D01*
G75*
G02*
X114025000Y-65975000I-200000J0D01*
G01*
X113625000Y-65975000D01*
G75*
G02*
X113425000Y-65775000I0J200000D01*
G01*
G37*
G36*
G01*
X111775000Y-65775000D02*
X111775000Y-65225000D01*
G75*
G02*
X111975000Y-65025000I200000J0D01*
G01*
X112375000Y-65025000D01*
G75*
G02*
X112575000Y-65225000I0J-200000D01*
G01*
X112575000Y-65775000D01*
G75*
G02*
X112375000Y-65975000I-200000J0D01*
G01*
X111975000Y-65975000D01*
G75*
G02*
X111775000Y-65775000I0J200000D01*
G01*
G37*
%TD*%
%TO.C,R9*%
G36*
G01*
X46275000Y-61075000D02*
X45725000Y-61075000D01*
G75*
G02*
X45525000Y-60875000I0J200000D01*
G01*
X45525000Y-60475000D01*
G75*
G02*
X45725000Y-60275000I200000J0D01*
G01*
X46275000Y-60275000D01*
G75*
G02*
X46475000Y-60475000I0J-200000D01*
G01*
X46475000Y-60875000D01*
G75*
G02*
X46275000Y-61075000I-200000J0D01*
G01*
G37*
G36*
G01*
X46275000Y-62725000D02*
X45725000Y-62725000D01*
G75*
G02*
X45525000Y-62525000I0J200000D01*
G01*
X45525000Y-62125000D01*
G75*
G02*
X45725000Y-61925000I200000J0D01*
G01*
X46275000Y-61925000D01*
G75*
G02*
X46475000Y-62125000I0J-200000D01*
G01*
X46475000Y-62525000D01*
G75*
G02*
X46275000Y-62725000I-200000J0D01*
G01*
G37*
%TD*%
%TO.C,R10*%
G36*
G01*
X49600000Y-70775000D02*
X49600000Y-70225000D01*
G75*
G02*
X49800000Y-70025000I200000J0D01*
G01*
X50200000Y-70025000D01*
G75*
G02*
X50400000Y-70225000I0J-200000D01*
G01*
X50400000Y-70775000D01*
G75*
G02*
X50200000Y-70975000I-200000J0D01*
G01*
X49800000Y-70975000D01*
G75*
G02*
X49600000Y-70775000I0J200000D01*
G01*
G37*
G36*
G01*
X51250000Y-70775000D02*
X51250000Y-70225000D01*
G75*
G02*
X51450000Y-70025000I200000J0D01*
G01*
X51850000Y-70025000D01*
G75*
G02*
X52050000Y-70225000I0J-200000D01*
G01*
X52050000Y-70775000D01*
G75*
G02*
X51850000Y-70975000I-200000J0D01*
G01*
X51450000Y-70975000D01*
G75*
G02*
X51250000Y-70775000I0J200000D01*
G01*
G37*
%TD*%
%TO.C,R11*%
G36*
G01*
X46275000Y-54725000D02*
X45725000Y-54725000D01*
G75*
G02*
X45525000Y-54525000I0J200000D01*
G01*
X45525000Y-54125000D01*
G75*
G02*
X45725000Y-53925000I200000J0D01*
G01*
X46275000Y-53925000D01*
G75*
G02*
X46475000Y-54125000I0J-200000D01*
G01*
X46475000Y-54525000D01*
G75*
G02*
X46275000Y-54725000I-200000J0D01*
G01*
G37*
G36*
G01*
X46275000Y-53075000D02*
X45725000Y-53075000D01*
G75*
G02*
X45525000Y-52875000I0J200000D01*
G01*
X45525000Y-52475000D01*
G75*
G02*
X45725000Y-52275000I200000J0D01*
G01*
X46275000Y-52275000D01*
G75*
G02*
X46475000Y-52475000I0J-200000D01*
G01*
X46475000Y-52875000D01*
G75*
G02*
X46275000Y-53075000I-200000J0D01*
G01*
G37*
%TD*%
%TO.C,R12*%
G36*
G01*
X46275000Y-67225000D02*
X45725000Y-67225000D01*
G75*
G02*
X45525000Y-67025000I0J200000D01*
G01*
X45525000Y-66625000D01*
G75*
G02*
X45725000Y-66425000I200000J0D01*
G01*
X46275000Y-66425000D01*
G75*
G02*
X46475000Y-66625000I0J-200000D01*
G01*
X46475000Y-67025000D01*
G75*
G02*
X46275000Y-67225000I-200000J0D01*
G01*
G37*
G36*
G01*
X46275000Y-65575000D02*
X45725000Y-65575000D01*
G75*
G02*
X45525000Y-65375000I0J200000D01*
G01*
X45525000Y-64975000D01*
G75*
G02*
X45725000Y-64775000I200000J0D01*
G01*
X46275000Y-64775000D01*
G75*
G02*
X46475000Y-64975000I0J-200000D01*
G01*
X46475000Y-65375000D01*
G75*
G02*
X46275000Y-65575000I-200000J0D01*
G01*
G37*
%TD*%
%TO.C,R13*%
G36*
G01*
X73575000Y-45225000D02*
X73575000Y-45775000D01*
G75*
G02*
X73375000Y-45975000I-200000J0D01*
G01*
X72975000Y-45975000D01*
G75*
G02*
X72775000Y-45775000I0J200000D01*
G01*
X72775000Y-45225000D01*
G75*
G02*
X72975000Y-45025000I200000J0D01*
G01*
X73375000Y-45025000D01*
G75*
G02*
X73575000Y-45225000I0J-200000D01*
G01*
G37*
G36*
G01*
X75225000Y-45225000D02*
X75225000Y-45775000D01*
G75*
G02*
X75025000Y-45975000I-200000J0D01*
G01*
X74625000Y-45975000D01*
G75*
G02*
X74425000Y-45775000I0J200000D01*
G01*
X74425000Y-45225000D01*
G75*
G02*
X74625000Y-45025000I200000J0D01*
G01*
X75025000Y-45025000D01*
G75*
G02*
X75225000Y-45225000I0J-200000D01*
G01*
G37*
%TD*%
%TO.C,R14*%
G36*
G01*
X75225000Y-47725000D02*
X75225000Y-48275000D01*
G75*
G02*
X75025000Y-48475000I-200000J0D01*
G01*
X74625000Y-48475000D01*
G75*
G02*
X74425000Y-48275000I0J200000D01*
G01*
X74425000Y-47725000D01*
G75*
G02*
X74625000Y-47525000I200000J0D01*
G01*
X75025000Y-47525000D01*
G75*
G02*
X75225000Y-47725000I0J-200000D01*
G01*
G37*
G36*
G01*
X73575000Y-47725000D02*
X73575000Y-48275000D01*
G75*
G02*
X73375000Y-48475000I-200000J0D01*
G01*
X72975000Y-48475000D01*
G75*
G02*
X72775000Y-48275000I0J200000D01*
G01*
X72775000Y-47725000D01*
G75*
G02*
X72975000Y-47525000I200000J0D01*
G01*
X73375000Y-47525000D01*
G75*
G02*
X73575000Y-47725000I0J-200000D01*
G01*
G37*
%TD*%
%TO.C,R15*%
G36*
G01*
X73575000Y-50225000D02*
X73575000Y-50775000D01*
G75*
G02*
X73375000Y-50975000I-200000J0D01*
G01*
X72975000Y-50975000D01*
G75*
G02*
X72775000Y-50775000I0J200000D01*
G01*
X72775000Y-50225000D01*
G75*
G02*
X72975000Y-50025000I200000J0D01*
G01*
X73375000Y-50025000D01*
G75*
G02*
X73575000Y-50225000I0J-200000D01*
G01*
G37*
G36*
G01*
X75225000Y-50225000D02*
X75225000Y-50775000D01*
G75*
G02*
X75025000Y-50975000I-200000J0D01*
G01*
X74625000Y-50975000D01*
G75*
G02*
X74425000Y-50775000I0J200000D01*
G01*
X74425000Y-50225000D01*
G75*
G02*
X74625000Y-50025000I200000J0D01*
G01*
X75025000Y-50025000D01*
G75*
G02*
X75225000Y-50225000I0J-200000D01*
G01*
G37*
%TD*%
%TO.C,R16*%
G36*
G01*
X73575000Y-52725000D02*
X73575000Y-53275000D01*
G75*
G02*
X73375000Y-53475000I-200000J0D01*
G01*
X72975000Y-53475000D01*
G75*
G02*
X72775000Y-53275000I0J200000D01*
G01*
X72775000Y-52725000D01*
G75*
G02*
X72975000Y-52525000I200000J0D01*
G01*
X73375000Y-52525000D01*
G75*
G02*
X73575000Y-52725000I0J-200000D01*
G01*
G37*
G36*
G01*
X75225000Y-52725000D02*
X75225000Y-53275000D01*
G75*
G02*
X75025000Y-53475000I-200000J0D01*
G01*
X74625000Y-53475000D01*
G75*
G02*
X74425000Y-53275000I0J200000D01*
G01*
X74425000Y-52725000D01*
G75*
G02*
X74625000Y-52525000I200000J0D01*
G01*
X75025000Y-52525000D01*
G75*
G02*
X75225000Y-52725000I0J-200000D01*
G01*
G37*
%TD*%
%TO.C,R17*%
G36*
G01*
X75925000Y-55049998D02*
X75925000Y-55950002D01*
G75*
G02*
X75675002Y-56200000I-249998J0D01*
G01*
X75149998Y-56200000D01*
G75*
G02*
X74900000Y-55950002I0J249998D01*
G01*
X74900000Y-55049998D01*
G75*
G02*
X75149998Y-54800000I249998J0D01*
G01*
X75675002Y-54800000D01*
G75*
G02*
X75925000Y-55049998I0J-249998D01*
G01*
G37*
G36*
G01*
X74100000Y-55049998D02*
X74100000Y-55950002D01*
G75*
G02*
X73850002Y-56200000I-249998J0D01*
G01*
X73324998Y-56200000D01*
G75*
G02*
X73075000Y-55950002I0J249998D01*
G01*
X73075000Y-55049998D01*
G75*
G02*
X73324998Y-54800000I249998J0D01*
G01*
X73850002Y-54800000D01*
G75*
G02*
X74100000Y-55049998I0J-249998D01*
G01*
G37*
%TD*%
%TO.C,R18*%
G36*
G01*
X92687500Y-68049998D02*
X92687500Y-68950002D01*
G75*
G02*
X92437502Y-69200000I-249998J0D01*
G01*
X91912498Y-69200000D01*
G75*
G02*
X91662500Y-68950002I0J249998D01*
G01*
X91662500Y-68049998D01*
G75*
G02*
X91912498Y-67800000I249998J0D01*
G01*
X92437502Y-67800000D01*
G75*
G02*
X92687500Y-68049998I0J-249998D01*
G01*
G37*
G36*
G01*
X94512500Y-68049998D02*
X94512500Y-68950002D01*
G75*
G02*
X94262502Y-69200000I-249998J0D01*
G01*
X93737498Y-69200000D01*
G75*
G02*
X93487500Y-68950002I0J249998D01*
G01*
X93487500Y-68049998D01*
G75*
G02*
X93737498Y-67800000I249998J0D01*
G01*
X94262502Y-67800000D01*
G75*
G02*
X94512500Y-68049998I0J-249998D01*
G01*
G37*
%TD*%
%TO.C,R19*%
G36*
G01*
X75225000Y-62225000D02*
X75225000Y-62775000D01*
G75*
G02*
X75025000Y-62975000I-200000J0D01*
G01*
X74625000Y-62975000D01*
G75*
G02*
X74425000Y-62775000I0J200000D01*
G01*
X74425000Y-62225000D01*
G75*
G02*
X74625000Y-62025000I200000J0D01*
G01*
X75025000Y-62025000D01*
G75*
G02*
X75225000Y-62225000I0J-200000D01*
G01*
G37*
G36*
G01*
X73575000Y-62225000D02*
X73575000Y-62775000D01*
G75*
G02*
X73375000Y-62975000I-200000J0D01*
G01*
X72975000Y-62975000D01*
G75*
G02*
X72775000Y-62775000I0J200000D01*
G01*
X72775000Y-62225000D01*
G75*
G02*
X72975000Y-62025000I200000J0D01*
G01*
X73375000Y-62025000D01*
G75*
G02*
X73575000Y-62225000I0J-200000D01*
G01*
G37*
%TD*%
%TO.C,R20*%
G36*
G01*
X75225000Y-64725000D02*
X75225000Y-65275000D01*
G75*
G02*
X75025000Y-65475000I-200000J0D01*
G01*
X74625000Y-65475000D01*
G75*
G02*
X74425000Y-65275000I0J200000D01*
G01*
X74425000Y-64725000D01*
G75*
G02*
X74625000Y-64525000I200000J0D01*
G01*
X75025000Y-64525000D01*
G75*
G02*
X75225000Y-64725000I0J-200000D01*
G01*
G37*
G36*
G01*
X73575000Y-64725000D02*
X73575000Y-65275000D01*
G75*
G02*
X73375000Y-65475000I-200000J0D01*
G01*
X72975000Y-65475000D01*
G75*
G02*
X72775000Y-65275000I0J200000D01*
G01*
X72775000Y-64725000D01*
G75*
G02*
X72975000Y-64525000I200000J0D01*
G01*
X73375000Y-64525000D01*
G75*
G02*
X73575000Y-64725000I0J-200000D01*
G01*
G37*
%TD*%
%TO.C,R21*%
G36*
G01*
X73575000Y-67225000D02*
X73575000Y-67775000D01*
G75*
G02*
X73375000Y-67975000I-200000J0D01*
G01*
X72975000Y-67975000D01*
G75*
G02*
X72775000Y-67775000I0J200000D01*
G01*
X72775000Y-67225000D01*
G75*
G02*
X72975000Y-67025000I200000J0D01*
G01*
X73375000Y-67025000D01*
G75*
G02*
X73575000Y-67225000I0J-200000D01*
G01*
G37*
G36*
G01*
X75225000Y-67225000D02*
X75225000Y-67775000D01*
G75*
G02*
X75025000Y-67975000I-200000J0D01*
G01*
X74625000Y-67975000D01*
G75*
G02*
X74425000Y-67775000I0J200000D01*
G01*
X74425000Y-67225000D01*
G75*
G02*
X74625000Y-67025000I200000J0D01*
G01*
X75025000Y-67025000D01*
G75*
G02*
X75225000Y-67225000I0J-200000D01*
G01*
G37*
%TD*%
%TO.C,R22*%
G36*
G01*
X75225000Y-69725000D02*
X75225000Y-70275000D01*
G75*
G02*
X75025000Y-70475000I-200000J0D01*
G01*
X74625000Y-70475000D01*
G75*
G02*
X74425000Y-70275000I0J200000D01*
G01*
X74425000Y-69725000D01*
G75*
G02*
X74625000Y-69525000I200000J0D01*
G01*
X75025000Y-69525000D01*
G75*
G02*
X75225000Y-69725000I0J-200000D01*
G01*
G37*
G36*
G01*
X73575000Y-69725000D02*
X73575000Y-70275000D01*
G75*
G02*
X73375000Y-70475000I-200000J0D01*
G01*
X72975000Y-70475000D01*
G75*
G02*
X72775000Y-70275000I0J200000D01*
G01*
X72775000Y-69725000D01*
G75*
G02*
X72975000Y-69525000I200000J0D01*
G01*
X73375000Y-69525000D01*
G75*
G02*
X73575000Y-69725000I0J-200000D01*
G01*
G37*
%TD*%
%TO.C,R23*%
G36*
G01*
X73575000Y-72225000D02*
X73575000Y-72775000D01*
G75*
G02*
X73375000Y-72975000I-200000J0D01*
G01*
X72975000Y-72975000D01*
G75*
G02*
X72775000Y-72775000I0J200000D01*
G01*
X72775000Y-72225000D01*
G75*
G02*
X72975000Y-72025000I200000J0D01*
G01*
X73375000Y-72025000D01*
G75*
G02*
X73575000Y-72225000I0J-200000D01*
G01*
G37*
G36*
G01*
X75225000Y-72225000D02*
X75225000Y-72775000D01*
G75*
G02*
X75025000Y-72975000I-200000J0D01*
G01*
X74625000Y-72975000D01*
G75*
G02*
X74425000Y-72775000I0J200000D01*
G01*
X74425000Y-72225000D01*
G75*
G02*
X74625000Y-72025000I200000J0D01*
G01*
X75025000Y-72025000D01*
G75*
G02*
X75225000Y-72225000I0J-200000D01*
G01*
G37*
%TD*%
%TO.C,R24*%
G36*
G01*
X73600000Y-74549998D02*
X73600000Y-75450002D01*
G75*
G02*
X73350002Y-75700000I-249998J0D01*
G01*
X72824998Y-75700000D01*
G75*
G02*
X72575000Y-75450002I0J249998D01*
G01*
X72575000Y-74549998D01*
G75*
G02*
X72824998Y-74300000I249998J0D01*
G01*
X73350002Y-74300000D01*
G75*
G02*
X73600000Y-74549998I0J-249998D01*
G01*
G37*
G36*
G01*
X75425000Y-74549998D02*
X75425000Y-75450002D01*
G75*
G02*
X75175002Y-75700000I-249998J0D01*
G01*
X74649998Y-75700000D01*
G75*
G02*
X74400000Y-75450002I0J249998D01*
G01*
X74400000Y-74549998D01*
G75*
G02*
X74649998Y-74300000I249998J0D01*
G01*
X75175002Y-74300000D01*
G75*
G02*
X75425000Y-74549998I0J-249998D01*
G01*
G37*
%TD*%
%TO.C,R25*%
G36*
G01*
X75425000Y-77549998D02*
X75425000Y-78450002D01*
G75*
G02*
X75175002Y-78700000I-249998J0D01*
G01*
X74649998Y-78700000D01*
G75*
G02*
X74400000Y-78450002I0J249998D01*
G01*
X74400000Y-77549998D01*
G75*
G02*
X74649998Y-77300000I249998J0D01*
G01*
X75175002Y-77300000D01*
G75*
G02*
X75425000Y-77549998I0J-249998D01*
G01*
G37*
G36*
G01*
X73600000Y-77549998D02*
X73600000Y-78450002D01*
G75*
G02*
X73350002Y-78700000I-249998J0D01*
G01*
X72824998Y-78700000D01*
G75*
G02*
X72575000Y-78450002I0J249998D01*
G01*
X72575000Y-77549998D01*
G75*
G02*
X72824998Y-77300000I249998J0D01*
G01*
X73350002Y-77300000D01*
G75*
G02*
X73600000Y-77549998I0J-249998D01*
G01*
G37*
%TD*%
D12*
%TO.C,SW1*%
X70170000Y-43000000D03*
X64000000Y-43000000D03*
X70170000Y-45540000D03*
X64000000Y-45540000D03*
X70170000Y-48080000D03*
X64000000Y-48080000D03*
X70170000Y-50620000D03*
X64000000Y-50620000D03*
X70170000Y-53160000D03*
X64000000Y-53160000D03*
X70170000Y-55700000D03*
X64000000Y-55700000D03*
X70170000Y-58240000D03*
X64000000Y-58240000D03*
%TD*%
%TO.C,SW2*%
X64000000Y-77740000D03*
X70170000Y-77740000D03*
X64000000Y-75200000D03*
X70170000Y-75200000D03*
X64000000Y-72660000D03*
X70170000Y-72660000D03*
X64000000Y-70120000D03*
X70170000Y-70120000D03*
X64000000Y-67580000D03*
X70170000Y-67580000D03*
X64000000Y-65040000D03*
X70170000Y-65040000D03*
X64000000Y-62500000D03*
X70170000Y-62500000D03*
%TD*%
%TO.C,R7*%
G36*
G01*
X45725000Y-56275000D02*
X46275000Y-56275000D01*
G75*
G02*
X46475000Y-56475000I0J-200000D01*
G01*
X46475000Y-56875000D01*
G75*
G02*
X46275000Y-57075000I-200000J0D01*
G01*
X45725000Y-57075000D01*
G75*
G02*
X45525000Y-56875000I0J200000D01*
G01*
X45525000Y-56475000D01*
G75*
G02*
X45725000Y-56275000I200000J0D01*
G01*
G37*
G36*
G01*
X45725000Y-57925000D02*
X46275000Y-57925000D01*
G75*
G02*
X46475000Y-58125000I0J-200000D01*
G01*
X46475000Y-58525000D01*
G75*
G02*
X46275000Y-58725000I-200000J0D01*
G01*
X45725000Y-58725000D01*
G75*
G02*
X45525000Y-58525000I0J200000D01*
G01*
X45525000Y-58125000D01*
G75*
G02*
X45725000Y-57925000I200000J0D01*
G01*
G37*
%TD*%
%TO.C,U1*%
G36*
G01*
X87250000Y-56995000D02*
X87250000Y-56695000D01*
G75*
G02*
X87400000Y-56545000I150000J0D01*
G01*
X89050000Y-56545000D01*
G75*
G02*
X89200000Y-56695000I0J-150000D01*
G01*
X89200000Y-56995000D01*
G75*
G02*
X89050000Y-57145000I-150000J0D01*
G01*
X87400000Y-57145000D01*
G75*
G02*
X87250000Y-56995000I0J150000D01*
G01*
G37*
G36*
G01*
X87250000Y-58265000D02*
X87250000Y-57965000D01*
G75*
G02*
X87400000Y-57815000I150000J0D01*
G01*
X89050000Y-57815000D01*
G75*
G02*
X89200000Y-57965000I0J-150000D01*
G01*
X89200000Y-58265000D01*
G75*
G02*
X89050000Y-58415000I-150000J0D01*
G01*
X87400000Y-58415000D01*
G75*
G02*
X87250000Y-58265000I0J150000D01*
G01*
G37*
G36*
G01*
X87250000Y-59535000D02*
X87250000Y-59235000D01*
G75*
G02*
X87400000Y-59085000I150000J0D01*
G01*
X89050000Y-59085000D01*
G75*
G02*
X89200000Y-59235000I0J-150000D01*
G01*
X89200000Y-59535000D01*
G75*
G02*
X89050000Y-59685000I-150000J0D01*
G01*
X87400000Y-59685000D01*
G75*
G02*
X87250000Y-59535000I0J150000D01*
G01*
G37*
G36*
G01*
X87250000Y-60805000D02*
X87250000Y-60505000D01*
G75*
G02*
X87400000Y-60355000I150000J0D01*
G01*
X89050000Y-60355000D01*
G75*
G02*
X89200000Y-60505000I0J-150000D01*
G01*
X89200000Y-60805000D01*
G75*
G02*
X89050000Y-60955000I-150000J0D01*
G01*
X87400000Y-60955000D01*
G75*
G02*
X87250000Y-60805000I0J150000D01*
G01*
G37*
G36*
G01*
X82300000Y-60805000D02*
X82300000Y-60505000D01*
G75*
G02*
X82450000Y-60355000I150000J0D01*
G01*
X84100000Y-60355000D01*
G75*
G02*
X84250000Y-60505000I0J-150000D01*
G01*
X84250000Y-60805000D01*
G75*
G02*
X84100000Y-60955000I-150000J0D01*
G01*
X82450000Y-60955000D01*
G75*
G02*
X82300000Y-60805000I0J150000D01*
G01*
G37*
G36*
G01*
X82300000Y-59535000D02*
X82300000Y-59235000D01*
G75*
G02*
X82450000Y-59085000I150000J0D01*
G01*
X84100000Y-59085000D01*
G75*
G02*
X84250000Y-59235000I0J-150000D01*
G01*
X84250000Y-59535000D01*
G75*
G02*
X84100000Y-59685000I-150000J0D01*
G01*
X82450000Y-59685000D01*
G75*
G02*
X82300000Y-59535000I0J150000D01*
G01*
G37*
G36*
G01*
X82300000Y-58265000D02*
X82300000Y-57965000D01*
G75*
G02*
X82450000Y-57815000I150000J0D01*
G01*
X84100000Y-57815000D01*
G75*
G02*
X84250000Y-57965000I0J-150000D01*
G01*
X84250000Y-58265000D01*
G75*
G02*
X84100000Y-58415000I-150000J0D01*
G01*
X82450000Y-58415000D01*
G75*
G02*
X82300000Y-58265000I0J150000D01*
G01*
G37*
G36*
G01*
X82300000Y-56995000D02*
X82300000Y-56695000D01*
G75*
G02*
X82450000Y-56545000I150000J0D01*
G01*
X84100000Y-56545000D01*
G75*
G02*
X84250000Y-56695000I0J-150000D01*
G01*
X84250000Y-56995000D01*
G75*
G02*
X84100000Y-57145000I-150000J0D01*
G01*
X82450000Y-57145000D01*
G75*
G02*
X82300000Y-56995000I0J150000D01*
G01*
G37*
%TD*%
M02*
