%TF.GenerationSoftware,KiCad,Pcbnew,5.1.10*%
%TF.CreationDate,2021-08-04T12:07:05+02:00*%
%TF.ProjectId,smd-balanced-test,736d642d-6261-46c6-916e-6365642d7465,rev?*%
%TF.SameCoordinates,Original*%
%TF.FileFunction,Other,User*%
%FSLAX46Y46*%
G04 Gerber Fmt 4.6, Leading zero omitted, Abs format (unit mm)*
G04 Created by KiCad (PCBNEW 5.1.10) date 2021-08-04 12:07:05*
%MOMM*%
%LPD*%
G01*
G04 APERTURE LIST*
%ADD10C,0.050000*%
G04 APERTURE END LIST*
D10*
%TO.C,C1*%
X108880000Y-52850000D02*
X107120000Y-52850000D01*
X108880000Y-52150000D02*
X108880000Y-52850000D01*
X107120000Y-52150000D02*
X108880000Y-52150000D01*
X107120000Y-52850000D02*
X107120000Y-52150000D01*
%TO.C,C2*%
X116305000Y-59045000D02*
X116305000Y-58345000D01*
X116305000Y-58345000D02*
X118065000Y-58345000D01*
X118065000Y-58345000D02*
X118065000Y-59045000D01*
X118065000Y-59045000D02*
X116305000Y-59045000D01*
%TO.C,C3*%
X116212000Y-61350000D02*
X116212000Y-60650000D01*
X116212000Y-60650000D02*
X117972000Y-60650000D01*
X117972000Y-60650000D02*
X117972000Y-61350000D01*
X117972000Y-61350000D02*
X116212000Y-61350000D01*
%TO.C,C4*%
X107120000Y-56850000D02*
X107120000Y-56150000D01*
X107120000Y-56150000D02*
X108880000Y-56150000D01*
X108880000Y-56150000D02*
X108880000Y-56850000D01*
X108880000Y-56850000D02*
X107120000Y-56850000D01*
%TO.C,C5*%
X108812000Y-63850000D02*
X107052000Y-63850000D01*
X108812000Y-63150000D02*
X108812000Y-63850000D01*
X107052000Y-63150000D02*
X108812000Y-63150000D01*
X107052000Y-63850000D02*
X107052000Y-63150000D01*
%TO.C,C6*%
X57350000Y-51870000D02*
X57350000Y-53630000D01*
X56650000Y-51870000D02*
X57350000Y-51870000D01*
X56650000Y-53630000D02*
X56650000Y-51870000D01*
X57350000Y-53630000D02*
X56650000Y-53630000D01*
%TO.C,C7*%
X107120000Y-67850000D02*
X107120000Y-67150000D01*
X107120000Y-67150000D02*
X108880000Y-67150000D01*
X108880000Y-67150000D02*
X108880000Y-67850000D01*
X108880000Y-67850000D02*
X107120000Y-67850000D01*
%TO.C,C8*%
X56400000Y-67197500D02*
X56400000Y-65437500D01*
X57100000Y-67197500D02*
X56400000Y-67197500D01*
X57100000Y-65437500D02*
X57100000Y-67197500D01*
X56400000Y-65437500D02*
X57100000Y-65437500D01*
%TO.C,C9*%
X116305000Y-56150000D02*
X118065000Y-56150000D01*
X116305000Y-56850000D02*
X116305000Y-56150000D01*
X118065000Y-56850000D02*
X116305000Y-56850000D01*
X118065000Y-56150000D02*
X118065000Y-56850000D01*
%TO.C,D1*%
X106850000Y-62350000D02*
X109150000Y-62350000D01*
X109150000Y-57650000D02*
X109150000Y-62350000D01*
X106850000Y-57650000D02*
X109150000Y-57650000D01*
X106850000Y-62350000D02*
X106850000Y-57650000D01*
%TO.C,D2*%
X52150000Y-53250000D02*
X52150000Y-57950000D01*
X52150000Y-57950000D02*
X49850000Y-57950000D01*
X49850000Y-57950000D02*
X49850000Y-53250000D01*
X52150000Y-53250000D02*
X49850000Y-53250000D01*
%TO.C,D3*%
X52150000Y-59050000D02*
X49850000Y-59050000D01*
X49850000Y-63750000D02*
X49850000Y-59050000D01*
X52150000Y-63750000D02*
X49850000Y-63750000D01*
X52150000Y-59050000D02*
X52150000Y-63750000D01*
%TO.C,D4*%
X45850000Y-58250000D02*
X45850000Y-53550000D01*
X45850000Y-53550000D02*
X48150000Y-53550000D01*
X48150000Y-53550000D02*
X48150000Y-58250000D01*
X45850000Y-58250000D02*
X48150000Y-58250000D01*
%TO.C,D5*%
X45850000Y-63750000D02*
X48150000Y-63750000D01*
X48150000Y-59050000D02*
X48150000Y-63750000D01*
X45850000Y-59050000D02*
X48150000Y-59050000D01*
X45850000Y-63750000D02*
X45850000Y-59050000D01*
%TO.C,J1*%
X42500000Y-66500000D02*
G75*
G03*
X42500000Y-66500000I-2000000J0D01*
G01*
%TO.C,J2*%
X125000000Y-53500000D02*
G75*
G03*
X125000000Y-53500000I-2000000J0D01*
G01*
%TO.C,J3*%
X125000000Y-60500000D02*
G75*
G03*
X125000000Y-60500000I-2000000J0D01*
G01*
%TO.C,J4*%
X125000000Y-66500000D02*
G75*
G03*
X125000000Y-66500000I-2000000J0D01*
G01*
%TO.C,J6*%
X42500000Y-38000000D02*
G75*
G03*
X42500000Y-38000000I-2000000J0D01*
G01*
%TO.C,J7*%
X125000000Y-38000000D02*
G75*
G03*
X125000000Y-38000000I-2000000J0D01*
G01*
%TO.C,J8*%
X125000000Y-78000000D02*
G75*
G03*
X125000000Y-78000000I-2000000J0D01*
G01*
%TO.C,J9*%
X42500000Y-78000000D02*
G75*
G03*
X42500000Y-78000000I-2000000J0D01*
G01*
%TO.C,J10*%
X42500000Y-52000000D02*
G75*
G03*
X42500000Y-52000000I-2000000J0D01*
G01*
%TO.C,J11*%
X42500000Y-59000000D02*
G75*
G03*
X42500000Y-59000000I-2000000J0D01*
G01*
%TO.C,R1*%
X114480000Y-55230000D02*
X111520000Y-55230000D01*
X114480000Y-53770000D02*
X114480000Y-55230000D01*
X111520000Y-53770000D02*
X114480000Y-53770000D01*
X111520000Y-55230000D02*
X111520000Y-53770000D01*
%TO.C,R2*%
X72345000Y-42270000D02*
X75305000Y-42270000D01*
X72345000Y-43730000D02*
X72345000Y-42270000D01*
X75305000Y-43730000D02*
X72345000Y-43730000D01*
X75305000Y-42270000D02*
X75305000Y-43730000D01*
%TO.C,R3*%
X114480000Y-62730000D02*
X111520000Y-62730000D01*
X114480000Y-61270000D02*
X114480000Y-62730000D01*
X111520000Y-61270000D02*
X114480000Y-61270000D01*
X111520000Y-62730000D02*
X111520000Y-61270000D01*
%TO.C,R4*%
X117730000Y-66480000D02*
X116270000Y-66480000D01*
X116270000Y-66480000D02*
X116270000Y-63520000D01*
X116270000Y-63520000D02*
X117730000Y-63520000D01*
X117730000Y-63520000D02*
X117730000Y-66480000D01*
%TO.C,R5*%
X111520000Y-59230000D02*
X111520000Y-57770000D01*
X111520000Y-57770000D02*
X114480000Y-57770000D01*
X114480000Y-57770000D02*
X114480000Y-59230000D01*
X114480000Y-59230000D02*
X111520000Y-59230000D01*
%TO.C,R6*%
X51730000Y-52405000D02*
X50270000Y-52405000D01*
X50270000Y-52405000D02*
X50270000Y-49445000D01*
X50270000Y-49445000D02*
X51730000Y-49445000D01*
X51730000Y-49445000D02*
X51730000Y-52405000D01*
%TO.C,R8*%
X111520000Y-66230000D02*
X111520000Y-64770000D01*
X111520000Y-64770000D02*
X114480000Y-64770000D01*
X114480000Y-64770000D02*
X114480000Y-66230000D01*
X114480000Y-66230000D02*
X111520000Y-66230000D01*
%TO.C,R9*%
X57730000Y-50305000D02*
X56270000Y-50305000D01*
X56270000Y-50305000D02*
X56270000Y-47345000D01*
X56270000Y-47345000D02*
X57730000Y-47345000D01*
X57730000Y-47345000D02*
X57730000Y-50305000D01*
%TO.C,R10*%
X51730000Y-65095000D02*
X51730000Y-68055000D01*
X50270000Y-65095000D02*
X51730000Y-65095000D01*
X50270000Y-68055000D02*
X50270000Y-65095000D01*
X51730000Y-68055000D02*
X50270000Y-68055000D01*
%TO.C,R11*%
X46270000Y-52405000D02*
X46270000Y-49445000D01*
X47730000Y-52405000D02*
X46270000Y-52405000D01*
X47730000Y-49445000D02*
X47730000Y-52405000D01*
X46270000Y-49445000D02*
X47730000Y-49445000D01*
%TO.C,R12*%
X57480000Y-69095000D02*
X57480000Y-72055000D01*
X56020000Y-69095000D02*
X57480000Y-69095000D01*
X56020000Y-72055000D02*
X56020000Y-69095000D01*
X57480000Y-72055000D02*
X56020000Y-72055000D01*
%TO.C,R13*%
X75480000Y-44770000D02*
X75480000Y-46230000D01*
X75480000Y-46230000D02*
X72520000Y-46230000D01*
X72520000Y-46230000D02*
X72520000Y-44770000D01*
X72520000Y-44770000D02*
X75480000Y-44770000D01*
%TO.C,R14*%
X72520000Y-47270000D02*
X75480000Y-47270000D01*
X72520000Y-48730000D02*
X72520000Y-47270000D01*
X75480000Y-48730000D02*
X72520000Y-48730000D01*
X75480000Y-47270000D02*
X75480000Y-48730000D01*
%TO.C,R15*%
X75480000Y-49770000D02*
X75480000Y-51230000D01*
X75480000Y-51230000D02*
X72520000Y-51230000D01*
X72520000Y-51230000D02*
X72520000Y-49770000D01*
X72520000Y-49770000D02*
X75480000Y-49770000D01*
%TO.C,R16*%
X75480000Y-52270000D02*
X75480000Y-53730000D01*
X75480000Y-53730000D02*
X72520000Y-53730000D01*
X72520000Y-53730000D02*
X72520000Y-52270000D01*
X72520000Y-52270000D02*
X75480000Y-52270000D01*
%TO.C,R17*%
X72820000Y-54550000D02*
X76180000Y-54550000D01*
X72820000Y-56450000D02*
X72820000Y-54550000D01*
X76180000Y-56450000D02*
X72820000Y-56450000D01*
X76180000Y-54550000D02*
X76180000Y-56450000D01*
%TO.C,R18*%
X76092500Y-57300000D02*
X76092500Y-59200000D01*
X76092500Y-59200000D02*
X72732500Y-59200000D01*
X72732500Y-59200000D02*
X72732500Y-57300000D01*
X72732500Y-57300000D02*
X76092500Y-57300000D01*
%TO.C,R19*%
X72520000Y-61770000D02*
X75480000Y-61770000D01*
X72520000Y-63230000D02*
X72520000Y-61770000D01*
X75480000Y-63230000D02*
X72520000Y-63230000D01*
X75480000Y-61770000D02*
X75480000Y-63230000D01*
%TO.C,R20*%
X72520000Y-64270000D02*
X75480000Y-64270000D01*
X72520000Y-65730000D02*
X72520000Y-64270000D01*
X75480000Y-65730000D02*
X72520000Y-65730000D01*
X75480000Y-64270000D02*
X75480000Y-65730000D01*
%TO.C,R21*%
X75480000Y-66770000D02*
X75480000Y-68230000D01*
X75480000Y-68230000D02*
X72520000Y-68230000D01*
X72520000Y-68230000D02*
X72520000Y-66770000D01*
X72520000Y-66770000D02*
X75480000Y-66770000D01*
%TO.C,R22*%
X72520000Y-69270000D02*
X75480000Y-69270000D01*
X72520000Y-70730000D02*
X72520000Y-69270000D01*
X75480000Y-70730000D02*
X72520000Y-70730000D01*
X75480000Y-69270000D02*
X75480000Y-70730000D01*
%TO.C,R23*%
X75480000Y-71770000D02*
X75480000Y-73230000D01*
X75480000Y-73230000D02*
X72520000Y-73230000D01*
X72520000Y-73230000D02*
X72520000Y-71770000D01*
X72520000Y-71770000D02*
X75480000Y-71770000D01*
%TO.C,R24*%
X75680000Y-74050000D02*
X75680000Y-75950000D01*
X75680000Y-75950000D02*
X72320000Y-75950000D01*
X72320000Y-75950000D02*
X72320000Y-74050000D01*
X72320000Y-74050000D02*
X75680000Y-74050000D01*
%TO.C,R25*%
X72320000Y-77050000D02*
X75680000Y-77050000D01*
X72320000Y-78950000D02*
X72320000Y-77050000D01*
X75680000Y-78950000D02*
X72320000Y-78950000D01*
X75680000Y-77050000D02*
X75680000Y-78950000D01*
%TO.C,SW1*%
X62505000Y-42180000D02*
X71665000Y-42180000D01*
X62505000Y-59060000D02*
X62505000Y-42180000D01*
X71665000Y-59060000D02*
X62505000Y-59060000D01*
X71665000Y-42180000D02*
X71665000Y-59060000D01*
%TO.C,SW2*%
X71665000Y-61680000D02*
X71665000Y-78560000D01*
X71665000Y-78560000D02*
X62505000Y-78560000D01*
X62505000Y-78560000D02*
X62505000Y-61680000D01*
X62505000Y-61680000D02*
X71665000Y-61680000D01*
%TO.C,R7*%
X46270000Y-68055000D02*
X46270000Y-65095000D01*
X47730000Y-68055000D02*
X46270000Y-68055000D01*
X47730000Y-65095000D02*
X47730000Y-68055000D01*
X46270000Y-65095000D02*
X47730000Y-65095000D01*
%TO.C,C10*%
X82350000Y-59552500D02*
X82350000Y-61312500D01*
X81650000Y-59552500D02*
X82350000Y-59552500D01*
X81650000Y-61312500D02*
X81650000Y-59552500D01*
X82350000Y-61312500D02*
X81650000Y-61312500D01*
%TO.C,C11*%
X94100000Y-61287500D02*
X93400000Y-61287500D01*
X93400000Y-61287500D02*
X93400000Y-59527500D01*
X93400000Y-59527500D02*
X94100000Y-59527500D01*
X94100000Y-59527500D02*
X94100000Y-61287500D01*
%TO.C,U1*%
X91525000Y-57685000D02*
X84125000Y-57685000D01*
X91525000Y-63085000D02*
X91525000Y-57685000D01*
X84125000Y-63085000D02*
X91525000Y-63085000D01*
X84125000Y-57685000D02*
X84125000Y-63085000D01*
%TD*%
M02*
