%TF.GenerationSoftware,KiCad,Pcbnew,5.1.10*%
%TF.CreationDate,2021-08-04T12:07:05+02:00*%
%TF.ProjectId,smd-balanced-test,736d642d-6261-46c6-916e-6365642d7465,rev?*%
%TF.SameCoordinates,Original*%
%TF.FileFunction,Other,Fab,Top*%
%FSLAX46Y46*%
G04 Gerber Fmt 4.6, Leading zero omitted, Abs format (unit mm)*
G04 Created by KiCad (PCBNEW 5.1.10) date 2021-08-04 12:07:05*
%MOMM*%
%LPD*%
G01*
G04 APERTURE LIST*
%ADD10C,0.100000*%
%ADD11C,0.150000*%
%ADD12C,0.040000*%
%ADD13C,0.060000*%
%ADD14C,0.080000*%
G04 APERTURE END LIST*
D10*
%TO.C,C1*%
X108300000Y-52650000D02*
X107700000Y-52650000D01*
X108300000Y-52350000D02*
X108300000Y-52650000D01*
X107700000Y-52350000D02*
X108300000Y-52350000D01*
X107700000Y-52650000D02*
X107700000Y-52350000D01*
%TO.C,C2*%
X116885000Y-58845000D02*
X116885000Y-58545000D01*
X116885000Y-58545000D02*
X117485000Y-58545000D01*
X117485000Y-58545000D02*
X117485000Y-58845000D01*
X117485000Y-58845000D02*
X116885000Y-58845000D01*
%TO.C,C3*%
X116792000Y-61150000D02*
X116792000Y-60850000D01*
X116792000Y-60850000D02*
X117392000Y-60850000D01*
X117392000Y-60850000D02*
X117392000Y-61150000D01*
X117392000Y-61150000D02*
X116792000Y-61150000D01*
%TO.C,C4*%
X107700000Y-56650000D02*
X107700000Y-56350000D01*
X107700000Y-56350000D02*
X108300000Y-56350000D01*
X108300000Y-56350000D02*
X108300000Y-56650000D01*
X108300000Y-56650000D02*
X107700000Y-56650000D01*
%TO.C,C5*%
X108232000Y-63650000D02*
X107632000Y-63650000D01*
X108232000Y-63350000D02*
X108232000Y-63650000D01*
X107632000Y-63350000D02*
X108232000Y-63350000D01*
X107632000Y-63650000D02*
X107632000Y-63350000D01*
%TO.C,C6*%
X57150000Y-52450000D02*
X57150000Y-53050000D01*
X56850000Y-52450000D02*
X57150000Y-52450000D01*
X56850000Y-53050000D02*
X56850000Y-52450000D01*
X57150000Y-53050000D02*
X56850000Y-53050000D01*
%TO.C,C7*%
X107700000Y-67650000D02*
X107700000Y-67350000D01*
X107700000Y-67350000D02*
X108300000Y-67350000D01*
X108300000Y-67350000D02*
X108300000Y-67650000D01*
X108300000Y-67650000D02*
X107700000Y-67650000D01*
%TO.C,C8*%
X56600000Y-66617500D02*
X56600000Y-66017500D01*
X56900000Y-66617500D02*
X56600000Y-66617500D01*
X56900000Y-66017500D02*
X56900000Y-66617500D01*
X56600000Y-66017500D02*
X56900000Y-66017500D01*
%TO.C,C9*%
X116885000Y-56350000D02*
X117485000Y-56350000D01*
X116885000Y-56650000D02*
X116885000Y-56350000D01*
X117485000Y-56650000D02*
X116885000Y-56650000D01*
X117485000Y-56350000D02*
X117485000Y-56650000D01*
%TO.C,D1*%
X107100000Y-61400000D02*
X107100000Y-58600000D01*
X107100000Y-58600000D02*
X108900000Y-58600000D01*
X108900000Y-58600000D02*
X108900000Y-61400000D01*
X108900000Y-61400000D02*
X107100000Y-61400000D01*
X108000000Y-60750000D02*
X108000000Y-60350000D01*
X108000000Y-60350000D02*
X107450000Y-60350000D01*
X108000000Y-60350000D02*
X108550000Y-60350000D01*
X108000000Y-60350000D02*
X107600000Y-59750000D01*
X107600000Y-59750000D02*
X108400000Y-59750000D01*
X108400000Y-59750000D02*
X108000000Y-60350000D01*
X108000000Y-59750000D02*
X108000000Y-59250000D01*
%TO.C,D2*%
X51000000Y-55850000D02*
X51000000Y-56350000D01*
X50600000Y-55850000D02*
X51000000Y-55250000D01*
X51400000Y-55850000D02*
X50600000Y-55850000D01*
X51000000Y-55250000D02*
X51400000Y-55850000D01*
X51000000Y-55250000D02*
X50450000Y-55250000D01*
X51000000Y-55250000D02*
X51550000Y-55250000D01*
X51000000Y-54850000D02*
X51000000Y-55250000D01*
X50100000Y-54200000D02*
X51900000Y-54200000D01*
X50100000Y-57000000D02*
X50100000Y-54200000D01*
X51900000Y-57000000D02*
X50100000Y-57000000D01*
X51900000Y-54200000D02*
X51900000Y-57000000D01*
%TO.C,D3*%
X51900000Y-60000000D02*
X51900000Y-62800000D01*
X51900000Y-62800000D02*
X50100000Y-62800000D01*
X50100000Y-62800000D02*
X50100000Y-60000000D01*
X50100000Y-60000000D02*
X51900000Y-60000000D01*
X51000000Y-60650000D02*
X51000000Y-61050000D01*
X51000000Y-61050000D02*
X51550000Y-61050000D01*
X51000000Y-61050000D02*
X50450000Y-61050000D01*
X51000000Y-61050000D02*
X51400000Y-61650000D01*
X51400000Y-61650000D02*
X50600000Y-61650000D01*
X50600000Y-61650000D02*
X51000000Y-61050000D01*
X51000000Y-61650000D02*
X51000000Y-62150000D01*
%TO.C,D4*%
X47000000Y-55650000D02*
X47000000Y-55150000D01*
X47400000Y-55650000D02*
X47000000Y-56250000D01*
X46600000Y-55650000D02*
X47400000Y-55650000D01*
X47000000Y-56250000D02*
X46600000Y-55650000D01*
X47000000Y-56250000D02*
X47550000Y-56250000D01*
X47000000Y-56250000D02*
X46450000Y-56250000D01*
X47000000Y-56650000D02*
X47000000Y-56250000D01*
X47900000Y-57300000D02*
X46100000Y-57300000D01*
X47900000Y-54500000D02*
X47900000Y-57300000D01*
X46100000Y-54500000D02*
X47900000Y-54500000D01*
X46100000Y-57300000D02*
X46100000Y-54500000D01*
%TO.C,D5*%
X46100000Y-62800000D02*
X46100000Y-60000000D01*
X46100000Y-60000000D02*
X47900000Y-60000000D01*
X47900000Y-60000000D02*
X47900000Y-62800000D01*
X47900000Y-62800000D02*
X46100000Y-62800000D01*
X47000000Y-62150000D02*
X47000000Y-61750000D01*
X47000000Y-61750000D02*
X46450000Y-61750000D01*
X47000000Y-61750000D02*
X47550000Y-61750000D01*
X47000000Y-61750000D02*
X46600000Y-61150000D01*
X46600000Y-61150000D02*
X47400000Y-61150000D01*
X47400000Y-61150000D02*
X47000000Y-61750000D01*
X47000000Y-61150000D02*
X47000000Y-60650000D01*
%TO.C,R1*%
X113800000Y-54912500D02*
X112200000Y-54912500D01*
X113800000Y-54087500D02*
X113800000Y-54912500D01*
X112200000Y-54087500D02*
X113800000Y-54087500D01*
X112200000Y-54912500D02*
X112200000Y-54087500D01*
%TO.C,R2*%
X73025000Y-42587500D02*
X74625000Y-42587500D01*
X73025000Y-43412500D02*
X73025000Y-42587500D01*
X74625000Y-43412500D02*
X73025000Y-43412500D01*
X74625000Y-42587500D02*
X74625000Y-43412500D01*
%TO.C,R3*%
X113800000Y-62412500D02*
X112200000Y-62412500D01*
X113800000Y-61587500D02*
X113800000Y-62412500D01*
X112200000Y-61587500D02*
X113800000Y-61587500D01*
X112200000Y-62412500D02*
X112200000Y-61587500D01*
%TO.C,R4*%
X117412500Y-65800000D02*
X116587500Y-65800000D01*
X116587500Y-65800000D02*
X116587500Y-64200000D01*
X116587500Y-64200000D02*
X117412500Y-64200000D01*
X117412500Y-64200000D02*
X117412500Y-65800000D01*
%TO.C,R5*%
X112200000Y-58912500D02*
X112200000Y-58087500D01*
X112200000Y-58087500D02*
X113800000Y-58087500D01*
X113800000Y-58087500D02*
X113800000Y-58912500D01*
X113800000Y-58912500D02*
X112200000Y-58912500D01*
%TO.C,R6*%
X51412500Y-51725000D02*
X50587500Y-51725000D01*
X50587500Y-51725000D02*
X50587500Y-50125000D01*
X50587500Y-50125000D02*
X51412500Y-50125000D01*
X51412500Y-50125000D02*
X51412500Y-51725000D01*
%TO.C,R8*%
X112200000Y-65912500D02*
X112200000Y-65087500D01*
X112200000Y-65087500D02*
X113800000Y-65087500D01*
X113800000Y-65087500D02*
X113800000Y-65912500D01*
X113800000Y-65912500D02*
X112200000Y-65912500D01*
%TO.C,R9*%
X57412500Y-49625000D02*
X56587500Y-49625000D01*
X56587500Y-49625000D02*
X56587500Y-48025000D01*
X56587500Y-48025000D02*
X57412500Y-48025000D01*
X57412500Y-48025000D02*
X57412500Y-49625000D01*
%TO.C,R10*%
X51412500Y-65775000D02*
X51412500Y-67375000D01*
X50587500Y-65775000D02*
X51412500Y-65775000D01*
X50587500Y-67375000D02*
X50587500Y-65775000D01*
X51412500Y-67375000D02*
X50587500Y-67375000D01*
%TO.C,R11*%
X46587500Y-51725000D02*
X46587500Y-50125000D01*
X47412500Y-51725000D02*
X46587500Y-51725000D01*
X47412500Y-50125000D02*
X47412500Y-51725000D01*
X46587500Y-50125000D02*
X47412500Y-50125000D01*
%TO.C,R12*%
X57162500Y-69775000D02*
X57162500Y-71375000D01*
X56337500Y-69775000D02*
X57162500Y-69775000D01*
X56337500Y-71375000D02*
X56337500Y-69775000D01*
X57162500Y-71375000D02*
X56337500Y-71375000D01*
%TO.C,R13*%
X74800000Y-45087500D02*
X74800000Y-45912500D01*
X74800000Y-45912500D02*
X73200000Y-45912500D01*
X73200000Y-45912500D02*
X73200000Y-45087500D01*
X73200000Y-45087500D02*
X74800000Y-45087500D01*
%TO.C,R14*%
X73200000Y-47587500D02*
X74800000Y-47587500D01*
X73200000Y-48412500D02*
X73200000Y-47587500D01*
X74800000Y-48412500D02*
X73200000Y-48412500D01*
X74800000Y-47587500D02*
X74800000Y-48412500D01*
%TO.C,R15*%
X74800000Y-50087500D02*
X74800000Y-50912500D01*
X74800000Y-50912500D02*
X73200000Y-50912500D01*
X73200000Y-50912500D02*
X73200000Y-50087500D01*
X73200000Y-50087500D02*
X74800000Y-50087500D01*
%TO.C,R16*%
X74800000Y-52587500D02*
X74800000Y-53412500D01*
X74800000Y-53412500D02*
X73200000Y-53412500D01*
X73200000Y-53412500D02*
X73200000Y-52587500D01*
X73200000Y-52587500D02*
X74800000Y-52587500D01*
%TO.C,R17*%
X73500000Y-54875000D02*
X75500000Y-54875000D01*
X73500000Y-56125000D02*
X73500000Y-54875000D01*
X75500000Y-56125000D02*
X73500000Y-56125000D01*
X75500000Y-54875000D02*
X75500000Y-56125000D01*
%TO.C,R18*%
X75412500Y-57625000D02*
X75412500Y-58875000D01*
X75412500Y-58875000D02*
X73412500Y-58875000D01*
X73412500Y-58875000D02*
X73412500Y-57625000D01*
X73412500Y-57625000D02*
X75412500Y-57625000D01*
%TO.C,R19*%
X73200000Y-62087500D02*
X74800000Y-62087500D01*
X73200000Y-62912500D02*
X73200000Y-62087500D01*
X74800000Y-62912500D02*
X73200000Y-62912500D01*
X74800000Y-62087500D02*
X74800000Y-62912500D01*
%TO.C,R20*%
X73200000Y-64587500D02*
X74800000Y-64587500D01*
X73200000Y-65412500D02*
X73200000Y-64587500D01*
X74800000Y-65412500D02*
X73200000Y-65412500D01*
X74800000Y-64587500D02*
X74800000Y-65412500D01*
%TO.C,R21*%
X74800000Y-67087500D02*
X74800000Y-67912500D01*
X74800000Y-67912500D02*
X73200000Y-67912500D01*
X73200000Y-67912500D02*
X73200000Y-67087500D01*
X73200000Y-67087500D02*
X74800000Y-67087500D01*
%TO.C,R22*%
X73200000Y-69587500D02*
X74800000Y-69587500D01*
X73200000Y-70412500D02*
X73200000Y-69587500D01*
X74800000Y-70412500D02*
X73200000Y-70412500D01*
X74800000Y-69587500D02*
X74800000Y-70412500D01*
%TO.C,R23*%
X74800000Y-72087500D02*
X74800000Y-72912500D01*
X74800000Y-72912500D02*
X73200000Y-72912500D01*
X73200000Y-72912500D02*
X73200000Y-72087500D01*
X73200000Y-72087500D02*
X74800000Y-72087500D01*
%TO.C,R24*%
X75000000Y-74375000D02*
X75000000Y-75625000D01*
X75000000Y-75625000D02*
X73000000Y-75625000D01*
X73000000Y-75625000D02*
X73000000Y-74375000D01*
X73000000Y-74375000D02*
X75000000Y-74375000D01*
%TO.C,R25*%
X73000000Y-77375000D02*
X75000000Y-77375000D01*
X73000000Y-78625000D02*
X73000000Y-77375000D01*
X75000000Y-78625000D02*
X73000000Y-78625000D01*
X75000000Y-77375000D02*
X75000000Y-78625000D01*
%TO.C,R7*%
X46587500Y-67375000D02*
X46587500Y-65775000D01*
X47412500Y-67375000D02*
X46587500Y-67375000D01*
X47412500Y-65775000D02*
X47412500Y-67375000D01*
X46587500Y-65775000D02*
X47412500Y-65775000D01*
%TO.C,C10*%
X82150000Y-60132500D02*
X82150000Y-60732500D01*
X81850000Y-60132500D02*
X82150000Y-60132500D01*
X81850000Y-60732500D02*
X81850000Y-60132500D01*
X82150000Y-60732500D02*
X81850000Y-60732500D01*
%TO.C,C11*%
X93900000Y-60707500D02*
X93600000Y-60707500D01*
X93600000Y-60707500D02*
X93600000Y-60107500D01*
X93600000Y-60107500D02*
X93900000Y-60107500D01*
X93900000Y-60107500D02*
X93900000Y-60707500D01*
%TO.C,U1*%
X85875000Y-58910000D02*
X86850000Y-57935000D01*
X85875000Y-62835000D02*
X85875000Y-58910000D01*
X89775000Y-62835000D02*
X85875000Y-62835000D01*
X89775000Y-57935000D02*
X89775000Y-62835000D01*
X86850000Y-57935000D02*
X89775000Y-57935000D01*
%TD*%
%TO.C,C1*%
D11*
X106357142Y-53002380D02*
X106452380Y-53002380D01*
X106547619Y-53050000D01*
X106595238Y-53097619D01*
X106642857Y-53192857D01*
X106690476Y-53383333D01*
X106690476Y-53621428D01*
X106642857Y-53811904D01*
X106595238Y-53907142D01*
X106547619Y-53954761D01*
X106452380Y-54002380D01*
X106357142Y-54002380D01*
X106261904Y-53954761D01*
X106214285Y-53907142D01*
X106166666Y-53811904D01*
X106119047Y-53621428D01*
X106119047Y-53383333D01*
X106166666Y-53192857D01*
X106214285Y-53097619D01*
X106261904Y-53050000D01*
X106357142Y-53002380D01*
X107119047Y-53907142D02*
X107166666Y-53954761D01*
X107119047Y-54002380D01*
X107071428Y-53954761D01*
X107119047Y-53907142D01*
X107119047Y-54002380D01*
X108119047Y-54002380D02*
X107547619Y-54002380D01*
X107833333Y-54002380D02*
X107833333Y-53002380D01*
X107738095Y-53145238D01*
X107642857Y-53240476D01*
X107547619Y-53288095D01*
X108976190Y-53335714D02*
X108976190Y-54002380D01*
X108547619Y-53335714D02*
X108547619Y-53859523D01*
X108595238Y-53954761D01*
X108690476Y-54002380D01*
X108833333Y-54002380D01*
X108928571Y-53954761D01*
X108976190Y-53907142D01*
X109785714Y-53478571D02*
X109452380Y-53478571D01*
X109452380Y-54002380D02*
X109452380Y-53002380D01*
X109928571Y-53002380D01*
D12*
X107958333Y-51909285D02*
X107946428Y-51921190D01*
X107910714Y-51933095D01*
X107886904Y-51933095D01*
X107851190Y-51921190D01*
X107827380Y-51897380D01*
X107815476Y-51873571D01*
X107803571Y-51825952D01*
X107803571Y-51790238D01*
X107815476Y-51742619D01*
X107827380Y-51718809D01*
X107851190Y-51695000D01*
X107886904Y-51683095D01*
X107910714Y-51683095D01*
X107946428Y-51695000D01*
X107958333Y-51706904D01*
X108196428Y-51933095D02*
X108053571Y-51933095D01*
X108125000Y-51933095D02*
X108125000Y-51683095D01*
X108101190Y-51718809D01*
X108077380Y-51742619D01*
X108053571Y-51754523D01*
%TO.C,C2*%
D11*
X116113571Y-60197380D02*
X115542142Y-60197380D01*
X115827857Y-60197380D02*
X115827857Y-59197380D01*
X115732619Y-59340238D01*
X115637380Y-59435476D01*
X115542142Y-59483095D01*
X116732619Y-59197380D02*
X116827857Y-59197380D01*
X116923095Y-59245000D01*
X116970714Y-59292619D01*
X117018333Y-59387857D01*
X117065952Y-59578333D01*
X117065952Y-59816428D01*
X117018333Y-60006904D01*
X116970714Y-60102142D01*
X116923095Y-60149761D01*
X116827857Y-60197380D01*
X116732619Y-60197380D01*
X116637380Y-60149761D01*
X116589761Y-60102142D01*
X116542142Y-60006904D01*
X116494523Y-59816428D01*
X116494523Y-59578333D01*
X116542142Y-59387857D01*
X116589761Y-59292619D01*
X116637380Y-59245000D01*
X116732619Y-59197380D01*
X117923095Y-59530714D02*
X117923095Y-60197380D01*
X117494523Y-59530714D02*
X117494523Y-60054523D01*
X117542142Y-60149761D01*
X117637380Y-60197380D01*
X117780238Y-60197380D01*
X117875476Y-60149761D01*
X117923095Y-60102142D01*
X118732619Y-59673571D02*
X118399285Y-59673571D01*
X118399285Y-60197380D02*
X118399285Y-59197380D01*
X118875476Y-59197380D01*
D12*
X117143333Y-58104285D02*
X117131428Y-58116190D01*
X117095714Y-58128095D01*
X117071904Y-58128095D01*
X117036190Y-58116190D01*
X117012380Y-58092380D01*
X117000476Y-58068571D01*
X116988571Y-58020952D01*
X116988571Y-57985238D01*
X117000476Y-57937619D01*
X117012380Y-57913809D01*
X117036190Y-57890000D01*
X117071904Y-57878095D01*
X117095714Y-57878095D01*
X117131428Y-57890000D01*
X117143333Y-57901904D01*
X117238571Y-57901904D02*
X117250476Y-57890000D01*
X117274285Y-57878095D01*
X117333809Y-57878095D01*
X117357619Y-57890000D01*
X117369523Y-57901904D01*
X117381428Y-57925714D01*
X117381428Y-57949523D01*
X117369523Y-57985238D01*
X117226666Y-58128095D01*
X117381428Y-58128095D01*
%TO.C,C3*%
D11*
X115401523Y-61502380D02*
X116020571Y-61502380D01*
X115687238Y-61883333D01*
X115830095Y-61883333D01*
X115925333Y-61930952D01*
X115972952Y-61978571D01*
X116020571Y-62073809D01*
X116020571Y-62311904D01*
X115972952Y-62407142D01*
X115925333Y-62454761D01*
X115830095Y-62502380D01*
X115544380Y-62502380D01*
X115449142Y-62454761D01*
X115401523Y-62407142D01*
X116353904Y-61502380D02*
X116972952Y-61502380D01*
X116639619Y-61883333D01*
X116782476Y-61883333D01*
X116877714Y-61930952D01*
X116925333Y-61978571D01*
X116972952Y-62073809D01*
X116972952Y-62311904D01*
X116925333Y-62407142D01*
X116877714Y-62454761D01*
X116782476Y-62502380D01*
X116496761Y-62502380D01*
X116401523Y-62454761D01*
X116353904Y-62407142D01*
X117830095Y-61835714D02*
X117830095Y-62502380D01*
X117401523Y-61835714D02*
X117401523Y-62359523D01*
X117449142Y-62454761D01*
X117544380Y-62502380D01*
X117687238Y-62502380D01*
X117782476Y-62454761D01*
X117830095Y-62407142D01*
X118639619Y-61978571D02*
X118306285Y-61978571D01*
X118306285Y-62502380D02*
X118306285Y-61502380D01*
X118782476Y-61502380D01*
D12*
X117050333Y-60409285D02*
X117038428Y-60421190D01*
X117002714Y-60433095D01*
X116978904Y-60433095D01*
X116943190Y-60421190D01*
X116919380Y-60397380D01*
X116907476Y-60373571D01*
X116895571Y-60325952D01*
X116895571Y-60290238D01*
X116907476Y-60242619D01*
X116919380Y-60218809D01*
X116943190Y-60195000D01*
X116978904Y-60183095D01*
X117002714Y-60183095D01*
X117038428Y-60195000D01*
X117050333Y-60206904D01*
X117133666Y-60183095D02*
X117288428Y-60183095D01*
X117205095Y-60278333D01*
X117240809Y-60278333D01*
X117264619Y-60290238D01*
X117276523Y-60302142D01*
X117288428Y-60325952D01*
X117288428Y-60385476D01*
X117276523Y-60409285D01*
X117264619Y-60421190D01*
X117240809Y-60433095D01*
X117169380Y-60433095D01*
X117145571Y-60421190D01*
X117133666Y-60409285D01*
%TO.C,C4*%
D11*
X106833333Y-57335714D02*
X106833333Y-58002380D01*
X106595238Y-56954761D02*
X106357142Y-57669047D01*
X106976190Y-57669047D01*
X107261904Y-57002380D02*
X107928571Y-57002380D01*
X107500000Y-58002380D01*
X108738095Y-57335714D02*
X108738095Y-58002380D01*
X108309523Y-57335714D02*
X108309523Y-57859523D01*
X108357142Y-57954761D01*
X108452380Y-58002380D01*
X108595238Y-58002380D01*
X108690476Y-57954761D01*
X108738095Y-57907142D01*
X109547619Y-57478571D02*
X109214285Y-57478571D01*
X109214285Y-58002380D02*
X109214285Y-57002380D01*
X109690476Y-57002380D01*
D12*
X107958333Y-55909285D02*
X107946428Y-55921190D01*
X107910714Y-55933095D01*
X107886904Y-55933095D01*
X107851190Y-55921190D01*
X107827380Y-55897380D01*
X107815476Y-55873571D01*
X107803571Y-55825952D01*
X107803571Y-55790238D01*
X107815476Y-55742619D01*
X107827380Y-55718809D01*
X107851190Y-55695000D01*
X107886904Y-55683095D01*
X107910714Y-55683095D01*
X107946428Y-55695000D01*
X107958333Y-55706904D01*
X108172619Y-55766428D02*
X108172619Y-55933095D01*
X108113095Y-55671190D02*
X108053571Y-55849761D01*
X108208333Y-55849761D01*
%TO.C,C5*%
D11*
X106765333Y-64335714D02*
X106765333Y-65002380D01*
X106527238Y-63954761D02*
X106289142Y-64669047D01*
X106908190Y-64669047D01*
X107193904Y-64002380D02*
X107860571Y-64002380D01*
X107432000Y-65002380D01*
X108670095Y-64335714D02*
X108670095Y-65002380D01*
X108241523Y-64335714D02*
X108241523Y-64859523D01*
X108289142Y-64954761D01*
X108384380Y-65002380D01*
X108527238Y-65002380D01*
X108622476Y-64954761D01*
X108670095Y-64907142D01*
X109479619Y-64478571D02*
X109146285Y-64478571D01*
X109146285Y-65002380D02*
X109146285Y-64002380D01*
X109622476Y-64002380D01*
D12*
X107890333Y-62909285D02*
X107878428Y-62921190D01*
X107842714Y-62933095D01*
X107818904Y-62933095D01*
X107783190Y-62921190D01*
X107759380Y-62897380D01*
X107747476Y-62873571D01*
X107735571Y-62825952D01*
X107735571Y-62790238D01*
X107747476Y-62742619D01*
X107759380Y-62718809D01*
X107783190Y-62695000D01*
X107818904Y-62683095D01*
X107842714Y-62683095D01*
X107878428Y-62695000D01*
X107890333Y-62706904D01*
X108116523Y-62683095D02*
X107997476Y-62683095D01*
X107985571Y-62802142D01*
X107997476Y-62790238D01*
X108021285Y-62778333D01*
X108080809Y-62778333D01*
X108104619Y-62790238D01*
X108116523Y-62802142D01*
X108128428Y-62825952D01*
X108128428Y-62885476D01*
X108116523Y-62909285D01*
X108104619Y-62921190D01*
X108080809Y-62933095D01*
X108021285Y-62933095D01*
X107997476Y-62921190D01*
X107985571Y-62909285D01*
%TO.C,C6*%
D11*
X57835714Y-53916666D02*
X58502380Y-53916666D01*
X57454761Y-54154761D02*
X58169047Y-54392857D01*
X58169047Y-53773809D01*
X57502380Y-53488095D02*
X57502380Y-52821428D01*
X58502380Y-53250000D01*
X57835714Y-52011904D02*
X58502380Y-52011904D01*
X57835714Y-52440476D02*
X58359523Y-52440476D01*
X58454761Y-52392857D01*
X58502380Y-52297619D01*
X58502380Y-52154761D01*
X58454761Y-52059523D01*
X58407142Y-52011904D01*
X57978571Y-51202380D02*
X57978571Y-51535714D01*
X58502380Y-51535714D02*
X57502380Y-51535714D01*
X57502380Y-51059523D01*
D12*
X56409285Y-52791666D02*
X56421190Y-52803571D01*
X56433095Y-52839285D01*
X56433095Y-52863095D01*
X56421190Y-52898809D01*
X56397380Y-52922619D01*
X56373571Y-52934523D01*
X56325952Y-52946428D01*
X56290238Y-52946428D01*
X56242619Y-52934523D01*
X56218809Y-52922619D01*
X56195000Y-52898809D01*
X56183095Y-52863095D01*
X56183095Y-52839285D01*
X56195000Y-52803571D01*
X56206904Y-52791666D01*
X56183095Y-52577380D02*
X56183095Y-52625000D01*
X56195000Y-52648809D01*
X56206904Y-52660714D01*
X56242619Y-52684523D01*
X56290238Y-52696428D01*
X56385476Y-52696428D01*
X56409285Y-52684523D01*
X56421190Y-52672619D01*
X56433095Y-52648809D01*
X56433095Y-52601190D01*
X56421190Y-52577380D01*
X56409285Y-52565476D01*
X56385476Y-52553571D01*
X56325952Y-52553571D01*
X56302142Y-52565476D01*
X56290238Y-52577380D01*
X56278333Y-52601190D01*
X56278333Y-52648809D01*
X56290238Y-52672619D01*
X56302142Y-52684523D01*
X56325952Y-52696428D01*
%TO.C,C7*%
D11*
X106928571Y-69002380D02*
X106357142Y-69002380D01*
X106642857Y-69002380D02*
X106642857Y-68002380D01*
X106547619Y-68145238D01*
X106452380Y-68240476D01*
X106357142Y-68288095D01*
X107547619Y-68002380D02*
X107642857Y-68002380D01*
X107738095Y-68050000D01*
X107785714Y-68097619D01*
X107833333Y-68192857D01*
X107880952Y-68383333D01*
X107880952Y-68621428D01*
X107833333Y-68811904D01*
X107785714Y-68907142D01*
X107738095Y-68954761D01*
X107642857Y-69002380D01*
X107547619Y-69002380D01*
X107452380Y-68954761D01*
X107404761Y-68907142D01*
X107357142Y-68811904D01*
X107309523Y-68621428D01*
X107309523Y-68383333D01*
X107357142Y-68192857D01*
X107404761Y-68097619D01*
X107452380Y-68050000D01*
X107547619Y-68002380D01*
X108738095Y-68335714D02*
X108738095Y-69002380D01*
X108309523Y-68335714D02*
X108309523Y-68859523D01*
X108357142Y-68954761D01*
X108452380Y-69002380D01*
X108595238Y-69002380D01*
X108690476Y-68954761D01*
X108738095Y-68907142D01*
X109547619Y-68478571D02*
X109214285Y-68478571D01*
X109214285Y-69002380D02*
X109214285Y-68002380D01*
X109690476Y-68002380D01*
D12*
X107958333Y-66909285D02*
X107946428Y-66921190D01*
X107910714Y-66933095D01*
X107886904Y-66933095D01*
X107851190Y-66921190D01*
X107827380Y-66897380D01*
X107815476Y-66873571D01*
X107803571Y-66825952D01*
X107803571Y-66790238D01*
X107815476Y-66742619D01*
X107827380Y-66718809D01*
X107851190Y-66695000D01*
X107886904Y-66683095D01*
X107910714Y-66683095D01*
X107946428Y-66695000D01*
X107958333Y-66706904D01*
X108041666Y-66683095D02*
X108208333Y-66683095D01*
X108101190Y-66933095D01*
%TO.C,C8*%
D11*
X55485714Y-67484166D02*
X56152380Y-67484166D01*
X55104761Y-67722261D02*
X55819047Y-67960357D01*
X55819047Y-67341309D01*
X55152380Y-67055595D02*
X55152380Y-66388928D01*
X56152380Y-66817500D01*
X55485714Y-65579404D02*
X56152380Y-65579404D01*
X55485714Y-66007976D02*
X56009523Y-66007976D01*
X56104761Y-65960357D01*
X56152380Y-65865119D01*
X56152380Y-65722261D01*
X56104761Y-65627023D01*
X56057142Y-65579404D01*
X55628571Y-64769880D02*
X55628571Y-65103214D01*
X56152380Y-65103214D02*
X55152380Y-65103214D01*
X55152380Y-64627023D01*
D12*
X57519285Y-66359166D02*
X57531190Y-66371071D01*
X57543095Y-66406785D01*
X57543095Y-66430595D01*
X57531190Y-66466309D01*
X57507380Y-66490119D01*
X57483571Y-66502023D01*
X57435952Y-66513928D01*
X57400238Y-66513928D01*
X57352619Y-66502023D01*
X57328809Y-66490119D01*
X57305000Y-66466309D01*
X57293095Y-66430595D01*
X57293095Y-66406785D01*
X57305000Y-66371071D01*
X57316904Y-66359166D01*
X57400238Y-66216309D02*
X57388333Y-66240119D01*
X57376428Y-66252023D01*
X57352619Y-66263928D01*
X57340714Y-66263928D01*
X57316904Y-66252023D01*
X57305000Y-66240119D01*
X57293095Y-66216309D01*
X57293095Y-66168690D01*
X57305000Y-66144880D01*
X57316904Y-66132976D01*
X57340714Y-66121071D01*
X57352619Y-66121071D01*
X57376428Y-66132976D01*
X57388333Y-66144880D01*
X57400238Y-66168690D01*
X57400238Y-66216309D01*
X57412142Y-66240119D01*
X57424047Y-66252023D01*
X57447857Y-66263928D01*
X57495476Y-66263928D01*
X57519285Y-66252023D01*
X57531190Y-66240119D01*
X57543095Y-66216309D01*
X57543095Y-66168690D01*
X57531190Y-66144880D01*
X57519285Y-66132976D01*
X57495476Y-66121071D01*
X57447857Y-66121071D01*
X57424047Y-66132976D01*
X57412142Y-66144880D01*
X57400238Y-66168690D01*
%TO.C,C9*%
D11*
X116018333Y-55235714D02*
X116018333Y-55902380D01*
X115780238Y-54854761D02*
X115542142Y-55569047D01*
X116161190Y-55569047D01*
X116446904Y-54902380D02*
X117113571Y-54902380D01*
X116685000Y-55902380D01*
X117923095Y-55235714D02*
X117923095Y-55902380D01*
X117494523Y-55235714D02*
X117494523Y-55759523D01*
X117542142Y-55854761D01*
X117637380Y-55902380D01*
X117780238Y-55902380D01*
X117875476Y-55854761D01*
X117923095Y-55807142D01*
X118732619Y-55378571D02*
X118399285Y-55378571D01*
X118399285Y-55902380D02*
X118399285Y-54902380D01*
X118875476Y-54902380D01*
D12*
X117143333Y-57269285D02*
X117131428Y-57281190D01*
X117095714Y-57293095D01*
X117071904Y-57293095D01*
X117036190Y-57281190D01*
X117012380Y-57257380D01*
X117000476Y-57233571D01*
X116988571Y-57185952D01*
X116988571Y-57150238D01*
X117000476Y-57102619D01*
X117012380Y-57078809D01*
X117036190Y-57055000D01*
X117071904Y-57043095D01*
X117095714Y-57043095D01*
X117131428Y-57055000D01*
X117143333Y-57066904D01*
X117262380Y-57293095D02*
X117310000Y-57293095D01*
X117333809Y-57281190D01*
X117345714Y-57269285D01*
X117369523Y-57233571D01*
X117381428Y-57185952D01*
X117381428Y-57090714D01*
X117369523Y-57066904D01*
X117357619Y-57055000D01*
X117333809Y-57043095D01*
X117286190Y-57043095D01*
X117262380Y-57055000D01*
X117250476Y-57066904D01*
X117238571Y-57090714D01*
X117238571Y-57150238D01*
X117250476Y-57174047D01*
X117262380Y-57185952D01*
X117286190Y-57197857D01*
X117333809Y-57197857D01*
X117357619Y-57185952D01*
X117369523Y-57174047D01*
X117381428Y-57150238D01*
%TO.C,D1*%
D11*
X110552380Y-64166666D02*
X109552380Y-64166666D01*
X110266666Y-63833333D01*
X109552380Y-63500000D01*
X110552380Y-63500000D01*
X110552380Y-63023809D02*
X109552380Y-63023809D01*
X110266666Y-62690476D01*
X109552380Y-62357142D01*
X110552380Y-62357142D01*
X110504761Y-61928571D02*
X110552380Y-61785714D01*
X110552380Y-61547619D01*
X110504761Y-61452380D01*
X110457142Y-61404761D01*
X110361904Y-61357142D01*
X110266666Y-61357142D01*
X110171428Y-61404761D01*
X110123809Y-61452380D01*
X110076190Y-61547619D01*
X110028571Y-61738095D01*
X109980952Y-61833333D01*
X109933333Y-61880952D01*
X109838095Y-61928571D01*
X109742857Y-61928571D01*
X109647619Y-61880952D01*
X109600000Y-61833333D01*
X109552380Y-61738095D01*
X109552380Y-61500000D01*
X109600000Y-61357142D01*
X109552380Y-61023809D02*
X109552380Y-60357142D01*
X110552380Y-61023809D01*
X110552380Y-60357142D01*
X110552380Y-59452380D02*
X110552380Y-60023809D01*
X110552380Y-59738095D02*
X109552380Y-59738095D01*
X109695238Y-59833333D01*
X109790476Y-59928571D01*
X109838095Y-60023809D01*
X110552380Y-58500000D02*
X110552380Y-59071428D01*
X110552380Y-58785714D02*
X109552380Y-58785714D01*
X109695238Y-58880952D01*
X109790476Y-58976190D01*
X109838095Y-59071428D01*
X109552380Y-58214285D02*
X109552380Y-57642857D01*
X110552380Y-57928571D02*
X109552380Y-57928571D01*
X110552380Y-56785714D02*
X110552380Y-57357142D01*
X110552380Y-57071428D02*
X109552380Y-57071428D01*
X109695238Y-57166666D01*
X109790476Y-57261904D01*
X109838095Y-57357142D01*
X109600000Y-55833333D02*
X109552380Y-55928571D01*
X109552380Y-56071428D01*
X109600000Y-56214285D01*
X109695238Y-56309523D01*
X109790476Y-56357142D01*
X109980952Y-56404761D01*
X110123809Y-56404761D01*
X110314285Y-56357142D01*
X110409523Y-56309523D01*
X110504761Y-56214285D01*
X110552380Y-56071428D01*
X110552380Y-55976190D01*
X110504761Y-55833333D01*
X110457142Y-55785714D01*
X110123809Y-55785714D01*
X110123809Y-55976190D01*
X106452380Y-60738095D02*
X105452380Y-60738095D01*
X105452380Y-60500000D01*
X105500000Y-60357142D01*
X105595238Y-60261904D01*
X105690476Y-60214285D01*
X105880952Y-60166666D01*
X106023809Y-60166666D01*
X106214285Y-60214285D01*
X106309523Y-60261904D01*
X106404761Y-60357142D01*
X106452380Y-60500000D01*
X106452380Y-60738095D01*
X106452380Y-59214285D02*
X106452380Y-59785714D01*
X106452380Y-59500000D02*
X105452380Y-59500000D01*
X105595238Y-59595238D01*
X105690476Y-59690476D01*
X105738095Y-59785714D01*
%TO.C,D2*%
X49352380Y-61361904D02*
X49352380Y-61933333D01*
X49352380Y-61647619D02*
X48352380Y-61647619D01*
X48495238Y-61742857D01*
X48590476Y-61838095D01*
X48638095Y-61933333D01*
X49352380Y-60933333D02*
X48352380Y-60933333D01*
X49352380Y-60361904D01*
X48352380Y-60361904D01*
X48685714Y-59457142D02*
X49352380Y-59457142D01*
X48304761Y-59695238D02*
X49019047Y-59933333D01*
X49019047Y-59314285D01*
X48685714Y-58504761D02*
X49352380Y-58504761D01*
X48304761Y-58742857D02*
X49019047Y-58980952D01*
X49019047Y-58361904D01*
X48685714Y-57552380D02*
X49352380Y-57552380D01*
X48304761Y-57790476D02*
X49019047Y-58028571D01*
X49019047Y-57409523D01*
X48780952Y-56885714D02*
X48733333Y-56980952D01*
X48685714Y-57028571D01*
X48590476Y-57076190D01*
X48542857Y-57076190D01*
X48447619Y-57028571D01*
X48400000Y-56980952D01*
X48352380Y-56885714D01*
X48352380Y-56695238D01*
X48400000Y-56600000D01*
X48447619Y-56552380D01*
X48542857Y-56504761D01*
X48590476Y-56504761D01*
X48685714Y-56552380D01*
X48733333Y-56600000D01*
X48780952Y-56695238D01*
X48780952Y-56885714D01*
X48828571Y-56980952D01*
X48876190Y-57028571D01*
X48971428Y-57076190D01*
X49161904Y-57076190D01*
X49257142Y-57028571D01*
X49304761Y-56980952D01*
X49352380Y-56885714D01*
X49352380Y-56695238D01*
X49304761Y-56600000D01*
X49257142Y-56552380D01*
X49161904Y-56504761D01*
X48971428Y-56504761D01*
X48876190Y-56552380D01*
X48828571Y-56600000D01*
X48780952Y-56695238D01*
X48352380Y-56171428D02*
X49352380Y-55933333D01*
X48638095Y-55742857D01*
X49352380Y-55552380D01*
X48352380Y-55314285D01*
X49447619Y-54266666D02*
X49400000Y-54361904D01*
X49304761Y-54457142D01*
X49161904Y-54600000D01*
X49114285Y-54695238D01*
X49114285Y-54790476D01*
X49352380Y-54742857D02*
X49304761Y-54838095D01*
X49209523Y-54933333D01*
X49019047Y-54980952D01*
X48685714Y-54980952D01*
X48495238Y-54933333D01*
X48400000Y-54838095D01*
X48352380Y-54742857D01*
X48352380Y-54552380D01*
X48400000Y-54457142D01*
X48495238Y-54361904D01*
X48685714Y-54314285D01*
X49019047Y-54314285D01*
X49209523Y-54361904D01*
X49304761Y-54457142D01*
X49352380Y-54552380D01*
X49352380Y-54742857D01*
X48971428Y-53885714D02*
X48971428Y-53123809D01*
X48352380Y-52742857D02*
X48352380Y-52076190D01*
X49352380Y-52504761D01*
X48971428Y-51695238D02*
X48971428Y-50933333D01*
X48828571Y-50123809D02*
X48828571Y-50457142D01*
X49352380Y-50457142D02*
X48352380Y-50457142D01*
X48352380Y-49980952D01*
X53452380Y-56338095D02*
X52452380Y-56338095D01*
X52452380Y-56100000D01*
X52500000Y-55957142D01*
X52595238Y-55861904D01*
X52690476Y-55814285D01*
X52880952Y-55766666D01*
X53023809Y-55766666D01*
X53214285Y-55814285D01*
X53309523Y-55861904D01*
X53404761Y-55957142D01*
X53452380Y-56100000D01*
X53452380Y-56338095D01*
X52547619Y-55385714D02*
X52500000Y-55338095D01*
X52452380Y-55242857D01*
X52452380Y-55004761D01*
X52500000Y-54909523D01*
X52547619Y-54861904D01*
X52642857Y-54814285D01*
X52738095Y-54814285D01*
X52880952Y-54861904D01*
X53452380Y-55433333D01*
X53452380Y-54814285D01*
%TO.C,D3*%
X49352380Y-67161904D02*
X49352380Y-67733333D01*
X49352380Y-67447619D02*
X48352380Y-67447619D01*
X48495238Y-67542857D01*
X48590476Y-67638095D01*
X48638095Y-67733333D01*
X49352380Y-66733333D02*
X48352380Y-66733333D01*
X49352380Y-66161904D01*
X48352380Y-66161904D01*
X48685714Y-65257142D02*
X49352380Y-65257142D01*
X48304761Y-65495238D02*
X49019047Y-65733333D01*
X49019047Y-65114285D01*
X48685714Y-64304761D02*
X49352380Y-64304761D01*
X48304761Y-64542857D02*
X49019047Y-64780952D01*
X49019047Y-64161904D01*
X48685714Y-63352380D02*
X49352380Y-63352380D01*
X48304761Y-63590476D02*
X49019047Y-63828571D01*
X49019047Y-63209523D01*
X48780952Y-62685714D02*
X48733333Y-62780952D01*
X48685714Y-62828571D01*
X48590476Y-62876190D01*
X48542857Y-62876190D01*
X48447619Y-62828571D01*
X48400000Y-62780952D01*
X48352380Y-62685714D01*
X48352380Y-62495238D01*
X48400000Y-62400000D01*
X48447619Y-62352380D01*
X48542857Y-62304761D01*
X48590476Y-62304761D01*
X48685714Y-62352380D01*
X48733333Y-62400000D01*
X48780952Y-62495238D01*
X48780952Y-62685714D01*
X48828571Y-62780952D01*
X48876190Y-62828571D01*
X48971428Y-62876190D01*
X49161904Y-62876190D01*
X49257142Y-62828571D01*
X49304761Y-62780952D01*
X49352380Y-62685714D01*
X49352380Y-62495238D01*
X49304761Y-62400000D01*
X49257142Y-62352380D01*
X49161904Y-62304761D01*
X48971428Y-62304761D01*
X48876190Y-62352380D01*
X48828571Y-62400000D01*
X48780952Y-62495238D01*
X48352380Y-61971428D02*
X49352380Y-61733333D01*
X48638095Y-61542857D01*
X49352380Y-61352380D01*
X48352380Y-61114285D01*
X49447619Y-60066666D02*
X49400000Y-60161904D01*
X49304761Y-60257142D01*
X49161904Y-60400000D01*
X49114285Y-60495238D01*
X49114285Y-60590476D01*
X49352380Y-60542857D02*
X49304761Y-60638095D01*
X49209523Y-60733333D01*
X49019047Y-60780952D01*
X48685714Y-60780952D01*
X48495238Y-60733333D01*
X48400000Y-60638095D01*
X48352380Y-60542857D01*
X48352380Y-60352380D01*
X48400000Y-60257142D01*
X48495238Y-60161904D01*
X48685714Y-60114285D01*
X49019047Y-60114285D01*
X49209523Y-60161904D01*
X49304761Y-60257142D01*
X49352380Y-60352380D01*
X49352380Y-60542857D01*
X48971428Y-59685714D02*
X48971428Y-58923809D01*
X48352380Y-58542857D02*
X48352380Y-57876190D01*
X49352380Y-58304761D01*
X48971428Y-57495238D02*
X48971428Y-56733333D01*
X48828571Y-55923809D02*
X48828571Y-56257142D01*
X49352380Y-56257142D02*
X48352380Y-56257142D01*
X48352380Y-55780952D01*
X53452380Y-62138095D02*
X52452380Y-62138095D01*
X52452380Y-61900000D01*
X52500000Y-61757142D01*
X52595238Y-61661904D01*
X52690476Y-61614285D01*
X52880952Y-61566666D01*
X53023809Y-61566666D01*
X53214285Y-61614285D01*
X53309523Y-61661904D01*
X53404761Y-61757142D01*
X53452380Y-61900000D01*
X53452380Y-62138095D01*
X52452380Y-61233333D02*
X52452380Y-60614285D01*
X52833333Y-60947619D01*
X52833333Y-60804761D01*
X52880952Y-60709523D01*
X52928571Y-60661904D01*
X53023809Y-60614285D01*
X53261904Y-60614285D01*
X53357142Y-60661904D01*
X53404761Y-60709523D01*
X53452380Y-60804761D01*
X53452380Y-61090476D01*
X53404761Y-61185714D01*
X53357142Y-61233333D01*
%TO.C,D4*%
X49552380Y-61661904D02*
X49552380Y-62233333D01*
X49552380Y-61947619D02*
X48552380Y-61947619D01*
X48695238Y-62042857D01*
X48790476Y-62138095D01*
X48838095Y-62233333D01*
X49552380Y-61233333D02*
X48552380Y-61233333D01*
X49552380Y-60661904D01*
X48552380Y-60661904D01*
X48885714Y-59757142D02*
X49552380Y-59757142D01*
X48504761Y-59995238D02*
X49219047Y-60233333D01*
X49219047Y-59614285D01*
X48885714Y-58804761D02*
X49552380Y-58804761D01*
X48504761Y-59042857D02*
X49219047Y-59280952D01*
X49219047Y-58661904D01*
X48885714Y-57852380D02*
X49552380Y-57852380D01*
X48504761Y-58090476D02*
X49219047Y-58328571D01*
X49219047Y-57709523D01*
X48980952Y-57185714D02*
X48933333Y-57280952D01*
X48885714Y-57328571D01*
X48790476Y-57376190D01*
X48742857Y-57376190D01*
X48647619Y-57328571D01*
X48600000Y-57280952D01*
X48552380Y-57185714D01*
X48552380Y-56995238D01*
X48600000Y-56900000D01*
X48647619Y-56852380D01*
X48742857Y-56804761D01*
X48790476Y-56804761D01*
X48885714Y-56852380D01*
X48933333Y-56900000D01*
X48980952Y-56995238D01*
X48980952Y-57185714D01*
X49028571Y-57280952D01*
X49076190Y-57328571D01*
X49171428Y-57376190D01*
X49361904Y-57376190D01*
X49457142Y-57328571D01*
X49504761Y-57280952D01*
X49552380Y-57185714D01*
X49552380Y-56995238D01*
X49504761Y-56900000D01*
X49457142Y-56852380D01*
X49361904Y-56804761D01*
X49171428Y-56804761D01*
X49076190Y-56852380D01*
X49028571Y-56900000D01*
X48980952Y-56995238D01*
X48552380Y-56471428D02*
X49552380Y-56233333D01*
X48838095Y-56042857D01*
X49552380Y-55852380D01*
X48552380Y-55614285D01*
X49647619Y-54566666D02*
X49600000Y-54661904D01*
X49504761Y-54757142D01*
X49361904Y-54900000D01*
X49314285Y-54995238D01*
X49314285Y-55090476D01*
X49552380Y-55042857D02*
X49504761Y-55138095D01*
X49409523Y-55233333D01*
X49219047Y-55280952D01*
X48885714Y-55280952D01*
X48695238Y-55233333D01*
X48600000Y-55138095D01*
X48552380Y-55042857D01*
X48552380Y-54852380D01*
X48600000Y-54757142D01*
X48695238Y-54661904D01*
X48885714Y-54614285D01*
X49219047Y-54614285D01*
X49409523Y-54661904D01*
X49504761Y-54757142D01*
X49552380Y-54852380D01*
X49552380Y-55042857D01*
X49171428Y-54185714D02*
X49171428Y-53423809D01*
X48552380Y-53042857D02*
X48552380Y-52376190D01*
X49552380Y-52804761D01*
X49171428Y-51995238D02*
X49171428Y-51233333D01*
X49028571Y-50423809D02*
X49028571Y-50757142D01*
X49552380Y-50757142D02*
X48552380Y-50757142D01*
X48552380Y-50280952D01*
X45452380Y-56638095D02*
X44452380Y-56638095D01*
X44452380Y-56400000D01*
X44500000Y-56257142D01*
X44595238Y-56161904D01*
X44690476Y-56114285D01*
X44880952Y-56066666D01*
X45023809Y-56066666D01*
X45214285Y-56114285D01*
X45309523Y-56161904D01*
X45404761Y-56257142D01*
X45452380Y-56400000D01*
X45452380Y-56638095D01*
X44785714Y-55209523D02*
X45452380Y-55209523D01*
X44404761Y-55447619D02*
X45119047Y-55685714D01*
X45119047Y-55066666D01*
%TO.C,D5*%
X49552380Y-67161904D02*
X49552380Y-67733333D01*
X49552380Y-67447619D02*
X48552380Y-67447619D01*
X48695238Y-67542857D01*
X48790476Y-67638095D01*
X48838095Y-67733333D01*
X49552380Y-66733333D02*
X48552380Y-66733333D01*
X49552380Y-66161904D01*
X48552380Y-66161904D01*
X48885714Y-65257142D02*
X49552380Y-65257142D01*
X48504761Y-65495238D02*
X49219047Y-65733333D01*
X49219047Y-65114285D01*
X48885714Y-64304761D02*
X49552380Y-64304761D01*
X48504761Y-64542857D02*
X49219047Y-64780952D01*
X49219047Y-64161904D01*
X48885714Y-63352380D02*
X49552380Y-63352380D01*
X48504761Y-63590476D02*
X49219047Y-63828571D01*
X49219047Y-63209523D01*
X48980952Y-62685714D02*
X48933333Y-62780952D01*
X48885714Y-62828571D01*
X48790476Y-62876190D01*
X48742857Y-62876190D01*
X48647619Y-62828571D01*
X48600000Y-62780952D01*
X48552380Y-62685714D01*
X48552380Y-62495238D01*
X48600000Y-62400000D01*
X48647619Y-62352380D01*
X48742857Y-62304761D01*
X48790476Y-62304761D01*
X48885714Y-62352380D01*
X48933333Y-62400000D01*
X48980952Y-62495238D01*
X48980952Y-62685714D01*
X49028571Y-62780952D01*
X49076190Y-62828571D01*
X49171428Y-62876190D01*
X49361904Y-62876190D01*
X49457142Y-62828571D01*
X49504761Y-62780952D01*
X49552380Y-62685714D01*
X49552380Y-62495238D01*
X49504761Y-62400000D01*
X49457142Y-62352380D01*
X49361904Y-62304761D01*
X49171428Y-62304761D01*
X49076190Y-62352380D01*
X49028571Y-62400000D01*
X48980952Y-62495238D01*
X48552380Y-61971428D02*
X49552380Y-61733333D01*
X48838095Y-61542857D01*
X49552380Y-61352380D01*
X48552380Y-61114285D01*
X49647619Y-60066666D02*
X49600000Y-60161904D01*
X49504761Y-60257142D01*
X49361904Y-60400000D01*
X49314285Y-60495238D01*
X49314285Y-60590476D01*
X49552380Y-60542857D02*
X49504761Y-60638095D01*
X49409523Y-60733333D01*
X49219047Y-60780952D01*
X48885714Y-60780952D01*
X48695238Y-60733333D01*
X48600000Y-60638095D01*
X48552380Y-60542857D01*
X48552380Y-60352380D01*
X48600000Y-60257142D01*
X48695238Y-60161904D01*
X48885714Y-60114285D01*
X49219047Y-60114285D01*
X49409523Y-60161904D01*
X49504761Y-60257142D01*
X49552380Y-60352380D01*
X49552380Y-60542857D01*
X49171428Y-59685714D02*
X49171428Y-58923809D01*
X48552380Y-58542857D02*
X48552380Y-57876190D01*
X49552380Y-58304761D01*
X49171428Y-57495238D02*
X49171428Y-56733333D01*
X49028571Y-55923809D02*
X49028571Y-56257142D01*
X49552380Y-56257142D02*
X48552380Y-56257142D01*
X48552380Y-55780952D01*
X45452380Y-62138095D02*
X44452380Y-62138095D01*
X44452380Y-61900000D01*
X44500000Y-61757142D01*
X44595238Y-61661904D01*
X44690476Y-61614285D01*
X44880952Y-61566666D01*
X45023809Y-61566666D01*
X45214285Y-61614285D01*
X45309523Y-61661904D01*
X45404761Y-61757142D01*
X45452380Y-61900000D01*
X45452380Y-62138095D01*
X44452380Y-60661904D02*
X44452380Y-61138095D01*
X44928571Y-61185714D01*
X44880952Y-61138095D01*
X44833333Y-61042857D01*
X44833333Y-60804761D01*
X44880952Y-60709523D01*
X44928571Y-60661904D01*
X45023809Y-60614285D01*
X45261904Y-60614285D01*
X45357142Y-60661904D01*
X45404761Y-60709523D01*
X45452380Y-60804761D01*
X45452380Y-61042857D01*
X45404761Y-61138095D01*
X45357142Y-61185714D01*
%TO.C,J1*%
X33714285Y-69607142D02*
X33666666Y-69654761D01*
X33523809Y-69702380D01*
X33428571Y-69702380D01*
X33285714Y-69654761D01*
X33190476Y-69559523D01*
X33142857Y-69464285D01*
X33095238Y-69273809D01*
X33095238Y-69130952D01*
X33142857Y-68940476D01*
X33190476Y-68845238D01*
X33285714Y-68750000D01*
X33428571Y-68702380D01*
X33523809Y-68702380D01*
X33666666Y-68750000D01*
X33714285Y-68797619D01*
X34285714Y-69702380D02*
X34190476Y-69654761D01*
X34142857Y-69607142D01*
X34095238Y-69511904D01*
X34095238Y-69226190D01*
X34142857Y-69130952D01*
X34190476Y-69083333D01*
X34285714Y-69035714D01*
X34428571Y-69035714D01*
X34523809Y-69083333D01*
X34571428Y-69130952D01*
X34619047Y-69226190D01*
X34619047Y-69511904D01*
X34571428Y-69607142D01*
X34523809Y-69654761D01*
X34428571Y-69702380D01*
X34285714Y-69702380D01*
X35047619Y-69035714D02*
X35047619Y-69702380D01*
X35047619Y-69130952D02*
X35095238Y-69083333D01*
X35190476Y-69035714D01*
X35333333Y-69035714D01*
X35428571Y-69083333D01*
X35476190Y-69178571D01*
X35476190Y-69702380D01*
X35952380Y-69035714D02*
X35952380Y-69702380D01*
X35952380Y-69130952D02*
X36000000Y-69083333D01*
X36095238Y-69035714D01*
X36238095Y-69035714D01*
X36333333Y-69083333D01*
X36380952Y-69178571D01*
X36380952Y-69702380D01*
X36619047Y-69797619D02*
X37380952Y-69797619D01*
X37809523Y-68702380D02*
X37904761Y-68702380D01*
X38000000Y-68750000D01*
X38047619Y-68797619D01*
X38095238Y-68892857D01*
X38142857Y-69083333D01*
X38142857Y-69321428D01*
X38095238Y-69511904D01*
X38047619Y-69607142D01*
X38000000Y-69654761D01*
X37904761Y-69702380D01*
X37809523Y-69702380D01*
X37714285Y-69654761D01*
X37666666Y-69607142D01*
X37619047Y-69511904D01*
X37571428Y-69321428D01*
X37571428Y-69083333D01*
X37619047Y-68892857D01*
X37666666Y-68797619D01*
X37714285Y-68750000D01*
X37809523Y-68702380D01*
X39095238Y-69702380D02*
X38523809Y-69702380D01*
X38809523Y-69702380D02*
X38809523Y-68702380D01*
X38714285Y-68845238D01*
X38619047Y-68940476D01*
X38523809Y-68988095D01*
X39428571Y-69702380D02*
X39952380Y-69035714D01*
X39428571Y-69035714D02*
X39952380Y-69702380D01*
X40523809Y-68702380D02*
X40619047Y-68702380D01*
X40714285Y-68750000D01*
X40761904Y-68797619D01*
X40809523Y-68892857D01*
X40857142Y-69083333D01*
X40857142Y-69321428D01*
X40809523Y-69511904D01*
X40761904Y-69607142D01*
X40714285Y-69654761D01*
X40619047Y-69702380D01*
X40523809Y-69702380D01*
X40428571Y-69654761D01*
X40380952Y-69607142D01*
X40333333Y-69511904D01*
X40285714Y-69321428D01*
X40285714Y-69083333D01*
X40333333Y-68892857D01*
X40380952Y-68797619D01*
X40428571Y-68750000D01*
X40523809Y-68702380D01*
X41809523Y-69702380D02*
X41238095Y-69702380D01*
X41523809Y-69702380D02*
X41523809Y-68702380D01*
X41428571Y-68845238D01*
X41333333Y-68940476D01*
X41238095Y-68988095D01*
X42000000Y-69797619D02*
X42761904Y-69797619D01*
X43333333Y-69178571D02*
X43000000Y-69178571D01*
X43000000Y-69702380D02*
X43000000Y-68702380D01*
X43476190Y-68702380D01*
X44238095Y-69654761D02*
X44142857Y-69702380D01*
X43952380Y-69702380D01*
X43857142Y-69654761D01*
X43809523Y-69559523D01*
X43809523Y-69178571D01*
X43857142Y-69083333D01*
X43952380Y-69035714D01*
X44142857Y-69035714D01*
X44238095Y-69083333D01*
X44285714Y-69178571D01*
X44285714Y-69273809D01*
X43809523Y-69369047D01*
X44714285Y-69702380D02*
X44714285Y-69035714D01*
X44714285Y-69130952D02*
X44761904Y-69083333D01*
X44857142Y-69035714D01*
X45000000Y-69035714D01*
X45095238Y-69083333D01*
X45142857Y-69178571D01*
X45142857Y-69702380D01*
X45142857Y-69178571D02*
X45190476Y-69083333D01*
X45285714Y-69035714D01*
X45428571Y-69035714D01*
X45523809Y-69083333D01*
X45571428Y-69178571D01*
X45571428Y-69702380D01*
X46476190Y-69702380D02*
X46476190Y-69178571D01*
X46428571Y-69083333D01*
X46333333Y-69035714D01*
X46142857Y-69035714D01*
X46047619Y-69083333D01*
X46476190Y-69654761D02*
X46380952Y-69702380D01*
X46142857Y-69702380D01*
X46047619Y-69654761D01*
X46000000Y-69559523D01*
X46000000Y-69464285D01*
X46047619Y-69369047D01*
X46142857Y-69321428D01*
X46380952Y-69321428D01*
X46476190Y-69273809D01*
X47095238Y-69702380D02*
X47000000Y-69654761D01*
X46952380Y-69559523D01*
X46952380Y-68702380D01*
X47857142Y-69654761D02*
X47761904Y-69702380D01*
X47571428Y-69702380D01*
X47476190Y-69654761D01*
X47428571Y-69559523D01*
X47428571Y-69178571D01*
X47476190Y-69083333D01*
X47571428Y-69035714D01*
X47761904Y-69035714D01*
X47857142Y-69083333D01*
X47904761Y-69178571D01*
X47904761Y-69273809D01*
X47428571Y-69369047D01*
X40466666Y-65952380D02*
X40466666Y-66666666D01*
X40419047Y-66809523D01*
X40323809Y-66904761D01*
X40180952Y-66952380D01*
X40085714Y-66952380D01*
X41466666Y-66952380D02*
X40895238Y-66952380D01*
X41180952Y-66952380D02*
X41180952Y-65952380D01*
X41085714Y-66095238D01*
X40990476Y-66190476D01*
X40895238Y-66238095D01*
%TO.C,J2*%
X116214285Y-56607142D02*
X116166666Y-56654761D01*
X116023809Y-56702380D01*
X115928571Y-56702380D01*
X115785714Y-56654761D01*
X115690476Y-56559523D01*
X115642857Y-56464285D01*
X115595238Y-56273809D01*
X115595238Y-56130952D01*
X115642857Y-55940476D01*
X115690476Y-55845238D01*
X115785714Y-55750000D01*
X115928571Y-55702380D01*
X116023809Y-55702380D01*
X116166666Y-55750000D01*
X116214285Y-55797619D01*
X116785714Y-56702380D02*
X116690476Y-56654761D01*
X116642857Y-56607142D01*
X116595238Y-56511904D01*
X116595238Y-56226190D01*
X116642857Y-56130952D01*
X116690476Y-56083333D01*
X116785714Y-56035714D01*
X116928571Y-56035714D01*
X117023809Y-56083333D01*
X117071428Y-56130952D01*
X117119047Y-56226190D01*
X117119047Y-56511904D01*
X117071428Y-56607142D01*
X117023809Y-56654761D01*
X116928571Y-56702380D01*
X116785714Y-56702380D01*
X117547619Y-56035714D02*
X117547619Y-56702380D01*
X117547619Y-56130952D02*
X117595238Y-56083333D01*
X117690476Y-56035714D01*
X117833333Y-56035714D01*
X117928571Y-56083333D01*
X117976190Y-56178571D01*
X117976190Y-56702380D01*
X118452380Y-56035714D02*
X118452380Y-56702380D01*
X118452380Y-56130952D02*
X118500000Y-56083333D01*
X118595238Y-56035714D01*
X118738095Y-56035714D01*
X118833333Y-56083333D01*
X118880952Y-56178571D01*
X118880952Y-56702380D01*
X119119047Y-56797619D02*
X119880952Y-56797619D01*
X120309523Y-55702380D02*
X120404761Y-55702380D01*
X120500000Y-55750000D01*
X120547619Y-55797619D01*
X120595238Y-55892857D01*
X120642857Y-56083333D01*
X120642857Y-56321428D01*
X120595238Y-56511904D01*
X120547619Y-56607142D01*
X120500000Y-56654761D01*
X120404761Y-56702380D01*
X120309523Y-56702380D01*
X120214285Y-56654761D01*
X120166666Y-56607142D01*
X120119047Y-56511904D01*
X120071428Y-56321428D01*
X120071428Y-56083333D01*
X120119047Y-55892857D01*
X120166666Y-55797619D01*
X120214285Y-55750000D01*
X120309523Y-55702380D01*
X121595238Y-56702380D02*
X121023809Y-56702380D01*
X121309523Y-56702380D02*
X121309523Y-55702380D01*
X121214285Y-55845238D01*
X121119047Y-55940476D01*
X121023809Y-55988095D01*
X121928571Y-56702380D02*
X122452380Y-56035714D01*
X121928571Y-56035714D02*
X122452380Y-56702380D01*
X123023809Y-55702380D02*
X123119047Y-55702380D01*
X123214285Y-55750000D01*
X123261904Y-55797619D01*
X123309523Y-55892857D01*
X123357142Y-56083333D01*
X123357142Y-56321428D01*
X123309523Y-56511904D01*
X123261904Y-56607142D01*
X123214285Y-56654761D01*
X123119047Y-56702380D01*
X123023809Y-56702380D01*
X122928571Y-56654761D01*
X122880952Y-56607142D01*
X122833333Y-56511904D01*
X122785714Y-56321428D01*
X122785714Y-56083333D01*
X122833333Y-55892857D01*
X122880952Y-55797619D01*
X122928571Y-55750000D01*
X123023809Y-55702380D01*
X124309523Y-56702380D02*
X123738095Y-56702380D01*
X124023809Y-56702380D02*
X124023809Y-55702380D01*
X123928571Y-55845238D01*
X123833333Y-55940476D01*
X123738095Y-55988095D01*
X124500000Y-56797619D02*
X125261904Y-56797619D01*
X125833333Y-56178571D02*
X125500000Y-56178571D01*
X125500000Y-56702380D02*
X125500000Y-55702380D01*
X125976190Y-55702380D01*
X126738095Y-56654761D02*
X126642857Y-56702380D01*
X126452380Y-56702380D01*
X126357142Y-56654761D01*
X126309523Y-56559523D01*
X126309523Y-56178571D01*
X126357142Y-56083333D01*
X126452380Y-56035714D01*
X126642857Y-56035714D01*
X126738095Y-56083333D01*
X126785714Y-56178571D01*
X126785714Y-56273809D01*
X126309523Y-56369047D01*
X127214285Y-56702380D02*
X127214285Y-56035714D01*
X127214285Y-56130952D02*
X127261904Y-56083333D01*
X127357142Y-56035714D01*
X127500000Y-56035714D01*
X127595238Y-56083333D01*
X127642857Y-56178571D01*
X127642857Y-56702380D01*
X127642857Y-56178571D02*
X127690476Y-56083333D01*
X127785714Y-56035714D01*
X127928571Y-56035714D01*
X128023809Y-56083333D01*
X128071428Y-56178571D01*
X128071428Y-56702380D01*
X128976190Y-56702380D02*
X128976190Y-56178571D01*
X128928571Y-56083333D01*
X128833333Y-56035714D01*
X128642857Y-56035714D01*
X128547619Y-56083333D01*
X128976190Y-56654761D02*
X128880952Y-56702380D01*
X128642857Y-56702380D01*
X128547619Y-56654761D01*
X128500000Y-56559523D01*
X128500000Y-56464285D01*
X128547619Y-56369047D01*
X128642857Y-56321428D01*
X128880952Y-56321428D01*
X128976190Y-56273809D01*
X129595238Y-56702380D02*
X129500000Y-56654761D01*
X129452380Y-56559523D01*
X129452380Y-55702380D01*
X130357142Y-56654761D02*
X130261904Y-56702380D01*
X130071428Y-56702380D01*
X129976190Y-56654761D01*
X129928571Y-56559523D01*
X129928571Y-56178571D01*
X129976190Y-56083333D01*
X130071428Y-56035714D01*
X130261904Y-56035714D01*
X130357142Y-56083333D01*
X130404761Y-56178571D01*
X130404761Y-56273809D01*
X129928571Y-56369047D01*
X122966666Y-52952380D02*
X122966666Y-53666666D01*
X122919047Y-53809523D01*
X122823809Y-53904761D01*
X122680952Y-53952380D01*
X122585714Y-53952380D01*
X123395238Y-53047619D02*
X123442857Y-53000000D01*
X123538095Y-52952380D01*
X123776190Y-52952380D01*
X123871428Y-53000000D01*
X123919047Y-53047619D01*
X123966666Y-53142857D01*
X123966666Y-53238095D01*
X123919047Y-53380952D01*
X123347619Y-53952380D01*
X123966666Y-53952380D01*
%TO.C,J3*%
X116214285Y-63607142D02*
X116166666Y-63654761D01*
X116023809Y-63702380D01*
X115928571Y-63702380D01*
X115785714Y-63654761D01*
X115690476Y-63559523D01*
X115642857Y-63464285D01*
X115595238Y-63273809D01*
X115595238Y-63130952D01*
X115642857Y-62940476D01*
X115690476Y-62845238D01*
X115785714Y-62750000D01*
X115928571Y-62702380D01*
X116023809Y-62702380D01*
X116166666Y-62750000D01*
X116214285Y-62797619D01*
X116785714Y-63702380D02*
X116690476Y-63654761D01*
X116642857Y-63607142D01*
X116595238Y-63511904D01*
X116595238Y-63226190D01*
X116642857Y-63130952D01*
X116690476Y-63083333D01*
X116785714Y-63035714D01*
X116928571Y-63035714D01*
X117023809Y-63083333D01*
X117071428Y-63130952D01*
X117119047Y-63226190D01*
X117119047Y-63511904D01*
X117071428Y-63607142D01*
X117023809Y-63654761D01*
X116928571Y-63702380D01*
X116785714Y-63702380D01*
X117547619Y-63035714D02*
X117547619Y-63702380D01*
X117547619Y-63130952D02*
X117595238Y-63083333D01*
X117690476Y-63035714D01*
X117833333Y-63035714D01*
X117928571Y-63083333D01*
X117976190Y-63178571D01*
X117976190Y-63702380D01*
X118452380Y-63035714D02*
X118452380Y-63702380D01*
X118452380Y-63130952D02*
X118500000Y-63083333D01*
X118595238Y-63035714D01*
X118738095Y-63035714D01*
X118833333Y-63083333D01*
X118880952Y-63178571D01*
X118880952Y-63702380D01*
X119119047Y-63797619D02*
X119880952Y-63797619D01*
X120309523Y-62702380D02*
X120404761Y-62702380D01*
X120500000Y-62750000D01*
X120547619Y-62797619D01*
X120595238Y-62892857D01*
X120642857Y-63083333D01*
X120642857Y-63321428D01*
X120595238Y-63511904D01*
X120547619Y-63607142D01*
X120500000Y-63654761D01*
X120404761Y-63702380D01*
X120309523Y-63702380D01*
X120214285Y-63654761D01*
X120166666Y-63607142D01*
X120119047Y-63511904D01*
X120071428Y-63321428D01*
X120071428Y-63083333D01*
X120119047Y-62892857D01*
X120166666Y-62797619D01*
X120214285Y-62750000D01*
X120309523Y-62702380D01*
X121595238Y-63702380D02*
X121023809Y-63702380D01*
X121309523Y-63702380D02*
X121309523Y-62702380D01*
X121214285Y-62845238D01*
X121119047Y-62940476D01*
X121023809Y-62988095D01*
X121928571Y-63702380D02*
X122452380Y-63035714D01*
X121928571Y-63035714D02*
X122452380Y-63702380D01*
X123023809Y-62702380D02*
X123119047Y-62702380D01*
X123214285Y-62750000D01*
X123261904Y-62797619D01*
X123309523Y-62892857D01*
X123357142Y-63083333D01*
X123357142Y-63321428D01*
X123309523Y-63511904D01*
X123261904Y-63607142D01*
X123214285Y-63654761D01*
X123119047Y-63702380D01*
X123023809Y-63702380D01*
X122928571Y-63654761D01*
X122880952Y-63607142D01*
X122833333Y-63511904D01*
X122785714Y-63321428D01*
X122785714Y-63083333D01*
X122833333Y-62892857D01*
X122880952Y-62797619D01*
X122928571Y-62750000D01*
X123023809Y-62702380D01*
X124309523Y-63702380D02*
X123738095Y-63702380D01*
X124023809Y-63702380D02*
X124023809Y-62702380D01*
X123928571Y-62845238D01*
X123833333Y-62940476D01*
X123738095Y-62988095D01*
X124500000Y-63797619D02*
X125261904Y-63797619D01*
X125833333Y-63178571D02*
X125500000Y-63178571D01*
X125500000Y-63702380D02*
X125500000Y-62702380D01*
X125976190Y-62702380D01*
X126738095Y-63654761D02*
X126642857Y-63702380D01*
X126452380Y-63702380D01*
X126357142Y-63654761D01*
X126309523Y-63559523D01*
X126309523Y-63178571D01*
X126357142Y-63083333D01*
X126452380Y-63035714D01*
X126642857Y-63035714D01*
X126738095Y-63083333D01*
X126785714Y-63178571D01*
X126785714Y-63273809D01*
X126309523Y-63369047D01*
X127214285Y-63702380D02*
X127214285Y-63035714D01*
X127214285Y-63130952D02*
X127261904Y-63083333D01*
X127357142Y-63035714D01*
X127500000Y-63035714D01*
X127595238Y-63083333D01*
X127642857Y-63178571D01*
X127642857Y-63702380D01*
X127642857Y-63178571D02*
X127690476Y-63083333D01*
X127785714Y-63035714D01*
X127928571Y-63035714D01*
X128023809Y-63083333D01*
X128071428Y-63178571D01*
X128071428Y-63702380D01*
X128976190Y-63702380D02*
X128976190Y-63178571D01*
X128928571Y-63083333D01*
X128833333Y-63035714D01*
X128642857Y-63035714D01*
X128547619Y-63083333D01*
X128976190Y-63654761D02*
X128880952Y-63702380D01*
X128642857Y-63702380D01*
X128547619Y-63654761D01*
X128500000Y-63559523D01*
X128500000Y-63464285D01*
X128547619Y-63369047D01*
X128642857Y-63321428D01*
X128880952Y-63321428D01*
X128976190Y-63273809D01*
X129595238Y-63702380D02*
X129500000Y-63654761D01*
X129452380Y-63559523D01*
X129452380Y-62702380D01*
X130357142Y-63654761D02*
X130261904Y-63702380D01*
X130071428Y-63702380D01*
X129976190Y-63654761D01*
X129928571Y-63559523D01*
X129928571Y-63178571D01*
X129976190Y-63083333D01*
X130071428Y-63035714D01*
X130261904Y-63035714D01*
X130357142Y-63083333D01*
X130404761Y-63178571D01*
X130404761Y-63273809D01*
X129928571Y-63369047D01*
X122966666Y-59952380D02*
X122966666Y-60666666D01*
X122919047Y-60809523D01*
X122823809Y-60904761D01*
X122680952Y-60952380D01*
X122585714Y-60952380D01*
X123347619Y-59952380D02*
X123966666Y-59952380D01*
X123633333Y-60333333D01*
X123776190Y-60333333D01*
X123871428Y-60380952D01*
X123919047Y-60428571D01*
X123966666Y-60523809D01*
X123966666Y-60761904D01*
X123919047Y-60857142D01*
X123871428Y-60904761D01*
X123776190Y-60952380D01*
X123490476Y-60952380D01*
X123395238Y-60904761D01*
X123347619Y-60857142D01*
%TO.C,J4*%
X116214285Y-69607142D02*
X116166666Y-69654761D01*
X116023809Y-69702380D01*
X115928571Y-69702380D01*
X115785714Y-69654761D01*
X115690476Y-69559523D01*
X115642857Y-69464285D01*
X115595238Y-69273809D01*
X115595238Y-69130952D01*
X115642857Y-68940476D01*
X115690476Y-68845238D01*
X115785714Y-68750000D01*
X115928571Y-68702380D01*
X116023809Y-68702380D01*
X116166666Y-68750000D01*
X116214285Y-68797619D01*
X116785714Y-69702380D02*
X116690476Y-69654761D01*
X116642857Y-69607142D01*
X116595238Y-69511904D01*
X116595238Y-69226190D01*
X116642857Y-69130952D01*
X116690476Y-69083333D01*
X116785714Y-69035714D01*
X116928571Y-69035714D01*
X117023809Y-69083333D01*
X117071428Y-69130952D01*
X117119047Y-69226190D01*
X117119047Y-69511904D01*
X117071428Y-69607142D01*
X117023809Y-69654761D01*
X116928571Y-69702380D01*
X116785714Y-69702380D01*
X117547619Y-69035714D02*
X117547619Y-69702380D01*
X117547619Y-69130952D02*
X117595238Y-69083333D01*
X117690476Y-69035714D01*
X117833333Y-69035714D01*
X117928571Y-69083333D01*
X117976190Y-69178571D01*
X117976190Y-69702380D01*
X118452380Y-69035714D02*
X118452380Y-69702380D01*
X118452380Y-69130952D02*
X118500000Y-69083333D01*
X118595238Y-69035714D01*
X118738095Y-69035714D01*
X118833333Y-69083333D01*
X118880952Y-69178571D01*
X118880952Y-69702380D01*
X119119047Y-69797619D02*
X119880952Y-69797619D01*
X120309523Y-68702380D02*
X120404761Y-68702380D01*
X120500000Y-68750000D01*
X120547619Y-68797619D01*
X120595238Y-68892857D01*
X120642857Y-69083333D01*
X120642857Y-69321428D01*
X120595238Y-69511904D01*
X120547619Y-69607142D01*
X120500000Y-69654761D01*
X120404761Y-69702380D01*
X120309523Y-69702380D01*
X120214285Y-69654761D01*
X120166666Y-69607142D01*
X120119047Y-69511904D01*
X120071428Y-69321428D01*
X120071428Y-69083333D01*
X120119047Y-68892857D01*
X120166666Y-68797619D01*
X120214285Y-68750000D01*
X120309523Y-68702380D01*
X121595238Y-69702380D02*
X121023809Y-69702380D01*
X121309523Y-69702380D02*
X121309523Y-68702380D01*
X121214285Y-68845238D01*
X121119047Y-68940476D01*
X121023809Y-68988095D01*
X121928571Y-69702380D02*
X122452380Y-69035714D01*
X121928571Y-69035714D02*
X122452380Y-69702380D01*
X123023809Y-68702380D02*
X123119047Y-68702380D01*
X123214285Y-68750000D01*
X123261904Y-68797619D01*
X123309523Y-68892857D01*
X123357142Y-69083333D01*
X123357142Y-69321428D01*
X123309523Y-69511904D01*
X123261904Y-69607142D01*
X123214285Y-69654761D01*
X123119047Y-69702380D01*
X123023809Y-69702380D01*
X122928571Y-69654761D01*
X122880952Y-69607142D01*
X122833333Y-69511904D01*
X122785714Y-69321428D01*
X122785714Y-69083333D01*
X122833333Y-68892857D01*
X122880952Y-68797619D01*
X122928571Y-68750000D01*
X123023809Y-68702380D01*
X124309523Y-69702380D02*
X123738095Y-69702380D01*
X124023809Y-69702380D02*
X124023809Y-68702380D01*
X123928571Y-68845238D01*
X123833333Y-68940476D01*
X123738095Y-68988095D01*
X124500000Y-69797619D02*
X125261904Y-69797619D01*
X125833333Y-69178571D02*
X125500000Y-69178571D01*
X125500000Y-69702380D02*
X125500000Y-68702380D01*
X125976190Y-68702380D01*
X126738095Y-69654761D02*
X126642857Y-69702380D01*
X126452380Y-69702380D01*
X126357142Y-69654761D01*
X126309523Y-69559523D01*
X126309523Y-69178571D01*
X126357142Y-69083333D01*
X126452380Y-69035714D01*
X126642857Y-69035714D01*
X126738095Y-69083333D01*
X126785714Y-69178571D01*
X126785714Y-69273809D01*
X126309523Y-69369047D01*
X127214285Y-69702380D02*
X127214285Y-69035714D01*
X127214285Y-69130952D02*
X127261904Y-69083333D01*
X127357142Y-69035714D01*
X127500000Y-69035714D01*
X127595238Y-69083333D01*
X127642857Y-69178571D01*
X127642857Y-69702380D01*
X127642857Y-69178571D02*
X127690476Y-69083333D01*
X127785714Y-69035714D01*
X127928571Y-69035714D01*
X128023809Y-69083333D01*
X128071428Y-69178571D01*
X128071428Y-69702380D01*
X128976190Y-69702380D02*
X128976190Y-69178571D01*
X128928571Y-69083333D01*
X128833333Y-69035714D01*
X128642857Y-69035714D01*
X128547619Y-69083333D01*
X128976190Y-69654761D02*
X128880952Y-69702380D01*
X128642857Y-69702380D01*
X128547619Y-69654761D01*
X128500000Y-69559523D01*
X128500000Y-69464285D01*
X128547619Y-69369047D01*
X128642857Y-69321428D01*
X128880952Y-69321428D01*
X128976190Y-69273809D01*
X129595238Y-69702380D02*
X129500000Y-69654761D01*
X129452380Y-69559523D01*
X129452380Y-68702380D01*
X130357142Y-69654761D02*
X130261904Y-69702380D01*
X130071428Y-69702380D01*
X129976190Y-69654761D01*
X129928571Y-69559523D01*
X129928571Y-69178571D01*
X129976190Y-69083333D01*
X130071428Y-69035714D01*
X130261904Y-69035714D01*
X130357142Y-69083333D01*
X130404761Y-69178571D01*
X130404761Y-69273809D01*
X129928571Y-69369047D01*
X122966666Y-65952380D02*
X122966666Y-66666666D01*
X122919047Y-66809523D01*
X122823809Y-66904761D01*
X122680952Y-66952380D01*
X122585714Y-66952380D01*
X123871428Y-66285714D02*
X123871428Y-66952380D01*
X123633333Y-65904761D02*
X123395238Y-66619047D01*
X124014285Y-66619047D01*
%TO.C,J6*%
X33714285Y-41107142D02*
X33666666Y-41154761D01*
X33523809Y-41202380D01*
X33428571Y-41202380D01*
X33285714Y-41154761D01*
X33190476Y-41059523D01*
X33142857Y-40964285D01*
X33095238Y-40773809D01*
X33095238Y-40630952D01*
X33142857Y-40440476D01*
X33190476Y-40345238D01*
X33285714Y-40250000D01*
X33428571Y-40202380D01*
X33523809Y-40202380D01*
X33666666Y-40250000D01*
X33714285Y-40297619D01*
X34285714Y-41202380D02*
X34190476Y-41154761D01*
X34142857Y-41107142D01*
X34095238Y-41011904D01*
X34095238Y-40726190D01*
X34142857Y-40630952D01*
X34190476Y-40583333D01*
X34285714Y-40535714D01*
X34428571Y-40535714D01*
X34523809Y-40583333D01*
X34571428Y-40630952D01*
X34619047Y-40726190D01*
X34619047Y-41011904D01*
X34571428Y-41107142D01*
X34523809Y-41154761D01*
X34428571Y-41202380D01*
X34285714Y-41202380D01*
X35047619Y-40535714D02*
X35047619Y-41202380D01*
X35047619Y-40630952D02*
X35095238Y-40583333D01*
X35190476Y-40535714D01*
X35333333Y-40535714D01*
X35428571Y-40583333D01*
X35476190Y-40678571D01*
X35476190Y-41202380D01*
X35952380Y-40535714D02*
X35952380Y-41202380D01*
X35952380Y-40630952D02*
X36000000Y-40583333D01*
X36095238Y-40535714D01*
X36238095Y-40535714D01*
X36333333Y-40583333D01*
X36380952Y-40678571D01*
X36380952Y-41202380D01*
X36619047Y-41297619D02*
X37380952Y-41297619D01*
X37809523Y-40202380D02*
X37904761Y-40202380D01*
X38000000Y-40250000D01*
X38047619Y-40297619D01*
X38095238Y-40392857D01*
X38142857Y-40583333D01*
X38142857Y-40821428D01*
X38095238Y-41011904D01*
X38047619Y-41107142D01*
X38000000Y-41154761D01*
X37904761Y-41202380D01*
X37809523Y-41202380D01*
X37714285Y-41154761D01*
X37666666Y-41107142D01*
X37619047Y-41011904D01*
X37571428Y-40821428D01*
X37571428Y-40583333D01*
X37619047Y-40392857D01*
X37666666Y-40297619D01*
X37714285Y-40250000D01*
X37809523Y-40202380D01*
X39095238Y-41202380D02*
X38523809Y-41202380D01*
X38809523Y-41202380D02*
X38809523Y-40202380D01*
X38714285Y-40345238D01*
X38619047Y-40440476D01*
X38523809Y-40488095D01*
X39428571Y-41202380D02*
X39952380Y-40535714D01*
X39428571Y-40535714D02*
X39952380Y-41202380D01*
X40523809Y-40202380D02*
X40619047Y-40202380D01*
X40714285Y-40250000D01*
X40761904Y-40297619D01*
X40809523Y-40392857D01*
X40857142Y-40583333D01*
X40857142Y-40821428D01*
X40809523Y-41011904D01*
X40761904Y-41107142D01*
X40714285Y-41154761D01*
X40619047Y-41202380D01*
X40523809Y-41202380D01*
X40428571Y-41154761D01*
X40380952Y-41107142D01*
X40333333Y-41011904D01*
X40285714Y-40821428D01*
X40285714Y-40583333D01*
X40333333Y-40392857D01*
X40380952Y-40297619D01*
X40428571Y-40250000D01*
X40523809Y-40202380D01*
X41809523Y-41202380D02*
X41238095Y-41202380D01*
X41523809Y-41202380D02*
X41523809Y-40202380D01*
X41428571Y-40345238D01*
X41333333Y-40440476D01*
X41238095Y-40488095D01*
X42000000Y-41297619D02*
X42761904Y-41297619D01*
X43333333Y-40678571D02*
X43000000Y-40678571D01*
X43000000Y-41202380D02*
X43000000Y-40202380D01*
X43476190Y-40202380D01*
X44238095Y-41154761D02*
X44142857Y-41202380D01*
X43952380Y-41202380D01*
X43857142Y-41154761D01*
X43809523Y-41059523D01*
X43809523Y-40678571D01*
X43857142Y-40583333D01*
X43952380Y-40535714D01*
X44142857Y-40535714D01*
X44238095Y-40583333D01*
X44285714Y-40678571D01*
X44285714Y-40773809D01*
X43809523Y-40869047D01*
X44714285Y-41202380D02*
X44714285Y-40535714D01*
X44714285Y-40630952D02*
X44761904Y-40583333D01*
X44857142Y-40535714D01*
X45000000Y-40535714D01*
X45095238Y-40583333D01*
X45142857Y-40678571D01*
X45142857Y-41202380D01*
X45142857Y-40678571D02*
X45190476Y-40583333D01*
X45285714Y-40535714D01*
X45428571Y-40535714D01*
X45523809Y-40583333D01*
X45571428Y-40678571D01*
X45571428Y-41202380D01*
X46476190Y-41202380D02*
X46476190Y-40678571D01*
X46428571Y-40583333D01*
X46333333Y-40535714D01*
X46142857Y-40535714D01*
X46047619Y-40583333D01*
X46476190Y-41154761D02*
X46380952Y-41202380D01*
X46142857Y-41202380D01*
X46047619Y-41154761D01*
X46000000Y-41059523D01*
X46000000Y-40964285D01*
X46047619Y-40869047D01*
X46142857Y-40821428D01*
X46380952Y-40821428D01*
X46476190Y-40773809D01*
X47095238Y-41202380D02*
X47000000Y-41154761D01*
X46952380Y-41059523D01*
X46952380Y-40202380D01*
X47857142Y-41154761D02*
X47761904Y-41202380D01*
X47571428Y-41202380D01*
X47476190Y-41154761D01*
X47428571Y-41059523D01*
X47428571Y-40678571D01*
X47476190Y-40583333D01*
X47571428Y-40535714D01*
X47761904Y-40535714D01*
X47857142Y-40583333D01*
X47904761Y-40678571D01*
X47904761Y-40773809D01*
X47428571Y-40869047D01*
X40466666Y-37452380D02*
X40466666Y-38166666D01*
X40419047Y-38309523D01*
X40323809Y-38404761D01*
X40180952Y-38452380D01*
X40085714Y-38452380D01*
X41371428Y-37452380D02*
X41180952Y-37452380D01*
X41085714Y-37500000D01*
X41038095Y-37547619D01*
X40942857Y-37690476D01*
X40895238Y-37880952D01*
X40895238Y-38261904D01*
X40942857Y-38357142D01*
X40990476Y-38404761D01*
X41085714Y-38452380D01*
X41276190Y-38452380D01*
X41371428Y-38404761D01*
X41419047Y-38357142D01*
X41466666Y-38261904D01*
X41466666Y-38023809D01*
X41419047Y-37928571D01*
X41371428Y-37880952D01*
X41276190Y-37833333D01*
X41085714Y-37833333D01*
X40990476Y-37880952D01*
X40942857Y-37928571D01*
X40895238Y-38023809D01*
%TO.C,J7*%
X116214285Y-41107142D02*
X116166666Y-41154761D01*
X116023809Y-41202380D01*
X115928571Y-41202380D01*
X115785714Y-41154761D01*
X115690476Y-41059523D01*
X115642857Y-40964285D01*
X115595238Y-40773809D01*
X115595238Y-40630952D01*
X115642857Y-40440476D01*
X115690476Y-40345238D01*
X115785714Y-40250000D01*
X115928571Y-40202380D01*
X116023809Y-40202380D01*
X116166666Y-40250000D01*
X116214285Y-40297619D01*
X116785714Y-41202380D02*
X116690476Y-41154761D01*
X116642857Y-41107142D01*
X116595238Y-41011904D01*
X116595238Y-40726190D01*
X116642857Y-40630952D01*
X116690476Y-40583333D01*
X116785714Y-40535714D01*
X116928571Y-40535714D01*
X117023809Y-40583333D01*
X117071428Y-40630952D01*
X117119047Y-40726190D01*
X117119047Y-41011904D01*
X117071428Y-41107142D01*
X117023809Y-41154761D01*
X116928571Y-41202380D01*
X116785714Y-41202380D01*
X117547619Y-40535714D02*
X117547619Y-41202380D01*
X117547619Y-40630952D02*
X117595238Y-40583333D01*
X117690476Y-40535714D01*
X117833333Y-40535714D01*
X117928571Y-40583333D01*
X117976190Y-40678571D01*
X117976190Y-41202380D01*
X118452380Y-40535714D02*
X118452380Y-41202380D01*
X118452380Y-40630952D02*
X118500000Y-40583333D01*
X118595238Y-40535714D01*
X118738095Y-40535714D01*
X118833333Y-40583333D01*
X118880952Y-40678571D01*
X118880952Y-41202380D01*
X119119047Y-41297619D02*
X119880952Y-41297619D01*
X120309523Y-40202380D02*
X120404761Y-40202380D01*
X120500000Y-40250000D01*
X120547619Y-40297619D01*
X120595238Y-40392857D01*
X120642857Y-40583333D01*
X120642857Y-40821428D01*
X120595238Y-41011904D01*
X120547619Y-41107142D01*
X120500000Y-41154761D01*
X120404761Y-41202380D01*
X120309523Y-41202380D01*
X120214285Y-41154761D01*
X120166666Y-41107142D01*
X120119047Y-41011904D01*
X120071428Y-40821428D01*
X120071428Y-40583333D01*
X120119047Y-40392857D01*
X120166666Y-40297619D01*
X120214285Y-40250000D01*
X120309523Y-40202380D01*
X121595238Y-41202380D02*
X121023809Y-41202380D01*
X121309523Y-41202380D02*
X121309523Y-40202380D01*
X121214285Y-40345238D01*
X121119047Y-40440476D01*
X121023809Y-40488095D01*
X121928571Y-41202380D02*
X122452380Y-40535714D01*
X121928571Y-40535714D02*
X122452380Y-41202380D01*
X123023809Y-40202380D02*
X123119047Y-40202380D01*
X123214285Y-40250000D01*
X123261904Y-40297619D01*
X123309523Y-40392857D01*
X123357142Y-40583333D01*
X123357142Y-40821428D01*
X123309523Y-41011904D01*
X123261904Y-41107142D01*
X123214285Y-41154761D01*
X123119047Y-41202380D01*
X123023809Y-41202380D01*
X122928571Y-41154761D01*
X122880952Y-41107142D01*
X122833333Y-41011904D01*
X122785714Y-40821428D01*
X122785714Y-40583333D01*
X122833333Y-40392857D01*
X122880952Y-40297619D01*
X122928571Y-40250000D01*
X123023809Y-40202380D01*
X124309523Y-41202380D02*
X123738095Y-41202380D01*
X124023809Y-41202380D02*
X124023809Y-40202380D01*
X123928571Y-40345238D01*
X123833333Y-40440476D01*
X123738095Y-40488095D01*
X124500000Y-41297619D02*
X125261904Y-41297619D01*
X125833333Y-40678571D02*
X125500000Y-40678571D01*
X125500000Y-41202380D02*
X125500000Y-40202380D01*
X125976190Y-40202380D01*
X126738095Y-41154761D02*
X126642857Y-41202380D01*
X126452380Y-41202380D01*
X126357142Y-41154761D01*
X126309523Y-41059523D01*
X126309523Y-40678571D01*
X126357142Y-40583333D01*
X126452380Y-40535714D01*
X126642857Y-40535714D01*
X126738095Y-40583333D01*
X126785714Y-40678571D01*
X126785714Y-40773809D01*
X126309523Y-40869047D01*
X127214285Y-41202380D02*
X127214285Y-40535714D01*
X127214285Y-40630952D02*
X127261904Y-40583333D01*
X127357142Y-40535714D01*
X127500000Y-40535714D01*
X127595238Y-40583333D01*
X127642857Y-40678571D01*
X127642857Y-41202380D01*
X127642857Y-40678571D02*
X127690476Y-40583333D01*
X127785714Y-40535714D01*
X127928571Y-40535714D01*
X128023809Y-40583333D01*
X128071428Y-40678571D01*
X128071428Y-41202380D01*
X128976190Y-41202380D02*
X128976190Y-40678571D01*
X128928571Y-40583333D01*
X128833333Y-40535714D01*
X128642857Y-40535714D01*
X128547619Y-40583333D01*
X128976190Y-41154761D02*
X128880952Y-41202380D01*
X128642857Y-41202380D01*
X128547619Y-41154761D01*
X128500000Y-41059523D01*
X128500000Y-40964285D01*
X128547619Y-40869047D01*
X128642857Y-40821428D01*
X128880952Y-40821428D01*
X128976190Y-40773809D01*
X129595238Y-41202380D02*
X129500000Y-41154761D01*
X129452380Y-41059523D01*
X129452380Y-40202380D01*
X130357142Y-41154761D02*
X130261904Y-41202380D01*
X130071428Y-41202380D01*
X129976190Y-41154761D01*
X129928571Y-41059523D01*
X129928571Y-40678571D01*
X129976190Y-40583333D01*
X130071428Y-40535714D01*
X130261904Y-40535714D01*
X130357142Y-40583333D01*
X130404761Y-40678571D01*
X130404761Y-40773809D01*
X129928571Y-40869047D01*
X122966666Y-37452380D02*
X122966666Y-38166666D01*
X122919047Y-38309523D01*
X122823809Y-38404761D01*
X122680952Y-38452380D01*
X122585714Y-38452380D01*
X123347619Y-37452380D02*
X124014285Y-37452380D01*
X123585714Y-38452380D01*
%TO.C,J8*%
X116214285Y-81107142D02*
X116166666Y-81154761D01*
X116023809Y-81202380D01*
X115928571Y-81202380D01*
X115785714Y-81154761D01*
X115690476Y-81059523D01*
X115642857Y-80964285D01*
X115595238Y-80773809D01*
X115595238Y-80630952D01*
X115642857Y-80440476D01*
X115690476Y-80345238D01*
X115785714Y-80250000D01*
X115928571Y-80202380D01*
X116023809Y-80202380D01*
X116166666Y-80250000D01*
X116214285Y-80297619D01*
X116785714Y-81202380D02*
X116690476Y-81154761D01*
X116642857Y-81107142D01*
X116595238Y-81011904D01*
X116595238Y-80726190D01*
X116642857Y-80630952D01*
X116690476Y-80583333D01*
X116785714Y-80535714D01*
X116928571Y-80535714D01*
X117023809Y-80583333D01*
X117071428Y-80630952D01*
X117119047Y-80726190D01*
X117119047Y-81011904D01*
X117071428Y-81107142D01*
X117023809Y-81154761D01*
X116928571Y-81202380D01*
X116785714Y-81202380D01*
X117547619Y-80535714D02*
X117547619Y-81202380D01*
X117547619Y-80630952D02*
X117595238Y-80583333D01*
X117690476Y-80535714D01*
X117833333Y-80535714D01*
X117928571Y-80583333D01*
X117976190Y-80678571D01*
X117976190Y-81202380D01*
X118452380Y-80535714D02*
X118452380Y-81202380D01*
X118452380Y-80630952D02*
X118500000Y-80583333D01*
X118595238Y-80535714D01*
X118738095Y-80535714D01*
X118833333Y-80583333D01*
X118880952Y-80678571D01*
X118880952Y-81202380D01*
X119119047Y-81297619D02*
X119880952Y-81297619D01*
X120309523Y-80202380D02*
X120404761Y-80202380D01*
X120500000Y-80250000D01*
X120547619Y-80297619D01*
X120595238Y-80392857D01*
X120642857Y-80583333D01*
X120642857Y-80821428D01*
X120595238Y-81011904D01*
X120547619Y-81107142D01*
X120500000Y-81154761D01*
X120404761Y-81202380D01*
X120309523Y-81202380D01*
X120214285Y-81154761D01*
X120166666Y-81107142D01*
X120119047Y-81011904D01*
X120071428Y-80821428D01*
X120071428Y-80583333D01*
X120119047Y-80392857D01*
X120166666Y-80297619D01*
X120214285Y-80250000D01*
X120309523Y-80202380D01*
X121595238Y-81202380D02*
X121023809Y-81202380D01*
X121309523Y-81202380D02*
X121309523Y-80202380D01*
X121214285Y-80345238D01*
X121119047Y-80440476D01*
X121023809Y-80488095D01*
X121928571Y-81202380D02*
X122452380Y-80535714D01*
X121928571Y-80535714D02*
X122452380Y-81202380D01*
X123023809Y-80202380D02*
X123119047Y-80202380D01*
X123214285Y-80250000D01*
X123261904Y-80297619D01*
X123309523Y-80392857D01*
X123357142Y-80583333D01*
X123357142Y-80821428D01*
X123309523Y-81011904D01*
X123261904Y-81107142D01*
X123214285Y-81154761D01*
X123119047Y-81202380D01*
X123023809Y-81202380D01*
X122928571Y-81154761D01*
X122880952Y-81107142D01*
X122833333Y-81011904D01*
X122785714Y-80821428D01*
X122785714Y-80583333D01*
X122833333Y-80392857D01*
X122880952Y-80297619D01*
X122928571Y-80250000D01*
X123023809Y-80202380D01*
X124309523Y-81202380D02*
X123738095Y-81202380D01*
X124023809Y-81202380D02*
X124023809Y-80202380D01*
X123928571Y-80345238D01*
X123833333Y-80440476D01*
X123738095Y-80488095D01*
X124500000Y-81297619D02*
X125261904Y-81297619D01*
X125833333Y-80678571D02*
X125500000Y-80678571D01*
X125500000Y-81202380D02*
X125500000Y-80202380D01*
X125976190Y-80202380D01*
X126738095Y-81154761D02*
X126642857Y-81202380D01*
X126452380Y-81202380D01*
X126357142Y-81154761D01*
X126309523Y-81059523D01*
X126309523Y-80678571D01*
X126357142Y-80583333D01*
X126452380Y-80535714D01*
X126642857Y-80535714D01*
X126738095Y-80583333D01*
X126785714Y-80678571D01*
X126785714Y-80773809D01*
X126309523Y-80869047D01*
X127214285Y-81202380D02*
X127214285Y-80535714D01*
X127214285Y-80630952D02*
X127261904Y-80583333D01*
X127357142Y-80535714D01*
X127500000Y-80535714D01*
X127595238Y-80583333D01*
X127642857Y-80678571D01*
X127642857Y-81202380D01*
X127642857Y-80678571D02*
X127690476Y-80583333D01*
X127785714Y-80535714D01*
X127928571Y-80535714D01*
X128023809Y-80583333D01*
X128071428Y-80678571D01*
X128071428Y-81202380D01*
X128976190Y-81202380D02*
X128976190Y-80678571D01*
X128928571Y-80583333D01*
X128833333Y-80535714D01*
X128642857Y-80535714D01*
X128547619Y-80583333D01*
X128976190Y-81154761D02*
X128880952Y-81202380D01*
X128642857Y-81202380D01*
X128547619Y-81154761D01*
X128500000Y-81059523D01*
X128500000Y-80964285D01*
X128547619Y-80869047D01*
X128642857Y-80821428D01*
X128880952Y-80821428D01*
X128976190Y-80773809D01*
X129595238Y-81202380D02*
X129500000Y-81154761D01*
X129452380Y-81059523D01*
X129452380Y-80202380D01*
X130357142Y-81154761D02*
X130261904Y-81202380D01*
X130071428Y-81202380D01*
X129976190Y-81154761D01*
X129928571Y-81059523D01*
X129928571Y-80678571D01*
X129976190Y-80583333D01*
X130071428Y-80535714D01*
X130261904Y-80535714D01*
X130357142Y-80583333D01*
X130404761Y-80678571D01*
X130404761Y-80773809D01*
X129928571Y-80869047D01*
X122966666Y-77452380D02*
X122966666Y-78166666D01*
X122919047Y-78309523D01*
X122823809Y-78404761D01*
X122680952Y-78452380D01*
X122585714Y-78452380D01*
X123585714Y-77880952D02*
X123490476Y-77833333D01*
X123442857Y-77785714D01*
X123395238Y-77690476D01*
X123395238Y-77642857D01*
X123442857Y-77547619D01*
X123490476Y-77500000D01*
X123585714Y-77452380D01*
X123776190Y-77452380D01*
X123871428Y-77500000D01*
X123919047Y-77547619D01*
X123966666Y-77642857D01*
X123966666Y-77690476D01*
X123919047Y-77785714D01*
X123871428Y-77833333D01*
X123776190Y-77880952D01*
X123585714Y-77880952D01*
X123490476Y-77928571D01*
X123442857Y-77976190D01*
X123395238Y-78071428D01*
X123395238Y-78261904D01*
X123442857Y-78357142D01*
X123490476Y-78404761D01*
X123585714Y-78452380D01*
X123776190Y-78452380D01*
X123871428Y-78404761D01*
X123919047Y-78357142D01*
X123966666Y-78261904D01*
X123966666Y-78071428D01*
X123919047Y-77976190D01*
X123871428Y-77928571D01*
X123776190Y-77880952D01*
%TO.C,J9*%
X33714285Y-81107142D02*
X33666666Y-81154761D01*
X33523809Y-81202380D01*
X33428571Y-81202380D01*
X33285714Y-81154761D01*
X33190476Y-81059523D01*
X33142857Y-80964285D01*
X33095238Y-80773809D01*
X33095238Y-80630952D01*
X33142857Y-80440476D01*
X33190476Y-80345238D01*
X33285714Y-80250000D01*
X33428571Y-80202380D01*
X33523809Y-80202380D01*
X33666666Y-80250000D01*
X33714285Y-80297619D01*
X34285714Y-81202380D02*
X34190476Y-81154761D01*
X34142857Y-81107142D01*
X34095238Y-81011904D01*
X34095238Y-80726190D01*
X34142857Y-80630952D01*
X34190476Y-80583333D01*
X34285714Y-80535714D01*
X34428571Y-80535714D01*
X34523809Y-80583333D01*
X34571428Y-80630952D01*
X34619047Y-80726190D01*
X34619047Y-81011904D01*
X34571428Y-81107142D01*
X34523809Y-81154761D01*
X34428571Y-81202380D01*
X34285714Y-81202380D01*
X35047619Y-80535714D02*
X35047619Y-81202380D01*
X35047619Y-80630952D02*
X35095238Y-80583333D01*
X35190476Y-80535714D01*
X35333333Y-80535714D01*
X35428571Y-80583333D01*
X35476190Y-80678571D01*
X35476190Y-81202380D01*
X35952380Y-80535714D02*
X35952380Y-81202380D01*
X35952380Y-80630952D02*
X36000000Y-80583333D01*
X36095238Y-80535714D01*
X36238095Y-80535714D01*
X36333333Y-80583333D01*
X36380952Y-80678571D01*
X36380952Y-81202380D01*
X36619047Y-81297619D02*
X37380952Y-81297619D01*
X37809523Y-80202380D02*
X37904761Y-80202380D01*
X38000000Y-80250000D01*
X38047619Y-80297619D01*
X38095238Y-80392857D01*
X38142857Y-80583333D01*
X38142857Y-80821428D01*
X38095238Y-81011904D01*
X38047619Y-81107142D01*
X38000000Y-81154761D01*
X37904761Y-81202380D01*
X37809523Y-81202380D01*
X37714285Y-81154761D01*
X37666666Y-81107142D01*
X37619047Y-81011904D01*
X37571428Y-80821428D01*
X37571428Y-80583333D01*
X37619047Y-80392857D01*
X37666666Y-80297619D01*
X37714285Y-80250000D01*
X37809523Y-80202380D01*
X39095238Y-81202380D02*
X38523809Y-81202380D01*
X38809523Y-81202380D02*
X38809523Y-80202380D01*
X38714285Y-80345238D01*
X38619047Y-80440476D01*
X38523809Y-80488095D01*
X39428571Y-81202380D02*
X39952380Y-80535714D01*
X39428571Y-80535714D02*
X39952380Y-81202380D01*
X40523809Y-80202380D02*
X40619047Y-80202380D01*
X40714285Y-80250000D01*
X40761904Y-80297619D01*
X40809523Y-80392857D01*
X40857142Y-80583333D01*
X40857142Y-80821428D01*
X40809523Y-81011904D01*
X40761904Y-81107142D01*
X40714285Y-81154761D01*
X40619047Y-81202380D01*
X40523809Y-81202380D01*
X40428571Y-81154761D01*
X40380952Y-81107142D01*
X40333333Y-81011904D01*
X40285714Y-80821428D01*
X40285714Y-80583333D01*
X40333333Y-80392857D01*
X40380952Y-80297619D01*
X40428571Y-80250000D01*
X40523809Y-80202380D01*
X41809523Y-81202380D02*
X41238095Y-81202380D01*
X41523809Y-81202380D02*
X41523809Y-80202380D01*
X41428571Y-80345238D01*
X41333333Y-80440476D01*
X41238095Y-80488095D01*
X42000000Y-81297619D02*
X42761904Y-81297619D01*
X43333333Y-80678571D02*
X43000000Y-80678571D01*
X43000000Y-81202380D02*
X43000000Y-80202380D01*
X43476190Y-80202380D01*
X44238095Y-81154761D02*
X44142857Y-81202380D01*
X43952380Y-81202380D01*
X43857142Y-81154761D01*
X43809523Y-81059523D01*
X43809523Y-80678571D01*
X43857142Y-80583333D01*
X43952380Y-80535714D01*
X44142857Y-80535714D01*
X44238095Y-80583333D01*
X44285714Y-80678571D01*
X44285714Y-80773809D01*
X43809523Y-80869047D01*
X44714285Y-81202380D02*
X44714285Y-80535714D01*
X44714285Y-80630952D02*
X44761904Y-80583333D01*
X44857142Y-80535714D01*
X45000000Y-80535714D01*
X45095238Y-80583333D01*
X45142857Y-80678571D01*
X45142857Y-81202380D01*
X45142857Y-80678571D02*
X45190476Y-80583333D01*
X45285714Y-80535714D01*
X45428571Y-80535714D01*
X45523809Y-80583333D01*
X45571428Y-80678571D01*
X45571428Y-81202380D01*
X46476190Y-81202380D02*
X46476190Y-80678571D01*
X46428571Y-80583333D01*
X46333333Y-80535714D01*
X46142857Y-80535714D01*
X46047619Y-80583333D01*
X46476190Y-81154761D02*
X46380952Y-81202380D01*
X46142857Y-81202380D01*
X46047619Y-81154761D01*
X46000000Y-81059523D01*
X46000000Y-80964285D01*
X46047619Y-80869047D01*
X46142857Y-80821428D01*
X46380952Y-80821428D01*
X46476190Y-80773809D01*
X47095238Y-81202380D02*
X47000000Y-81154761D01*
X46952380Y-81059523D01*
X46952380Y-80202380D01*
X47857142Y-81154761D02*
X47761904Y-81202380D01*
X47571428Y-81202380D01*
X47476190Y-81154761D01*
X47428571Y-81059523D01*
X47428571Y-80678571D01*
X47476190Y-80583333D01*
X47571428Y-80535714D01*
X47761904Y-80535714D01*
X47857142Y-80583333D01*
X47904761Y-80678571D01*
X47904761Y-80773809D01*
X47428571Y-80869047D01*
X40466666Y-77452380D02*
X40466666Y-78166666D01*
X40419047Y-78309523D01*
X40323809Y-78404761D01*
X40180952Y-78452380D01*
X40085714Y-78452380D01*
X40990476Y-78452380D02*
X41180952Y-78452380D01*
X41276190Y-78404761D01*
X41323809Y-78357142D01*
X41419047Y-78214285D01*
X41466666Y-78023809D01*
X41466666Y-77642857D01*
X41419047Y-77547619D01*
X41371428Y-77500000D01*
X41276190Y-77452380D01*
X41085714Y-77452380D01*
X40990476Y-77500000D01*
X40942857Y-77547619D01*
X40895238Y-77642857D01*
X40895238Y-77880952D01*
X40942857Y-77976190D01*
X40990476Y-78023809D01*
X41085714Y-78071428D01*
X41276190Y-78071428D01*
X41371428Y-78023809D01*
X41419047Y-77976190D01*
X41466666Y-77880952D01*
%TO.C,J10*%
X33714285Y-55107142D02*
X33666666Y-55154761D01*
X33523809Y-55202380D01*
X33428571Y-55202380D01*
X33285714Y-55154761D01*
X33190476Y-55059523D01*
X33142857Y-54964285D01*
X33095238Y-54773809D01*
X33095238Y-54630952D01*
X33142857Y-54440476D01*
X33190476Y-54345238D01*
X33285714Y-54250000D01*
X33428571Y-54202380D01*
X33523809Y-54202380D01*
X33666666Y-54250000D01*
X33714285Y-54297619D01*
X34285714Y-55202380D02*
X34190476Y-55154761D01*
X34142857Y-55107142D01*
X34095238Y-55011904D01*
X34095238Y-54726190D01*
X34142857Y-54630952D01*
X34190476Y-54583333D01*
X34285714Y-54535714D01*
X34428571Y-54535714D01*
X34523809Y-54583333D01*
X34571428Y-54630952D01*
X34619047Y-54726190D01*
X34619047Y-55011904D01*
X34571428Y-55107142D01*
X34523809Y-55154761D01*
X34428571Y-55202380D01*
X34285714Y-55202380D01*
X35047619Y-54535714D02*
X35047619Y-55202380D01*
X35047619Y-54630952D02*
X35095238Y-54583333D01*
X35190476Y-54535714D01*
X35333333Y-54535714D01*
X35428571Y-54583333D01*
X35476190Y-54678571D01*
X35476190Y-55202380D01*
X35952380Y-54535714D02*
X35952380Y-55202380D01*
X35952380Y-54630952D02*
X36000000Y-54583333D01*
X36095238Y-54535714D01*
X36238095Y-54535714D01*
X36333333Y-54583333D01*
X36380952Y-54678571D01*
X36380952Y-55202380D01*
X36619047Y-55297619D02*
X37380952Y-55297619D01*
X37809523Y-54202380D02*
X37904761Y-54202380D01*
X38000000Y-54250000D01*
X38047619Y-54297619D01*
X38095238Y-54392857D01*
X38142857Y-54583333D01*
X38142857Y-54821428D01*
X38095238Y-55011904D01*
X38047619Y-55107142D01*
X38000000Y-55154761D01*
X37904761Y-55202380D01*
X37809523Y-55202380D01*
X37714285Y-55154761D01*
X37666666Y-55107142D01*
X37619047Y-55011904D01*
X37571428Y-54821428D01*
X37571428Y-54583333D01*
X37619047Y-54392857D01*
X37666666Y-54297619D01*
X37714285Y-54250000D01*
X37809523Y-54202380D01*
X39095238Y-55202380D02*
X38523809Y-55202380D01*
X38809523Y-55202380D02*
X38809523Y-54202380D01*
X38714285Y-54345238D01*
X38619047Y-54440476D01*
X38523809Y-54488095D01*
X39428571Y-55202380D02*
X39952380Y-54535714D01*
X39428571Y-54535714D02*
X39952380Y-55202380D01*
X40523809Y-54202380D02*
X40619047Y-54202380D01*
X40714285Y-54250000D01*
X40761904Y-54297619D01*
X40809523Y-54392857D01*
X40857142Y-54583333D01*
X40857142Y-54821428D01*
X40809523Y-55011904D01*
X40761904Y-55107142D01*
X40714285Y-55154761D01*
X40619047Y-55202380D01*
X40523809Y-55202380D01*
X40428571Y-55154761D01*
X40380952Y-55107142D01*
X40333333Y-55011904D01*
X40285714Y-54821428D01*
X40285714Y-54583333D01*
X40333333Y-54392857D01*
X40380952Y-54297619D01*
X40428571Y-54250000D01*
X40523809Y-54202380D01*
X41809523Y-55202380D02*
X41238095Y-55202380D01*
X41523809Y-55202380D02*
X41523809Y-54202380D01*
X41428571Y-54345238D01*
X41333333Y-54440476D01*
X41238095Y-54488095D01*
X42000000Y-55297619D02*
X42761904Y-55297619D01*
X43333333Y-54678571D02*
X43000000Y-54678571D01*
X43000000Y-55202380D02*
X43000000Y-54202380D01*
X43476190Y-54202380D01*
X44238095Y-55154761D02*
X44142857Y-55202380D01*
X43952380Y-55202380D01*
X43857142Y-55154761D01*
X43809523Y-55059523D01*
X43809523Y-54678571D01*
X43857142Y-54583333D01*
X43952380Y-54535714D01*
X44142857Y-54535714D01*
X44238095Y-54583333D01*
X44285714Y-54678571D01*
X44285714Y-54773809D01*
X43809523Y-54869047D01*
X44714285Y-55202380D02*
X44714285Y-54535714D01*
X44714285Y-54630952D02*
X44761904Y-54583333D01*
X44857142Y-54535714D01*
X45000000Y-54535714D01*
X45095238Y-54583333D01*
X45142857Y-54678571D01*
X45142857Y-55202380D01*
X45142857Y-54678571D02*
X45190476Y-54583333D01*
X45285714Y-54535714D01*
X45428571Y-54535714D01*
X45523809Y-54583333D01*
X45571428Y-54678571D01*
X45571428Y-55202380D01*
X46476190Y-55202380D02*
X46476190Y-54678571D01*
X46428571Y-54583333D01*
X46333333Y-54535714D01*
X46142857Y-54535714D01*
X46047619Y-54583333D01*
X46476190Y-55154761D02*
X46380952Y-55202380D01*
X46142857Y-55202380D01*
X46047619Y-55154761D01*
X46000000Y-55059523D01*
X46000000Y-54964285D01*
X46047619Y-54869047D01*
X46142857Y-54821428D01*
X46380952Y-54821428D01*
X46476190Y-54773809D01*
X47095238Y-55202380D02*
X47000000Y-55154761D01*
X46952380Y-55059523D01*
X46952380Y-54202380D01*
X47857142Y-55154761D02*
X47761904Y-55202380D01*
X47571428Y-55202380D01*
X47476190Y-55154761D01*
X47428571Y-55059523D01*
X47428571Y-54678571D01*
X47476190Y-54583333D01*
X47571428Y-54535714D01*
X47761904Y-54535714D01*
X47857142Y-54583333D01*
X47904761Y-54678571D01*
X47904761Y-54773809D01*
X47428571Y-54869047D01*
X39990476Y-51452380D02*
X39990476Y-52166666D01*
X39942857Y-52309523D01*
X39847619Y-52404761D01*
X39704761Y-52452380D01*
X39609523Y-52452380D01*
X40990476Y-52452380D02*
X40419047Y-52452380D01*
X40704761Y-52452380D02*
X40704761Y-51452380D01*
X40609523Y-51595238D01*
X40514285Y-51690476D01*
X40419047Y-51738095D01*
X41609523Y-51452380D02*
X41704761Y-51452380D01*
X41800000Y-51500000D01*
X41847619Y-51547619D01*
X41895238Y-51642857D01*
X41942857Y-51833333D01*
X41942857Y-52071428D01*
X41895238Y-52261904D01*
X41847619Y-52357142D01*
X41800000Y-52404761D01*
X41704761Y-52452380D01*
X41609523Y-52452380D01*
X41514285Y-52404761D01*
X41466666Y-52357142D01*
X41419047Y-52261904D01*
X41371428Y-52071428D01*
X41371428Y-51833333D01*
X41419047Y-51642857D01*
X41466666Y-51547619D01*
X41514285Y-51500000D01*
X41609523Y-51452380D01*
%TO.C,J11*%
X33714285Y-62107142D02*
X33666666Y-62154761D01*
X33523809Y-62202380D01*
X33428571Y-62202380D01*
X33285714Y-62154761D01*
X33190476Y-62059523D01*
X33142857Y-61964285D01*
X33095238Y-61773809D01*
X33095238Y-61630952D01*
X33142857Y-61440476D01*
X33190476Y-61345238D01*
X33285714Y-61250000D01*
X33428571Y-61202380D01*
X33523809Y-61202380D01*
X33666666Y-61250000D01*
X33714285Y-61297619D01*
X34285714Y-62202380D02*
X34190476Y-62154761D01*
X34142857Y-62107142D01*
X34095238Y-62011904D01*
X34095238Y-61726190D01*
X34142857Y-61630952D01*
X34190476Y-61583333D01*
X34285714Y-61535714D01*
X34428571Y-61535714D01*
X34523809Y-61583333D01*
X34571428Y-61630952D01*
X34619047Y-61726190D01*
X34619047Y-62011904D01*
X34571428Y-62107142D01*
X34523809Y-62154761D01*
X34428571Y-62202380D01*
X34285714Y-62202380D01*
X35047619Y-61535714D02*
X35047619Y-62202380D01*
X35047619Y-61630952D02*
X35095238Y-61583333D01*
X35190476Y-61535714D01*
X35333333Y-61535714D01*
X35428571Y-61583333D01*
X35476190Y-61678571D01*
X35476190Y-62202380D01*
X35952380Y-61535714D02*
X35952380Y-62202380D01*
X35952380Y-61630952D02*
X36000000Y-61583333D01*
X36095238Y-61535714D01*
X36238095Y-61535714D01*
X36333333Y-61583333D01*
X36380952Y-61678571D01*
X36380952Y-62202380D01*
X36619047Y-62297619D02*
X37380952Y-62297619D01*
X37809523Y-61202380D02*
X37904761Y-61202380D01*
X38000000Y-61250000D01*
X38047619Y-61297619D01*
X38095238Y-61392857D01*
X38142857Y-61583333D01*
X38142857Y-61821428D01*
X38095238Y-62011904D01*
X38047619Y-62107142D01*
X38000000Y-62154761D01*
X37904761Y-62202380D01*
X37809523Y-62202380D01*
X37714285Y-62154761D01*
X37666666Y-62107142D01*
X37619047Y-62011904D01*
X37571428Y-61821428D01*
X37571428Y-61583333D01*
X37619047Y-61392857D01*
X37666666Y-61297619D01*
X37714285Y-61250000D01*
X37809523Y-61202380D01*
X39095238Y-62202380D02*
X38523809Y-62202380D01*
X38809523Y-62202380D02*
X38809523Y-61202380D01*
X38714285Y-61345238D01*
X38619047Y-61440476D01*
X38523809Y-61488095D01*
X39428571Y-62202380D02*
X39952380Y-61535714D01*
X39428571Y-61535714D02*
X39952380Y-62202380D01*
X40523809Y-61202380D02*
X40619047Y-61202380D01*
X40714285Y-61250000D01*
X40761904Y-61297619D01*
X40809523Y-61392857D01*
X40857142Y-61583333D01*
X40857142Y-61821428D01*
X40809523Y-62011904D01*
X40761904Y-62107142D01*
X40714285Y-62154761D01*
X40619047Y-62202380D01*
X40523809Y-62202380D01*
X40428571Y-62154761D01*
X40380952Y-62107142D01*
X40333333Y-62011904D01*
X40285714Y-61821428D01*
X40285714Y-61583333D01*
X40333333Y-61392857D01*
X40380952Y-61297619D01*
X40428571Y-61250000D01*
X40523809Y-61202380D01*
X41809523Y-62202380D02*
X41238095Y-62202380D01*
X41523809Y-62202380D02*
X41523809Y-61202380D01*
X41428571Y-61345238D01*
X41333333Y-61440476D01*
X41238095Y-61488095D01*
X42000000Y-62297619D02*
X42761904Y-62297619D01*
X43333333Y-61678571D02*
X43000000Y-61678571D01*
X43000000Y-62202380D02*
X43000000Y-61202380D01*
X43476190Y-61202380D01*
X44238095Y-62154761D02*
X44142857Y-62202380D01*
X43952380Y-62202380D01*
X43857142Y-62154761D01*
X43809523Y-62059523D01*
X43809523Y-61678571D01*
X43857142Y-61583333D01*
X43952380Y-61535714D01*
X44142857Y-61535714D01*
X44238095Y-61583333D01*
X44285714Y-61678571D01*
X44285714Y-61773809D01*
X43809523Y-61869047D01*
X44714285Y-62202380D02*
X44714285Y-61535714D01*
X44714285Y-61630952D02*
X44761904Y-61583333D01*
X44857142Y-61535714D01*
X45000000Y-61535714D01*
X45095238Y-61583333D01*
X45142857Y-61678571D01*
X45142857Y-62202380D01*
X45142857Y-61678571D02*
X45190476Y-61583333D01*
X45285714Y-61535714D01*
X45428571Y-61535714D01*
X45523809Y-61583333D01*
X45571428Y-61678571D01*
X45571428Y-62202380D01*
X46476190Y-62202380D02*
X46476190Y-61678571D01*
X46428571Y-61583333D01*
X46333333Y-61535714D01*
X46142857Y-61535714D01*
X46047619Y-61583333D01*
X46476190Y-62154761D02*
X46380952Y-62202380D01*
X46142857Y-62202380D01*
X46047619Y-62154761D01*
X46000000Y-62059523D01*
X46000000Y-61964285D01*
X46047619Y-61869047D01*
X46142857Y-61821428D01*
X46380952Y-61821428D01*
X46476190Y-61773809D01*
X47095238Y-62202380D02*
X47000000Y-62154761D01*
X46952380Y-62059523D01*
X46952380Y-61202380D01*
X47857142Y-62154761D02*
X47761904Y-62202380D01*
X47571428Y-62202380D01*
X47476190Y-62154761D01*
X47428571Y-62059523D01*
X47428571Y-61678571D01*
X47476190Y-61583333D01*
X47571428Y-61535714D01*
X47761904Y-61535714D01*
X47857142Y-61583333D01*
X47904761Y-61678571D01*
X47904761Y-61773809D01*
X47428571Y-61869047D01*
X39990476Y-58452380D02*
X39990476Y-59166666D01*
X39942857Y-59309523D01*
X39847619Y-59404761D01*
X39704761Y-59452380D01*
X39609523Y-59452380D01*
X40990476Y-59452380D02*
X40419047Y-59452380D01*
X40704761Y-59452380D02*
X40704761Y-58452380D01*
X40609523Y-58595238D01*
X40514285Y-58690476D01*
X40419047Y-58738095D01*
X41942857Y-59452380D02*
X41371428Y-59452380D01*
X41657142Y-59452380D02*
X41657142Y-58452380D01*
X41561904Y-58595238D01*
X41466666Y-58690476D01*
X41371428Y-58738095D01*
%TO.C,R1*%
X112333333Y-56382380D02*
X111761904Y-56382380D01*
X112047619Y-56382380D02*
X112047619Y-55382380D01*
X111952380Y-55525238D01*
X111857142Y-55620476D01*
X111761904Y-55668095D01*
X112952380Y-55382380D02*
X113047619Y-55382380D01*
X113142857Y-55430000D01*
X113190476Y-55477619D01*
X113238095Y-55572857D01*
X113285714Y-55763333D01*
X113285714Y-56001428D01*
X113238095Y-56191904D01*
X113190476Y-56287142D01*
X113142857Y-56334761D01*
X113047619Y-56382380D01*
X112952380Y-56382380D01*
X112857142Y-56334761D01*
X112809523Y-56287142D01*
X112761904Y-56191904D01*
X112714285Y-56001428D01*
X112714285Y-55763333D01*
X112761904Y-55572857D01*
X112809523Y-55477619D01*
X112857142Y-55430000D01*
X112952380Y-55382380D01*
X113904761Y-55382380D02*
X114000000Y-55382380D01*
X114095238Y-55430000D01*
X114142857Y-55477619D01*
X114190476Y-55572857D01*
X114238095Y-55763333D01*
X114238095Y-56001428D01*
X114190476Y-56191904D01*
X114142857Y-56287142D01*
X114095238Y-56334761D01*
X114000000Y-56382380D01*
X113904761Y-56382380D01*
X113809523Y-56334761D01*
X113761904Y-56287142D01*
X113714285Y-56191904D01*
X113666666Y-56001428D01*
X113666666Y-55763333D01*
X113714285Y-55572857D01*
X113761904Y-55477619D01*
X113809523Y-55430000D01*
X113904761Y-55382380D01*
D13*
X112933333Y-54680952D02*
X112800000Y-54490476D01*
X112704761Y-54680952D02*
X112704761Y-54280952D01*
X112857142Y-54280952D01*
X112895238Y-54300000D01*
X112914285Y-54319047D01*
X112933333Y-54357142D01*
X112933333Y-54414285D01*
X112914285Y-54452380D01*
X112895238Y-54471428D01*
X112857142Y-54490476D01*
X112704761Y-54490476D01*
X113314285Y-54680952D02*
X113085714Y-54680952D01*
X113200000Y-54680952D02*
X113200000Y-54280952D01*
X113161904Y-54338095D01*
X113123809Y-54376190D01*
X113085714Y-54395238D01*
%TO.C,R2*%
D11*
X73610714Y-42022380D02*
X73039285Y-42022380D01*
X73325000Y-42022380D02*
X73325000Y-41022380D01*
X73229761Y-41165238D01*
X73134523Y-41260476D01*
X73039285Y-41308095D01*
X74039285Y-42022380D02*
X74039285Y-41022380D01*
X74610714Y-42022380D02*
X74182142Y-41450952D01*
X74610714Y-41022380D02*
X74039285Y-41593809D01*
D13*
X73758333Y-43180952D02*
X73625000Y-42990476D01*
X73529761Y-43180952D02*
X73529761Y-42780952D01*
X73682142Y-42780952D01*
X73720238Y-42800000D01*
X73739285Y-42819047D01*
X73758333Y-42857142D01*
X73758333Y-42914285D01*
X73739285Y-42952380D01*
X73720238Y-42971428D01*
X73682142Y-42990476D01*
X73529761Y-42990476D01*
X73910714Y-42819047D02*
X73929761Y-42800000D01*
X73967857Y-42780952D01*
X74063095Y-42780952D01*
X74101190Y-42800000D01*
X74120238Y-42819047D01*
X74139285Y-42857142D01*
X74139285Y-42895238D01*
X74120238Y-42952380D01*
X73891666Y-43180952D01*
X74139285Y-43180952D01*
%TO.C,R3*%
D11*
X111976190Y-63215714D02*
X111976190Y-63882380D01*
X111738095Y-62834761D02*
X111500000Y-63549047D01*
X112119047Y-63549047D01*
X112500000Y-63787142D02*
X112547619Y-63834761D01*
X112500000Y-63882380D01*
X112452380Y-63834761D01*
X112500000Y-63787142D01*
X112500000Y-63882380D01*
X112880952Y-62882380D02*
X113547619Y-62882380D01*
X113119047Y-63882380D01*
X113928571Y-63882380D02*
X113928571Y-62882380D01*
X114500000Y-63882380D02*
X114071428Y-63310952D01*
X114500000Y-62882380D02*
X113928571Y-63453809D01*
D13*
X112933333Y-62180952D02*
X112800000Y-61990476D01*
X112704761Y-62180952D02*
X112704761Y-61780952D01*
X112857142Y-61780952D01*
X112895238Y-61800000D01*
X112914285Y-61819047D01*
X112933333Y-61857142D01*
X112933333Y-61914285D01*
X112914285Y-61952380D01*
X112895238Y-61971428D01*
X112857142Y-61990476D01*
X112704761Y-61990476D01*
X113066666Y-61780952D02*
X113314285Y-61780952D01*
X113180952Y-61933333D01*
X113238095Y-61933333D01*
X113276190Y-61952380D01*
X113295238Y-61971428D01*
X113314285Y-62009523D01*
X113314285Y-62104761D01*
X113295238Y-62142857D01*
X113276190Y-62161904D01*
X113238095Y-62180952D01*
X113123809Y-62180952D01*
X113085714Y-62161904D01*
X113066666Y-62142857D01*
%TO.C,R4*%
D11*
X118215714Y-66023809D02*
X118882380Y-66023809D01*
X117834761Y-66261904D02*
X118549047Y-66500000D01*
X118549047Y-65880952D01*
X118787142Y-65500000D02*
X118834761Y-65452380D01*
X118882380Y-65500000D01*
X118834761Y-65547619D01*
X118787142Y-65500000D01*
X118882380Y-65500000D01*
X117882380Y-65119047D02*
X117882380Y-64452380D01*
X118882380Y-64880952D01*
X118882380Y-64071428D02*
X117882380Y-64071428D01*
X118882380Y-63500000D02*
X118310952Y-63928571D01*
X117882380Y-63500000D02*
X118453809Y-64071428D01*
D13*
X117180952Y-65066666D02*
X116990476Y-65200000D01*
X117180952Y-65295238D02*
X116780952Y-65295238D01*
X116780952Y-65142857D01*
X116800000Y-65104761D01*
X116819047Y-65085714D01*
X116857142Y-65066666D01*
X116914285Y-65066666D01*
X116952380Y-65085714D01*
X116971428Y-65104761D01*
X116990476Y-65142857D01*
X116990476Y-65295238D01*
X116914285Y-64723809D02*
X117180952Y-64723809D01*
X116761904Y-64819047D02*
X117047619Y-64914285D01*
X117047619Y-64666666D01*
%TO.C,R5*%
D11*
X112238095Y-59715714D02*
X112238095Y-60382380D01*
X112000000Y-59334761D02*
X111761904Y-60049047D01*
X112380952Y-60049047D01*
X112666666Y-59382380D02*
X113333333Y-59382380D01*
X112904761Y-60382380D01*
X113904761Y-59382380D02*
X114000000Y-59382380D01*
X114095238Y-59430000D01*
X114142857Y-59477619D01*
X114190476Y-59572857D01*
X114238095Y-59763333D01*
X114238095Y-60001428D01*
X114190476Y-60191904D01*
X114142857Y-60287142D01*
X114095238Y-60334761D01*
X114000000Y-60382380D01*
X113904761Y-60382380D01*
X113809523Y-60334761D01*
X113761904Y-60287142D01*
X113714285Y-60191904D01*
X113666666Y-60001428D01*
X113666666Y-59763333D01*
X113714285Y-59572857D01*
X113761904Y-59477619D01*
X113809523Y-59430000D01*
X113904761Y-59382380D01*
D13*
X112933333Y-58680952D02*
X112800000Y-58490476D01*
X112704761Y-58680952D02*
X112704761Y-58280952D01*
X112857142Y-58280952D01*
X112895238Y-58300000D01*
X112914285Y-58319047D01*
X112933333Y-58357142D01*
X112933333Y-58414285D01*
X112914285Y-58452380D01*
X112895238Y-58471428D01*
X112857142Y-58490476D01*
X112704761Y-58490476D01*
X113295238Y-58280952D02*
X113104761Y-58280952D01*
X113085714Y-58471428D01*
X113104761Y-58452380D01*
X113142857Y-58433333D01*
X113238095Y-58433333D01*
X113276190Y-58452380D01*
X113295238Y-58471428D01*
X113314285Y-58509523D01*
X113314285Y-58604761D01*
X113295238Y-58642857D01*
X113276190Y-58661904D01*
X113238095Y-58680952D01*
X113142857Y-58680952D01*
X113104761Y-58661904D01*
X113085714Y-58642857D01*
%TO.C,R6*%
D11*
X51882380Y-51663095D02*
X51882380Y-52139285D01*
X52358571Y-52186904D01*
X52310952Y-52139285D01*
X52263333Y-52044047D01*
X52263333Y-51805952D01*
X52310952Y-51710714D01*
X52358571Y-51663095D01*
X52453809Y-51615476D01*
X52691904Y-51615476D01*
X52787142Y-51663095D01*
X52834761Y-51710714D01*
X52882380Y-51805952D01*
X52882380Y-52044047D01*
X52834761Y-52139285D01*
X52787142Y-52186904D01*
X51882380Y-50758333D02*
X51882380Y-50948809D01*
X51930000Y-51044047D01*
X51977619Y-51091666D01*
X52120476Y-51186904D01*
X52310952Y-51234523D01*
X52691904Y-51234523D01*
X52787142Y-51186904D01*
X52834761Y-51139285D01*
X52882380Y-51044047D01*
X52882380Y-50853571D01*
X52834761Y-50758333D01*
X52787142Y-50710714D01*
X52691904Y-50663095D01*
X52453809Y-50663095D01*
X52358571Y-50710714D01*
X52310952Y-50758333D01*
X52263333Y-50853571D01*
X52263333Y-51044047D01*
X52310952Y-51139285D01*
X52358571Y-51186904D01*
X52453809Y-51234523D01*
X52882380Y-50234523D02*
X51882380Y-50234523D01*
X52882380Y-49663095D02*
X52310952Y-50091666D01*
X51882380Y-49663095D02*
X52453809Y-50234523D01*
D13*
X51180952Y-50991666D02*
X50990476Y-51125000D01*
X51180952Y-51220238D02*
X50780952Y-51220238D01*
X50780952Y-51067857D01*
X50800000Y-51029761D01*
X50819047Y-51010714D01*
X50857142Y-50991666D01*
X50914285Y-50991666D01*
X50952380Y-51010714D01*
X50971428Y-51029761D01*
X50990476Y-51067857D01*
X50990476Y-51220238D01*
X50780952Y-50648809D02*
X50780952Y-50725000D01*
X50800000Y-50763095D01*
X50819047Y-50782142D01*
X50876190Y-50820238D01*
X50952380Y-50839285D01*
X51104761Y-50839285D01*
X51142857Y-50820238D01*
X51161904Y-50801190D01*
X51180952Y-50763095D01*
X51180952Y-50686904D01*
X51161904Y-50648809D01*
X51142857Y-50629761D01*
X51104761Y-50610714D01*
X51009523Y-50610714D01*
X50971428Y-50629761D01*
X50952380Y-50648809D01*
X50933333Y-50686904D01*
X50933333Y-50763095D01*
X50952380Y-50801190D01*
X50971428Y-50820238D01*
X51009523Y-50839285D01*
%TO.C,R8*%
D11*
X112238095Y-66715714D02*
X112238095Y-67382380D01*
X112000000Y-66334761D02*
X111761904Y-67049047D01*
X112380952Y-67049047D01*
X112666666Y-66382380D02*
X113333333Y-66382380D01*
X112904761Y-67382380D01*
X113904761Y-66382380D02*
X114000000Y-66382380D01*
X114095238Y-66430000D01*
X114142857Y-66477619D01*
X114190476Y-66572857D01*
X114238095Y-66763333D01*
X114238095Y-67001428D01*
X114190476Y-67191904D01*
X114142857Y-67287142D01*
X114095238Y-67334761D01*
X114000000Y-67382380D01*
X113904761Y-67382380D01*
X113809523Y-67334761D01*
X113761904Y-67287142D01*
X113714285Y-67191904D01*
X113666666Y-67001428D01*
X113666666Y-66763333D01*
X113714285Y-66572857D01*
X113761904Y-66477619D01*
X113809523Y-66430000D01*
X113904761Y-66382380D01*
D13*
X112933333Y-65680952D02*
X112800000Y-65490476D01*
X112704761Y-65680952D02*
X112704761Y-65280952D01*
X112857142Y-65280952D01*
X112895238Y-65300000D01*
X112914285Y-65319047D01*
X112933333Y-65357142D01*
X112933333Y-65414285D01*
X112914285Y-65452380D01*
X112895238Y-65471428D01*
X112857142Y-65490476D01*
X112704761Y-65490476D01*
X113161904Y-65452380D02*
X113123809Y-65433333D01*
X113104761Y-65414285D01*
X113085714Y-65376190D01*
X113085714Y-65357142D01*
X113104761Y-65319047D01*
X113123809Y-65300000D01*
X113161904Y-65280952D01*
X113238095Y-65280952D01*
X113276190Y-65300000D01*
X113295238Y-65319047D01*
X113314285Y-65357142D01*
X113314285Y-65376190D01*
X113295238Y-65414285D01*
X113276190Y-65433333D01*
X113238095Y-65452380D01*
X113161904Y-65452380D01*
X113123809Y-65471428D01*
X113104761Y-65490476D01*
X113085714Y-65528571D01*
X113085714Y-65604761D01*
X113104761Y-65642857D01*
X113123809Y-65661904D01*
X113161904Y-65680952D01*
X113238095Y-65680952D01*
X113276190Y-65661904D01*
X113295238Y-65642857D01*
X113314285Y-65604761D01*
X113314285Y-65528571D01*
X113295238Y-65490476D01*
X113276190Y-65471428D01*
X113238095Y-65452380D01*
%TO.C,R9*%
D11*
X58882380Y-49491666D02*
X58882380Y-50063095D01*
X58882380Y-49777380D02*
X57882380Y-49777380D01*
X58025238Y-49872619D01*
X58120476Y-49967857D01*
X58168095Y-50063095D01*
X57882380Y-48872619D02*
X57882380Y-48777380D01*
X57930000Y-48682142D01*
X57977619Y-48634523D01*
X58072857Y-48586904D01*
X58263333Y-48539285D01*
X58501428Y-48539285D01*
X58691904Y-48586904D01*
X58787142Y-48634523D01*
X58834761Y-48682142D01*
X58882380Y-48777380D01*
X58882380Y-48872619D01*
X58834761Y-48967857D01*
X58787142Y-49015476D01*
X58691904Y-49063095D01*
X58501428Y-49110714D01*
X58263333Y-49110714D01*
X58072857Y-49063095D01*
X57977619Y-49015476D01*
X57930000Y-48967857D01*
X57882380Y-48872619D01*
X57882380Y-47920238D02*
X57882380Y-47825000D01*
X57930000Y-47729761D01*
X57977619Y-47682142D01*
X58072857Y-47634523D01*
X58263333Y-47586904D01*
X58501428Y-47586904D01*
X58691904Y-47634523D01*
X58787142Y-47682142D01*
X58834761Y-47729761D01*
X58882380Y-47825000D01*
X58882380Y-47920238D01*
X58834761Y-48015476D01*
X58787142Y-48063095D01*
X58691904Y-48110714D01*
X58501428Y-48158333D01*
X58263333Y-48158333D01*
X58072857Y-48110714D01*
X57977619Y-48063095D01*
X57930000Y-48015476D01*
X57882380Y-47920238D01*
D13*
X57180952Y-48891666D02*
X56990476Y-49025000D01*
X57180952Y-49120238D02*
X56780952Y-49120238D01*
X56780952Y-48967857D01*
X56800000Y-48929761D01*
X56819047Y-48910714D01*
X56857142Y-48891666D01*
X56914285Y-48891666D01*
X56952380Y-48910714D01*
X56971428Y-48929761D01*
X56990476Y-48967857D01*
X56990476Y-49120238D01*
X57180952Y-48701190D02*
X57180952Y-48625000D01*
X57161904Y-48586904D01*
X57142857Y-48567857D01*
X57085714Y-48529761D01*
X57009523Y-48510714D01*
X56857142Y-48510714D01*
X56819047Y-48529761D01*
X56800000Y-48548809D01*
X56780952Y-48586904D01*
X56780952Y-48663095D01*
X56800000Y-48701190D01*
X56819047Y-48720238D01*
X56857142Y-48739285D01*
X56952380Y-48739285D01*
X56990476Y-48720238D01*
X57009523Y-48701190D01*
X57028571Y-48663095D01*
X57028571Y-48586904D01*
X57009523Y-48548809D01*
X56990476Y-48529761D01*
X56952380Y-48510714D01*
%TO.C,R10*%
D11*
X51882380Y-67313095D02*
X51882380Y-67789285D01*
X52358571Y-67836904D01*
X52310952Y-67789285D01*
X52263333Y-67694047D01*
X52263333Y-67455952D01*
X52310952Y-67360714D01*
X52358571Y-67313095D01*
X52453809Y-67265476D01*
X52691904Y-67265476D01*
X52787142Y-67313095D01*
X52834761Y-67360714D01*
X52882380Y-67455952D01*
X52882380Y-67694047D01*
X52834761Y-67789285D01*
X52787142Y-67836904D01*
X51882380Y-66408333D02*
X51882380Y-66598809D01*
X51930000Y-66694047D01*
X51977619Y-66741666D01*
X52120476Y-66836904D01*
X52310952Y-66884523D01*
X52691904Y-66884523D01*
X52787142Y-66836904D01*
X52834761Y-66789285D01*
X52882380Y-66694047D01*
X52882380Y-66503571D01*
X52834761Y-66408333D01*
X52787142Y-66360714D01*
X52691904Y-66313095D01*
X52453809Y-66313095D01*
X52358571Y-66360714D01*
X52310952Y-66408333D01*
X52263333Y-66503571D01*
X52263333Y-66694047D01*
X52310952Y-66789285D01*
X52358571Y-66836904D01*
X52453809Y-66884523D01*
X52882380Y-65884523D02*
X51882380Y-65884523D01*
X52882380Y-65313095D02*
X52310952Y-65741666D01*
X51882380Y-65313095D02*
X52453809Y-65884523D01*
D13*
X51180952Y-66832142D02*
X50990476Y-66965476D01*
X51180952Y-67060714D02*
X50780952Y-67060714D01*
X50780952Y-66908333D01*
X50800000Y-66870238D01*
X50819047Y-66851190D01*
X50857142Y-66832142D01*
X50914285Y-66832142D01*
X50952380Y-66851190D01*
X50971428Y-66870238D01*
X50990476Y-66908333D01*
X50990476Y-67060714D01*
X51180952Y-66451190D02*
X51180952Y-66679761D01*
X51180952Y-66565476D02*
X50780952Y-66565476D01*
X50838095Y-66603571D01*
X50876190Y-66641666D01*
X50895238Y-66679761D01*
X50780952Y-66203571D02*
X50780952Y-66165476D01*
X50800000Y-66127380D01*
X50819047Y-66108333D01*
X50857142Y-66089285D01*
X50933333Y-66070238D01*
X51028571Y-66070238D01*
X51104761Y-66089285D01*
X51142857Y-66108333D01*
X51161904Y-66127380D01*
X51180952Y-66165476D01*
X51180952Y-66203571D01*
X51161904Y-66241666D01*
X51142857Y-66260714D01*
X51104761Y-66279761D01*
X51028571Y-66298809D01*
X50933333Y-66298809D01*
X50857142Y-66279761D01*
X50819047Y-66260714D01*
X50800000Y-66241666D01*
X50780952Y-66203571D01*
%TO.C,R11*%
D11*
X46022380Y-51210714D02*
X46022380Y-51782142D01*
X46022380Y-51496428D02*
X45022380Y-51496428D01*
X45165238Y-51591666D01*
X45260476Y-51686904D01*
X45308095Y-51782142D01*
X46022380Y-50782142D02*
X45022380Y-50782142D01*
X45736666Y-50448809D01*
X45022380Y-50115476D01*
X46022380Y-50115476D01*
D13*
X47180952Y-51182142D02*
X46990476Y-51315476D01*
X47180952Y-51410714D02*
X46780952Y-51410714D01*
X46780952Y-51258333D01*
X46800000Y-51220238D01*
X46819047Y-51201190D01*
X46857142Y-51182142D01*
X46914285Y-51182142D01*
X46952380Y-51201190D01*
X46971428Y-51220238D01*
X46990476Y-51258333D01*
X46990476Y-51410714D01*
X47180952Y-50801190D02*
X47180952Y-51029761D01*
X47180952Y-50915476D02*
X46780952Y-50915476D01*
X46838095Y-50953571D01*
X46876190Y-50991666D01*
X46895238Y-51029761D01*
X47180952Y-50420238D02*
X47180952Y-50648809D01*
X47180952Y-50534523D02*
X46780952Y-50534523D01*
X46838095Y-50572619D01*
X46876190Y-50610714D01*
X46895238Y-50648809D01*
%TO.C,R12*%
D11*
X58632380Y-71241666D02*
X58632380Y-71813095D01*
X58632380Y-71527380D02*
X57632380Y-71527380D01*
X57775238Y-71622619D01*
X57870476Y-71717857D01*
X57918095Y-71813095D01*
X57632380Y-70622619D02*
X57632380Y-70527380D01*
X57680000Y-70432142D01*
X57727619Y-70384523D01*
X57822857Y-70336904D01*
X58013333Y-70289285D01*
X58251428Y-70289285D01*
X58441904Y-70336904D01*
X58537142Y-70384523D01*
X58584761Y-70432142D01*
X58632380Y-70527380D01*
X58632380Y-70622619D01*
X58584761Y-70717857D01*
X58537142Y-70765476D01*
X58441904Y-70813095D01*
X58251428Y-70860714D01*
X58013333Y-70860714D01*
X57822857Y-70813095D01*
X57727619Y-70765476D01*
X57680000Y-70717857D01*
X57632380Y-70622619D01*
X57632380Y-69670238D02*
X57632380Y-69575000D01*
X57680000Y-69479761D01*
X57727619Y-69432142D01*
X57822857Y-69384523D01*
X58013333Y-69336904D01*
X58251428Y-69336904D01*
X58441904Y-69384523D01*
X58537142Y-69432142D01*
X58584761Y-69479761D01*
X58632380Y-69575000D01*
X58632380Y-69670238D01*
X58584761Y-69765476D01*
X58537142Y-69813095D01*
X58441904Y-69860714D01*
X58251428Y-69908333D01*
X58013333Y-69908333D01*
X57822857Y-69860714D01*
X57727619Y-69813095D01*
X57680000Y-69765476D01*
X57632380Y-69670238D01*
D13*
X56930952Y-70832142D02*
X56740476Y-70965476D01*
X56930952Y-71060714D02*
X56530952Y-71060714D01*
X56530952Y-70908333D01*
X56550000Y-70870238D01*
X56569047Y-70851190D01*
X56607142Y-70832142D01*
X56664285Y-70832142D01*
X56702380Y-70851190D01*
X56721428Y-70870238D01*
X56740476Y-70908333D01*
X56740476Y-71060714D01*
X56930952Y-70451190D02*
X56930952Y-70679761D01*
X56930952Y-70565476D02*
X56530952Y-70565476D01*
X56588095Y-70603571D01*
X56626190Y-70641666D01*
X56645238Y-70679761D01*
X56569047Y-70298809D02*
X56550000Y-70279761D01*
X56530952Y-70241666D01*
X56530952Y-70146428D01*
X56550000Y-70108333D01*
X56569047Y-70089285D01*
X56607142Y-70070238D01*
X56645238Y-70070238D01*
X56702380Y-70089285D01*
X56930952Y-70317857D01*
X56930952Y-70070238D01*
%TO.C,R13*%
D11*
X73214285Y-43617619D02*
X73261904Y-43570000D01*
X73357142Y-43522380D01*
X73595238Y-43522380D01*
X73690476Y-43570000D01*
X73738095Y-43617619D01*
X73785714Y-43712857D01*
X73785714Y-43808095D01*
X73738095Y-43950952D01*
X73166666Y-44522380D01*
X73785714Y-44522380D01*
X74214285Y-44522380D02*
X74214285Y-43522380D01*
X74785714Y-44522380D02*
X74357142Y-43950952D01*
X74785714Y-43522380D02*
X74214285Y-44093809D01*
D13*
X73742857Y-45680952D02*
X73609523Y-45490476D01*
X73514285Y-45680952D02*
X73514285Y-45280952D01*
X73666666Y-45280952D01*
X73704761Y-45300000D01*
X73723809Y-45319047D01*
X73742857Y-45357142D01*
X73742857Y-45414285D01*
X73723809Y-45452380D01*
X73704761Y-45471428D01*
X73666666Y-45490476D01*
X73514285Y-45490476D01*
X74123809Y-45680952D02*
X73895238Y-45680952D01*
X74009523Y-45680952D02*
X74009523Y-45280952D01*
X73971428Y-45338095D01*
X73933333Y-45376190D01*
X73895238Y-45395238D01*
X74257142Y-45280952D02*
X74504761Y-45280952D01*
X74371428Y-45433333D01*
X74428571Y-45433333D01*
X74466666Y-45452380D01*
X74485714Y-45471428D01*
X74504761Y-45509523D01*
X74504761Y-45604761D01*
X74485714Y-45642857D01*
X74466666Y-45661904D01*
X74428571Y-45680952D01*
X74314285Y-45680952D01*
X74276190Y-45661904D01*
X74257142Y-45642857D01*
%TO.C,R14*%
D11*
X73166666Y-46452380D02*
X73785714Y-46452380D01*
X73452380Y-46833333D01*
X73595238Y-46833333D01*
X73690476Y-46880952D01*
X73738095Y-46928571D01*
X73785714Y-47023809D01*
X73785714Y-47261904D01*
X73738095Y-47357142D01*
X73690476Y-47404761D01*
X73595238Y-47452380D01*
X73309523Y-47452380D01*
X73214285Y-47404761D01*
X73166666Y-47357142D01*
X74214285Y-47452380D02*
X74214285Y-46452380D01*
X74785714Y-47452380D02*
X74357142Y-46880952D01*
X74785714Y-46452380D02*
X74214285Y-47023809D01*
D13*
X73742857Y-48180952D02*
X73609523Y-47990476D01*
X73514285Y-48180952D02*
X73514285Y-47780952D01*
X73666666Y-47780952D01*
X73704761Y-47800000D01*
X73723809Y-47819047D01*
X73742857Y-47857142D01*
X73742857Y-47914285D01*
X73723809Y-47952380D01*
X73704761Y-47971428D01*
X73666666Y-47990476D01*
X73514285Y-47990476D01*
X74123809Y-48180952D02*
X73895238Y-48180952D01*
X74009523Y-48180952D02*
X74009523Y-47780952D01*
X73971428Y-47838095D01*
X73933333Y-47876190D01*
X73895238Y-47895238D01*
X74466666Y-47914285D02*
X74466666Y-48180952D01*
X74371428Y-47761904D02*
X74276190Y-48047619D01*
X74523809Y-48047619D01*
%TO.C,R15*%
D11*
X73690476Y-48855714D02*
X73690476Y-49522380D01*
X73452380Y-48474761D02*
X73214285Y-49189047D01*
X73833333Y-49189047D01*
X74214285Y-49522380D02*
X74214285Y-48522380D01*
X74785714Y-49522380D02*
X74357142Y-48950952D01*
X74785714Y-48522380D02*
X74214285Y-49093809D01*
D13*
X73742857Y-50680952D02*
X73609523Y-50490476D01*
X73514285Y-50680952D02*
X73514285Y-50280952D01*
X73666666Y-50280952D01*
X73704761Y-50300000D01*
X73723809Y-50319047D01*
X73742857Y-50357142D01*
X73742857Y-50414285D01*
X73723809Y-50452380D01*
X73704761Y-50471428D01*
X73666666Y-50490476D01*
X73514285Y-50490476D01*
X74123809Y-50680952D02*
X73895238Y-50680952D01*
X74009523Y-50680952D02*
X74009523Y-50280952D01*
X73971428Y-50338095D01*
X73933333Y-50376190D01*
X73895238Y-50395238D01*
X74485714Y-50280952D02*
X74295238Y-50280952D01*
X74276190Y-50471428D01*
X74295238Y-50452380D01*
X74333333Y-50433333D01*
X74428571Y-50433333D01*
X74466666Y-50452380D01*
X74485714Y-50471428D01*
X74504761Y-50509523D01*
X74504761Y-50604761D01*
X74485714Y-50642857D01*
X74466666Y-50661904D01*
X74428571Y-50680952D01*
X74333333Y-50680952D01*
X74295238Y-50661904D01*
X74276190Y-50642857D01*
%TO.C,R16*%
D11*
X73738095Y-51022380D02*
X73261904Y-51022380D01*
X73214285Y-51498571D01*
X73261904Y-51450952D01*
X73357142Y-51403333D01*
X73595238Y-51403333D01*
X73690476Y-51450952D01*
X73738095Y-51498571D01*
X73785714Y-51593809D01*
X73785714Y-51831904D01*
X73738095Y-51927142D01*
X73690476Y-51974761D01*
X73595238Y-52022380D01*
X73357142Y-52022380D01*
X73261904Y-51974761D01*
X73214285Y-51927142D01*
X74214285Y-52022380D02*
X74214285Y-51022380D01*
X74785714Y-52022380D02*
X74357142Y-51450952D01*
X74785714Y-51022380D02*
X74214285Y-51593809D01*
D13*
X73742857Y-53180952D02*
X73609523Y-52990476D01*
X73514285Y-53180952D02*
X73514285Y-52780952D01*
X73666666Y-52780952D01*
X73704761Y-52800000D01*
X73723809Y-52819047D01*
X73742857Y-52857142D01*
X73742857Y-52914285D01*
X73723809Y-52952380D01*
X73704761Y-52971428D01*
X73666666Y-52990476D01*
X73514285Y-52990476D01*
X74123809Y-53180952D02*
X73895238Y-53180952D01*
X74009523Y-53180952D02*
X74009523Y-52780952D01*
X73971428Y-52838095D01*
X73933333Y-52876190D01*
X73895238Y-52895238D01*
X74466666Y-52780952D02*
X74390476Y-52780952D01*
X74352380Y-52800000D01*
X74333333Y-52819047D01*
X74295238Y-52876190D01*
X74276190Y-52952380D01*
X74276190Y-53104761D01*
X74295238Y-53142857D01*
X74314285Y-53161904D01*
X74352380Y-53180952D01*
X74428571Y-53180952D01*
X74466666Y-53161904D01*
X74485714Y-53142857D01*
X74504761Y-53104761D01*
X74504761Y-53009523D01*
X74485714Y-52971428D01*
X74466666Y-52952380D01*
X74428571Y-52933333D01*
X74352380Y-52933333D01*
X74314285Y-52952380D01*
X74295238Y-52971428D01*
X74276190Y-53009523D01*
%TO.C,R17*%
D11*
X74190476Y-53302380D02*
X74000000Y-53302380D01*
X73904761Y-53350000D01*
X73857142Y-53397619D01*
X73761904Y-53540476D01*
X73714285Y-53730952D01*
X73714285Y-54111904D01*
X73761904Y-54207142D01*
X73809523Y-54254761D01*
X73904761Y-54302380D01*
X74095238Y-54302380D01*
X74190476Y-54254761D01*
X74238095Y-54207142D01*
X74285714Y-54111904D01*
X74285714Y-53873809D01*
X74238095Y-53778571D01*
X74190476Y-53730952D01*
X74095238Y-53683333D01*
X73904761Y-53683333D01*
X73809523Y-53730952D01*
X73761904Y-53778571D01*
X73714285Y-53873809D01*
X74714285Y-54302380D02*
X74714285Y-53302380D01*
X75285714Y-54302380D02*
X74857142Y-53730952D01*
X75285714Y-53302380D02*
X74714285Y-53873809D01*
D14*
X74178571Y-55726190D02*
X74011904Y-55488095D01*
X73892857Y-55726190D02*
X73892857Y-55226190D01*
X74083333Y-55226190D01*
X74130952Y-55250000D01*
X74154761Y-55273809D01*
X74178571Y-55321428D01*
X74178571Y-55392857D01*
X74154761Y-55440476D01*
X74130952Y-55464285D01*
X74083333Y-55488095D01*
X73892857Y-55488095D01*
X74654761Y-55726190D02*
X74369047Y-55726190D01*
X74511904Y-55726190D02*
X74511904Y-55226190D01*
X74464285Y-55297619D01*
X74416666Y-55345238D01*
X74369047Y-55369047D01*
X74821428Y-55226190D02*
X75154761Y-55226190D01*
X74940476Y-55726190D01*
%TO.C,R18*%
D11*
X73579166Y-56052380D02*
X74245833Y-56052380D01*
X73817261Y-57052380D01*
X74626785Y-57052380D02*
X74626785Y-56052380D01*
X75198214Y-57052380D02*
X74769642Y-56480952D01*
X75198214Y-56052380D02*
X74626785Y-56623809D01*
D14*
X74091071Y-58476190D02*
X73924404Y-58238095D01*
X73805357Y-58476190D02*
X73805357Y-57976190D01*
X73995833Y-57976190D01*
X74043452Y-58000000D01*
X74067261Y-58023809D01*
X74091071Y-58071428D01*
X74091071Y-58142857D01*
X74067261Y-58190476D01*
X74043452Y-58214285D01*
X73995833Y-58238095D01*
X73805357Y-58238095D01*
X74567261Y-58476190D02*
X74281547Y-58476190D01*
X74424404Y-58476190D02*
X74424404Y-57976190D01*
X74376785Y-58047619D01*
X74329166Y-58095238D01*
X74281547Y-58119047D01*
X74852976Y-58190476D02*
X74805357Y-58166666D01*
X74781547Y-58142857D01*
X74757738Y-58095238D01*
X74757738Y-58071428D01*
X74781547Y-58023809D01*
X74805357Y-58000000D01*
X74852976Y-57976190D01*
X74948214Y-57976190D01*
X74995833Y-58000000D01*
X75019642Y-58023809D01*
X75043452Y-58071428D01*
X75043452Y-58095238D01*
X75019642Y-58142857D01*
X74995833Y-58166666D01*
X74948214Y-58190476D01*
X74852976Y-58190476D01*
X74805357Y-58214285D01*
X74781547Y-58238095D01*
X74757738Y-58285714D01*
X74757738Y-58380952D01*
X74781547Y-58428571D01*
X74805357Y-58452380D01*
X74852976Y-58476190D01*
X74948214Y-58476190D01*
X74995833Y-58452380D01*
X75019642Y-58428571D01*
X75043452Y-58380952D01*
X75043452Y-58285714D01*
X75019642Y-58238095D01*
X74995833Y-58214285D01*
X74948214Y-58190476D01*
%TO.C,R19*%
D11*
X73785714Y-61522380D02*
X73214285Y-61522380D01*
X73500000Y-61522380D02*
X73500000Y-60522380D01*
X73404761Y-60665238D01*
X73309523Y-60760476D01*
X73214285Y-60808095D01*
X74214285Y-61522380D02*
X74214285Y-60522380D01*
X74785714Y-61522380D02*
X74357142Y-60950952D01*
X74785714Y-60522380D02*
X74214285Y-61093809D01*
D13*
X73742857Y-62680952D02*
X73609523Y-62490476D01*
X73514285Y-62680952D02*
X73514285Y-62280952D01*
X73666666Y-62280952D01*
X73704761Y-62300000D01*
X73723809Y-62319047D01*
X73742857Y-62357142D01*
X73742857Y-62414285D01*
X73723809Y-62452380D01*
X73704761Y-62471428D01*
X73666666Y-62490476D01*
X73514285Y-62490476D01*
X74123809Y-62680952D02*
X73895238Y-62680952D01*
X74009523Y-62680952D02*
X74009523Y-62280952D01*
X73971428Y-62338095D01*
X73933333Y-62376190D01*
X73895238Y-62395238D01*
X74314285Y-62680952D02*
X74390476Y-62680952D01*
X74428571Y-62661904D01*
X74447619Y-62642857D01*
X74485714Y-62585714D01*
X74504761Y-62509523D01*
X74504761Y-62357142D01*
X74485714Y-62319047D01*
X74466666Y-62300000D01*
X74428571Y-62280952D01*
X74352380Y-62280952D01*
X74314285Y-62300000D01*
X74295238Y-62319047D01*
X74276190Y-62357142D01*
X74276190Y-62452380D01*
X74295238Y-62490476D01*
X74314285Y-62509523D01*
X74352380Y-62528571D01*
X74428571Y-62528571D01*
X74466666Y-62509523D01*
X74485714Y-62490476D01*
X74504761Y-62452380D01*
%TO.C,R20*%
D11*
X73214285Y-63117619D02*
X73261904Y-63070000D01*
X73357142Y-63022380D01*
X73595238Y-63022380D01*
X73690476Y-63070000D01*
X73738095Y-63117619D01*
X73785714Y-63212857D01*
X73785714Y-63308095D01*
X73738095Y-63450952D01*
X73166666Y-64022380D01*
X73785714Y-64022380D01*
X74214285Y-64022380D02*
X74214285Y-63022380D01*
X74785714Y-64022380D02*
X74357142Y-63450952D01*
X74785714Y-63022380D02*
X74214285Y-63593809D01*
D13*
X73742857Y-65180952D02*
X73609523Y-64990476D01*
X73514285Y-65180952D02*
X73514285Y-64780952D01*
X73666666Y-64780952D01*
X73704761Y-64800000D01*
X73723809Y-64819047D01*
X73742857Y-64857142D01*
X73742857Y-64914285D01*
X73723809Y-64952380D01*
X73704761Y-64971428D01*
X73666666Y-64990476D01*
X73514285Y-64990476D01*
X73895238Y-64819047D02*
X73914285Y-64800000D01*
X73952380Y-64780952D01*
X74047619Y-64780952D01*
X74085714Y-64800000D01*
X74104761Y-64819047D01*
X74123809Y-64857142D01*
X74123809Y-64895238D01*
X74104761Y-64952380D01*
X73876190Y-65180952D01*
X74123809Y-65180952D01*
X74371428Y-64780952D02*
X74409523Y-64780952D01*
X74447619Y-64800000D01*
X74466666Y-64819047D01*
X74485714Y-64857142D01*
X74504761Y-64933333D01*
X74504761Y-65028571D01*
X74485714Y-65104761D01*
X74466666Y-65142857D01*
X74447619Y-65161904D01*
X74409523Y-65180952D01*
X74371428Y-65180952D01*
X74333333Y-65161904D01*
X74314285Y-65142857D01*
X74295238Y-65104761D01*
X74276190Y-65028571D01*
X74276190Y-64933333D01*
X74295238Y-64857142D01*
X74314285Y-64819047D01*
X74333333Y-64800000D01*
X74371428Y-64780952D01*
%TO.C,R21*%
D11*
X73166666Y-65522380D02*
X73785714Y-65522380D01*
X73452380Y-65903333D01*
X73595238Y-65903333D01*
X73690476Y-65950952D01*
X73738095Y-65998571D01*
X73785714Y-66093809D01*
X73785714Y-66331904D01*
X73738095Y-66427142D01*
X73690476Y-66474761D01*
X73595238Y-66522380D01*
X73309523Y-66522380D01*
X73214285Y-66474761D01*
X73166666Y-66427142D01*
X74214285Y-66522380D02*
X74214285Y-65522380D01*
X74785714Y-66522380D02*
X74357142Y-65950952D01*
X74785714Y-65522380D02*
X74214285Y-66093809D01*
D13*
X73742857Y-67680952D02*
X73609523Y-67490476D01*
X73514285Y-67680952D02*
X73514285Y-67280952D01*
X73666666Y-67280952D01*
X73704761Y-67300000D01*
X73723809Y-67319047D01*
X73742857Y-67357142D01*
X73742857Y-67414285D01*
X73723809Y-67452380D01*
X73704761Y-67471428D01*
X73666666Y-67490476D01*
X73514285Y-67490476D01*
X73895238Y-67319047D02*
X73914285Y-67300000D01*
X73952380Y-67280952D01*
X74047619Y-67280952D01*
X74085714Y-67300000D01*
X74104761Y-67319047D01*
X74123809Y-67357142D01*
X74123809Y-67395238D01*
X74104761Y-67452380D01*
X73876190Y-67680952D01*
X74123809Y-67680952D01*
X74504761Y-67680952D02*
X74276190Y-67680952D01*
X74390476Y-67680952D02*
X74390476Y-67280952D01*
X74352380Y-67338095D01*
X74314285Y-67376190D01*
X74276190Y-67395238D01*
%TO.C,R22*%
D11*
X73690476Y-68355714D02*
X73690476Y-69022380D01*
X73452380Y-67974761D02*
X73214285Y-68689047D01*
X73833333Y-68689047D01*
X74214285Y-69022380D02*
X74214285Y-68022380D01*
X74785714Y-69022380D02*
X74357142Y-68450952D01*
X74785714Y-68022380D02*
X74214285Y-68593809D01*
D13*
X73742857Y-70180952D02*
X73609523Y-69990476D01*
X73514285Y-70180952D02*
X73514285Y-69780952D01*
X73666666Y-69780952D01*
X73704761Y-69800000D01*
X73723809Y-69819047D01*
X73742857Y-69857142D01*
X73742857Y-69914285D01*
X73723809Y-69952380D01*
X73704761Y-69971428D01*
X73666666Y-69990476D01*
X73514285Y-69990476D01*
X73895238Y-69819047D02*
X73914285Y-69800000D01*
X73952380Y-69780952D01*
X74047619Y-69780952D01*
X74085714Y-69800000D01*
X74104761Y-69819047D01*
X74123809Y-69857142D01*
X74123809Y-69895238D01*
X74104761Y-69952380D01*
X73876190Y-70180952D01*
X74123809Y-70180952D01*
X74276190Y-69819047D02*
X74295238Y-69800000D01*
X74333333Y-69780952D01*
X74428571Y-69780952D01*
X74466666Y-69800000D01*
X74485714Y-69819047D01*
X74504761Y-69857142D01*
X74504761Y-69895238D01*
X74485714Y-69952380D01*
X74257142Y-70180952D01*
X74504761Y-70180952D01*
%TO.C,R23*%
D11*
X73738095Y-70522380D02*
X73261904Y-70522380D01*
X73214285Y-70998571D01*
X73261904Y-70950952D01*
X73357142Y-70903333D01*
X73595238Y-70903333D01*
X73690476Y-70950952D01*
X73738095Y-70998571D01*
X73785714Y-71093809D01*
X73785714Y-71331904D01*
X73738095Y-71427142D01*
X73690476Y-71474761D01*
X73595238Y-71522380D01*
X73357142Y-71522380D01*
X73261904Y-71474761D01*
X73214285Y-71427142D01*
X74214285Y-71522380D02*
X74214285Y-70522380D01*
X74785714Y-71522380D02*
X74357142Y-70950952D01*
X74785714Y-70522380D02*
X74214285Y-71093809D01*
D13*
X73742857Y-72680952D02*
X73609523Y-72490476D01*
X73514285Y-72680952D02*
X73514285Y-72280952D01*
X73666666Y-72280952D01*
X73704761Y-72300000D01*
X73723809Y-72319047D01*
X73742857Y-72357142D01*
X73742857Y-72414285D01*
X73723809Y-72452380D01*
X73704761Y-72471428D01*
X73666666Y-72490476D01*
X73514285Y-72490476D01*
X73895238Y-72319047D02*
X73914285Y-72300000D01*
X73952380Y-72280952D01*
X74047619Y-72280952D01*
X74085714Y-72300000D01*
X74104761Y-72319047D01*
X74123809Y-72357142D01*
X74123809Y-72395238D01*
X74104761Y-72452380D01*
X73876190Y-72680952D01*
X74123809Y-72680952D01*
X74257142Y-72280952D02*
X74504761Y-72280952D01*
X74371428Y-72433333D01*
X74428571Y-72433333D01*
X74466666Y-72452380D01*
X74485714Y-72471428D01*
X74504761Y-72509523D01*
X74504761Y-72604761D01*
X74485714Y-72642857D01*
X74466666Y-72661904D01*
X74428571Y-72680952D01*
X74314285Y-72680952D01*
X74276190Y-72661904D01*
X74257142Y-72642857D01*
%TO.C,R24*%
D11*
X73690476Y-72802380D02*
X73500000Y-72802380D01*
X73404761Y-72850000D01*
X73357142Y-72897619D01*
X73261904Y-73040476D01*
X73214285Y-73230952D01*
X73214285Y-73611904D01*
X73261904Y-73707142D01*
X73309523Y-73754761D01*
X73404761Y-73802380D01*
X73595238Y-73802380D01*
X73690476Y-73754761D01*
X73738095Y-73707142D01*
X73785714Y-73611904D01*
X73785714Y-73373809D01*
X73738095Y-73278571D01*
X73690476Y-73230952D01*
X73595238Y-73183333D01*
X73404761Y-73183333D01*
X73309523Y-73230952D01*
X73261904Y-73278571D01*
X73214285Y-73373809D01*
X74214285Y-73802380D02*
X74214285Y-72802380D01*
X74785714Y-73802380D02*
X74357142Y-73230952D01*
X74785714Y-72802380D02*
X74214285Y-73373809D01*
D14*
X73678571Y-75226190D02*
X73511904Y-74988095D01*
X73392857Y-75226190D02*
X73392857Y-74726190D01*
X73583333Y-74726190D01*
X73630952Y-74750000D01*
X73654761Y-74773809D01*
X73678571Y-74821428D01*
X73678571Y-74892857D01*
X73654761Y-74940476D01*
X73630952Y-74964285D01*
X73583333Y-74988095D01*
X73392857Y-74988095D01*
X73869047Y-74773809D02*
X73892857Y-74750000D01*
X73940476Y-74726190D01*
X74059523Y-74726190D01*
X74107142Y-74750000D01*
X74130952Y-74773809D01*
X74154761Y-74821428D01*
X74154761Y-74869047D01*
X74130952Y-74940476D01*
X73845238Y-75226190D01*
X74154761Y-75226190D01*
X74583333Y-74892857D02*
X74583333Y-75226190D01*
X74464285Y-74702380D02*
X74345238Y-75059523D01*
X74654761Y-75059523D01*
%TO.C,R25*%
D11*
X73166666Y-75802380D02*
X73833333Y-75802380D01*
X73404761Y-76802380D01*
X74214285Y-76802380D02*
X74214285Y-75802380D01*
X74785714Y-76802380D02*
X74357142Y-76230952D01*
X74785714Y-75802380D02*
X74214285Y-76373809D01*
D14*
X73678571Y-78226190D02*
X73511904Y-77988095D01*
X73392857Y-78226190D02*
X73392857Y-77726190D01*
X73583333Y-77726190D01*
X73630952Y-77750000D01*
X73654761Y-77773809D01*
X73678571Y-77821428D01*
X73678571Y-77892857D01*
X73654761Y-77940476D01*
X73630952Y-77964285D01*
X73583333Y-77988095D01*
X73392857Y-77988095D01*
X73869047Y-77773809D02*
X73892857Y-77750000D01*
X73940476Y-77726190D01*
X74059523Y-77726190D01*
X74107142Y-77750000D01*
X74130952Y-77773809D01*
X74154761Y-77821428D01*
X74154761Y-77869047D01*
X74130952Y-77940476D01*
X73845238Y-78226190D01*
X74154761Y-78226190D01*
X74607142Y-77726190D02*
X74369047Y-77726190D01*
X74345238Y-77964285D01*
X74369047Y-77940476D01*
X74416666Y-77916666D01*
X74535714Y-77916666D01*
X74583333Y-77940476D01*
X74607142Y-77964285D01*
X74630952Y-78011904D01*
X74630952Y-78130952D01*
X74607142Y-78178571D01*
X74583333Y-78202380D01*
X74535714Y-78226190D01*
X74416666Y-78226190D01*
X74369047Y-78202380D01*
X74345238Y-78178571D01*
%TO.C,SW1*%
D11*
X67489761Y-54715238D02*
X67537380Y-54572380D01*
X67537380Y-54334285D01*
X67489761Y-54239047D01*
X67442142Y-54191428D01*
X67346904Y-54143809D01*
X67251666Y-54143809D01*
X67156428Y-54191428D01*
X67108809Y-54239047D01*
X67061190Y-54334285D01*
X67013571Y-54524761D01*
X66965952Y-54620000D01*
X66918333Y-54667619D01*
X66823095Y-54715238D01*
X66727857Y-54715238D01*
X66632619Y-54667619D01*
X66585000Y-54620000D01*
X66537380Y-54524761D01*
X66537380Y-54286666D01*
X66585000Y-54143809D01*
X67537380Y-53715238D02*
X66537380Y-53715238D01*
X66537380Y-53477142D01*
X66585000Y-53334285D01*
X66680238Y-53239047D01*
X66775476Y-53191428D01*
X66965952Y-53143809D01*
X67108809Y-53143809D01*
X67299285Y-53191428D01*
X67394523Y-53239047D01*
X67489761Y-53334285D01*
X67537380Y-53477142D01*
X67537380Y-53715238D01*
X66537380Y-52524761D02*
X66537380Y-52429523D01*
X66585000Y-52334285D01*
X66632619Y-52286666D01*
X66727857Y-52239047D01*
X66918333Y-52191428D01*
X67156428Y-52191428D01*
X67346904Y-52239047D01*
X67442142Y-52286666D01*
X67489761Y-52334285D01*
X67537380Y-52429523D01*
X67537380Y-52524761D01*
X67489761Y-52620000D01*
X67442142Y-52667619D01*
X67346904Y-52715238D01*
X67156428Y-52762857D01*
X66918333Y-52762857D01*
X66727857Y-52715238D01*
X66632619Y-52667619D01*
X66585000Y-52620000D01*
X66537380Y-52524761D01*
X66537380Y-51334285D02*
X66537380Y-51524761D01*
X66585000Y-51620000D01*
X66632619Y-51667619D01*
X66775476Y-51762857D01*
X66965952Y-51810476D01*
X67346904Y-51810476D01*
X67442142Y-51762857D01*
X67489761Y-51715238D01*
X67537380Y-51620000D01*
X67537380Y-51429523D01*
X67489761Y-51334285D01*
X67442142Y-51286666D01*
X67346904Y-51239047D01*
X67108809Y-51239047D01*
X67013571Y-51286666D01*
X66965952Y-51334285D01*
X66918333Y-51429523D01*
X66918333Y-51620000D01*
X66965952Y-51715238D01*
X67013571Y-51762857D01*
X67108809Y-51810476D01*
X67537380Y-50810476D02*
X66537380Y-50810476D01*
X67013571Y-50810476D02*
X67013571Y-50239047D01*
X67537380Y-50239047D02*
X66537380Y-50239047D01*
X66537380Y-49572380D02*
X66537380Y-49477142D01*
X66585000Y-49381904D01*
X66632619Y-49334285D01*
X66727857Y-49286666D01*
X66918333Y-49239047D01*
X67156428Y-49239047D01*
X67346904Y-49286666D01*
X67442142Y-49334285D01*
X67489761Y-49381904D01*
X67537380Y-49477142D01*
X67537380Y-49572380D01*
X67489761Y-49667619D01*
X67442142Y-49715238D01*
X67346904Y-49762857D01*
X67156428Y-49810476D01*
X66918333Y-49810476D01*
X66727857Y-49762857D01*
X66632619Y-49715238D01*
X66585000Y-49667619D01*
X66537380Y-49572380D01*
X67489761Y-48858095D02*
X67537380Y-48715238D01*
X67537380Y-48477142D01*
X67489761Y-48381904D01*
X67442142Y-48334285D01*
X67346904Y-48286666D01*
X67251666Y-48286666D01*
X67156428Y-48334285D01*
X67108809Y-48381904D01*
X67061190Y-48477142D01*
X67013571Y-48667619D01*
X66965952Y-48762857D01*
X66918333Y-48810476D01*
X66823095Y-48858095D01*
X66727857Y-48858095D01*
X66632619Y-48810476D01*
X66585000Y-48762857D01*
X66537380Y-48667619D01*
X66537380Y-48429523D01*
X66585000Y-48286666D01*
X67013571Y-47524761D02*
X67061190Y-47381904D01*
X67108809Y-47334285D01*
X67204047Y-47286666D01*
X67346904Y-47286666D01*
X67442142Y-47334285D01*
X67489761Y-47381904D01*
X67537380Y-47477142D01*
X67537380Y-47858095D01*
X66537380Y-47858095D01*
X66537380Y-47524761D01*
X66585000Y-47429523D01*
X66632619Y-47381904D01*
X66727857Y-47334285D01*
X66823095Y-47334285D01*
X66918333Y-47381904D01*
X66965952Y-47429523D01*
X67013571Y-47524761D01*
X67013571Y-47858095D01*
%TO.C,SW2*%
X67489761Y-74215238D02*
X67537380Y-74072380D01*
X67537380Y-73834285D01*
X67489761Y-73739047D01*
X67442142Y-73691428D01*
X67346904Y-73643809D01*
X67251666Y-73643809D01*
X67156428Y-73691428D01*
X67108809Y-73739047D01*
X67061190Y-73834285D01*
X67013571Y-74024761D01*
X66965952Y-74120000D01*
X66918333Y-74167619D01*
X66823095Y-74215238D01*
X66727857Y-74215238D01*
X66632619Y-74167619D01*
X66585000Y-74120000D01*
X66537380Y-74024761D01*
X66537380Y-73786666D01*
X66585000Y-73643809D01*
X67537380Y-73215238D02*
X66537380Y-73215238D01*
X66537380Y-72977142D01*
X66585000Y-72834285D01*
X66680238Y-72739047D01*
X66775476Y-72691428D01*
X66965952Y-72643809D01*
X67108809Y-72643809D01*
X67299285Y-72691428D01*
X67394523Y-72739047D01*
X67489761Y-72834285D01*
X67537380Y-72977142D01*
X67537380Y-73215238D01*
X66537380Y-72024761D02*
X66537380Y-71929523D01*
X66585000Y-71834285D01*
X66632619Y-71786666D01*
X66727857Y-71739047D01*
X66918333Y-71691428D01*
X67156428Y-71691428D01*
X67346904Y-71739047D01*
X67442142Y-71786666D01*
X67489761Y-71834285D01*
X67537380Y-71929523D01*
X67537380Y-72024761D01*
X67489761Y-72120000D01*
X67442142Y-72167619D01*
X67346904Y-72215238D01*
X67156428Y-72262857D01*
X66918333Y-72262857D01*
X66727857Y-72215238D01*
X66632619Y-72167619D01*
X66585000Y-72120000D01*
X66537380Y-72024761D01*
X66537380Y-70834285D02*
X66537380Y-71024761D01*
X66585000Y-71120000D01*
X66632619Y-71167619D01*
X66775476Y-71262857D01*
X66965952Y-71310476D01*
X67346904Y-71310476D01*
X67442142Y-71262857D01*
X67489761Y-71215238D01*
X67537380Y-71120000D01*
X67537380Y-70929523D01*
X67489761Y-70834285D01*
X67442142Y-70786666D01*
X67346904Y-70739047D01*
X67108809Y-70739047D01*
X67013571Y-70786666D01*
X66965952Y-70834285D01*
X66918333Y-70929523D01*
X66918333Y-71120000D01*
X66965952Y-71215238D01*
X67013571Y-71262857D01*
X67108809Y-71310476D01*
X67537380Y-70310476D02*
X66537380Y-70310476D01*
X67013571Y-70310476D02*
X67013571Y-69739047D01*
X67537380Y-69739047D02*
X66537380Y-69739047D01*
X66537380Y-69072380D02*
X66537380Y-68977142D01*
X66585000Y-68881904D01*
X66632619Y-68834285D01*
X66727857Y-68786666D01*
X66918333Y-68739047D01*
X67156428Y-68739047D01*
X67346904Y-68786666D01*
X67442142Y-68834285D01*
X67489761Y-68881904D01*
X67537380Y-68977142D01*
X67537380Y-69072380D01*
X67489761Y-69167619D01*
X67442142Y-69215238D01*
X67346904Y-69262857D01*
X67156428Y-69310476D01*
X66918333Y-69310476D01*
X66727857Y-69262857D01*
X66632619Y-69215238D01*
X66585000Y-69167619D01*
X66537380Y-69072380D01*
X67489761Y-68358095D02*
X67537380Y-68215238D01*
X67537380Y-67977142D01*
X67489761Y-67881904D01*
X67442142Y-67834285D01*
X67346904Y-67786666D01*
X67251666Y-67786666D01*
X67156428Y-67834285D01*
X67108809Y-67881904D01*
X67061190Y-67977142D01*
X67013571Y-68167619D01*
X66965952Y-68262857D01*
X66918333Y-68310476D01*
X66823095Y-68358095D01*
X66727857Y-68358095D01*
X66632619Y-68310476D01*
X66585000Y-68262857D01*
X66537380Y-68167619D01*
X66537380Y-67929523D01*
X66585000Y-67786666D01*
X67013571Y-67024761D02*
X67061190Y-66881904D01*
X67108809Y-66834285D01*
X67204047Y-66786666D01*
X67346904Y-66786666D01*
X67442142Y-66834285D01*
X67489761Y-66881904D01*
X67537380Y-66977142D01*
X67537380Y-67358095D01*
X66537380Y-67358095D01*
X66537380Y-67024761D01*
X66585000Y-66929523D01*
X66632619Y-66881904D01*
X66727857Y-66834285D01*
X66823095Y-66834285D01*
X66918333Y-66881904D01*
X66965952Y-66929523D01*
X67013571Y-67024761D01*
X67013571Y-67358095D01*
%TO.C,R7*%
X46022380Y-66860714D02*
X46022380Y-67432142D01*
X46022380Y-67146428D02*
X45022380Y-67146428D01*
X45165238Y-67241666D01*
X45260476Y-67336904D01*
X45308095Y-67432142D01*
X46022380Y-66432142D02*
X45022380Y-66432142D01*
X45736666Y-66098809D01*
X45022380Y-65765476D01*
X46022380Y-65765476D01*
D13*
X47180952Y-66641666D02*
X46990476Y-66775000D01*
X47180952Y-66870238D02*
X46780952Y-66870238D01*
X46780952Y-66717857D01*
X46800000Y-66679761D01*
X46819047Y-66660714D01*
X46857142Y-66641666D01*
X46914285Y-66641666D01*
X46952380Y-66660714D01*
X46971428Y-66679761D01*
X46990476Y-66717857D01*
X46990476Y-66870238D01*
X46780952Y-66508333D02*
X46780952Y-66241666D01*
X47180952Y-66413095D01*
%TO.C,C10*%
D11*
X82835714Y-61599166D02*
X83502380Y-61599166D01*
X82454761Y-61837261D02*
X83169047Y-62075357D01*
X83169047Y-61456309D01*
X82502380Y-61170595D02*
X82502380Y-60503928D01*
X83502380Y-60932500D01*
X82835714Y-60122976D02*
X83835714Y-60122976D01*
X82883333Y-60122976D02*
X82835714Y-60027738D01*
X82835714Y-59837261D01*
X82883333Y-59742023D01*
X82930952Y-59694404D01*
X83026190Y-59646785D01*
X83311904Y-59646785D01*
X83407142Y-59694404D01*
X83454761Y-59742023D01*
X83502380Y-59837261D01*
X83502380Y-60027738D01*
X83454761Y-60122976D01*
X82978571Y-58884880D02*
X82978571Y-59218214D01*
X83502380Y-59218214D02*
X82502380Y-59218214D01*
X82502380Y-58742023D01*
D12*
X81409285Y-60593214D02*
X81421190Y-60605119D01*
X81433095Y-60640833D01*
X81433095Y-60664642D01*
X81421190Y-60700357D01*
X81397380Y-60724166D01*
X81373571Y-60736071D01*
X81325952Y-60747976D01*
X81290238Y-60747976D01*
X81242619Y-60736071D01*
X81218809Y-60724166D01*
X81195000Y-60700357D01*
X81183095Y-60664642D01*
X81183095Y-60640833D01*
X81195000Y-60605119D01*
X81206904Y-60593214D01*
X81433095Y-60355119D02*
X81433095Y-60497976D01*
X81433095Y-60426547D02*
X81183095Y-60426547D01*
X81218809Y-60450357D01*
X81242619Y-60474166D01*
X81254523Y-60497976D01*
X81183095Y-60200357D02*
X81183095Y-60176547D01*
X81195000Y-60152738D01*
X81206904Y-60140833D01*
X81230714Y-60128928D01*
X81278333Y-60117023D01*
X81337857Y-60117023D01*
X81385476Y-60128928D01*
X81409285Y-60140833D01*
X81421190Y-60152738D01*
X81433095Y-60176547D01*
X81433095Y-60200357D01*
X81421190Y-60224166D01*
X81409285Y-60236071D01*
X81385476Y-60247976D01*
X81337857Y-60259880D01*
X81278333Y-60259880D01*
X81230714Y-60247976D01*
X81206904Y-60236071D01*
X81195000Y-60224166D01*
X81183095Y-60200357D01*
%TO.C,C11*%
D11*
X94585714Y-61574166D02*
X95252380Y-61574166D01*
X94204761Y-61812261D02*
X94919047Y-62050357D01*
X94919047Y-61431309D01*
X94252380Y-61145595D02*
X94252380Y-60478928D01*
X95252380Y-60907500D01*
X94585714Y-60097976D02*
X95585714Y-60097976D01*
X94633333Y-60097976D02*
X94585714Y-60002738D01*
X94585714Y-59812261D01*
X94633333Y-59717023D01*
X94680952Y-59669404D01*
X94776190Y-59621785D01*
X95061904Y-59621785D01*
X95157142Y-59669404D01*
X95204761Y-59717023D01*
X95252380Y-59812261D01*
X95252380Y-60002738D01*
X95204761Y-60097976D01*
X94728571Y-58859880D02*
X94728571Y-59193214D01*
X95252380Y-59193214D02*
X94252380Y-59193214D01*
X94252380Y-58717023D01*
D12*
X93159285Y-60568214D02*
X93171190Y-60580119D01*
X93183095Y-60615833D01*
X93183095Y-60639642D01*
X93171190Y-60675357D01*
X93147380Y-60699166D01*
X93123571Y-60711071D01*
X93075952Y-60722976D01*
X93040238Y-60722976D01*
X92992619Y-60711071D01*
X92968809Y-60699166D01*
X92945000Y-60675357D01*
X92933095Y-60639642D01*
X92933095Y-60615833D01*
X92945000Y-60580119D01*
X92956904Y-60568214D01*
X93183095Y-60330119D02*
X93183095Y-60472976D01*
X93183095Y-60401547D02*
X92933095Y-60401547D01*
X92968809Y-60425357D01*
X92992619Y-60449166D01*
X93004523Y-60472976D01*
X93183095Y-60092023D02*
X93183095Y-60234880D01*
X93183095Y-60163452D02*
X92933095Y-60163452D01*
X92968809Y-60187261D01*
X92992619Y-60211071D01*
X93004523Y-60234880D01*
%TO.C,U1*%
D11*
X82467857Y-64237380D02*
X81991666Y-64237380D01*
X81991666Y-63237380D01*
X82658333Y-63237380D02*
X83229761Y-63237380D01*
X82944047Y-64237380D02*
X82944047Y-63237380D01*
X83991666Y-63237380D02*
X83801190Y-63237380D01*
X83705952Y-63285000D01*
X83658333Y-63332619D01*
X83563095Y-63475476D01*
X83515476Y-63665952D01*
X83515476Y-64046904D01*
X83563095Y-64142142D01*
X83610714Y-64189761D01*
X83705952Y-64237380D01*
X83896428Y-64237380D01*
X83991666Y-64189761D01*
X84039285Y-64142142D01*
X84086904Y-64046904D01*
X84086904Y-63808809D01*
X84039285Y-63713571D01*
X83991666Y-63665952D01*
X83896428Y-63618333D01*
X83705952Y-63618333D01*
X83610714Y-63665952D01*
X83563095Y-63713571D01*
X83515476Y-63808809D01*
X84467857Y-63332619D02*
X84515476Y-63285000D01*
X84610714Y-63237380D01*
X84848809Y-63237380D01*
X84944047Y-63285000D01*
X84991666Y-63332619D01*
X85039285Y-63427857D01*
X85039285Y-63523095D01*
X84991666Y-63665952D01*
X84420238Y-64237380D01*
X85039285Y-64237380D01*
X85372619Y-63237380D02*
X85991666Y-63237380D01*
X85658333Y-63618333D01*
X85801190Y-63618333D01*
X85896428Y-63665952D01*
X85944047Y-63713571D01*
X85991666Y-63808809D01*
X85991666Y-64046904D01*
X85944047Y-64142142D01*
X85896428Y-64189761D01*
X85801190Y-64237380D01*
X85515476Y-64237380D01*
X85420238Y-64189761D01*
X85372619Y-64142142D01*
X86848809Y-63570714D02*
X86848809Y-64237380D01*
X86610714Y-63189761D02*
X86372619Y-63904047D01*
X86991666Y-63904047D01*
X87944047Y-64142142D02*
X87896428Y-64189761D01*
X87753571Y-64237380D01*
X87658333Y-64237380D01*
X87515476Y-64189761D01*
X87420238Y-64094523D01*
X87372619Y-63999285D01*
X87325000Y-63808809D01*
X87325000Y-63665952D01*
X87372619Y-63475476D01*
X87420238Y-63380238D01*
X87515476Y-63285000D01*
X87658333Y-63237380D01*
X87753571Y-63237380D01*
X87896428Y-63285000D01*
X87944047Y-63332619D01*
X88325000Y-64189761D02*
X88467857Y-64237380D01*
X88705952Y-64237380D01*
X88801190Y-64189761D01*
X88848809Y-64142142D01*
X88896428Y-64046904D01*
X88896428Y-63951666D01*
X88848809Y-63856428D01*
X88801190Y-63808809D01*
X88705952Y-63761190D01*
X88515476Y-63713571D01*
X88420238Y-63665952D01*
X88372619Y-63618333D01*
X88325000Y-63523095D01*
X88325000Y-63427857D01*
X88372619Y-63332619D01*
X88420238Y-63285000D01*
X88515476Y-63237380D01*
X88753571Y-63237380D01*
X88896428Y-63285000D01*
X89467857Y-63665952D02*
X89372619Y-63618333D01*
X89325000Y-63570714D01*
X89277380Y-63475476D01*
X89277380Y-63427857D01*
X89325000Y-63332619D01*
X89372619Y-63285000D01*
X89467857Y-63237380D01*
X89658333Y-63237380D01*
X89753571Y-63285000D01*
X89801190Y-63332619D01*
X89848809Y-63427857D01*
X89848809Y-63475476D01*
X89801190Y-63570714D01*
X89753571Y-63618333D01*
X89658333Y-63665952D01*
X89467857Y-63665952D01*
X89372619Y-63713571D01*
X89325000Y-63761190D01*
X89277380Y-63856428D01*
X89277380Y-64046904D01*
X89325000Y-64142142D01*
X89372619Y-64189761D01*
X89467857Y-64237380D01*
X89658333Y-64237380D01*
X89753571Y-64189761D01*
X89801190Y-64142142D01*
X89848809Y-64046904D01*
X89848809Y-63856428D01*
X89801190Y-63761190D01*
X89753571Y-63713571D01*
X89658333Y-63665952D01*
X90229761Y-63570714D02*
X90944047Y-63570714D01*
X90515476Y-63142142D02*
X90229761Y-64427857D01*
X90848809Y-63999285D02*
X90134523Y-63999285D01*
X90563095Y-64427857D02*
X90848809Y-63142142D01*
X91277380Y-64237380D02*
X91277380Y-63237380D01*
X91658333Y-63237380D01*
X91753571Y-63285000D01*
X91801190Y-63332619D01*
X91848809Y-63427857D01*
X91848809Y-63570714D01*
X91801190Y-63665952D01*
X91753571Y-63713571D01*
X91658333Y-63761190D01*
X91277380Y-63761190D01*
X92610714Y-63713571D02*
X92753571Y-63761190D01*
X92801190Y-63808809D01*
X92848809Y-63904047D01*
X92848809Y-64046904D01*
X92801190Y-64142142D01*
X92753571Y-64189761D01*
X92658333Y-64237380D01*
X92277380Y-64237380D01*
X92277380Y-63237380D01*
X92610714Y-63237380D01*
X92705952Y-63285000D01*
X92753571Y-63332619D01*
X92801190Y-63427857D01*
X92801190Y-63523095D01*
X92753571Y-63618333D01*
X92705952Y-63665952D01*
X92610714Y-63713571D01*
X92277380Y-63713571D01*
X93610714Y-63713571D02*
X93277380Y-63713571D01*
X93277380Y-64237380D02*
X93277380Y-63237380D01*
X93753571Y-63237380D01*
X87078333Y-59848333D02*
X87078333Y-60641666D01*
X87125000Y-60735000D01*
X87171666Y-60781666D01*
X87265000Y-60828333D01*
X87451666Y-60828333D01*
X87545000Y-60781666D01*
X87591666Y-60735000D01*
X87638333Y-60641666D01*
X87638333Y-59848333D01*
X88618333Y-60828333D02*
X88058333Y-60828333D01*
X88338333Y-60828333D02*
X88338333Y-59848333D01*
X88245000Y-59988333D01*
X88151666Y-60081666D01*
X88058333Y-60128333D01*
%TD*%
M02*
