%FSLAX45Y45*%
G04 Gerber Fmt 4.5, Leading zero omitted, Abs format (unit mm)*
G04 Created by KiCad (PCBNEW 5.1.10) date 2021-07-17 21:09:17*
%MOMM*%
%LPD*%
G01*
G04 APERTURE LIST*
%TA.AperFunction,Profile*%
%ADD10C,0.050000*%
%TD*%
%ADD11C,0.200000*%
%ADD12C,0.300000*%
G04 APERTURE END LIST*
D10*
X3500000Y-8250000D02*
X3500000Y-3250000D01*
X12750000Y-8250000D02*
X3500000Y-8250000D01*
X12750000Y-3250000D02*
X12750000Y-8250000D01*
X3500000Y-3250000D02*
X12750000Y-3250000D01*
D11*
D12*
X3783928Y-8718214D02*
X3783928Y-8418214D01*
X3855357Y-8418214D01*
X3898214Y-8432500D01*
X3926786Y-8461072D01*
X3941071Y-8489643D01*
X3955357Y-8546786D01*
X3955357Y-8589643D01*
X3941071Y-8646786D01*
X3926786Y-8675357D01*
X3898214Y-8703929D01*
X3855357Y-8718214D01*
X3783928Y-8718214D01*
X4083928Y-8718214D02*
X4083928Y-8518214D01*
X4083928Y-8575357D02*
X4098214Y-8546786D01*
X4112500Y-8532500D01*
X4141071Y-8518214D01*
X4169643Y-8518214D01*
X4269643Y-8718214D02*
X4269643Y-8518214D01*
X4269643Y-8418214D02*
X4255357Y-8432500D01*
X4269643Y-8446786D01*
X4283928Y-8432500D01*
X4269643Y-8418214D01*
X4269643Y-8446786D01*
X4455357Y-8718214D02*
X4426786Y-8703929D01*
X4412500Y-8675357D01*
X4412500Y-8418214D01*
X4612500Y-8718214D02*
X4583928Y-8703929D01*
X4569643Y-8675357D01*
X4569643Y-8418214D01*
X4955357Y-8718214D02*
X4955357Y-8418214D01*
X5055357Y-8632500D01*
X5155357Y-8418214D01*
X5155357Y-8718214D01*
X5426786Y-8718214D02*
X5426786Y-8561072D01*
X5412500Y-8532500D01*
X5383928Y-8518214D01*
X5326786Y-8518214D01*
X5298214Y-8532500D01*
X5426786Y-8703929D02*
X5398214Y-8718214D01*
X5326786Y-8718214D01*
X5298214Y-8703929D01*
X5283928Y-8675357D01*
X5283928Y-8646786D01*
X5298214Y-8618214D01*
X5326786Y-8603929D01*
X5398214Y-8603929D01*
X5426786Y-8589643D01*
X5569643Y-8518214D02*
X5569643Y-8818214D01*
X5569643Y-8532500D02*
X5598214Y-8518214D01*
X5655357Y-8518214D01*
X5683928Y-8532500D01*
X5698214Y-8546786D01*
X5712500Y-8575357D01*
X5712500Y-8661072D01*
X5698214Y-8689643D01*
X5683928Y-8703929D01*
X5655357Y-8718214D01*
X5598214Y-8718214D01*
X5569643Y-8703929D01*
X5841071Y-8689643D02*
X5855357Y-8703929D01*
X5841071Y-8718214D01*
X5826786Y-8703929D01*
X5841071Y-8689643D01*
X5841071Y-8718214D01*
X5841071Y-8532500D02*
X5855357Y-8546786D01*
X5841071Y-8561072D01*
X5826786Y-8546786D01*
X5841071Y-8532500D01*
X5841071Y-8561072D01*
M02*
