M48
; DRILL file {KiCad 5.1.10-88a1d61d58~88~ubuntu20.04.1} date Sat Jul  3 03:40:18 2021
; FORMAT={-:-/ absolute / metric / decimal}
; #@! TF.CreationDate,2021-07-03T03:40:18+02:00
; #@! TF.GenerationSoftware,Kicad,Pcbnew,5.1.10-88a1d61d58~88~ubuntu20.04.1
; #@! TF.FileFunction,Plated,1,2,PTH
FMAT,2
METRIC
T1C0.400
T2C2.200
%
G90
G05
T1
X43.5Y-59.0
X43.5Y-63.5
X48.5Y-50.5
X48.5Y-56.5
X49.622Y-58.61
X50.997Y-61.047
X53.5Y-61.5
X55.0Y-56.5
X57.5Y-75.0
X59.0Y-53.5
X59.5Y-58.0
X60.5Y-60.0
X61.0Y-70.5
X61.5Y-65.0
X63.5Y-44.0
X64.5Y-48.0
X65.093Y-50.668
X66.0Y-72.0
X72.5Y-49.0
X76.5Y-73.5
X79.5Y-47.5
X89.0Y-76.0
X89.5Y-46.0
X97.5Y-62.0
X110.5Y-53.5
X111.744Y-55.625
X111.825Y-60.899
X115.5Y-63.5
X118.311Y-60.342
X120.0Y-57.5
T2
X40.5Y-38.0
X40.5Y-52.0
X40.5Y-59.0
X40.5Y-66.5
X40.5Y-78.0
X123.0Y-38.0
X123.0Y-53.5
X123.0Y-60.5
X123.0Y-66.5
X123.0Y-78.0
T0
M30
