%TF.GenerationSoftware,KiCad,Pcbnew,5.1.10*%
%TF.CreationDate,2021-07-17T21:09:20+02:00*%
%TF.ProjectId,smd-balanced,736d642d-6261-46c6-916e-6365642e6b69,rev?*%
%TF.SameCoordinates,Original*%
%TF.FileFunction,Other,Fab,Top*%
%FSLAX46Y46*%
G04 Gerber Fmt 4.6, Leading zero omitted, Abs format (unit mm)*
G04 Created by KiCad (PCBNEW 5.1.10) date 2021-07-17 21:09:20*
%MOMM*%
%LPD*%
G01*
G04 APERTURE LIST*
%ADD10C,0.100000*%
%ADD11C,0.150000*%
%ADD12C,0.040000*%
%ADD13C,0.060000*%
%ADD14C,0.080000*%
G04 APERTURE END LIST*
D10*
%TO.C,C1*%
X107700000Y-52650000D02*
X107700000Y-52350000D01*
X107700000Y-52350000D02*
X108300000Y-52350000D01*
X108300000Y-52350000D02*
X108300000Y-52650000D01*
X108300000Y-52650000D02*
X107700000Y-52650000D01*
%TO.C,C2*%
X117485000Y-58845000D02*
X116885000Y-58845000D01*
X117485000Y-58545000D02*
X117485000Y-58845000D01*
X116885000Y-58545000D02*
X117485000Y-58545000D01*
X116885000Y-58845000D02*
X116885000Y-58545000D01*
%TO.C,C3*%
X117392000Y-61150000D02*
X116792000Y-61150000D01*
X117392000Y-60850000D02*
X117392000Y-61150000D01*
X116792000Y-60850000D02*
X117392000Y-60850000D01*
X116792000Y-61150000D02*
X116792000Y-60850000D01*
%TO.C,C4*%
X108300000Y-56650000D02*
X107700000Y-56650000D01*
X108300000Y-56350000D02*
X108300000Y-56650000D01*
X107700000Y-56350000D02*
X108300000Y-56350000D01*
X107700000Y-56650000D02*
X107700000Y-56350000D01*
%TO.C,C5*%
X107632000Y-63650000D02*
X107632000Y-63350000D01*
X107632000Y-63350000D02*
X108232000Y-63350000D01*
X108232000Y-63350000D02*
X108232000Y-63650000D01*
X108232000Y-63650000D02*
X107632000Y-63650000D01*
%TO.C,C6*%
X51300000Y-65850000D02*
X51300000Y-66150000D01*
X51300000Y-66150000D02*
X50700000Y-66150000D01*
X50700000Y-66150000D02*
X50700000Y-65850000D01*
X50700000Y-65850000D02*
X51300000Y-65850000D01*
%TO.C,C7*%
X108300000Y-67650000D02*
X107700000Y-67650000D01*
X108300000Y-67350000D02*
X108300000Y-67650000D01*
X107700000Y-67350000D02*
X108300000Y-67350000D01*
X107700000Y-67650000D02*
X107700000Y-67350000D01*
%TO.C,C8*%
X56850000Y-66200000D02*
X57150000Y-66200000D01*
X57150000Y-66200000D02*
X57150000Y-66800000D01*
X57150000Y-66800000D02*
X56850000Y-66800000D01*
X56850000Y-66800000D02*
X56850000Y-66200000D01*
%TO.C,C9*%
X116885000Y-56650000D02*
X116885000Y-56350000D01*
X116885000Y-56350000D02*
X117485000Y-56350000D01*
X117485000Y-56350000D02*
X117485000Y-56650000D01*
X117485000Y-56650000D02*
X116885000Y-56650000D01*
%TO.C,D1*%
X108000000Y-59750000D02*
X108000000Y-59250000D01*
X108400000Y-59750000D02*
X108000000Y-60350000D01*
X107600000Y-59750000D02*
X108400000Y-59750000D01*
X108000000Y-60350000D02*
X107600000Y-59750000D01*
X108000000Y-60350000D02*
X108550000Y-60350000D01*
X108000000Y-60350000D02*
X107450000Y-60350000D01*
X108000000Y-60750000D02*
X108000000Y-60350000D01*
X108900000Y-61400000D02*
X107100000Y-61400000D01*
X108900000Y-58600000D02*
X108900000Y-61400000D01*
X107100000Y-58600000D02*
X108900000Y-58600000D01*
X107100000Y-61400000D02*
X107100000Y-58600000D01*
%TO.C,D2*%
X56100000Y-55900000D02*
X56100000Y-53100000D01*
X56100000Y-53100000D02*
X57900000Y-53100000D01*
X57900000Y-53100000D02*
X57900000Y-55900000D01*
X57900000Y-55900000D02*
X56100000Y-55900000D01*
X57000000Y-55250000D02*
X57000000Y-54850000D01*
X57000000Y-54850000D02*
X56450000Y-54850000D01*
X57000000Y-54850000D02*
X57550000Y-54850000D01*
X57000000Y-54850000D02*
X56600000Y-54250000D01*
X56600000Y-54250000D02*
X57400000Y-54250000D01*
X57400000Y-54250000D02*
X57000000Y-54850000D01*
X57000000Y-54250000D02*
X57000000Y-53750000D01*
%TO.C,D3*%
X57000000Y-61250000D02*
X57000000Y-60750000D01*
X57400000Y-61250000D02*
X57000000Y-61850000D01*
X56600000Y-61250000D02*
X57400000Y-61250000D01*
X57000000Y-61850000D02*
X56600000Y-61250000D01*
X57000000Y-61850000D02*
X57550000Y-61850000D01*
X57000000Y-61850000D02*
X56450000Y-61850000D01*
X57000000Y-62250000D02*
X57000000Y-61850000D01*
X57900000Y-62900000D02*
X56100000Y-62900000D01*
X57900000Y-60100000D02*
X57900000Y-62900000D01*
X56100000Y-60100000D02*
X57900000Y-60100000D01*
X56100000Y-62900000D02*
X56100000Y-60100000D01*
%TO.C,D4*%
X50100000Y-55900000D02*
X50100000Y-53100000D01*
X50100000Y-53100000D02*
X51900000Y-53100000D01*
X51900000Y-53100000D02*
X51900000Y-55900000D01*
X51900000Y-55900000D02*
X50100000Y-55900000D01*
X51000000Y-55250000D02*
X51000000Y-54850000D01*
X51000000Y-54850000D02*
X50450000Y-54850000D01*
X51000000Y-54850000D02*
X51550000Y-54850000D01*
X51000000Y-54850000D02*
X50600000Y-54250000D01*
X50600000Y-54250000D02*
X51400000Y-54250000D01*
X51400000Y-54250000D02*
X51000000Y-54850000D01*
X51000000Y-54250000D02*
X51000000Y-53750000D01*
%TO.C,D5*%
X51000000Y-60250000D02*
X51000000Y-59750000D01*
X51400000Y-60250000D02*
X51000000Y-60850000D01*
X50600000Y-60250000D02*
X51400000Y-60250000D01*
X51000000Y-60850000D02*
X50600000Y-60250000D01*
X51000000Y-60850000D02*
X51550000Y-60850000D01*
X51000000Y-60850000D02*
X50450000Y-60850000D01*
X51000000Y-61250000D02*
X51000000Y-60850000D01*
X51900000Y-61900000D02*
X50100000Y-61900000D01*
X51900000Y-59100000D02*
X51900000Y-61900000D01*
X50100000Y-59100000D02*
X51900000Y-59100000D01*
X50100000Y-61900000D02*
X50100000Y-59100000D01*
%TO.C,R1*%
X112200000Y-54912500D02*
X112200000Y-54087500D01*
X112200000Y-54087500D02*
X113800000Y-54087500D01*
X113800000Y-54087500D02*
X113800000Y-54912500D01*
X113800000Y-54912500D02*
X112200000Y-54912500D01*
%TO.C,R2*%
X74625000Y-42587500D02*
X74625000Y-43412500D01*
X74625000Y-43412500D02*
X73025000Y-43412500D01*
X73025000Y-43412500D02*
X73025000Y-42587500D01*
X73025000Y-42587500D02*
X74625000Y-42587500D01*
%TO.C,R3*%
X112200000Y-62412500D02*
X112200000Y-61587500D01*
X112200000Y-61587500D02*
X113800000Y-61587500D01*
X113800000Y-61587500D02*
X113800000Y-62412500D01*
X113800000Y-62412500D02*
X112200000Y-62412500D01*
%TO.C,R4*%
X117412500Y-64200000D02*
X117412500Y-65800000D01*
X116587500Y-64200000D02*
X117412500Y-64200000D01*
X116587500Y-65800000D02*
X116587500Y-64200000D01*
X117412500Y-65800000D02*
X116587500Y-65800000D01*
%TO.C,R5*%
X113800000Y-58912500D02*
X112200000Y-58912500D01*
X113800000Y-58087500D02*
X113800000Y-58912500D01*
X112200000Y-58087500D02*
X113800000Y-58087500D01*
X112200000Y-58912500D02*
X112200000Y-58087500D01*
%TO.C,R6*%
X51975000Y-48912500D02*
X50375000Y-48912500D01*
X51975000Y-48087500D02*
X51975000Y-48912500D01*
X50375000Y-48087500D02*
X51975000Y-48087500D01*
X50375000Y-48912500D02*
X50375000Y-48087500D01*
%TO.C,R8*%
X113800000Y-65912500D02*
X112200000Y-65912500D01*
X113800000Y-65087500D02*
X113800000Y-65912500D01*
X112200000Y-65087500D02*
X113800000Y-65087500D01*
X112200000Y-65912500D02*
X112200000Y-65087500D01*
%TO.C,R9*%
X46412500Y-60700000D02*
X46412500Y-62300000D01*
X45587500Y-60700000D02*
X46412500Y-60700000D01*
X45587500Y-62300000D02*
X45587500Y-60700000D01*
X46412500Y-62300000D02*
X45587500Y-62300000D01*
%TO.C,R10*%
X50025000Y-70912500D02*
X50025000Y-70087500D01*
X50025000Y-70087500D02*
X51625000Y-70087500D01*
X51625000Y-70087500D02*
X51625000Y-70912500D01*
X51625000Y-70912500D02*
X50025000Y-70912500D01*
%TO.C,R11*%
X46412500Y-54300000D02*
X45587500Y-54300000D01*
X45587500Y-54300000D02*
X45587500Y-52700000D01*
X45587500Y-52700000D02*
X46412500Y-52700000D01*
X46412500Y-52700000D02*
X46412500Y-54300000D01*
%TO.C,R12*%
X46412500Y-66800000D02*
X45587500Y-66800000D01*
X45587500Y-66800000D02*
X45587500Y-65200000D01*
X45587500Y-65200000D02*
X46412500Y-65200000D01*
X46412500Y-65200000D02*
X46412500Y-66800000D01*
%TO.C,R13*%
X73200000Y-45087500D02*
X74800000Y-45087500D01*
X73200000Y-45912500D02*
X73200000Y-45087500D01*
X74800000Y-45912500D02*
X73200000Y-45912500D01*
X74800000Y-45087500D02*
X74800000Y-45912500D01*
%TO.C,R14*%
X74800000Y-47587500D02*
X74800000Y-48412500D01*
X74800000Y-48412500D02*
X73200000Y-48412500D01*
X73200000Y-48412500D02*
X73200000Y-47587500D01*
X73200000Y-47587500D02*
X74800000Y-47587500D01*
%TO.C,R15*%
X73200000Y-50087500D02*
X74800000Y-50087500D01*
X73200000Y-50912500D02*
X73200000Y-50087500D01*
X74800000Y-50912500D02*
X73200000Y-50912500D01*
X74800000Y-50087500D02*
X74800000Y-50912500D01*
%TO.C,R16*%
X73200000Y-52587500D02*
X74800000Y-52587500D01*
X73200000Y-53412500D02*
X73200000Y-52587500D01*
X74800000Y-53412500D02*
X73200000Y-53412500D01*
X74800000Y-52587500D02*
X74800000Y-53412500D01*
%TO.C,R17*%
X75500000Y-54875000D02*
X75500000Y-56125000D01*
X75500000Y-56125000D02*
X73500000Y-56125000D01*
X73500000Y-56125000D02*
X73500000Y-54875000D01*
X73500000Y-54875000D02*
X75500000Y-54875000D01*
%TO.C,R18*%
X92087500Y-67875000D02*
X94087500Y-67875000D01*
X92087500Y-69125000D02*
X92087500Y-67875000D01*
X94087500Y-69125000D02*
X92087500Y-69125000D01*
X94087500Y-67875000D02*
X94087500Y-69125000D01*
%TO.C,R19*%
X74800000Y-62087500D02*
X74800000Y-62912500D01*
X74800000Y-62912500D02*
X73200000Y-62912500D01*
X73200000Y-62912500D02*
X73200000Y-62087500D01*
X73200000Y-62087500D02*
X74800000Y-62087500D01*
%TO.C,R20*%
X74800000Y-64587500D02*
X74800000Y-65412500D01*
X74800000Y-65412500D02*
X73200000Y-65412500D01*
X73200000Y-65412500D02*
X73200000Y-64587500D01*
X73200000Y-64587500D02*
X74800000Y-64587500D01*
%TO.C,R21*%
X73200000Y-67087500D02*
X74800000Y-67087500D01*
X73200000Y-67912500D02*
X73200000Y-67087500D01*
X74800000Y-67912500D02*
X73200000Y-67912500D01*
X74800000Y-67087500D02*
X74800000Y-67912500D01*
%TO.C,R22*%
X74800000Y-69587500D02*
X74800000Y-70412500D01*
X74800000Y-70412500D02*
X73200000Y-70412500D01*
X73200000Y-70412500D02*
X73200000Y-69587500D01*
X73200000Y-69587500D02*
X74800000Y-69587500D01*
%TO.C,R23*%
X73200000Y-72087500D02*
X74800000Y-72087500D01*
X73200000Y-72912500D02*
X73200000Y-72087500D01*
X74800000Y-72912500D02*
X73200000Y-72912500D01*
X74800000Y-72087500D02*
X74800000Y-72912500D01*
%TO.C,R24*%
X73000000Y-74375000D02*
X75000000Y-74375000D01*
X73000000Y-75625000D02*
X73000000Y-74375000D01*
X75000000Y-75625000D02*
X73000000Y-75625000D01*
X75000000Y-74375000D02*
X75000000Y-75625000D01*
%TO.C,R25*%
X75000000Y-77375000D02*
X75000000Y-78625000D01*
X75000000Y-78625000D02*
X73000000Y-78625000D01*
X73000000Y-78625000D02*
X73000000Y-77375000D01*
X73000000Y-77375000D02*
X75000000Y-77375000D01*
%TO.C,R7*%
X45587500Y-56700000D02*
X46412500Y-56700000D01*
X46412500Y-56700000D02*
X46412500Y-58300000D01*
X46412500Y-58300000D02*
X45587500Y-58300000D01*
X45587500Y-58300000D02*
X45587500Y-56700000D01*
%TO.C,U1*%
X84775000Y-56300000D02*
X87700000Y-56300000D01*
X87700000Y-56300000D02*
X87700000Y-61200000D01*
X87700000Y-61200000D02*
X83800000Y-61200000D01*
X83800000Y-61200000D02*
X83800000Y-57275000D01*
X83800000Y-57275000D02*
X84775000Y-56300000D01*
%TD*%
%TO.C,C1*%
D11*
X106357142Y-53002380D02*
X106452380Y-53002380D01*
X106547619Y-53050000D01*
X106595238Y-53097619D01*
X106642857Y-53192857D01*
X106690476Y-53383333D01*
X106690476Y-53621428D01*
X106642857Y-53811904D01*
X106595238Y-53907142D01*
X106547619Y-53954761D01*
X106452380Y-54002380D01*
X106357142Y-54002380D01*
X106261904Y-53954761D01*
X106214285Y-53907142D01*
X106166666Y-53811904D01*
X106119047Y-53621428D01*
X106119047Y-53383333D01*
X106166666Y-53192857D01*
X106214285Y-53097619D01*
X106261904Y-53050000D01*
X106357142Y-53002380D01*
X107119047Y-53907142D02*
X107166666Y-53954761D01*
X107119047Y-54002380D01*
X107071428Y-53954761D01*
X107119047Y-53907142D01*
X107119047Y-54002380D01*
X108119047Y-54002380D02*
X107547619Y-54002380D01*
X107833333Y-54002380D02*
X107833333Y-53002380D01*
X107738095Y-53145238D01*
X107642857Y-53240476D01*
X107547619Y-53288095D01*
X108976190Y-53335714D02*
X108976190Y-54002380D01*
X108547619Y-53335714D02*
X108547619Y-53859523D01*
X108595238Y-53954761D01*
X108690476Y-54002380D01*
X108833333Y-54002380D01*
X108928571Y-53954761D01*
X108976190Y-53907142D01*
X109785714Y-53478571D02*
X109452380Y-53478571D01*
X109452380Y-54002380D02*
X109452380Y-53002380D01*
X109928571Y-53002380D01*
D12*
X107958333Y-51909285D02*
X107946428Y-51921190D01*
X107910714Y-51933095D01*
X107886904Y-51933095D01*
X107851190Y-51921190D01*
X107827380Y-51897380D01*
X107815476Y-51873571D01*
X107803571Y-51825952D01*
X107803571Y-51790238D01*
X107815476Y-51742619D01*
X107827380Y-51718809D01*
X107851190Y-51695000D01*
X107886904Y-51683095D01*
X107910714Y-51683095D01*
X107946428Y-51695000D01*
X107958333Y-51706904D01*
X108196428Y-51933095D02*
X108053571Y-51933095D01*
X108125000Y-51933095D02*
X108125000Y-51683095D01*
X108101190Y-51718809D01*
X108077380Y-51742619D01*
X108053571Y-51754523D01*
%TO.C,C2*%
D11*
X116113571Y-60197380D02*
X115542142Y-60197380D01*
X115827857Y-60197380D02*
X115827857Y-59197380D01*
X115732619Y-59340238D01*
X115637380Y-59435476D01*
X115542142Y-59483095D01*
X116732619Y-59197380D02*
X116827857Y-59197380D01*
X116923095Y-59245000D01*
X116970714Y-59292619D01*
X117018333Y-59387857D01*
X117065952Y-59578333D01*
X117065952Y-59816428D01*
X117018333Y-60006904D01*
X116970714Y-60102142D01*
X116923095Y-60149761D01*
X116827857Y-60197380D01*
X116732619Y-60197380D01*
X116637380Y-60149761D01*
X116589761Y-60102142D01*
X116542142Y-60006904D01*
X116494523Y-59816428D01*
X116494523Y-59578333D01*
X116542142Y-59387857D01*
X116589761Y-59292619D01*
X116637380Y-59245000D01*
X116732619Y-59197380D01*
X117923095Y-59530714D02*
X117923095Y-60197380D01*
X117494523Y-59530714D02*
X117494523Y-60054523D01*
X117542142Y-60149761D01*
X117637380Y-60197380D01*
X117780238Y-60197380D01*
X117875476Y-60149761D01*
X117923095Y-60102142D01*
X118732619Y-59673571D02*
X118399285Y-59673571D01*
X118399285Y-60197380D02*
X118399285Y-59197380D01*
X118875476Y-59197380D01*
D12*
X117143333Y-58104285D02*
X117131428Y-58116190D01*
X117095714Y-58128095D01*
X117071904Y-58128095D01*
X117036190Y-58116190D01*
X117012380Y-58092380D01*
X117000476Y-58068571D01*
X116988571Y-58020952D01*
X116988571Y-57985238D01*
X117000476Y-57937619D01*
X117012380Y-57913809D01*
X117036190Y-57890000D01*
X117071904Y-57878095D01*
X117095714Y-57878095D01*
X117131428Y-57890000D01*
X117143333Y-57901904D01*
X117238571Y-57901904D02*
X117250476Y-57890000D01*
X117274285Y-57878095D01*
X117333809Y-57878095D01*
X117357619Y-57890000D01*
X117369523Y-57901904D01*
X117381428Y-57925714D01*
X117381428Y-57949523D01*
X117369523Y-57985238D01*
X117226666Y-58128095D01*
X117381428Y-58128095D01*
%TO.C,C3*%
D11*
X115401523Y-61502380D02*
X116020571Y-61502380D01*
X115687238Y-61883333D01*
X115830095Y-61883333D01*
X115925333Y-61930952D01*
X115972952Y-61978571D01*
X116020571Y-62073809D01*
X116020571Y-62311904D01*
X115972952Y-62407142D01*
X115925333Y-62454761D01*
X115830095Y-62502380D01*
X115544380Y-62502380D01*
X115449142Y-62454761D01*
X115401523Y-62407142D01*
X116353904Y-61502380D02*
X116972952Y-61502380D01*
X116639619Y-61883333D01*
X116782476Y-61883333D01*
X116877714Y-61930952D01*
X116925333Y-61978571D01*
X116972952Y-62073809D01*
X116972952Y-62311904D01*
X116925333Y-62407142D01*
X116877714Y-62454761D01*
X116782476Y-62502380D01*
X116496761Y-62502380D01*
X116401523Y-62454761D01*
X116353904Y-62407142D01*
X117830095Y-61835714D02*
X117830095Y-62502380D01*
X117401523Y-61835714D02*
X117401523Y-62359523D01*
X117449142Y-62454761D01*
X117544380Y-62502380D01*
X117687238Y-62502380D01*
X117782476Y-62454761D01*
X117830095Y-62407142D01*
X118639619Y-61978571D02*
X118306285Y-61978571D01*
X118306285Y-62502380D02*
X118306285Y-61502380D01*
X118782476Y-61502380D01*
D12*
X117050333Y-60409285D02*
X117038428Y-60421190D01*
X117002714Y-60433095D01*
X116978904Y-60433095D01*
X116943190Y-60421190D01*
X116919380Y-60397380D01*
X116907476Y-60373571D01*
X116895571Y-60325952D01*
X116895571Y-60290238D01*
X116907476Y-60242619D01*
X116919380Y-60218809D01*
X116943190Y-60195000D01*
X116978904Y-60183095D01*
X117002714Y-60183095D01*
X117038428Y-60195000D01*
X117050333Y-60206904D01*
X117133666Y-60183095D02*
X117288428Y-60183095D01*
X117205095Y-60278333D01*
X117240809Y-60278333D01*
X117264619Y-60290238D01*
X117276523Y-60302142D01*
X117288428Y-60325952D01*
X117288428Y-60385476D01*
X117276523Y-60409285D01*
X117264619Y-60421190D01*
X117240809Y-60433095D01*
X117169380Y-60433095D01*
X117145571Y-60421190D01*
X117133666Y-60409285D01*
%TO.C,C4*%
D11*
X106833333Y-57335714D02*
X106833333Y-58002380D01*
X106595238Y-56954761D02*
X106357142Y-57669047D01*
X106976190Y-57669047D01*
X107261904Y-57002380D02*
X107928571Y-57002380D01*
X107500000Y-58002380D01*
X108738095Y-57335714D02*
X108738095Y-58002380D01*
X108309523Y-57335714D02*
X108309523Y-57859523D01*
X108357142Y-57954761D01*
X108452380Y-58002380D01*
X108595238Y-58002380D01*
X108690476Y-57954761D01*
X108738095Y-57907142D01*
X109547619Y-57478571D02*
X109214285Y-57478571D01*
X109214285Y-58002380D02*
X109214285Y-57002380D01*
X109690476Y-57002380D01*
D12*
X107958333Y-55909285D02*
X107946428Y-55921190D01*
X107910714Y-55933095D01*
X107886904Y-55933095D01*
X107851190Y-55921190D01*
X107827380Y-55897380D01*
X107815476Y-55873571D01*
X107803571Y-55825952D01*
X107803571Y-55790238D01*
X107815476Y-55742619D01*
X107827380Y-55718809D01*
X107851190Y-55695000D01*
X107886904Y-55683095D01*
X107910714Y-55683095D01*
X107946428Y-55695000D01*
X107958333Y-55706904D01*
X108172619Y-55766428D02*
X108172619Y-55933095D01*
X108113095Y-55671190D02*
X108053571Y-55849761D01*
X108208333Y-55849761D01*
%TO.C,C5*%
D11*
X106765333Y-64335714D02*
X106765333Y-65002380D01*
X106527238Y-63954761D02*
X106289142Y-64669047D01*
X106908190Y-64669047D01*
X107193904Y-64002380D02*
X107860571Y-64002380D01*
X107432000Y-65002380D01*
X108670095Y-64335714D02*
X108670095Y-65002380D01*
X108241523Y-64335714D02*
X108241523Y-64859523D01*
X108289142Y-64954761D01*
X108384380Y-65002380D01*
X108527238Y-65002380D01*
X108622476Y-64954761D01*
X108670095Y-64907142D01*
X109479619Y-64478571D02*
X109146285Y-64478571D01*
X109146285Y-65002380D02*
X109146285Y-64002380D01*
X109622476Y-64002380D01*
D12*
X107890333Y-62909285D02*
X107878428Y-62921190D01*
X107842714Y-62933095D01*
X107818904Y-62933095D01*
X107783190Y-62921190D01*
X107759380Y-62897380D01*
X107747476Y-62873571D01*
X107735571Y-62825952D01*
X107735571Y-62790238D01*
X107747476Y-62742619D01*
X107759380Y-62718809D01*
X107783190Y-62695000D01*
X107818904Y-62683095D01*
X107842714Y-62683095D01*
X107878428Y-62695000D01*
X107890333Y-62706904D01*
X108116523Y-62683095D02*
X107997476Y-62683095D01*
X107985571Y-62802142D01*
X107997476Y-62790238D01*
X108021285Y-62778333D01*
X108080809Y-62778333D01*
X108104619Y-62790238D01*
X108116523Y-62802142D01*
X108128428Y-62825952D01*
X108128428Y-62885476D01*
X108116523Y-62909285D01*
X108104619Y-62921190D01*
X108080809Y-62933095D01*
X108021285Y-62933095D01*
X107997476Y-62921190D01*
X107985571Y-62909285D01*
%TO.C,C6*%
D11*
X49833333Y-64735714D02*
X49833333Y-65402380D01*
X49595238Y-64354761D02*
X49357142Y-65069047D01*
X49976190Y-65069047D01*
X50261904Y-64402380D02*
X50928571Y-64402380D01*
X50500000Y-65402380D01*
X51738095Y-64735714D02*
X51738095Y-65402380D01*
X51309523Y-64735714D02*
X51309523Y-65259523D01*
X51357142Y-65354761D01*
X51452380Y-65402380D01*
X51595238Y-65402380D01*
X51690476Y-65354761D01*
X51738095Y-65307142D01*
X52547619Y-64878571D02*
X52214285Y-64878571D01*
X52214285Y-65402380D02*
X52214285Y-64402380D01*
X52690476Y-64402380D01*
D12*
X50958333Y-66769285D02*
X50946428Y-66781190D01*
X50910714Y-66793095D01*
X50886904Y-66793095D01*
X50851190Y-66781190D01*
X50827380Y-66757380D01*
X50815476Y-66733571D01*
X50803571Y-66685952D01*
X50803571Y-66650238D01*
X50815476Y-66602619D01*
X50827380Y-66578809D01*
X50851190Y-66555000D01*
X50886904Y-66543095D01*
X50910714Y-66543095D01*
X50946428Y-66555000D01*
X50958333Y-66566904D01*
X51172619Y-66543095D02*
X51125000Y-66543095D01*
X51101190Y-66555000D01*
X51089285Y-66566904D01*
X51065476Y-66602619D01*
X51053571Y-66650238D01*
X51053571Y-66745476D01*
X51065476Y-66769285D01*
X51077380Y-66781190D01*
X51101190Y-66793095D01*
X51148809Y-66793095D01*
X51172619Y-66781190D01*
X51184523Y-66769285D01*
X51196428Y-66745476D01*
X51196428Y-66685952D01*
X51184523Y-66662142D01*
X51172619Y-66650238D01*
X51148809Y-66638333D01*
X51101190Y-66638333D01*
X51077380Y-66650238D01*
X51065476Y-66662142D01*
X51053571Y-66685952D01*
%TO.C,C7*%
D11*
X106928571Y-69002380D02*
X106357142Y-69002380D01*
X106642857Y-69002380D02*
X106642857Y-68002380D01*
X106547619Y-68145238D01*
X106452380Y-68240476D01*
X106357142Y-68288095D01*
X107547619Y-68002380D02*
X107642857Y-68002380D01*
X107738095Y-68050000D01*
X107785714Y-68097619D01*
X107833333Y-68192857D01*
X107880952Y-68383333D01*
X107880952Y-68621428D01*
X107833333Y-68811904D01*
X107785714Y-68907142D01*
X107738095Y-68954761D01*
X107642857Y-69002380D01*
X107547619Y-69002380D01*
X107452380Y-68954761D01*
X107404761Y-68907142D01*
X107357142Y-68811904D01*
X107309523Y-68621428D01*
X107309523Y-68383333D01*
X107357142Y-68192857D01*
X107404761Y-68097619D01*
X107452380Y-68050000D01*
X107547619Y-68002380D01*
X108738095Y-68335714D02*
X108738095Y-69002380D01*
X108309523Y-68335714D02*
X108309523Y-68859523D01*
X108357142Y-68954761D01*
X108452380Y-69002380D01*
X108595238Y-69002380D01*
X108690476Y-68954761D01*
X108738095Y-68907142D01*
X109547619Y-68478571D02*
X109214285Y-68478571D01*
X109214285Y-69002380D02*
X109214285Y-68002380D01*
X109690476Y-68002380D01*
D12*
X107958333Y-66909285D02*
X107946428Y-66921190D01*
X107910714Y-66933095D01*
X107886904Y-66933095D01*
X107851190Y-66921190D01*
X107827380Y-66897380D01*
X107815476Y-66873571D01*
X107803571Y-66825952D01*
X107803571Y-66790238D01*
X107815476Y-66742619D01*
X107827380Y-66718809D01*
X107851190Y-66695000D01*
X107886904Y-66683095D01*
X107910714Y-66683095D01*
X107946428Y-66695000D01*
X107958333Y-66706904D01*
X108041666Y-66683095D02*
X108208333Y-66683095D01*
X108101190Y-66933095D01*
%TO.C,C8*%
D11*
X55735714Y-67666666D02*
X56402380Y-67666666D01*
X55354761Y-67904761D02*
X56069047Y-68142857D01*
X56069047Y-67523809D01*
X55402380Y-67238095D02*
X55402380Y-66571428D01*
X56402380Y-67000000D01*
X55735714Y-65761904D02*
X56402380Y-65761904D01*
X55735714Y-66190476D02*
X56259523Y-66190476D01*
X56354761Y-66142857D01*
X56402380Y-66047619D01*
X56402380Y-65904761D01*
X56354761Y-65809523D01*
X56307142Y-65761904D01*
X55878571Y-64952380D02*
X55878571Y-65285714D01*
X56402380Y-65285714D02*
X55402380Y-65285714D01*
X55402380Y-64809523D01*
D12*
X57769285Y-66541666D02*
X57781190Y-66553571D01*
X57793095Y-66589285D01*
X57793095Y-66613095D01*
X57781190Y-66648809D01*
X57757380Y-66672619D01*
X57733571Y-66684523D01*
X57685952Y-66696428D01*
X57650238Y-66696428D01*
X57602619Y-66684523D01*
X57578809Y-66672619D01*
X57555000Y-66648809D01*
X57543095Y-66613095D01*
X57543095Y-66589285D01*
X57555000Y-66553571D01*
X57566904Y-66541666D01*
X57650238Y-66398809D02*
X57638333Y-66422619D01*
X57626428Y-66434523D01*
X57602619Y-66446428D01*
X57590714Y-66446428D01*
X57566904Y-66434523D01*
X57555000Y-66422619D01*
X57543095Y-66398809D01*
X57543095Y-66351190D01*
X57555000Y-66327380D01*
X57566904Y-66315476D01*
X57590714Y-66303571D01*
X57602619Y-66303571D01*
X57626428Y-66315476D01*
X57638333Y-66327380D01*
X57650238Y-66351190D01*
X57650238Y-66398809D01*
X57662142Y-66422619D01*
X57674047Y-66434523D01*
X57697857Y-66446428D01*
X57745476Y-66446428D01*
X57769285Y-66434523D01*
X57781190Y-66422619D01*
X57793095Y-66398809D01*
X57793095Y-66351190D01*
X57781190Y-66327380D01*
X57769285Y-66315476D01*
X57745476Y-66303571D01*
X57697857Y-66303571D01*
X57674047Y-66315476D01*
X57662142Y-66327380D01*
X57650238Y-66351190D01*
%TO.C,C9*%
D11*
X116018333Y-57335714D02*
X116018333Y-58002380D01*
X115780238Y-56954761D02*
X115542142Y-57669047D01*
X116161190Y-57669047D01*
X116446904Y-57002380D02*
X117113571Y-57002380D01*
X116685000Y-58002380D01*
X117923095Y-57335714D02*
X117923095Y-58002380D01*
X117494523Y-57335714D02*
X117494523Y-57859523D01*
X117542142Y-57954761D01*
X117637380Y-58002380D01*
X117780238Y-58002380D01*
X117875476Y-57954761D01*
X117923095Y-57907142D01*
X118732619Y-57478571D02*
X118399285Y-57478571D01*
X118399285Y-58002380D02*
X118399285Y-57002380D01*
X118875476Y-57002380D01*
D12*
X117143333Y-55909285D02*
X117131428Y-55921190D01*
X117095714Y-55933095D01*
X117071904Y-55933095D01*
X117036190Y-55921190D01*
X117012380Y-55897380D01*
X117000476Y-55873571D01*
X116988571Y-55825952D01*
X116988571Y-55790238D01*
X117000476Y-55742619D01*
X117012380Y-55718809D01*
X117036190Y-55695000D01*
X117071904Y-55683095D01*
X117095714Y-55683095D01*
X117131428Y-55695000D01*
X117143333Y-55706904D01*
X117262380Y-55933095D02*
X117310000Y-55933095D01*
X117333809Y-55921190D01*
X117345714Y-55909285D01*
X117369523Y-55873571D01*
X117381428Y-55825952D01*
X117381428Y-55730714D01*
X117369523Y-55706904D01*
X117357619Y-55695000D01*
X117333809Y-55683095D01*
X117286190Y-55683095D01*
X117262380Y-55695000D01*
X117250476Y-55706904D01*
X117238571Y-55730714D01*
X117238571Y-55790238D01*
X117250476Y-55814047D01*
X117262380Y-55825952D01*
X117286190Y-55837857D01*
X117333809Y-55837857D01*
X117357619Y-55825952D01*
X117369523Y-55814047D01*
X117381428Y-55790238D01*
%TO.C,D1*%
D11*
X110552380Y-64166666D02*
X109552380Y-64166666D01*
X110266666Y-63833333D01*
X109552380Y-63500000D01*
X110552380Y-63500000D01*
X110552380Y-63023809D02*
X109552380Y-63023809D01*
X110266666Y-62690476D01*
X109552380Y-62357142D01*
X110552380Y-62357142D01*
X110504761Y-61928571D02*
X110552380Y-61785714D01*
X110552380Y-61547619D01*
X110504761Y-61452380D01*
X110457142Y-61404761D01*
X110361904Y-61357142D01*
X110266666Y-61357142D01*
X110171428Y-61404761D01*
X110123809Y-61452380D01*
X110076190Y-61547619D01*
X110028571Y-61738095D01*
X109980952Y-61833333D01*
X109933333Y-61880952D01*
X109838095Y-61928571D01*
X109742857Y-61928571D01*
X109647619Y-61880952D01*
X109600000Y-61833333D01*
X109552380Y-61738095D01*
X109552380Y-61500000D01*
X109600000Y-61357142D01*
X109552380Y-61023809D02*
X109552380Y-60357142D01*
X110552380Y-61023809D01*
X110552380Y-60357142D01*
X110552380Y-59452380D02*
X110552380Y-60023809D01*
X110552380Y-59738095D02*
X109552380Y-59738095D01*
X109695238Y-59833333D01*
X109790476Y-59928571D01*
X109838095Y-60023809D01*
X110552380Y-58500000D02*
X110552380Y-59071428D01*
X110552380Y-58785714D02*
X109552380Y-58785714D01*
X109695238Y-58880952D01*
X109790476Y-58976190D01*
X109838095Y-59071428D01*
X109552380Y-58214285D02*
X109552380Y-57642857D01*
X110552380Y-57928571D02*
X109552380Y-57928571D01*
X110552380Y-56785714D02*
X110552380Y-57357142D01*
X110552380Y-57071428D02*
X109552380Y-57071428D01*
X109695238Y-57166666D01*
X109790476Y-57261904D01*
X109838095Y-57357142D01*
X109600000Y-55833333D02*
X109552380Y-55928571D01*
X109552380Y-56071428D01*
X109600000Y-56214285D01*
X109695238Y-56309523D01*
X109790476Y-56357142D01*
X109980952Y-56404761D01*
X110123809Y-56404761D01*
X110314285Y-56357142D01*
X110409523Y-56309523D01*
X110504761Y-56214285D01*
X110552380Y-56071428D01*
X110552380Y-55976190D01*
X110504761Y-55833333D01*
X110457142Y-55785714D01*
X110123809Y-55785714D01*
X110123809Y-55976190D01*
X106452380Y-60738095D02*
X105452380Y-60738095D01*
X105452380Y-60500000D01*
X105500000Y-60357142D01*
X105595238Y-60261904D01*
X105690476Y-60214285D01*
X105880952Y-60166666D01*
X106023809Y-60166666D01*
X106214285Y-60214285D01*
X106309523Y-60261904D01*
X106404761Y-60357142D01*
X106452380Y-60500000D01*
X106452380Y-60738095D01*
X106452380Y-59214285D02*
X106452380Y-59785714D01*
X106452380Y-59500000D02*
X105452380Y-59500000D01*
X105595238Y-59595238D01*
X105690476Y-59690476D01*
X105738095Y-59785714D01*
%TO.C,D2*%
X59552380Y-60261904D02*
X59552380Y-60833333D01*
X59552380Y-60547619D02*
X58552380Y-60547619D01*
X58695238Y-60642857D01*
X58790476Y-60738095D01*
X58838095Y-60833333D01*
X59552380Y-59833333D02*
X58552380Y-59833333D01*
X59552380Y-59261904D01*
X58552380Y-59261904D01*
X58885714Y-58357142D02*
X59552380Y-58357142D01*
X58504761Y-58595238D02*
X59219047Y-58833333D01*
X59219047Y-58214285D01*
X58885714Y-57404761D02*
X59552380Y-57404761D01*
X58504761Y-57642857D02*
X59219047Y-57880952D01*
X59219047Y-57261904D01*
X58885714Y-56452380D02*
X59552380Y-56452380D01*
X58504761Y-56690476D02*
X59219047Y-56928571D01*
X59219047Y-56309523D01*
X58980952Y-55785714D02*
X58933333Y-55880952D01*
X58885714Y-55928571D01*
X58790476Y-55976190D01*
X58742857Y-55976190D01*
X58647619Y-55928571D01*
X58600000Y-55880952D01*
X58552380Y-55785714D01*
X58552380Y-55595238D01*
X58600000Y-55500000D01*
X58647619Y-55452380D01*
X58742857Y-55404761D01*
X58790476Y-55404761D01*
X58885714Y-55452380D01*
X58933333Y-55500000D01*
X58980952Y-55595238D01*
X58980952Y-55785714D01*
X59028571Y-55880952D01*
X59076190Y-55928571D01*
X59171428Y-55976190D01*
X59361904Y-55976190D01*
X59457142Y-55928571D01*
X59504761Y-55880952D01*
X59552380Y-55785714D01*
X59552380Y-55595238D01*
X59504761Y-55500000D01*
X59457142Y-55452380D01*
X59361904Y-55404761D01*
X59171428Y-55404761D01*
X59076190Y-55452380D01*
X59028571Y-55500000D01*
X58980952Y-55595238D01*
X58552380Y-55071428D02*
X59552380Y-54833333D01*
X58838095Y-54642857D01*
X59552380Y-54452380D01*
X58552380Y-54214285D01*
X59647619Y-53166666D02*
X59600000Y-53261904D01*
X59504761Y-53357142D01*
X59361904Y-53500000D01*
X59314285Y-53595238D01*
X59314285Y-53690476D01*
X59552380Y-53642857D02*
X59504761Y-53738095D01*
X59409523Y-53833333D01*
X59219047Y-53880952D01*
X58885714Y-53880952D01*
X58695238Y-53833333D01*
X58600000Y-53738095D01*
X58552380Y-53642857D01*
X58552380Y-53452380D01*
X58600000Y-53357142D01*
X58695238Y-53261904D01*
X58885714Y-53214285D01*
X59219047Y-53214285D01*
X59409523Y-53261904D01*
X59504761Y-53357142D01*
X59552380Y-53452380D01*
X59552380Y-53642857D01*
X59171428Y-52785714D02*
X59171428Y-52023809D01*
X58552380Y-51642857D02*
X58552380Y-50976190D01*
X59552380Y-51404761D01*
X59171428Y-50595238D02*
X59171428Y-49833333D01*
X59028571Y-49023809D02*
X59028571Y-49357142D01*
X59552380Y-49357142D02*
X58552380Y-49357142D01*
X58552380Y-48880952D01*
X55452380Y-55238095D02*
X54452380Y-55238095D01*
X54452380Y-55000000D01*
X54500000Y-54857142D01*
X54595238Y-54761904D01*
X54690476Y-54714285D01*
X54880952Y-54666666D01*
X55023809Y-54666666D01*
X55214285Y-54714285D01*
X55309523Y-54761904D01*
X55404761Y-54857142D01*
X55452380Y-55000000D01*
X55452380Y-55238095D01*
X54547619Y-54285714D02*
X54500000Y-54238095D01*
X54452380Y-54142857D01*
X54452380Y-53904761D01*
X54500000Y-53809523D01*
X54547619Y-53761904D01*
X54642857Y-53714285D01*
X54738095Y-53714285D01*
X54880952Y-53761904D01*
X55452380Y-54333333D01*
X55452380Y-53714285D01*
%TO.C,D3*%
X59552380Y-67261904D02*
X59552380Y-67833333D01*
X59552380Y-67547619D02*
X58552380Y-67547619D01*
X58695238Y-67642857D01*
X58790476Y-67738095D01*
X58838095Y-67833333D01*
X59552380Y-66833333D02*
X58552380Y-66833333D01*
X59552380Y-66261904D01*
X58552380Y-66261904D01*
X58885714Y-65357142D02*
X59552380Y-65357142D01*
X58504761Y-65595238D02*
X59219047Y-65833333D01*
X59219047Y-65214285D01*
X58885714Y-64404761D02*
X59552380Y-64404761D01*
X58504761Y-64642857D02*
X59219047Y-64880952D01*
X59219047Y-64261904D01*
X58885714Y-63452380D02*
X59552380Y-63452380D01*
X58504761Y-63690476D02*
X59219047Y-63928571D01*
X59219047Y-63309523D01*
X58980952Y-62785714D02*
X58933333Y-62880952D01*
X58885714Y-62928571D01*
X58790476Y-62976190D01*
X58742857Y-62976190D01*
X58647619Y-62928571D01*
X58600000Y-62880952D01*
X58552380Y-62785714D01*
X58552380Y-62595238D01*
X58600000Y-62500000D01*
X58647619Y-62452380D01*
X58742857Y-62404761D01*
X58790476Y-62404761D01*
X58885714Y-62452380D01*
X58933333Y-62500000D01*
X58980952Y-62595238D01*
X58980952Y-62785714D01*
X59028571Y-62880952D01*
X59076190Y-62928571D01*
X59171428Y-62976190D01*
X59361904Y-62976190D01*
X59457142Y-62928571D01*
X59504761Y-62880952D01*
X59552380Y-62785714D01*
X59552380Y-62595238D01*
X59504761Y-62500000D01*
X59457142Y-62452380D01*
X59361904Y-62404761D01*
X59171428Y-62404761D01*
X59076190Y-62452380D01*
X59028571Y-62500000D01*
X58980952Y-62595238D01*
X58552380Y-62071428D02*
X59552380Y-61833333D01*
X58838095Y-61642857D01*
X59552380Y-61452380D01*
X58552380Y-61214285D01*
X59647619Y-60166666D02*
X59600000Y-60261904D01*
X59504761Y-60357142D01*
X59361904Y-60500000D01*
X59314285Y-60595238D01*
X59314285Y-60690476D01*
X59552380Y-60642857D02*
X59504761Y-60738095D01*
X59409523Y-60833333D01*
X59219047Y-60880952D01*
X58885714Y-60880952D01*
X58695238Y-60833333D01*
X58600000Y-60738095D01*
X58552380Y-60642857D01*
X58552380Y-60452380D01*
X58600000Y-60357142D01*
X58695238Y-60261904D01*
X58885714Y-60214285D01*
X59219047Y-60214285D01*
X59409523Y-60261904D01*
X59504761Y-60357142D01*
X59552380Y-60452380D01*
X59552380Y-60642857D01*
X59171428Y-59785714D02*
X59171428Y-59023809D01*
X58552380Y-58642857D02*
X58552380Y-57976190D01*
X59552380Y-58404761D01*
X59171428Y-57595238D02*
X59171428Y-56833333D01*
X59028571Y-56023809D02*
X59028571Y-56357142D01*
X59552380Y-56357142D02*
X58552380Y-56357142D01*
X58552380Y-55880952D01*
X55452380Y-62238095D02*
X54452380Y-62238095D01*
X54452380Y-62000000D01*
X54500000Y-61857142D01*
X54595238Y-61761904D01*
X54690476Y-61714285D01*
X54880952Y-61666666D01*
X55023809Y-61666666D01*
X55214285Y-61714285D01*
X55309523Y-61761904D01*
X55404761Y-61857142D01*
X55452380Y-62000000D01*
X55452380Y-62238095D01*
X54452380Y-61333333D02*
X54452380Y-60714285D01*
X54833333Y-61047619D01*
X54833333Y-60904761D01*
X54880952Y-60809523D01*
X54928571Y-60761904D01*
X55023809Y-60714285D01*
X55261904Y-60714285D01*
X55357142Y-60761904D01*
X55404761Y-60809523D01*
X55452380Y-60904761D01*
X55452380Y-61190476D01*
X55404761Y-61285714D01*
X55357142Y-61333333D01*
%TO.C,D4*%
X53552380Y-60261904D02*
X53552380Y-60833333D01*
X53552380Y-60547619D02*
X52552380Y-60547619D01*
X52695238Y-60642857D01*
X52790476Y-60738095D01*
X52838095Y-60833333D01*
X53552380Y-59833333D02*
X52552380Y-59833333D01*
X53552380Y-59261904D01*
X52552380Y-59261904D01*
X52885714Y-58357142D02*
X53552380Y-58357142D01*
X52504761Y-58595238D02*
X53219047Y-58833333D01*
X53219047Y-58214285D01*
X52885714Y-57404761D02*
X53552380Y-57404761D01*
X52504761Y-57642857D02*
X53219047Y-57880952D01*
X53219047Y-57261904D01*
X52885714Y-56452380D02*
X53552380Y-56452380D01*
X52504761Y-56690476D02*
X53219047Y-56928571D01*
X53219047Y-56309523D01*
X52980952Y-55785714D02*
X52933333Y-55880952D01*
X52885714Y-55928571D01*
X52790476Y-55976190D01*
X52742857Y-55976190D01*
X52647619Y-55928571D01*
X52600000Y-55880952D01*
X52552380Y-55785714D01*
X52552380Y-55595238D01*
X52600000Y-55500000D01*
X52647619Y-55452380D01*
X52742857Y-55404761D01*
X52790476Y-55404761D01*
X52885714Y-55452380D01*
X52933333Y-55500000D01*
X52980952Y-55595238D01*
X52980952Y-55785714D01*
X53028571Y-55880952D01*
X53076190Y-55928571D01*
X53171428Y-55976190D01*
X53361904Y-55976190D01*
X53457142Y-55928571D01*
X53504761Y-55880952D01*
X53552380Y-55785714D01*
X53552380Y-55595238D01*
X53504761Y-55500000D01*
X53457142Y-55452380D01*
X53361904Y-55404761D01*
X53171428Y-55404761D01*
X53076190Y-55452380D01*
X53028571Y-55500000D01*
X52980952Y-55595238D01*
X52552380Y-55071428D02*
X53552380Y-54833333D01*
X52838095Y-54642857D01*
X53552380Y-54452380D01*
X52552380Y-54214285D01*
X53647619Y-53166666D02*
X53600000Y-53261904D01*
X53504761Y-53357142D01*
X53361904Y-53500000D01*
X53314285Y-53595238D01*
X53314285Y-53690476D01*
X53552380Y-53642857D02*
X53504761Y-53738095D01*
X53409523Y-53833333D01*
X53219047Y-53880952D01*
X52885714Y-53880952D01*
X52695238Y-53833333D01*
X52600000Y-53738095D01*
X52552380Y-53642857D01*
X52552380Y-53452380D01*
X52600000Y-53357142D01*
X52695238Y-53261904D01*
X52885714Y-53214285D01*
X53219047Y-53214285D01*
X53409523Y-53261904D01*
X53504761Y-53357142D01*
X53552380Y-53452380D01*
X53552380Y-53642857D01*
X53171428Y-52785714D02*
X53171428Y-52023809D01*
X52552380Y-51642857D02*
X52552380Y-50976190D01*
X53552380Y-51404761D01*
X53171428Y-50595238D02*
X53171428Y-49833333D01*
X53028571Y-49023809D02*
X53028571Y-49357142D01*
X53552380Y-49357142D02*
X52552380Y-49357142D01*
X52552380Y-48880952D01*
X49452380Y-55238095D02*
X48452380Y-55238095D01*
X48452380Y-55000000D01*
X48500000Y-54857142D01*
X48595238Y-54761904D01*
X48690476Y-54714285D01*
X48880952Y-54666666D01*
X49023809Y-54666666D01*
X49214285Y-54714285D01*
X49309523Y-54761904D01*
X49404761Y-54857142D01*
X49452380Y-55000000D01*
X49452380Y-55238095D01*
X48785714Y-53809523D02*
X49452380Y-53809523D01*
X48404761Y-54047619D02*
X49119047Y-54285714D01*
X49119047Y-53666666D01*
%TO.C,D5*%
X53552380Y-66261904D02*
X53552380Y-66833333D01*
X53552380Y-66547619D02*
X52552380Y-66547619D01*
X52695238Y-66642857D01*
X52790476Y-66738095D01*
X52838095Y-66833333D01*
X53552380Y-65833333D02*
X52552380Y-65833333D01*
X53552380Y-65261904D01*
X52552380Y-65261904D01*
X52885714Y-64357142D02*
X53552380Y-64357142D01*
X52504761Y-64595238D02*
X53219047Y-64833333D01*
X53219047Y-64214285D01*
X52885714Y-63404761D02*
X53552380Y-63404761D01*
X52504761Y-63642857D02*
X53219047Y-63880952D01*
X53219047Y-63261904D01*
X52885714Y-62452380D02*
X53552380Y-62452380D01*
X52504761Y-62690476D02*
X53219047Y-62928571D01*
X53219047Y-62309523D01*
X52980952Y-61785714D02*
X52933333Y-61880952D01*
X52885714Y-61928571D01*
X52790476Y-61976190D01*
X52742857Y-61976190D01*
X52647619Y-61928571D01*
X52600000Y-61880952D01*
X52552380Y-61785714D01*
X52552380Y-61595238D01*
X52600000Y-61500000D01*
X52647619Y-61452380D01*
X52742857Y-61404761D01*
X52790476Y-61404761D01*
X52885714Y-61452380D01*
X52933333Y-61500000D01*
X52980952Y-61595238D01*
X52980952Y-61785714D01*
X53028571Y-61880952D01*
X53076190Y-61928571D01*
X53171428Y-61976190D01*
X53361904Y-61976190D01*
X53457142Y-61928571D01*
X53504761Y-61880952D01*
X53552380Y-61785714D01*
X53552380Y-61595238D01*
X53504761Y-61500000D01*
X53457142Y-61452380D01*
X53361904Y-61404761D01*
X53171428Y-61404761D01*
X53076190Y-61452380D01*
X53028571Y-61500000D01*
X52980952Y-61595238D01*
X52552380Y-61071428D02*
X53552380Y-60833333D01*
X52838095Y-60642857D01*
X53552380Y-60452380D01*
X52552380Y-60214285D01*
X53647619Y-59166666D02*
X53600000Y-59261904D01*
X53504761Y-59357142D01*
X53361904Y-59500000D01*
X53314285Y-59595238D01*
X53314285Y-59690476D01*
X53552380Y-59642857D02*
X53504761Y-59738095D01*
X53409523Y-59833333D01*
X53219047Y-59880952D01*
X52885714Y-59880952D01*
X52695238Y-59833333D01*
X52600000Y-59738095D01*
X52552380Y-59642857D01*
X52552380Y-59452380D01*
X52600000Y-59357142D01*
X52695238Y-59261904D01*
X52885714Y-59214285D01*
X53219047Y-59214285D01*
X53409523Y-59261904D01*
X53504761Y-59357142D01*
X53552380Y-59452380D01*
X53552380Y-59642857D01*
X53171428Y-58785714D02*
X53171428Y-58023809D01*
X52552380Y-57642857D02*
X52552380Y-56976190D01*
X53552380Y-57404761D01*
X53171428Y-56595238D02*
X53171428Y-55833333D01*
X53028571Y-55023809D02*
X53028571Y-55357142D01*
X53552380Y-55357142D02*
X52552380Y-55357142D01*
X52552380Y-54880952D01*
X49452380Y-61238095D02*
X48452380Y-61238095D01*
X48452380Y-61000000D01*
X48500000Y-60857142D01*
X48595238Y-60761904D01*
X48690476Y-60714285D01*
X48880952Y-60666666D01*
X49023809Y-60666666D01*
X49214285Y-60714285D01*
X49309523Y-60761904D01*
X49404761Y-60857142D01*
X49452380Y-61000000D01*
X49452380Y-61238095D01*
X48452380Y-59761904D02*
X48452380Y-60238095D01*
X48928571Y-60285714D01*
X48880952Y-60238095D01*
X48833333Y-60142857D01*
X48833333Y-59904761D01*
X48880952Y-59809523D01*
X48928571Y-59761904D01*
X49023809Y-59714285D01*
X49261904Y-59714285D01*
X49357142Y-59761904D01*
X49404761Y-59809523D01*
X49452380Y-59904761D01*
X49452380Y-60142857D01*
X49404761Y-60238095D01*
X49357142Y-60285714D01*
%TO.C,J1*%
X33714285Y-69607142D02*
X33666666Y-69654761D01*
X33523809Y-69702380D01*
X33428571Y-69702380D01*
X33285714Y-69654761D01*
X33190476Y-69559523D01*
X33142857Y-69464285D01*
X33095238Y-69273809D01*
X33095238Y-69130952D01*
X33142857Y-68940476D01*
X33190476Y-68845238D01*
X33285714Y-68750000D01*
X33428571Y-68702380D01*
X33523809Y-68702380D01*
X33666666Y-68750000D01*
X33714285Y-68797619D01*
X34285714Y-69702380D02*
X34190476Y-69654761D01*
X34142857Y-69607142D01*
X34095238Y-69511904D01*
X34095238Y-69226190D01*
X34142857Y-69130952D01*
X34190476Y-69083333D01*
X34285714Y-69035714D01*
X34428571Y-69035714D01*
X34523809Y-69083333D01*
X34571428Y-69130952D01*
X34619047Y-69226190D01*
X34619047Y-69511904D01*
X34571428Y-69607142D01*
X34523809Y-69654761D01*
X34428571Y-69702380D01*
X34285714Y-69702380D01*
X35047619Y-69035714D02*
X35047619Y-69702380D01*
X35047619Y-69130952D02*
X35095238Y-69083333D01*
X35190476Y-69035714D01*
X35333333Y-69035714D01*
X35428571Y-69083333D01*
X35476190Y-69178571D01*
X35476190Y-69702380D01*
X35952380Y-69035714D02*
X35952380Y-69702380D01*
X35952380Y-69130952D02*
X36000000Y-69083333D01*
X36095238Y-69035714D01*
X36238095Y-69035714D01*
X36333333Y-69083333D01*
X36380952Y-69178571D01*
X36380952Y-69702380D01*
X36619047Y-69797619D02*
X37380952Y-69797619D01*
X37809523Y-68702380D02*
X37904761Y-68702380D01*
X38000000Y-68750000D01*
X38047619Y-68797619D01*
X38095238Y-68892857D01*
X38142857Y-69083333D01*
X38142857Y-69321428D01*
X38095238Y-69511904D01*
X38047619Y-69607142D01*
X38000000Y-69654761D01*
X37904761Y-69702380D01*
X37809523Y-69702380D01*
X37714285Y-69654761D01*
X37666666Y-69607142D01*
X37619047Y-69511904D01*
X37571428Y-69321428D01*
X37571428Y-69083333D01*
X37619047Y-68892857D01*
X37666666Y-68797619D01*
X37714285Y-68750000D01*
X37809523Y-68702380D01*
X39095238Y-69702380D02*
X38523809Y-69702380D01*
X38809523Y-69702380D02*
X38809523Y-68702380D01*
X38714285Y-68845238D01*
X38619047Y-68940476D01*
X38523809Y-68988095D01*
X39428571Y-69702380D02*
X39952380Y-69035714D01*
X39428571Y-69035714D02*
X39952380Y-69702380D01*
X40523809Y-68702380D02*
X40619047Y-68702380D01*
X40714285Y-68750000D01*
X40761904Y-68797619D01*
X40809523Y-68892857D01*
X40857142Y-69083333D01*
X40857142Y-69321428D01*
X40809523Y-69511904D01*
X40761904Y-69607142D01*
X40714285Y-69654761D01*
X40619047Y-69702380D01*
X40523809Y-69702380D01*
X40428571Y-69654761D01*
X40380952Y-69607142D01*
X40333333Y-69511904D01*
X40285714Y-69321428D01*
X40285714Y-69083333D01*
X40333333Y-68892857D01*
X40380952Y-68797619D01*
X40428571Y-68750000D01*
X40523809Y-68702380D01*
X41809523Y-69702380D02*
X41238095Y-69702380D01*
X41523809Y-69702380D02*
X41523809Y-68702380D01*
X41428571Y-68845238D01*
X41333333Y-68940476D01*
X41238095Y-68988095D01*
X42000000Y-69797619D02*
X42761904Y-69797619D01*
X43333333Y-69178571D02*
X43000000Y-69178571D01*
X43000000Y-69702380D02*
X43000000Y-68702380D01*
X43476190Y-68702380D01*
X44238095Y-69654761D02*
X44142857Y-69702380D01*
X43952380Y-69702380D01*
X43857142Y-69654761D01*
X43809523Y-69559523D01*
X43809523Y-69178571D01*
X43857142Y-69083333D01*
X43952380Y-69035714D01*
X44142857Y-69035714D01*
X44238095Y-69083333D01*
X44285714Y-69178571D01*
X44285714Y-69273809D01*
X43809523Y-69369047D01*
X44714285Y-69702380D02*
X44714285Y-69035714D01*
X44714285Y-69130952D02*
X44761904Y-69083333D01*
X44857142Y-69035714D01*
X45000000Y-69035714D01*
X45095238Y-69083333D01*
X45142857Y-69178571D01*
X45142857Y-69702380D01*
X45142857Y-69178571D02*
X45190476Y-69083333D01*
X45285714Y-69035714D01*
X45428571Y-69035714D01*
X45523809Y-69083333D01*
X45571428Y-69178571D01*
X45571428Y-69702380D01*
X46476190Y-69702380D02*
X46476190Y-69178571D01*
X46428571Y-69083333D01*
X46333333Y-69035714D01*
X46142857Y-69035714D01*
X46047619Y-69083333D01*
X46476190Y-69654761D02*
X46380952Y-69702380D01*
X46142857Y-69702380D01*
X46047619Y-69654761D01*
X46000000Y-69559523D01*
X46000000Y-69464285D01*
X46047619Y-69369047D01*
X46142857Y-69321428D01*
X46380952Y-69321428D01*
X46476190Y-69273809D01*
X47095238Y-69702380D02*
X47000000Y-69654761D01*
X46952380Y-69559523D01*
X46952380Y-68702380D01*
X47857142Y-69654761D02*
X47761904Y-69702380D01*
X47571428Y-69702380D01*
X47476190Y-69654761D01*
X47428571Y-69559523D01*
X47428571Y-69178571D01*
X47476190Y-69083333D01*
X47571428Y-69035714D01*
X47761904Y-69035714D01*
X47857142Y-69083333D01*
X47904761Y-69178571D01*
X47904761Y-69273809D01*
X47428571Y-69369047D01*
X40466666Y-65952380D02*
X40466666Y-66666666D01*
X40419047Y-66809523D01*
X40323809Y-66904761D01*
X40180952Y-66952380D01*
X40085714Y-66952380D01*
X41466666Y-66952380D02*
X40895238Y-66952380D01*
X41180952Y-66952380D02*
X41180952Y-65952380D01*
X41085714Y-66095238D01*
X40990476Y-66190476D01*
X40895238Y-66238095D01*
%TO.C,J2*%
X116214285Y-56607142D02*
X116166666Y-56654761D01*
X116023809Y-56702380D01*
X115928571Y-56702380D01*
X115785714Y-56654761D01*
X115690476Y-56559523D01*
X115642857Y-56464285D01*
X115595238Y-56273809D01*
X115595238Y-56130952D01*
X115642857Y-55940476D01*
X115690476Y-55845238D01*
X115785714Y-55750000D01*
X115928571Y-55702380D01*
X116023809Y-55702380D01*
X116166666Y-55750000D01*
X116214285Y-55797619D01*
X116785714Y-56702380D02*
X116690476Y-56654761D01*
X116642857Y-56607142D01*
X116595238Y-56511904D01*
X116595238Y-56226190D01*
X116642857Y-56130952D01*
X116690476Y-56083333D01*
X116785714Y-56035714D01*
X116928571Y-56035714D01*
X117023809Y-56083333D01*
X117071428Y-56130952D01*
X117119047Y-56226190D01*
X117119047Y-56511904D01*
X117071428Y-56607142D01*
X117023809Y-56654761D01*
X116928571Y-56702380D01*
X116785714Y-56702380D01*
X117547619Y-56035714D02*
X117547619Y-56702380D01*
X117547619Y-56130952D02*
X117595238Y-56083333D01*
X117690476Y-56035714D01*
X117833333Y-56035714D01*
X117928571Y-56083333D01*
X117976190Y-56178571D01*
X117976190Y-56702380D01*
X118452380Y-56035714D02*
X118452380Y-56702380D01*
X118452380Y-56130952D02*
X118500000Y-56083333D01*
X118595238Y-56035714D01*
X118738095Y-56035714D01*
X118833333Y-56083333D01*
X118880952Y-56178571D01*
X118880952Y-56702380D01*
X119119047Y-56797619D02*
X119880952Y-56797619D01*
X120309523Y-55702380D02*
X120404761Y-55702380D01*
X120500000Y-55750000D01*
X120547619Y-55797619D01*
X120595238Y-55892857D01*
X120642857Y-56083333D01*
X120642857Y-56321428D01*
X120595238Y-56511904D01*
X120547619Y-56607142D01*
X120500000Y-56654761D01*
X120404761Y-56702380D01*
X120309523Y-56702380D01*
X120214285Y-56654761D01*
X120166666Y-56607142D01*
X120119047Y-56511904D01*
X120071428Y-56321428D01*
X120071428Y-56083333D01*
X120119047Y-55892857D01*
X120166666Y-55797619D01*
X120214285Y-55750000D01*
X120309523Y-55702380D01*
X121595238Y-56702380D02*
X121023809Y-56702380D01*
X121309523Y-56702380D02*
X121309523Y-55702380D01*
X121214285Y-55845238D01*
X121119047Y-55940476D01*
X121023809Y-55988095D01*
X121928571Y-56702380D02*
X122452380Y-56035714D01*
X121928571Y-56035714D02*
X122452380Y-56702380D01*
X123023809Y-55702380D02*
X123119047Y-55702380D01*
X123214285Y-55750000D01*
X123261904Y-55797619D01*
X123309523Y-55892857D01*
X123357142Y-56083333D01*
X123357142Y-56321428D01*
X123309523Y-56511904D01*
X123261904Y-56607142D01*
X123214285Y-56654761D01*
X123119047Y-56702380D01*
X123023809Y-56702380D01*
X122928571Y-56654761D01*
X122880952Y-56607142D01*
X122833333Y-56511904D01*
X122785714Y-56321428D01*
X122785714Y-56083333D01*
X122833333Y-55892857D01*
X122880952Y-55797619D01*
X122928571Y-55750000D01*
X123023809Y-55702380D01*
X124309523Y-56702380D02*
X123738095Y-56702380D01*
X124023809Y-56702380D02*
X124023809Y-55702380D01*
X123928571Y-55845238D01*
X123833333Y-55940476D01*
X123738095Y-55988095D01*
X124500000Y-56797619D02*
X125261904Y-56797619D01*
X125833333Y-56178571D02*
X125500000Y-56178571D01*
X125500000Y-56702380D02*
X125500000Y-55702380D01*
X125976190Y-55702380D01*
X126738095Y-56654761D02*
X126642857Y-56702380D01*
X126452380Y-56702380D01*
X126357142Y-56654761D01*
X126309523Y-56559523D01*
X126309523Y-56178571D01*
X126357142Y-56083333D01*
X126452380Y-56035714D01*
X126642857Y-56035714D01*
X126738095Y-56083333D01*
X126785714Y-56178571D01*
X126785714Y-56273809D01*
X126309523Y-56369047D01*
X127214285Y-56702380D02*
X127214285Y-56035714D01*
X127214285Y-56130952D02*
X127261904Y-56083333D01*
X127357142Y-56035714D01*
X127500000Y-56035714D01*
X127595238Y-56083333D01*
X127642857Y-56178571D01*
X127642857Y-56702380D01*
X127642857Y-56178571D02*
X127690476Y-56083333D01*
X127785714Y-56035714D01*
X127928571Y-56035714D01*
X128023809Y-56083333D01*
X128071428Y-56178571D01*
X128071428Y-56702380D01*
X128976190Y-56702380D02*
X128976190Y-56178571D01*
X128928571Y-56083333D01*
X128833333Y-56035714D01*
X128642857Y-56035714D01*
X128547619Y-56083333D01*
X128976190Y-56654761D02*
X128880952Y-56702380D01*
X128642857Y-56702380D01*
X128547619Y-56654761D01*
X128500000Y-56559523D01*
X128500000Y-56464285D01*
X128547619Y-56369047D01*
X128642857Y-56321428D01*
X128880952Y-56321428D01*
X128976190Y-56273809D01*
X129595238Y-56702380D02*
X129500000Y-56654761D01*
X129452380Y-56559523D01*
X129452380Y-55702380D01*
X130357142Y-56654761D02*
X130261904Y-56702380D01*
X130071428Y-56702380D01*
X129976190Y-56654761D01*
X129928571Y-56559523D01*
X129928571Y-56178571D01*
X129976190Y-56083333D01*
X130071428Y-56035714D01*
X130261904Y-56035714D01*
X130357142Y-56083333D01*
X130404761Y-56178571D01*
X130404761Y-56273809D01*
X129928571Y-56369047D01*
X122966666Y-52952380D02*
X122966666Y-53666666D01*
X122919047Y-53809523D01*
X122823809Y-53904761D01*
X122680952Y-53952380D01*
X122585714Y-53952380D01*
X123395238Y-53047619D02*
X123442857Y-53000000D01*
X123538095Y-52952380D01*
X123776190Y-52952380D01*
X123871428Y-53000000D01*
X123919047Y-53047619D01*
X123966666Y-53142857D01*
X123966666Y-53238095D01*
X123919047Y-53380952D01*
X123347619Y-53952380D01*
X123966666Y-53952380D01*
%TO.C,J3*%
X116214285Y-63607142D02*
X116166666Y-63654761D01*
X116023809Y-63702380D01*
X115928571Y-63702380D01*
X115785714Y-63654761D01*
X115690476Y-63559523D01*
X115642857Y-63464285D01*
X115595238Y-63273809D01*
X115595238Y-63130952D01*
X115642857Y-62940476D01*
X115690476Y-62845238D01*
X115785714Y-62750000D01*
X115928571Y-62702380D01*
X116023809Y-62702380D01*
X116166666Y-62750000D01*
X116214285Y-62797619D01*
X116785714Y-63702380D02*
X116690476Y-63654761D01*
X116642857Y-63607142D01*
X116595238Y-63511904D01*
X116595238Y-63226190D01*
X116642857Y-63130952D01*
X116690476Y-63083333D01*
X116785714Y-63035714D01*
X116928571Y-63035714D01*
X117023809Y-63083333D01*
X117071428Y-63130952D01*
X117119047Y-63226190D01*
X117119047Y-63511904D01*
X117071428Y-63607142D01*
X117023809Y-63654761D01*
X116928571Y-63702380D01*
X116785714Y-63702380D01*
X117547619Y-63035714D02*
X117547619Y-63702380D01*
X117547619Y-63130952D02*
X117595238Y-63083333D01*
X117690476Y-63035714D01*
X117833333Y-63035714D01*
X117928571Y-63083333D01*
X117976190Y-63178571D01*
X117976190Y-63702380D01*
X118452380Y-63035714D02*
X118452380Y-63702380D01*
X118452380Y-63130952D02*
X118500000Y-63083333D01*
X118595238Y-63035714D01*
X118738095Y-63035714D01*
X118833333Y-63083333D01*
X118880952Y-63178571D01*
X118880952Y-63702380D01*
X119119047Y-63797619D02*
X119880952Y-63797619D01*
X120309523Y-62702380D02*
X120404761Y-62702380D01*
X120500000Y-62750000D01*
X120547619Y-62797619D01*
X120595238Y-62892857D01*
X120642857Y-63083333D01*
X120642857Y-63321428D01*
X120595238Y-63511904D01*
X120547619Y-63607142D01*
X120500000Y-63654761D01*
X120404761Y-63702380D01*
X120309523Y-63702380D01*
X120214285Y-63654761D01*
X120166666Y-63607142D01*
X120119047Y-63511904D01*
X120071428Y-63321428D01*
X120071428Y-63083333D01*
X120119047Y-62892857D01*
X120166666Y-62797619D01*
X120214285Y-62750000D01*
X120309523Y-62702380D01*
X121595238Y-63702380D02*
X121023809Y-63702380D01*
X121309523Y-63702380D02*
X121309523Y-62702380D01*
X121214285Y-62845238D01*
X121119047Y-62940476D01*
X121023809Y-62988095D01*
X121928571Y-63702380D02*
X122452380Y-63035714D01*
X121928571Y-63035714D02*
X122452380Y-63702380D01*
X123023809Y-62702380D02*
X123119047Y-62702380D01*
X123214285Y-62750000D01*
X123261904Y-62797619D01*
X123309523Y-62892857D01*
X123357142Y-63083333D01*
X123357142Y-63321428D01*
X123309523Y-63511904D01*
X123261904Y-63607142D01*
X123214285Y-63654761D01*
X123119047Y-63702380D01*
X123023809Y-63702380D01*
X122928571Y-63654761D01*
X122880952Y-63607142D01*
X122833333Y-63511904D01*
X122785714Y-63321428D01*
X122785714Y-63083333D01*
X122833333Y-62892857D01*
X122880952Y-62797619D01*
X122928571Y-62750000D01*
X123023809Y-62702380D01*
X124309523Y-63702380D02*
X123738095Y-63702380D01*
X124023809Y-63702380D02*
X124023809Y-62702380D01*
X123928571Y-62845238D01*
X123833333Y-62940476D01*
X123738095Y-62988095D01*
X124500000Y-63797619D02*
X125261904Y-63797619D01*
X125833333Y-63178571D02*
X125500000Y-63178571D01*
X125500000Y-63702380D02*
X125500000Y-62702380D01*
X125976190Y-62702380D01*
X126738095Y-63654761D02*
X126642857Y-63702380D01*
X126452380Y-63702380D01*
X126357142Y-63654761D01*
X126309523Y-63559523D01*
X126309523Y-63178571D01*
X126357142Y-63083333D01*
X126452380Y-63035714D01*
X126642857Y-63035714D01*
X126738095Y-63083333D01*
X126785714Y-63178571D01*
X126785714Y-63273809D01*
X126309523Y-63369047D01*
X127214285Y-63702380D02*
X127214285Y-63035714D01*
X127214285Y-63130952D02*
X127261904Y-63083333D01*
X127357142Y-63035714D01*
X127500000Y-63035714D01*
X127595238Y-63083333D01*
X127642857Y-63178571D01*
X127642857Y-63702380D01*
X127642857Y-63178571D02*
X127690476Y-63083333D01*
X127785714Y-63035714D01*
X127928571Y-63035714D01*
X128023809Y-63083333D01*
X128071428Y-63178571D01*
X128071428Y-63702380D01*
X128976190Y-63702380D02*
X128976190Y-63178571D01*
X128928571Y-63083333D01*
X128833333Y-63035714D01*
X128642857Y-63035714D01*
X128547619Y-63083333D01*
X128976190Y-63654761D02*
X128880952Y-63702380D01*
X128642857Y-63702380D01*
X128547619Y-63654761D01*
X128500000Y-63559523D01*
X128500000Y-63464285D01*
X128547619Y-63369047D01*
X128642857Y-63321428D01*
X128880952Y-63321428D01*
X128976190Y-63273809D01*
X129595238Y-63702380D02*
X129500000Y-63654761D01*
X129452380Y-63559523D01*
X129452380Y-62702380D01*
X130357142Y-63654761D02*
X130261904Y-63702380D01*
X130071428Y-63702380D01*
X129976190Y-63654761D01*
X129928571Y-63559523D01*
X129928571Y-63178571D01*
X129976190Y-63083333D01*
X130071428Y-63035714D01*
X130261904Y-63035714D01*
X130357142Y-63083333D01*
X130404761Y-63178571D01*
X130404761Y-63273809D01*
X129928571Y-63369047D01*
X122966666Y-59952380D02*
X122966666Y-60666666D01*
X122919047Y-60809523D01*
X122823809Y-60904761D01*
X122680952Y-60952380D01*
X122585714Y-60952380D01*
X123347619Y-59952380D02*
X123966666Y-59952380D01*
X123633333Y-60333333D01*
X123776190Y-60333333D01*
X123871428Y-60380952D01*
X123919047Y-60428571D01*
X123966666Y-60523809D01*
X123966666Y-60761904D01*
X123919047Y-60857142D01*
X123871428Y-60904761D01*
X123776190Y-60952380D01*
X123490476Y-60952380D01*
X123395238Y-60904761D01*
X123347619Y-60857142D01*
%TO.C,J4*%
X116214285Y-69607142D02*
X116166666Y-69654761D01*
X116023809Y-69702380D01*
X115928571Y-69702380D01*
X115785714Y-69654761D01*
X115690476Y-69559523D01*
X115642857Y-69464285D01*
X115595238Y-69273809D01*
X115595238Y-69130952D01*
X115642857Y-68940476D01*
X115690476Y-68845238D01*
X115785714Y-68750000D01*
X115928571Y-68702380D01*
X116023809Y-68702380D01*
X116166666Y-68750000D01*
X116214285Y-68797619D01*
X116785714Y-69702380D02*
X116690476Y-69654761D01*
X116642857Y-69607142D01*
X116595238Y-69511904D01*
X116595238Y-69226190D01*
X116642857Y-69130952D01*
X116690476Y-69083333D01*
X116785714Y-69035714D01*
X116928571Y-69035714D01*
X117023809Y-69083333D01*
X117071428Y-69130952D01*
X117119047Y-69226190D01*
X117119047Y-69511904D01*
X117071428Y-69607142D01*
X117023809Y-69654761D01*
X116928571Y-69702380D01*
X116785714Y-69702380D01*
X117547619Y-69035714D02*
X117547619Y-69702380D01*
X117547619Y-69130952D02*
X117595238Y-69083333D01*
X117690476Y-69035714D01*
X117833333Y-69035714D01*
X117928571Y-69083333D01*
X117976190Y-69178571D01*
X117976190Y-69702380D01*
X118452380Y-69035714D02*
X118452380Y-69702380D01*
X118452380Y-69130952D02*
X118500000Y-69083333D01*
X118595238Y-69035714D01*
X118738095Y-69035714D01*
X118833333Y-69083333D01*
X118880952Y-69178571D01*
X118880952Y-69702380D01*
X119119047Y-69797619D02*
X119880952Y-69797619D01*
X120309523Y-68702380D02*
X120404761Y-68702380D01*
X120500000Y-68750000D01*
X120547619Y-68797619D01*
X120595238Y-68892857D01*
X120642857Y-69083333D01*
X120642857Y-69321428D01*
X120595238Y-69511904D01*
X120547619Y-69607142D01*
X120500000Y-69654761D01*
X120404761Y-69702380D01*
X120309523Y-69702380D01*
X120214285Y-69654761D01*
X120166666Y-69607142D01*
X120119047Y-69511904D01*
X120071428Y-69321428D01*
X120071428Y-69083333D01*
X120119047Y-68892857D01*
X120166666Y-68797619D01*
X120214285Y-68750000D01*
X120309523Y-68702380D01*
X121595238Y-69702380D02*
X121023809Y-69702380D01*
X121309523Y-69702380D02*
X121309523Y-68702380D01*
X121214285Y-68845238D01*
X121119047Y-68940476D01*
X121023809Y-68988095D01*
X121928571Y-69702380D02*
X122452380Y-69035714D01*
X121928571Y-69035714D02*
X122452380Y-69702380D01*
X123023809Y-68702380D02*
X123119047Y-68702380D01*
X123214285Y-68750000D01*
X123261904Y-68797619D01*
X123309523Y-68892857D01*
X123357142Y-69083333D01*
X123357142Y-69321428D01*
X123309523Y-69511904D01*
X123261904Y-69607142D01*
X123214285Y-69654761D01*
X123119047Y-69702380D01*
X123023809Y-69702380D01*
X122928571Y-69654761D01*
X122880952Y-69607142D01*
X122833333Y-69511904D01*
X122785714Y-69321428D01*
X122785714Y-69083333D01*
X122833333Y-68892857D01*
X122880952Y-68797619D01*
X122928571Y-68750000D01*
X123023809Y-68702380D01*
X124309523Y-69702380D02*
X123738095Y-69702380D01*
X124023809Y-69702380D02*
X124023809Y-68702380D01*
X123928571Y-68845238D01*
X123833333Y-68940476D01*
X123738095Y-68988095D01*
X124500000Y-69797619D02*
X125261904Y-69797619D01*
X125833333Y-69178571D02*
X125500000Y-69178571D01*
X125500000Y-69702380D02*
X125500000Y-68702380D01*
X125976190Y-68702380D01*
X126738095Y-69654761D02*
X126642857Y-69702380D01*
X126452380Y-69702380D01*
X126357142Y-69654761D01*
X126309523Y-69559523D01*
X126309523Y-69178571D01*
X126357142Y-69083333D01*
X126452380Y-69035714D01*
X126642857Y-69035714D01*
X126738095Y-69083333D01*
X126785714Y-69178571D01*
X126785714Y-69273809D01*
X126309523Y-69369047D01*
X127214285Y-69702380D02*
X127214285Y-69035714D01*
X127214285Y-69130952D02*
X127261904Y-69083333D01*
X127357142Y-69035714D01*
X127500000Y-69035714D01*
X127595238Y-69083333D01*
X127642857Y-69178571D01*
X127642857Y-69702380D01*
X127642857Y-69178571D02*
X127690476Y-69083333D01*
X127785714Y-69035714D01*
X127928571Y-69035714D01*
X128023809Y-69083333D01*
X128071428Y-69178571D01*
X128071428Y-69702380D01*
X128976190Y-69702380D02*
X128976190Y-69178571D01*
X128928571Y-69083333D01*
X128833333Y-69035714D01*
X128642857Y-69035714D01*
X128547619Y-69083333D01*
X128976190Y-69654761D02*
X128880952Y-69702380D01*
X128642857Y-69702380D01*
X128547619Y-69654761D01*
X128500000Y-69559523D01*
X128500000Y-69464285D01*
X128547619Y-69369047D01*
X128642857Y-69321428D01*
X128880952Y-69321428D01*
X128976190Y-69273809D01*
X129595238Y-69702380D02*
X129500000Y-69654761D01*
X129452380Y-69559523D01*
X129452380Y-68702380D01*
X130357142Y-69654761D02*
X130261904Y-69702380D01*
X130071428Y-69702380D01*
X129976190Y-69654761D01*
X129928571Y-69559523D01*
X129928571Y-69178571D01*
X129976190Y-69083333D01*
X130071428Y-69035714D01*
X130261904Y-69035714D01*
X130357142Y-69083333D01*
X130404761Y-69178571D01*
X130404761Y-69273809D01*
X129928571Y-69369047D01*
X122966666Y-65952380D02*
X122966666Y-66666666D01*
X122919047Y-66809523D01*
X122823809Y-66904761D01*
X122680952Y-66952380D01*
X122585714Y-66952380D01*
X123871428Y-66285714D02*
X123871428Y-66952380D01*
X123633333Y-65904761D02*
X123395238Y-66619047D01*
X124014285Y-66619047D01*
%TO.C,J6*%
X33714285Y-41107142D02*
X33666666Y-41154761D01*
X33523809Y-41202380D01*
X33428571Y-41202380D01*
X33285714Y-41154761D01*
X33190476Y-41059523D01*
X33142857Y-40964285D01*
X33095238Y-40773809D01*
X33095238Y-40630952D01*
X33142857Y-40440476D01*
X33190476Y-40345238D01*
X33285714Y-40250000D01*
X33428571Y-40202380D01*
X33523809Y-40202380D01*
X33666666Y-40250000D01*
X33714285Y-40297619D01*
X34285714Y-41202380D02*
X34190476Y-41154761D01*
X34142857Y-41107142D01*
X34095238Y-41011904D01*
X34095238Y-40726190D01*
X34142857Y-40630952D01*
X34190476Y-40583333D01*
X34285714Y-40535714D01*
X34428571Y-40535714D01*
X34523809Y-40583333D01*
X34571428Y-40630952D01*
X34619047Y-40726190D01*
X34619047Y-41011904D01*
X34571428Y-41107142D01*
X34523809Y-41154761D01*
X34428571Y-41202380D01*
X34285714Y-41202380D01*
X35047619Y-40535714D02*
X35047619Y-41202380D01*
X35047619Y-40630952D02*
X35095238Y-40583333D01*
X35190476Y-40535714D01*
X35333333Y-40535714D01*
X35428571Y-40583333D01*
X35476190Y-40678571D01*
X35476190Y-41202380D01*
X35952380Y-40535714D02*
X35952380Y-41202380D01*
X35952380Y-40630952D02*
X36000000Y-40583333D01*
X36095238Y-40535714D01*
X36238095Y-40535714D01*
X36333333Y-40583333D01*
X36380952Y-40678571D01*
X36380952Y-41202380D01*
X36619047Y-41297619D02*
X37380952Y-41297619D01*
X37809523Y-40202380D02*
X37904761Y-40202380D01*
X38000000Y-40250000D01*
X38047619Y-40297619D01*
X38095238Y-40392857D01*
X38142857Y-40583333D01*
X38142857Y-40821428D01*
X38095238Y-41011904D01*
X38047619Y-41107142D01*
X38000000Y-41154761D01*
X37904761Y-41202380D01*
X37809523Y-41202380D01*
X37714285Y-41154761D01*
X37666666Y-41107142D01*
X37619047Y-41011904D01*
X37571428Y-40821428D01*
X37571428Y-40583333D01*
X37619047Y-40392857D01*
X37666666Y-40297619D01*
X37714285Y-40250000D01*
X37809523Y-40202380D01*
X39095238Y-41202380D02*
X38523809Y-41202380D01*
X38809523Y-41202380D02*
X38809523Y-40202380D01*
X38714285Y-40345238D01*
X38619047Y-40440476D01*
X38523809Y-40488095D01*
X39428571Y-41202380D02*
X39952380Y-40535714D01*
X39428571Y-40535714D02*
X39952380Y-41202380D01*
X40523809Y-40202380D02*
X40619047Y-40202380D01*
X40714285Y-40250000D01*
X40761904Y-40297619D01*
X40809523Y-40392857D01*
X40857142Y-40583333D01*
X40857142Y-40821428D01*
X40809523Y-41011904D01*
X40761904Y-41107142D01*
X40714285Y-41154761D01*
X40619047Y-41202380D01*
X40523809Y-41202380D01*
X40428571Y-41154761D01*
X40380952Y-41107142D01*
X40333333Y-41011904D01*
X40285714Y-40821428D01*
X40285714Y-40583333D01*
X40333333Y-40392857D01*
X40380952Y-40297619D01*
X40428571Y-40250000D01*
X40523809Y-40202380D01*
X41809523Y-41202380D02*
X41238095Y-41202380D01*
X41523809Y-41202380D02*
X41523809Y-40202380D01*
X41428571Y-40345238D01*
X41333333Y-40440476D01*
X41238095Y-40488095D01*
X42000000Y-41297619D02*
X42761904Y-41297619D01*
X43333333Y-40678571D02*
X43000000Y-40678571D01*
X43000000Y-41202380D02*
X43000000Y-40202380D01*
X43476190Y-40202380D01*
X44238095Y-41154761D02*
X44142857Y-41202380D01*
X43952380Y-41202380D01*
X43857142Y-41154761D01*
X43809523Y-41059523D01*
X43809523Y-40678571D01*
X43857142Y-40583333D01*
X43952380Y-40535714D01*
X44142857Y-40535714D01*
X44238095Y-40583333D01*
X44285714Y-40678571D01*
X44285714Y-40773809D01*
X43809523Y-40869047D01*
X44714285Y-41202380D02*
X44714285Y-40535714D01*
X44714285Y-40630952D02*
X44761904Y-40583333D01*
X44857142Y-40535714D01*
X45000000Y-40535714D01*
X45095238Y-40583333D01*
X45142857Y-40678571D01*
X45142857Y-41202380D01*
X45142857Y-40678571D02*
X45190476Y-40583333D01*
X45285714Y-40535714D01*
X45428571Y-40535714D01*
X45523809Y-40583333D01*
X45571428Y-40678571D01*
X45571428Y-41202380D01*
X46476190Y-41202380D02*
X46476190Y-40678571D01*
X46428571Y-40583333D01*
X46333333Y-40535714D01*
X46142857Y-40535714D01*
X46047619Y-40583333D01*
X46476190Y-41154761D02*
X46380952Y-41202380D01*
X46142857Y-41202380D01*
X46047619Y-41154761D01*
X46000000Y-41059523D01*
X46000000Y-40964285D01*
X46047619Y-40869047D01*
X46142857Y-40821428D01*
X46380952Y-40821428D01*
X46476190Y-40773809D01*
X47095238Y-41202380D02*
X47000000Y-41154761D01*
X46952380Y-41059523D01*
X46952380Y-40202380D01*
X47857142Y-41154761D02*
X47761904Y-41202380D01*
X47571428Y-41202380D01*
X47476190Y-41154761D01*
X47428571Y-41059523D01*
X47428571Y-40678571D01*
X47476190Y-40583333D01*
X47571428Y-40535714D01*
X47761904Y-40535714D01*
X47857142Y-40583333D01*
X47904761Y-40678571D01*
X47904761Y-40773809D01*
X47428571Y-40869047D01*
X40466666Y-37452380D02*
X40466666Y-38166666D01*
X40419047Y-38309523D01*
X40323809Y-38404761D01*
X40180952Y-38452380D01*
X40085714Y-38452380D01*
X41371428Y-37452380D02*
X41180952Y-37452380D01*
X41085714Y-37500000D01*
X41038095Y-37547619D01*
X40942857Y-37690476D01*
X40895238Y-37880952D01*
X40895238Y-38261904D01*
X40942857Y-38357142D01*
X40990476Y-38404761D01*
X41085714Y-38452380D01*
X41276190Y-38452380D01*
X41371428Y-38404761D01*
X41419047Y-38357142D01*
X41466666Y-38261904D01*
X41466666Y-38023809D01*
X41419047Y-37928571D01*
X41371428Y-37880952D01*
X41276190Y-37833333D01*
X41085714Y-37833333D01*
X40990476Y-37880952D01*
X40942857Y-37928571D01*
X40895238Y-38023809D01*
%TO.C,J7*%
X116214285Y-41107142D02*
X116166666Y-41154761D01*
X116023809Y-41202380D01*
X115928571Y-41202380D01*
X115785714Y-41154761D01*
X115690476Y-41059523D01*
X115642857Y-40964285D01*
X115595238Y-40773809D01*
X115595238Y-40630952D01*
X115642857Y-40440476D01*
X115690476Y-40345238D01*
X115785714Y-40250000D01*
X115928571Y-40202380D01*
X116023809Y-40202380D01*
X116166666Y-40250000D01*
X116214285Y-40297619D01*
X116785714Y-41202380D02*
X116690476Y-41154761D01*
X116642857Y-41107142D01*
X116595238Y-41011904D01*
X116595238Y-40726190D01*
X116642857Y-40630952D01*
X116690476Y-40583333D01*
X116785714Y-40535714D01*
X116928571Y-40535714D01*
X117023809Y-40583333D01*
X117071428Y-40630952D01*
X117119047Y-40726190D01*
X117119047Y-41011904D01*
X117071428Y-41107142D01*
X117023809Y-41154761D01*
X116928571Y-41202380D01*
X116785714Y-41202380D01*
X117547619Y-40535714D02*
X117547619Y-41202380D01*
X117547619Y-40630952D02*
X117595238Y-40583333D01*
X117690476Y-40535714D01*
X117833333Y-40535714D01*
X117928571Y-40583333D01*
X117976190Y-40678571D01*
X117976190Y-41202380D01*
X118452380Y-40535714D02*
X118452380Y-41202380D01*
X118452380Y-40630952D02*
X118500000Y-40583333D01*
X118595238Y-40535714D01*
X118738095Y-40535714D01*
X118833333Y-40583333D01*
X118880952Y-40678571D01*
X118880952Y-41202380D01*
X119119047Y-41297619D02*
X119880952Y-41297619D01*
X120309523Y-40202380D02*
X120404761Y-40202380D01*
X120500000Y-40250000D01*
X120547619Y-40297619D01*
X120595238Y-40392857D01*
X120642857Y-40583333D01*
X120642857Y-40821428D01*
X120595238Y-41011904D01*
X120547619Y-41107142D01*
X120500000Y-41154761D01*
X120404761Y-41202380D01*
X120309523Y-41202380D01*
X120214285Y-41154761D01*
X120166666Y-41107142D01*
X120119047Y-41011904D01*
X120071428Y-40821428D01*
X120071428Y-40583333D01*
X120119047Y-40392857D01*
X120166666Y-40297619D01*
X120214285Y-40250000D01*
X120309523Y-40202380D01*
X121595238Y-41202380D02*
X121023809Y-41202380D01*
X121309523Y-41202380D02*
X121309523Y-40202380D01*
X121214285Y-40345238D01*
X121119047Y-40440476D01*
X121023809Y-40488095D01*
X121928571Y-41202380D02*
X122452380Y-40535714D01*
X121928571Y-40535714D02*
X122452380Y-41202380D01*
X123023809Y-40202380D02*
X123119047Y-40202380D01*
X123214285Y-40250000D01*
X123261904Y-40297619D01*
X123309523Y-40392857D01*
X123357142Y-40583333D01*
X123357142Y-40821428D01*
X123309523Y-41011904D01*
X123261904Y-41107142D01*
X123214285Y-41154761D01*
X123119047Y-41202380D01*
X123023809Y-41202380D01*
X122928571Y-41154761D01*
X122880952Y-41107142D01*
X122833333Y-41011904D01*
X122785714Y-40821428D01*
X122785714Y-40583333D01*
X122833333Y-40392857D01*
X122880952Y-40297619D01*
X122928571Y-40250000D01*
X123023809Y-40202380D01*
X124309523Y-41202380D02*
X123738095Y-41202380D01*
X124023809Y-41202380D02*
X124023809Y-40202380D01*
X123928571Y-40345238D01*
X123833333Y-40440476D01*
X123738095Y-40488095D01*
X124500000Y-41297619D02*
X125261904Y-41297619D01*
X125833333Y-40678571D02*
X125500000Y-40678571D01*
X125500000Y-41202380D02*
X125500000Y-40202380D01*
X125976190Y-40202380D01*
X126738095Y-41154761D02*
X126642857Y-41202380D01*
X126452380Y-41202380D01*
X126357142Y-41154761D01*
X126309523Y-41059523D01*
X126309523Y-40678571D01*
X126357142Y-40583333D01*
X126452380Y-40535714D01*
X126642857Y-40535714D01*
X126738095Y-40583333D01*
X126785714Y-40678571D01*
X126785714Y-40773809D01*
X126309523Y-40869047D01*
X127214285Y-41202380D02*
X127214285Y-40535714D01*
X127214285Y-40630952D02*
X127261904Y-40583333D01*
X127357142Y-40535714D01*
X127500000Y-40535714D01*
X127595238Y-40583333D01*
X127642857Y-40678571D01*
X127642857Y-41202380D01*
X127642857Y-40678571D02*
X127690476Y-40583333D01*
X127785714Y-40535714D01*
X127928571Y-40535714D01*
X128023809Y-40583333D01*
X128071428Y-40678571D01*
X128071428Y-41202380D01*
X128976190Y-41202380D02*
X128976190Y-40678571D01*
X128928571Y-40583333D01*
X128833333Y-40535714D01*
X128642857Y-40535714D01*
X128547619Y-40583333D01*
X128976190Y-41154761D02*
X128880952Y-41202380D01*
X128642857Y-41202380D01*
X128547619Y-41154761D01*
X128500000Y-41059523D01*
X128500000Y-40964285D01*
X128547619Y-40869047D01*
X128642857Y-40821428D01*
X128880952Y-40821428D01*
X128976190Y-40773809D01*
X129595238Y-41202380D02*
X129500000Y-41154761D01*
X129452380Y-41059523D01*
X129452380Y-40202380D01*
X130357142Y-41154761D02*
X130261904Y-41202380D01*
X130071428Y-41202380D01*
X129976190Y-41154761D01*
X129928571Y-41059523D01*
X129928571Y-40678571D01*
X129976190Y-40583333D01*
X130071428Y-40535714D01*
X130261904Y-40535714D01*
X130357142Y-40583333D01*
X130404761Y-40678571D01*
X130404761Y-40773809D01*
X129928571Y-40869047D01*
X122966666Y-37452380D02*
X122966666Y-38166666D01*
X122919047Y-38309523D01*
X122823809Y-38404761D01*
X122680952Y-38452380D01*
X122585714Y-38452380D01*
X123347619Y-37452380D02*
X124014285Y-37452380D01*
X123585714Y-38452380D01*
%TO.C,J8*%
X116214285Y-81107142D02*
X116166666Y-81154761D01*
X116023809Y-81202380D01*
X115928571Y-81202380D01*
X115785714Y-81154761D01*
X115690476Y-81059523D01*
X115642857Y-80964285D01*
X115595238Y-80773809D01*
X115595238Y-80630952D01*
X115642857Y-80440476D01*
X115690476Y-80345238D01*
X115785714Y-80250000D01*
X115928571Y-80202380D01*
X116023809Y-80202380D01*
X116166666Y-80250000D01*
X116214285Y-80297619D01*
X116785714Y-81202380D02*
X116690476Y-81154761D01*
X116642857Y-81107142D01*
X116595238Y-81011904D01*
X116595238Y-80726190D01*
X116642857Y-80630952D01*
X116690476Y-80583333D01*
X116785714Y-80535714D01*
X116928571Y-80535714D01*
X117023809Y-80583333D01*
X117071428Y-80630952D01*
X117119047Y-80726190D01*
X117119047Y-81011904D01*
X117071428Y-81107142D01*
X117023809Y-81154761D01*
X116928571Y-81202380D01*
X116785714Y-81202380D01*
X117547619Y-80535714D02*
X117547619Y-81202380D01*
X117547619Y-80630952D02*
X117595238Y-80583333D01*
X117690476Y-80535714D01*
X117833333Y-80535714D01*
X117928571Y-80583333D01*
X117976190Y-80678571D01*
X117976190Y-81202380D01*
X118452380Y-80535714D02*
X118452380Y-81202380D01*
X118452380Y-80630952D02*
X118500000Y-80583333D01*
X118595238Y-80535714D01*
X118738095Y-80535714D01*
X118833333Y-80583333D01*
X118880952Y-80678571D01*
X118880952Y-81202380D01*
X119119047Y-81297619D02*
X119880952Y-81297619D01*
X120309523Y-80202380D02*
X120404761Y-80202380D01*
X120500000Y-80250000D01*
X120547619Y-80297619D01*
X120595238Y-80392857D01*
X120642857Y-80583333D01*
X120642857Y-80821428D01*
X120595238Y-81011904D01*
X120547619Y-81107142D01*
X120500000Y-81154761D01*
X120404761Y-81202380D01*
X120309523Y-81202380D01*
X120214285Y-81154761D01*
X120166666Y-81107142D01*
X120119047Y-81011904D01*
X120071428Y-80821428D01*
X120071428Y-80583333D01*
X120119047Y-80392857D01*
X120166666Y-80297619D01*
X120214285Y-80250000D01*
X120309523Y-80202380D01*
X121595238Y-81202380D02*
X121023809Y-81202380D01*
X121309523Y-81202380D02*
X121309523Y-80202380D01*
X121214285Y-80345238D01*
X121119047Y-80440476D01*
X121023809Y-80488095D01*
X121928571Y-81202380D02*
X122452380Y-80535714D01*
X121928571Y-80535714D02*
X122452380Y-81202380D01*
X123023809Y-80202380D02*
X123119047Y-80202380D01*
X123214285Y-80250000D01*
X123261904Y-80297619D01*
X123309523Y-80392857D01*
X123357142Y-80583333D01*
X123357142Y-80821428D01*
X123309523Y-81011904D01*
X123261904Y-81107142D01*
X123214285Y-81154761D01*
X123119047Y-81202380D01*
X123023809Y-81202380D01*
X122928571Y-81154761D01*
X122880952Y-81107142D01*
X122833333Y-81011904D01*
X122785714Y-80821428D01*
X122785714Y-80583333D01*
X122833333Y-80392857D01*
X122880952Y-80297619D01*
X122928571Y-80250000D01*
X123023809Y-80202380D01*
X124309523Y-81202380D02*
X123738095Y-81202380D01*
X124023809Y-81202380D02*
X124023809Y-80202380D01*
X123928571Y-80345238D01*
X123833333Y-80440476D01*
X123738095Y-80488095D01*
X124500000Y-81297619D02*
X125261904Y-81297619D01*
X125833333Y-80678571D02*
X125500000Y-80678571D01*
X125500000Y-81202380D02*
X125500000Y-80202380D01*
X125976190Y-80202380D01*
X126738095Y-81154761D02*
X126642857Y-81202380D01*
X126452380Y-81202380D01*
X126357142Y-81154761D01*
X126309523Y-81059523D01*
X126309523Y-80678571D01*
X126357142Y-80583333D01*
X126452380Y-80535714D01*
X126642857Y-80535714D01*
X126738095Y-80583333D01*
X126785714Y-80678571D01*
X126785714Y-80773809D01*
X126309523Y-80869047D01*
X127214285Y-81202380D02*
X127214285Y-80535714D01*
X127214285Y-80630952D02*
X127261904Y-80583333D01*
X127357142Y-80535714D01*
X127500000Y-80535714D01*
X127595238Y-80583333D01*
X127642857Y-80678571D01*
X127642857Y-81202380D01*
X127642857Y-80678571D02*
X127690476Y-80583333D01*
X127785714Y-80535714D01*
X127928571Y-80535714D01*
X128023809Y-80583333D01*
X128071428Y-80678571D01*
X128071428Y-81202380D01*
X128976190Y-81202380D02*
X128976190Y-80678571D01*
X128928571Y-80583333D01*
X128833333Y-80535714D01*
X128642857Y-80535714D01*
X128547619Y-80583333D01*
X128976190Y-81154761D02*
X128880952Y-81202380D01*
X128642857Y-81202380D01*
X128547619Y-81154761D01*
X128500000Y-81059523D01*
X128500000Y-80964285D01*
X128547619Y-80869047D01*
X128642857Y-80821428D01*
X128880952Y-80821428D01*
X128976190Y-80773809D01*
X129595238Y-81202380D02*
X129500000Y-81154761D01*
X129452380Y-81059523D01*
X129452380Y-80202380D01*
X130357142Y-81154761D02*
X130261904Y-81202380D01*
X130071428Y-81202380D01*
X129976190Y-81154761D01*
X129928571Y-81059523D01*
X129928571Y-80678571D01*
X129976190Y-80583333D01*
X130071428Y-80535714D01*
X130261904Y-80535714D01*
X130357142Y-80583333D01*
X130404761Y-80678571D01*
X130404761Y-80773809D01*
X129928571Y-80869047D01*
X122966666Y-77452380D02*
X122966666Y-78166666D01*
X122919047Y-78309523D01*
X122823809Y-78404761D01*
X122680952Y-78452380D01*
X122585714Y-78452380D01*
X123585714Y-77880952D02*
X123490476Y-77833333D01*
X123442857Y-77785714D01*
X123395238Y-77690476D01*
X123395238Y-77642857D01*
X123442857Y-77547619D01*
X123490476Y-77500000D01*
X123585714Y-77452380D01*
X123776190Y-77452380D01*
X123871428Y-77500000D01*
X123919047Y-77547619D01*
X123966666Y-77642857D01*
X123966666Y-77690476D01*
X123919047Y-77785714D01*
X123871428Y-77833333D01*
X123776190Y-77880952D01*
X123585714Y-77880952D01*
X123490476Y-77928571D01*
X123442857Y-77976190D01*
X123395238Y-78071428D01*
X123395238Y-78261904D01*
X123442857Y-78357142D01*
X123490476Y-78404761D01*
X123585714Y-78452380D01*
X123776190Y-78452380D01*
X123871428Y-78404761D01*
X123919047Y-78357142D01*
X123966666Y-78261904D01*
X123966666Y-78071428D01*
X123919047Y-77976190D01*
X123871428Y-77928571D01*
X123776190Y-77880952D01*
%TO.C,J9*%
X33714285Y-81107142D02*
X33666666Y-81154761D01*
X33523809Y-81202380D01*
X33428571Y-81202380D01*
X33285714Y-81154761D01*
X33190476Y-81059523D01*
X33142857Y-80964285D01*
X33095238Y-80773809D01*
X33095238Y-80630952D01*
X33142857Y-80440476D01*
X33190476Y-80345238D01*
X33285714Y-80250000D01*
X33428571Y-80202380D01*
X33523809Y-80202380D01*
X33666666Y-80250000D01*
X33714285Y-80297619D01*
X34285714Y-81202380D02*
X34190476Y-81154761D01*
X34142857Y-81107142D01*
X34095238Y-81011904D01*
X34095238Y-80726190D01*
X34142857Y-80630952D01*
X34190476Y-80583333D01*
X34285714Y-80535714D01*
X34428571Y-80535714D01*
X34523809Y-80583333D01*
X34571428Y-80630952D01*
X34619047Y-80726190D01*
X34619047Y-81011904D01*
X34571428Y-81107142D01*
X34523809Y-81154761D01*
X34428571Y-81202380D01*
X34285714Y-81202380D01*
X35047619Y-80535714D02*
X35047619Y-81202380D01*
X35047619Y-80630952D02*
X35095238Y-80583333D01*
X35190476Y-80535714D01*
X35333333Y-80535714D01*
X35428571Y-80583333D01*
X35476190Y-80678571D01*
X35476190Y-81202380D01*
X35952380Y-80535714D02*
X35952380Y-81202380D01*
X35952380Y-80630952D02*
X36000000Y-80583333D01*
X36095238Y-80535714D01*
X36238095Y-80535714D01*
X36333333Y-80583333D01*
X36380952Y-80678571D01*
X36380952Y-81202380D01*
X36619047Y-81297619D02*
X37380952Y-81297619D01*
X37809523Y-80202380D02*
X37904761Y-80202380D01*
X38000000Y-80250000D01*
X38047619Y-80297619D01*
X38095238Y-80392857D01*
X38142857Y-80583333D01*
X38142857Y-80821428D01*
X38095238Y-81011904D01*
X38047619Y-81107142D01*
X38000000Y-81154761D01*
X37904761Y-81202380D01*
X37809523Y-81202380D01*
X37714285Y-81154761D01*
X37666666Y-81107142D01*
X37619047Y-81011904D01*
X37571428Y-80821428D01*
X37571428Y-80583333D01*
X37619047Y-80392857D01*
X37666666Y-80297619D01*
X37714285Y-80250000D01*
X37809523Y-80202380D01*
X39095238Y-81202380D02*
X38523809Y-81202380D01*
X38809523Y-81202380D02*
X38809523Y-80202380D01*
X38714285Y-80345238D01*
X38619047Y-80440476D01*
X38523809Y-80488095D01*
X39428571Y-81202380D02*
X39952380Y-80535714D01*
X39428571Y-80535714D02*
X39952380Y-81202380D01*
X40523809Y-80202380D02*
X40619047Y-80202380D01*
X40714285Y-80250000D01*
X40761904Y-80297619D01*
X40809523Y-80392857D01*
X40857142Y-80583333D01*
X40857142Y-80821428D01*
X40809523Y-81011904D01*
X40761904Y-81107142D01*
X40714285Y-81154761D01*
X40619047Y-81202380D01*
X40523809Y-81202380D01*
X40428571Y-81154761D01*
X40380952Y-81107142D01*
X40333333Y-81011904D01*
X40285714Y-80821428D01*
X40285714Y-80583333D01*
X40333333Y-80392857D01*
X40380952Y-80297619D01*
X40428571Y-80250000D01*
X40523809Y-80202380D01*
X41809523Y-81202380D02*
X41238095Y-81202380D01*
X41523809Y-81202380D02*
X41523809Y-80202380D01*
X41428571Y-80345238D01*
X41333333Y-80440476D01*
X41238095Y-80488095D01*
X42000000Y-81297619D02*
X42761904Y-81297619D01*
X43333333Y-80678571D02*
X43000000Y-80678571D01*
X43000000Y-81202380D02*
X43000000Y-80202380D01*
X43476190Y-80202380D01*
X44238095Y-81154761D02*
X44142857Y-81202380D01*
X43952380Y-81202380D01*
X43857142Y-81154761D01*
X43809523Y-81059523D01*
X43809523Y-80678571D01*
X43857142Y-80583333D01*
X43952380Y-80535714D01*
X44142857Y-80535714D01*
X44238095Y-80583333D01*
X44285714Y-80678571D01*
X44285714Y-80773809D01*
X43809523Y-80869047D01*
X44714285Y-81202380D02*
X44714285Y-80535714D01*
X44714285Y-80630952D02*
X44761904Y-80583333D01*
X44857142Y-80535714D01*
X45000000Y-80535714D01*
X45095238Y-80583333D01*
X45142857Y-80678571D01*
X45142857Y-81202380D01*
X45142857Y-80678571D02*
X45190476Y-80583333D01*
X45285714Y-80535714D01*
X45428571Y-80535714D01*
X45523809Y-80583333D01*
X45571428Y-80678571D01*
X45571428Y-81202380D01*
X46476190Y-81202380D02*
X46476190Y-80678571D01*
X46428571Y-80583333D01*
X46333333Y-80535714D01*
X46142857Y-80535714D01*
X46047619Y-80583333D01*
X46476190Y-81154761D02*
X46380952Y-81202380D01*
X46142857Y-81202380D01*
X46047619Y-81154761D01*
X46000000Y-81059523D01*
X46000000Y-80964285D01*
X46047619Y-80869047D01*
X46142857Y-80821428D01*
X46380952Y-80821428D01*
X46476190Y-80773809D01*
X47095238Y-81202380D02*
X47000000Y-81154761D01*
X46952380Y-81059523D01*
X46952380Y-80202380D01*
X47857142Y-81154761D02*
X47761904Y-81202380D01*
X47571428Y-81202380D01*
X47476190Y-81154761D01*
X47428571Y-81059523D01*
X47428571Y-80678571D01*
X47476190Y-80583333D01*
X47571428Y-80535714D01*
X47761904Y-80535714D01*
X47857142Y-80583333D01*
X47904761Y-80678571D01*
X47904761Y-80773809D01*
X47428571Y-80869047D01*
X40466666Y-77452380D02*
X40466666Y-78166666D01*
X40419047Y-78309523D01*
X40323809Y-78404761D01*
X40180952Y-78452380D01*
X40085714Y-78452380D01*
X40990476Y-78452380D02*
X41180952Y-78452380D01*
X41276190Y-78404761D01*
X41323809Y-78357142D01*
X41419047Y-78214285D01*
X41466666Y-78023809D01*
X41466666Y-77642857D01*
X41419047Y-77547619D01*
X41371428Y-77500000D01*
X41276190Y-77452380D01*
X41085714Y-77452380D01*
X40990476Y-77500000D01*
X40942857Y-77547619D01*
X40895238Y-77642857D01*
X40895238Y-77880952D01*
X40942857Y-77976190D01*
X40990476Y-78023809D01*
X41085714Y-78071428D01*
X41276190Y-78071428D01*
X41371428Y-78023809D01*
X41419047Y-77976190D01*
X41466666Y-77880952D01*
%TO.C,J10*%
X33714285Y-55107142D02*
X33666666Y-55154761D01*
X33523809Y-55202380D01*
X33428571Y-55202380D01*
X33285714Y-55154761D01*
X33190476Y-55059523D01*
X33142857Y-54964285D01*
X33095238Y-54773809D01*
X33095238Y-54630952D01*
X33142857Y-54440476D01*
X33190476Y-54345238D01*
X33285714Y-54250000D01*
X33428571Y-54202380D01*
X33523809Y-54202380D01*
X33666666Y-54250000D01*
X33714285Y-54297619D01*
X34285714Y-55202380D02*
X34190476Y-55154761D01*
X34142857Y-55107142D01*
X34095238Y-55011904D01*
X34095238Y-54726190D01*
X34142857Y-54630952D01*
X34190476Y-54583333D01*
X34285714Y-54535714D01*
X34428571Y-54535714D01*
X34523809Y-54583333D01*
X34571428Y-54630952D01*
X34619047Y-54726190D01*
X34619047Y-55011904D01*
X34571428Y-55107142D01*
X34523809Y-55154761D01*
X34428571Y-55202380D01*
X34285714Y-55202380D01*
X35047619Y-54535714D02*
X35047619Y-55202380D01*
X35047619Y-54630952D02*
X35095238Y-54583333D01*
X35190476Y-54535714D01*
X35333333Y-54535714D01*
X35428571Y-54583333D01*
X35476190Y-54678571D01*
X35476190Y-55202380D01*
X35952380Y-54535714D02*
X35952380Y-55202380D01*
X35952380Y-54630952D02*
X36000000Y-54583333D01*
X36095238Y-54535714D01*
X36238095Y-54535714D01*
X36333333Y-54583333D01*
X36380952Y-54678571D01*
X36380952Y-55202380D01*
X36619047Y-55297619D02*
X37380952Y-55297619D01*
X37809523Y-54202380D02*
X37904761Y-54202380D01*
X38000000Y-54250000D01*
X38047619Y-54297619D01*
X38095238Y-54392857D01*
X38142857Y-54583333D01*
X38142857Y-54821428D01*
X38095238Y-55011904D01*
X38047619Y-55107142D01*
X38000000Y-55154761D01*
X37904761Y-55202380D01*
X37809523Y-55202380D01*
X37714285Y-55154761D01*
X37666666Y-55107142D01*
X37619047Y-55011904D01*
X37571428Y-54821428D01*
X37571428Y-54583333D01*
X37619047Y-54392857D01*
X37666666Y-54297619D01*
X37714285Y-54250000D01*
X37809523Y-54202380D01*
X39095238Y-55202380D02*
X38523809Y-55202380D01*
X38809523Y-55202380D02*
X38809523Y-54202380D01*
X38714285Y-54345238D01*
X38619047Y-54440476D01*
X38523809Y-54488095D01*
X39428571Y-55202380D02*
X39952380Y-54535714D01*
X39428571Y-54535714D02*
X39952380Y-55202380D01*
X40523809Y-54202380D02*
X40619047Y-54202380D01*
X40714285Y-54250000D01*
X40761904Y-54297619D01*
X40809523Y-54392857D01*
X40857142Y-54583333D01*
X40857142Y-54821428D01*
X40809523Y-55011904D01*
X40761904Y-55107142D01*
X40714285Y-55154761D01*
X40619047Y-55202380D01*
X40523809Y-55202380D01*
X40428571Y-55154761D01*
X40380952Y-55107142D01*
X40333333Y-55011904D01*
X40285714Y-54821428D01*
X40285714Y-54583333D01*
X40333333Y-54392857D01*
X40380952Y-54297619D01*
X40428571Y-54250000D01*
X40523809Y-54202380D01*
X41809523Y-55202380D02*
X41238095Y-55202380D01*
X41523809Y-55202380D02*
X41523809Y-54202380D01*
X41428571Y-54345238D01*
X41333333Y-54440476D01*
X41238095Y-54488095D01*
X42000000Y-55297619D02*
X42761904Y-55297619D01*
X43333333Y-54678571D02*
X43000000Y-54678571D01*
X43000000Y-55202380D02*
X43000000Y-54202380D01*
X43476190Y-54202380D01*
X44238095Y-55154761D02*
X44142857Y-55202380D01*
X43952380Y-55202380D01*
X43857142Y-55154761D01*
X43809523Y-55059523D01*
X43809523Y-54678571D01*
X43857142Y-54583333D01*
X43952380Y-54535714D01*
X44142857Y-54535714D01*
X44238095Y-54583333D01*
X44285714Y-54678571D01*
X44285714Y-54773809D01*
X43809523Y-54869047D01*
X44714285Y-55202380D02*
X44714285Y-54535714D01*
X44714285Y-54630952D02*
X44761904Y-54583333D01*
X44857142Y-54535714D01*
X45000000Y-54535714D01*
X45095238Y-54583333D01*
X45142857Y-54678571D01*
X45142857Y-55202380D01*
X45142857Y-54678571D02*
X45190476Y-54583333D01*
X45285714Y-54535714D01*
X45428571Y-54535714D01*
X45523809Y-54583333D01*
X45571428Y-54678571D01*
X45571428Y-55202380D01*
X46476190Y-55202380D02*
X46476190Y-54678571D01*
X46428571Y-54583333D01*
X46333333Y-54535714D01*
X46142857Y-54535714D01*
X46047619Y-54583333D01*
X46476190Y-55154761D02*
X46380952Y-55202380D01*
X46142857Y-55202380D01*
X46047619Y-55154761D01*
X46000000Y-55059523D01*
X46000000Y-54964285D01*
X46047619Y-54869047D01*
X46142857Y-54821428D01*
X46380952Y-54821428D01*
X46476190Y-54773809D01*
X47095238Y-55202380D02*
X47000000Y-55154761D01*
X46952380Y-55059523D01*
X46952380Y-54202380D01*
X47857142Y-55154761D02*
X47761904Y-55202380D01*
X47571428Y-55202380D01*
X47476190Y-55154761D01*
X47428571Y-55059523D01*
X47428571Y-54678571D01*
X47476190Y-54583333D01*
X47571428Y-54535714D01*
X47761904Y-54535714D01*
X47857142Y-54583333D01*
X47904761Y-54678571D01*
X47904761Y-54773809D01*
X47428571Y-54869047D01*
X39990476Y-51452380D02*
X39990476Y-52166666D01*
X39942857Y-52309523D01*
X39847619Y-52404761D01*
X39704761Y-52452380D01*
X39609523Y-52452380D01*
X40990476Y-52452380D02*
X40419047Y-52452380D01*
X40704761Y-52452380D02*
X40704761Y-51452380D01*
X40609523Y-51595238D01*
X40514285Y-51690476D01*
X40419047Y-51738095D01*
X41609523Y-51452380D02*
X41704761Y-51452380D01*
X41800000Y-51500000D01*
X41847619Y-51547619D01*
X41895238Y-51642857D01*
X41942857Y-51833333D01*
X41942857Y-52071428D01*
X41895238Y-52261904D01*
X41847619Y-52357142D01*
X41800000Y-52404761D01*
X41704761Y-52452380D01*
X41609523Y-52452380D01*
X41514285Y-52404761D01*
X41466666Y-52357142D01*
X41419047Y-52261904D01*
X41371428Y-52071428D01*
X41371428Y-51833333D01*
X41419047Y-51642857D01*
X41466666Y-51547619D01*
X41514285Y-51500000D01*
X41609523Y-51452380D01*
%TO.C,J11*%
X33714285Y-62107142D02*
X33666666Y-62154761D01*
X33523809Y-62202380D01*
X33428571Y-62202380D01*
X33285714Y-62154761D01*
X33190476Y-62059523D01*
X33142857Y-61964285D01*
X33095238Y-61773809D01*
X33095238Y-61630952D01*
X33142857Y-61440476D01*
X33190476Y-61345238D01*
X33285714Y-61250000D01*
X33428571Y-61202380D01*
X33523809Y-61202380D01*
X33666666Y-61250000D01*
X33714285Y-61297619D01*
X34285714Y-62202380D02*
X34190476Y-62154761D01*
X34142857Y-62107142D01*
X34095238Y-62011904D01*
X34095238Y-61726190D01*
X34142857Y-61630952D01*
X34190476Y-61583333D01*
X34285714Y-61535714D01*
X34428571Y-61535714D01*
X34523809Y-61583333D01*
X34571428Y-61630952D01*
X34619047Y-61726190D01*
X34619047Y-62011904D01*
X34571428Y-62107142D01*
X34523809Y-62154761D01*
X34428571Y-62202380D01*
X34285714Y-62202380D01*
X35047619Y-61535714D02*
X35047619Y-62202380D01*
X35047619Y-61630952D02*
X35095238Y-61583333D01*
X35190476Y-61535714D01*
X35333333Y-61535714D01*
X35428571Y-61583333D01*
X35476190Y-61678571D01*
X35476190Y-62202380D01*
X35952380Y-61535714D02*
X35952380Y-62202380D01*
X35952380Y-61630952D02*
X36000000Y-61583333D01*
X36095238Y-61535714D01*
X36238095Y-61535714D01*
X36333333Y-61583333D01*
X36380952Y-61678571D01*
X36380952Y-62202380D01*
X36619047Y-62297619D02*
X37380952Y-62297619D01*
X37809523Y-61202380D02*
X37904761Y-61202380D01*
X38000000Y-61250000D01*
X38047619Y-61297619D01*
X38095238Y-61392857D01*
X38142857Y-61583333D01*
X38142857Y-61821428D01*
X38095238Y-62011904D01*
X38047619Y-62107142D01*
X38000000Y-62154761D01*
X37904761Y-62202380D01*
X37809523Y-62202380D01*
X37714285Y-62154761D01*
X37666666Y-62107142D01*
X37619047Y-62011904D01*
X37571428Y-61821428D01*
X37571428Y-61583333D01*
X37619047Y-61392857D01*
X37666666Y-61297619D01*
X37714285Y-61250000D01*
X37809523Y-61202380D01*
X39095238Y-62202380D02*
X38523809Y-62202380D01*
X38809523Y-62202380D02*
X38809523Y-61202380D01*
X38714285Y-61345238D01*
X38619047Y-61440476D01*
X38523809Y-61488095D01*
X39428571Y-62202380D02*
X39952380Y-61535714D01*
X39428571Y-61535714D02*
X39952380Y-62202380D01*
X40523809Y-61202380D02*
X40619047Y-61202380D01*
X40714285Y-61250000D01*
X40761904Y-61297619D01*
X40809523Y-61392857D01*
X40857142Y-61583333D01*
X40857142Y-61821428D01*
X40809523Y-62011904D01*
X40761904Y-62107142D01*
X40714285Y-62154761D01*
X40619047Y-62202380D01*
X40523809Y-62202380D01*
X40428571Y-62154761D01*
X40380952Y-62107142D01*
X40333333Y-62011904D01*
X40285714Y-61821428D01*
X40285714Y-61583333D01*
X40333333Y-61392857D01*
X40380952Y-61297619D01*
X40428571Y-61250000D01*
X40523809Y-61202380D01*
X41809523Y-62202380D02*
X41238095Y-62202380D01*
X41523809Y-62202380D02*
X41523809Y-61202380D01*
X41428571Y-61345238D01*
X41333333Y-61440476D01*
X41238095Y-61488095D01*
X42000000Y-62297619D02*
X42761904Y-62297619D01*
X43333333Y-61678571D02*
X43000000Y-61678571D01*
X43000000Y-62202380D02*
X43000000Y-61202380D01*
X43476190Y-61202380D01*
X44238095Y-62154761D02*
X44142857Y-62202380D01*
X43952380Y-62202380D01*
X43857142Y-62154761D01*
X43809523Y-62059523D01*
X43809523Y-61678571D01*
X43857142Y-61583333D01*
X43952380Y-61535714D01*
X44142857Y-61535714D01*
X44238095Y-61583333D01*
X44285714Y-61678571D01*
X44285714Y-61773809D01*
X43809523Y-61869047D01*
X44714285Y-62202380D02*
X44714285Y-61535714D01*
X44714285Y-61630952D02*
X44761904Y-61583333D01*
X44857142Y-61535714D01*
X45000000Y-61535714D01*
X45095238Y-61583333D01*
X45142857Y-61678571D01*
X45142857Y-62202380D01*
X45142857Y-61678571D02*
X45190476Y-61583333D01*
X45285714Y-61535714D01*
X45428571Y-61535714D01*
X45523809Y-61583333D01*
X45571428Y-61678571D01*
X45571428Y-62202380D01*
X46476190Y-62202380D02*
X46476190Y-61678571D01*
X46428571Y-61583333D01*
X46333333Y-61535714D01*
X46142857Y-61535714D01*
X46047619Y-61583333D01*
X46476190Y-62154761D02*
X46380952Y-62202380D01*
X46142857Y-62202380D01*
X46047619Y-62154761D01*
X46000000Y-62059523D01*
X46000000Y-61964285D01*
X46047619Y-61869047D01*
X46142857Y-61821428D01*
X46380952Y-61821428D01*
X46476190Y-61773809D01*
X47095238Y-62202380D02*
X47000000Y-62154761D01*
X46952380Y-62059523D01*
X46952380Y-61202380D01*
X47857142Y-62154761D02*
X47761904Y-62202380D01*
X47571428Y-62202380D01*
X47476190Y-62154761D01*
X47428571Y-62059523D01*
X47428571Y-61678571D01*
X47476190Y-61583333D01*
X47571428Y-61535714D01*
X47761904Y-61535714D01*
X47857142Y-61583333D01*
X47904761Y-61678571D01*
X47904761Y-61773809D01*
X47428571Y-61869047D01*
X39990476Y-58452380D02*
X39990476Y-59166666D01*
X39942857Y-59309523D01*
X39847619Y-59404761D01*
X39704761Y-59452380D01*
X39609523Y-59452380D01*
X40990476Y-59452380D02*
X40419047Y-59452380D01*
X40704761Y-59452380D02*
X40704761Y-58452380D01*
X40609523Y-58595238D01*
X40514285Y-58690476D01*
X40419047Y-58738095D01*
X41942857Y-59452380D02*
X41371428Y-59452380D01*
X41657142Y-59452380D02*
X41657142Y-58452380D01*
X41561904Y-58595238D01*
X41466666Y-58690476D01*
X41371428Y-58738095D01*
%TO.C,R1*%
X112333333Y-56382380D02*
X111761904Y-56382380D01*
X112047619Y-56382380D02*
X112047619Y-55382380D01*
X111952380Y-55525238D01*
X111857142Y-55620476D01*
X111761904Y-55668095D01*
X112952380Y-55382380D02*
X113047619Y-55382380D01*
X113142857Y-55430000D01*
X113190476Y-55477619D01*
X113238095Y-55572857D01*
X113285714Y-55763333D01*
X113285714Y-56001428D01*
X113238095Y-56191904D01*
X113190476Y-56287142D01*
X113142857Y-56334761D01*
X113047619Y-56382380D01*
X112952380Y-56382380D01*
X112857142Y-56334761D01*
X112809523Y-56287142D01*
X112761904Y-56191904D01*
X112714285Y-56001428D01*
X112714285Y-55763333D01*
X112761904Y-55572857D01*
X112809523Y-55477619D01*
X112857142Y-55430000D01*
X112952380Y-55382380D01*
X113904761Y-55382380D02*
X114000000Y-55382380D01*
X114095238Y-55430000D01*
X114142857Y-55477619D01*
X114190476Y-55572857D01*
X114238095Y-55763333D01*
X114238095Y-56001428D01*
X114190476Y-56191904D01*
X114142857Y-56287142D01*
X114095238Y-56334761D01*
X114000000Y-56382380D01*
X113904761Y-56382380D01*
X113809523Y-56334761D01*
X113761904Y-56287142D01*
X113714285Y-56191904D01*
X113666666Y-56001428D01*
X113666666Y-55763333D01*
X113714285Y-55572857D01*
X113761904Y-55477619D01*
X113809523Y-55430000D01*
X113904761Y-55382380D01*
D13*
X112933333Y-54680952D02*
X112800000Y-54490476D01*
X112704761Y-54680952D02*
X112704761Y-54280952D01*
X112857142Y-54280952D01*
X112895238Y-54300000D01*
X112914285Y-54319047D01*
X112933333Y-54357142D01*
X112933333Y-54414285D01*
X112914285Y-54452380D01*
X112895238Y-54471428D01*
X112857142Y-54490476D01*
X112704761Y-54490476D01*
X113314285Y-54680952D02*
X113085714Y-54680952D01*
X113200000Y-54680952D02*
X113200000Y-54280952D01*
X113161904Y-54338095D01*
X113123809Y-54376190D01*
X113085714Y-54395238D01*
%TO.C,R2*%
D11*
X73610714Y-42022380D02*
X73039285Y-42022380D01*
X73325000Y-42022380D02*
X73325000Y-41022380D01*
X73229761Y-41165238D01*
X73134523Y-41260476D01*
X73039285Y-41308095D01*
X74039285Y-42022380D02*
X74039285Y-41022380D01*
X74610714Y-42022380D02*
X74182142Y-41450952D01*
X74610714Y-41022380D02*
X74039285Y-41593809D01*
D13*
X73758333Y-43180952D02*
X73625000Y-42990476D01*
X73529761Y-43180952D02*
X73529761Y-42780952D01*
X73682142Y-42780952D01*
X73720238Y-42800000D01*
X73739285Y-42819047D01*
X73758333Y-42857142D01*
X73758333Y-42914285D01*
X73739285Y-42952380D01*
X73720238Y-42971428D01*
X73682142Y-42990476D01*
X73529761Y-42990476D01*
X73910714Y-42819047D02*
X73929761Y-42800000D01*
X73967857Y-42780952D01*
X74063095Y-42780952D01*
X74101190Y-42800000D01*
X74120238Y-42819047D01*
X74139285Y-42857142D01*
X74139285Y-42895238D01*
X74120238Y-42952380D01*
X73891666Y-43180952D01*
X74139285Y-43180952D01*
%TO.C,R3*%
D11*
X111976190Y-63215714D02*
X111976190Y-63882380D01*
X111738095Y-62834761D02*
X111500000Y-63549047D01*
X112119047Y-63549047D01*
X112500000Y-63787142D02*
X112547619Y-63834761D01*
X112500000Y-63882380D01*
X112452380Y-63834761D01*
X112500000Y-63787142D01*
X112500000Y-63882380D01*
X112880952Y-62882380D02*
X113547619Y-62882380D01*
X113119047Y-63882380D01*
X113928571Y-63882380D02*
X113928571Y-62882380D01*
X114500000Y-63882380D02*
X114071428Y-63310952D01*
X114500000Y-62882380D02*
X113928571Y-63453809D01*
D13*
X112933333Y-62180952D02*
X112800000Y-61990476D01*
X112704761Y-62180952D02*
X112704761Y-61780952D01*
X112857142Y-61780952D01*
X112895238Y-61800000D01*
X112914285Y-61819047D01*
X112933333Y-61857142D01*
X112933333Y-61914285D01*
X112914285Y-61952380D01*
X112895238Y-61971428D01*
X112857142Y-61990476D01*
X112704761Y-61990476D01*
X113066666Y-61780952D02*
X113314285Y-61780952D01*
X113180952Y-61933333D01*
X113238095Y-61933333D01*
X113276190Y-61952380D01*
X113295238Y-61971428D01*
X113314285Y-62009523D01*
X113314285Y-62104761D01*
X113295238Y-62142857D01*
X113276190Y-62161904D01*
X113238095Y-62180952D01*
X113123809Y-62180952D01*
X113085714Y-62161904D01*
X113066666Y-62142857D01*
%TO.C,R4*%
D11*
X118215714Y-66023809D02*
X118882380Y-66023809D01*
X117834761Y-66261904D02*
X118549047Y-66500000D01*
X118549047Y-65880952D01*
X118787142Y-65500000D02*
X118834761Y-65452380D01*
X118882380Y-65500000D01*
X118834761Y-65547619D01*
X118787142Y-65500000D01*
X118882380Y-65500000D01*
X117882380Y-65119047D02*
X117882380Y-64452380D01*
X118882380Y-64880952D01*
X118882380Y-64071428D02*
X117882380Y-64071428D01*
X118882380Y-63500000D02*
X118310952Y-63928571D01*
X117882380Y-63500000D02*
X118453809Y-64071428D01*
D13*
X117180952Y-65066666D02*
X116990476Y-65200000D01*
X117180952Y-65295238D02*
X116780952Y-65295238D01*
X116780952Y-65142857D01*
X116800000Y-65104761D01*
X116819047Y-65085714D01*
X116857142Y-65066666D01*
X116914285Y-65066666D01*
X116952380Y-65085714D01*
X116971428Y-65104761D01*
X116990476Y-65142857D01*
X116990476Y-65295238D01*
X116914285Y-64723809D02*
X117180952Y-64723809D01*
X116761904Y-64819047D02*
X117047619Y-64914285D01*
X117047619Y-64666666D01*
%TO.C,R5*%
D11*
X112238095Y-59715714D02*
X112238095Y-60382380D01*
X112000000Y-59334761D02*
X111761904Y-60049047D01*
X112380952Y-60049047D01*
X112666666Y-59382380D02*
X113333333Y-59382380D01*
X112904761Y-60382380D01*
X113904761Y-59382380D02*
X114000000Y-59382380D01*
X114095238Y-59430000D01*
X114142857Y-59477619D01*
X114190476Y-59572857D01*
X114238095Y-59763333D01*
X114238095Y-60001428D01*
X114190476Y-60191904D01*
X114142857Y-60287142D01*
X114095238Y-60334761D01*
X114000000Y-60382380D01*
X113904761Y-60382380D01*
X113809523Y-60334761D01*
X113761904Y-60287142D01*
X113714285Y-60191904D01*
X113666666Y-60001428D01*
X113666666Y-59763333D01*
X113714285Y-59572857D01*
X113761904Y-59477619D01*
X113809523Y-59430000D01*
X113904761Y-59382380D01*
D13*
X112933333Y-58680952D02*
X112800000Y-58490476D01*
X112704761Y-58680952D02*
X112704761Y-58280952D01*
X112857142Y-58280952D01*
X112895238Y-58300000D01*
X112914285Y-58319047D01*
X112933333Y-58357142D01*
X112933333Y-58414285D01*
X112914285Y-58452380D01*
X112895238Y-58471428D01*
X112857142Y-58490476D01*
X112704761Y-58490476D01*
X113295238Y-58280952D02*
X113104761Y-58280952D01*
X113085714Y-58471428D01*
X113104761Y-58452380D01*
X113142857Y-58433333D01*
X113238095Y-58433333D01*
X113276190Y-58452380D01*
X113295238Y-58471428D01*
X113314285Y-58509523D01*
X113314285Y-58604761D01*
X113295238Y-58642857D01*
X113276190Y-58661904D01*
X113238095Y-58680952D01*
X113142857Y-58680952D01*
X113104761Y-58661904D01*
X113085714Y-58642857D01*
%TO.C,R6*%
D11*
X50436904Y-49382380D02*
X49960714Y-49382380D01*
X49913095Y-49858571D01*
X49960714Y-49810952D01*
X50055952Y-49763333D01*
X50294047Y-49763333D01*
X50389285Y-49810952D01*
X50436904Y-49858571D01*
X50484523Y-49953809D01*
X50484523Y-50191904D01*
X50436904Y-50287142D01*
X50389285Y-50334761D01*
X50294047Y-50382380D01*
X50055952Y-50382380D01*
X49960714Y-50334761D01*
X49913095Y-50287142D01*
X51341666Y-49382380D02*
X51151190Y-49382380D01*
X51055952Y-49430000D01*
X51008333Y-49477619D01*
X50913095Y-49620476D01*
X50865476Y-49810952D01*
X50865476Y-50191904D01*
X50913095Y-50287142D01*
X50960714Y-50334761D01*
X51055952Y-50382380D01*
X51246428Y-50382380D01*
X51341666Y-50334761D01*
X51389285Y-50287142D01*
X51436904Y-50191904D01*
X51436904Y-49953809D01*
X51389285Y-49858571D01*
X51341666Y-49810952D01*
X51246428Y-49763333D01*
X51055952Y-49763333D01*
X50960714Y-49810952D01*
X50913095Y-49858571D01*
X50865476Y-49953809D01*
X51865476Y-50382380D02*
X51865476Y-49382380D01*
X52436904Y-50382380D02*
X52008333Y-49810952D01*
X52436904Y-49382380D02*
X51865476Y-49953809D01*
D13*
X51108333Y-48680952D02*
X50975000Y-48490476D01*
X50879761Y-48680952D02*
X50879761Y-48280952D01*
X51032142Y-48280952D01*
X51070238Y-48300000D01*
X51089285Y-48319047D01*
X51108333Y-48357142D01*
X51108333Y-48414285D01*
X51089285Y-48452380D01*
X51070238Y-48471428D01*
X51032142Y-48490476D01*
X50879761Y-48490476D01*
X51451190Y-48280952D02*
X51375000Y-48280952D01*
X51336904Y-48300000D01*
X51317857Y-48319047D01*
X51279761Y-48376190D01*
X51260714Y-48452380D01*
X51260714Y-48604761D01*
X51279761Y-48642857D01*
X51298809Y-48661904D01*
X51336904Y-48680952D01*
X51413095Y-48680952D01*
X51451190Y-48661904D01*
X51470238Y-48642857D01*
X51489285Y-48604761D01*
X51489285Y-48509523D01*
X51470238Y-48471428D01*
X51451190Y-48452380D01*
X51413095Y-48433333D01*
X51336904Y-48433333D01*
X51298809Y-48452380D01*
X51279761Y-48471428D01*
X51260714Y-48509523D01*
%TO.C,R8*%
D11*
X112238095Y-66715714D02*
X112238095Y-67382380D01*
X112000000Y-66334761D02*
X111761904Y-67049047D01*
X112380952Y-67049047D01*
X112666666Y-66382380D02*
X113333333Y-66382380D01*
X112904761Y-67382380D01*
X113904761Y-66382380D02*
X114000000Y-66382380D01*
X114095238Y-66430000D01*
X114142857Y-66477619D01*
X114190476Y-66572857D01*
X114238095Y-66763333D01*
X114238095Y-67001428D01*
X114190476Y-67191904D01*
X114142857Y-67287142D01*
X114095238Y-67334761D01*
X114000000Y-67382380D01*
X113904761Y-67382380D01*
X113809523Y-67334761D01*
X113761904Y-67287142D01*
X113714285Y-67191904D01*
X113666666Y-67001428D01*
X113666666Y-66763333D01*
X113714285Y-66572857D01*
X113761904Y-66477619D01*
X113809523Y-66430000D01*
X113904761Y-66382380D01*
D13*
X112933333Y-65680952D02*
X112800000Y-65490476D01*
X112704761Y-65680952D02*
X112704761Y-65280952D01*
X112857142Y-65280952D01*
X112895238Y-65300000D01*
X112914285Y-65319047D01*
X112933333Y-65357142D01*
X112933333Y-65414285D01*
X112914285Y-65452380D01*
X112895238Y-65471428D01*
X112857142Y-65490476D01*
X112704761Y-65490476D01*
X113161904Y-65452380D02*
X113123809Y-65433333D01*
X113104761Y-65414285D01*
X113085714Y-65376190D01*
X113085714Y-65357142D01*
X113104761Y-65319047D01*
X113123809Y-65300000D01*
X113161904Y-65280952D01*
X113238095Y-65280952D01*
X113276190Y-65300000D01*
X113295238Y-65319047D01*
X113314285Y-65357142D01*
X113314285Y-65376190D01*
X113295238Y-65414285D01*
X113276190Y-65433333D01*
X113238095Y-65452380D01*
X113161904Y-65452380D01*
X113123809Y-65471428D01*
X113104761Y-65490476D01*
X113085714Y-65528571D01*
X113085714Y-65604761D01*
X113104761Y-65642857D01*
X113123809Y-65661904D01*
X113161904Y-65680952D01*
X113238095Y-65680952D01*
X113276190Y-65661904D01*
X113295238Y-65642857D01*
X113314285Y-65604761D01*
X113314285Y-65528571D01*
X113295238Y-65490476D01*
X113276190Y-65471428D01*
X113238095Y-65452380D01*
%TO.C,R9*%
D11*
X47882380Y-62166666D02*
X47882380Y-62738095D01*
X47882380Y-62452380D02*
X46882380Y-62452380D01*
X47025238Y-62547619D01*
X47120476Y-62642857D01*
X47168095Y-62738095D01*
X46882380Y-61547619D02*
X46882380Y-61452380D01*
X46930000Y-61357142D01*
X46977619Y-61309523D01*
X47072857Y-61261904D01*
X47263333Y-61214285D01*
X47501428Y-61214285D01*
X47691904Y-61261904D01*
X47787142Y-61309523D01*
X47834761Y-61357142D01*
X47882380Y-61452380D01*
X47882380Y-61547619D01*
X47834761Y-61642857D01*
X47787142Y-61690476D01*
X47691904Y-61738095D01*
X47501428Y-61785714D01*
X47263333Y-61785714D01*
X47072857Y-61738095D01*
X46977619Y-61690476D01*
X46930000Y-61642857D01*
X46882380Y-61547619D01*
X46882380Y-60595238D02*
X46882380Y-60500000D01*
X46930000Y-60404761D01*
X46977619Y-60357142D01*
X47072857Y-60309523D01*
X47263333Y-60261904D01*
X47501428Y-60261904D01*
X47691904Y-60309523D01*
X47787142Y-60357142D01*
X47834761Y-60404761D01*
X47882380Y-60500000D01*
X47882380Y-60595238D01*
X47834761Y-60690476D01*
X47787142Y-60738095D01*
X47691904Y-60785714D01*
X47501428Y-60833333D01*
X47263333Y-60833333D01*
X47072857Y-60785714D01*
X46977619Y-60738095D01*
X46930000Y-60690476D01*
X46882380Y-60595238D01*
D13*
X46180952Y-61566666D02*
X45990476Y-61700000D01*
X46180952Y-61795238D02*
X45780952Y-61795238D01*
X45780952Y-61642857D01*
X45800000Y-61604761D01*
X45819047Y-61585714D01*
X45857142Y-61566666D01*
X45914285Y-61566666D01*
X45952380Y-61585714D01*
X45971428Y-61604761D01*
X45990476Y-61642857D01*
X45990476Y-61795238D01*
X46180952Y-61376190D02*
X46180952Y-61300000D01*
X46161904Y-61261904D01*
X46142857Y-61242857D01*
X46085714Y-61204761D01*
X46009523Y-61185714D01*
X45857142Y-61185714D01*
X45819047Y-61204761D01*
X45800000Y-61223809D01*
X45780952Y-61261904D01*
X45780952Y-61338095D01*
X45800000Y-61376190D01*
X45819047Y-61395238D01*
X45857142Y-61414285D01*
X45952380Y-61414285D01*
X45990476Y-61395238D01*
X46009523Y-61376190D01*
X46028571Y-61338095D01*
X46028571Y-61261904D01*
X46009523Y-61223809D01*
X45990476Y-61204761D01*
X45952380Y-61185714D01*
%TO.C,R10*%
D11*
X50086904Y-71382380D02*
X49610714Y-71382380D01*
X49563095Y-71858571D01*
X49610714Y-71810952D01*
X49705952Y-71763333D01*
X49944047Y-71763333D01*
X50039285Y-71810952D01*
X50086904Y-71858571D01*
X50134523Y-71953809D01*
X50134523Y-72191904D01*
X50086904Y-72287142D01*
X50039285Y-72334761D01*
X49944047Y-72382380D01*
X49705952Y-72382380D01*
X49610714Y-72334761D01*
X49563095Y-72287142D01*
X50991666Y-71382380D02*
X50801190Y-71382380D01*
X50705952Y-71430000D01*
X50658333Y-71477619D01*
X50563095Y-71620476D01*
X50515476Y-71810952D01*
X50515476Y-72191904D01*
X50563095Y-72287142D01*
X50610714Y-72334761D01*
X50705952Y-72382380D01*
X50896428Y-72382380D01*
X50991666Y-72334761D01*
X51039285Y-72287142D01*
X51086904Y-72191904D01*
X51086904Y-71953809D01*
X51039285Y-71858571D01*
X50991666Y-71810952D01*
X50896428Y-71763333D01*
X50705952Y-71763333D01*
X50610714Y-71810952D01*
X50563095Y-71858571D01*
X50515476Y-71953809D01*
X51515476Y-72382380D02*
X51515476Y-71382380D01*
X52086904Y-72382380D02*
X51658333Y-71810952D01*
X52086904Y-71382380D02*
X51515476Y-71953809D01*
D13*
X50567857Y-70680952D02*
X50434523Y-70490476D01*
X50339285Y-70680952D02*
X50339285Y-70280952D01*
X50491666Y-70280952D01*
X50529761Y-70300000D01*
X50548809Y-70319047D01*
X50567857Y-70357142D01*
X50567857Y-70414285D01*
X50548809Y-70452380D01*
X50529761Y-70471428D01*
X50491666Y-70490476D01*
X50339285Y-70490476D01*
X50948809Y-70680952D02*
X50720238Y-70680952D01*
X50834523Y-70680952D02*
X50834523Y-70280952D01*
X50796428Y-70338095D01*
X50758333Y-70376190D01*
X50720238Y-70395238D01*
X51196428Y-70280952D02*
X51234523Y-70280952D01*
X51272619Y-70300000D01*
X51291666Y-70319047D01*
X51310714Y-70357142D01*
X51329761Y-70433333D01*
X51329761Y-70528571D01*
X51310714Y-70604761D01*
X51291666Y-70642857D01*
X51272619Y-70661904D01*
X51234523Y-70680952D01*
X51196428Y-70680952D01*
X51158333Y-70661904D01*
X51139285Y-70642857D01*
X51120238Y-70604761D01*
X51101190Y-70528571D01*
X51101190Y-70433333D01*
X51120238Y-70357142D01*
X51139285Y-70319047D01*
X51158333Y-70300000D01*
X51196428Y-70280952D01*
%TO.C,R11*%
D11*
X47882380Y-53785714D02*
X47882380Y-54357142D01*
X47882380Y-54071428D02*
X46882380Y-54071428D01*
X47025238Y-54166666D01*
X47120476Y-54261904D01*
X47168095Y-54357142D01*
X47882380Y-53357142D02*
X46882380Y-53357142D01*
X47596666Y-53023809D01*
X46882380Y-52690476D01*
X47882380Y-52690476D01*
D13*
X46180952Y-53757142D02*
X45990476Y-53890476D01*
X46180952Y-53985714D02*
X45780952Y-53985714D01*
X45780952Y-53833333D01*
X45800000Y-53795238D01*
X45819047Y-53776190D01*
X45857142Y-53757142D01*
X45914285Y-53757142D01*
X45952380Y-53776190D01*
X45971428Y-53795238D01*
X45990476Y-53833333D01*
X45990476Y-53985714D01*
X46180952Y-53376190D02*
X46180952Y-53604761D01*
X46180952Y-53490476D02*
X45780952Y-53490476D01*
X45838095Y-53528571D01*
X45876190Y-53566666D01*
X45895238Y-53604761D01*
X46180952Y-52995238D02*
X46180952Y-53223809D01*
X46180952Y-53109523D02*
X45780952Y-53109523D01*
X45838095Y-53147619D01*
X45876190Y-53185714D01*
X45895238Y-53223809D01*
%TO.C,R12*%
D11*
X47882380Y-66666666D02*
X47882380Y-67238095D01*
X47882380Y-66952380D02*
X46882380Y-66952380D01*
X47025238Y-67047619D01*
X47120476Y-67142857D01*
X47168095Y-67238095D01*
X46882380Y-66047619D02*
X46882380Y-65952380D01*
X46930000Y-65857142D01*
X46977619Y-65809523D01*
X47072857Y-65761904D01*
X47263333Y-65714285D01*
X47501428Y-65714285D01*
X47691904Y-65761904D01*
X47787142Y-65809523D01*
X47834761Y-65857142D01*
X47882380Y-65952380D01*
X47882380Y-66047619D01*
X47834761Y-66142857D01*
X47787142Y-66190476D01*
X47691904Y-66238095D01*
X47501428Y-66285714D01*
X47263333Y-66285714D01*
X47072857Y-66238095D01*
X46977619Y-66190476D01*
X46930000Y-66142857D01*
X46882380Y-66047619D01*
X46882380Y-65095238D02*
X46882380Y-65000000D01*
X46930000Y-64904761D01*
X46977619Y-64857142D01*
X47072857Y-64809523D01*
X47263333Y-64761904D01*
X47501428Y-64761904D01*
X47691904Y-64809523D01*
X47787142Y-64857142D01*
X47834761Y-64904761D01*
X47882380Y-65000000D01*
X47882380Y-65095238D01*
X47834761Y-65190476D01*
X47787142Y-65238095D01*
X47691904Y-65285714D01*
X47501428Y-65333333D01*
X47263333Y-65333333D01*
X47072857Y-65285714D01*
X46977619Y-65238095D01*
X46930000Y-65190476D01*
X46882380Y-65095238D01*
D13*
X46180952Y-66257142D02*
X45990476Y-66390476D01*
X46180952Y-66485714D02*
X45780952Y-66485714D01*
X45780952Y-66333333D01*
X45800000Y-66295238D01*
X45819047Y-66276190D01*
X45857142Y-66257142D01*
X45914285Y-66257142D01*
X45952380Y-66276190D01*
X45971428Y-66295238D01*
X45990476Y-66333333D01*
X45990476Y-66485714D01*
X46180952Y-65876190D02*
X46180952Y-66104761D01*
X46180952Y-65990476D02*
X45780952Y-65990476D01*
X45838095Y-66028571D01*
X45876190Y-66066666D01*
X45895238Y-66104761D01*
X45819047Y-65723809D02*
X45800000Y-65704761D01*
X45780952Y-65666666D01*
X45780952Y-65571428D01*
X45800000Y-65533333D01*
X45819047Y-65514285D01*
X45857142Y-65495238D01*
X45895238Y-65495238D01*
X45952380Y-65514285D01*
X46180952Y-65742857D01*
X46180952Y-65495238D01*
%TO.C,R13*%
D11*
X73214285Y-43617619D02*
X73261904Y-43570000D01*
X73357142Y-43522380D01*
X73595238Y-43522380D01*
X73690476Y-43570000D01*
X73738095Y-43617619D01*
X73785714Y-43712857D01*
X73785714Y-43808095D01*
X73738095Y-43950952D01*
X73166666Y-44522380D01*
X73785714Y-44522380D01*
X74214285Y-44522380D02*
X74214285Y-43522380D01*
X74785714Y-44522380D02*
X74357142Y-43950952D01*
X74785714Y-43522380D02*
X74214285Y-44093809D01*
D13*
X73742857Y-45680952D02*
X73609523Y-45490476D01*
X73514285Y-45680952D02*
X73514285Y-45280952D01*
X73666666Y-45280952D01*
X73704761Y-45300000D01*
X73723809Y-45319047D01*
X73742857Y-45357142D01*
X73742857Y-45414285D01*
X73723809Y-45452380D01*
X73704761Y-45471428D01*
X73666666Y-45490476D01*
X73514285Y-45490476D01*
X74123809Y-45680952D02*
X73895238Y-45680952D01*
X74009523Y-45680952D02*
X74009523Y-45280952D01*
X73971428Y-45338095D01*
X73933333Y-45376190D01*
X73895238Y-45395238D01*
X74257142Y-45280952D02*
X74504761Y-45280952D01*
X74371428Y-45433333D01*
X74428571Y-45433333D01*
X74466666Y-45452380D01*
X74485714Y-45471428D01*
X74504761Y-45509523D01*
X74504761Y-45604761D01*
X74485714Y-45642857D01*
X74466666Y-45661904D01*
X74428571Y-45680952D01*
X74314285Y-45680952D01*
X74276190Y-45661904D01*
X74257142Y-45642857D01*
%TO.C,R14*%
D11*
X73166666Y-46452380D02*
X73785714Y-46452380D01*
X73452380Y-46833333D01*
X73595238Y-46833333D01*
X73690476Y-46880952D01*
X73738095Y-46928571D01*
X73785714Y-47023809D01*
X73785714Y-47261904D01*
X73738095Y-47357142D01*
X73690476Y-47404761D01*
X73595238Y-47452380D01*
X73309523Y-47452380D01*
X73214285Y-47404761D01*
X73166666Y-47357142D01*
X74214285Y-47452380D02*
X74214285Y-46452380D01*
X74785714Y-47452380D02*
X74357142Y-46880952D01*
X74785714Y-46452380D02*
X74214285Y-47023809D01*
D13*
X73742857Y-48180952D02*
X73609523Y-47990476D01*
X73514285Y-48180952D02*
X73514285Y-47780952D01*
X73666666Y-47780952D01*
X73704761Y-47800000D01*
X73723809Y-47819047D01*
X73742857Y-47857142D01*
X73742857Y-47914285D01*
X73723809Y-47952380D01*
X73704761Y-47971428D01*
X73666666Y-47990476D01*
X73514285Y-47990476D01*
X74123809Y-48180952D02*
X73895238Y-48180952D01*
X74009523Y-48180952D02*
X74009523Y-47780952D01*
X73971428Y-47838095D01*
X73933333Y-47876190D01*
X73895238Y-47895238D01*
X74466666Y-47914285D02*
X74466666Y-48180952D01*
X74371428Y-47761904D02*
X74276190Y-48047619D01*
X74523809Y-48047619D01*
%TO.C,R15*%
D11*
X73690476Y-48855714D02*
X73690476Y-49522380D01*
X73452380Y-48474761D02*
X73214285Y-49189047D01*
X73833333Y-49189047D01*
X74214285Y-49522380D02*
X74214285Y-48522380D01*
X74785714Y-49522380D02*
X74357142Y-48950952D01*
X74785714Y-48522380D02*
X74214285Y-49093809D01*
D13*
X73742857Y-50680952D02*
X73609523Y-50490476D01*
X73514285Y-50680952D02*
X73514285Y-50280952D01*
X73666666Y-50280952D01*
X73704761Y-50300000D01*
X73723809Y-50319047D01*
X73742857Y-50357142D01*
X73742857Y-50414285D01*
X73723809Y-50452380D01*
X73704761Y-50471428D01*
X73666666Y-50490476D01*
X73514285Y-50490476D01*
X74123809Y-50680952D02*
X73895238Y-50680952D01*
X74009523Y-50680952D02*
X74009523Y-50280952D01*
X73971428Y-50338095D01*
X73933333Y-50376190D01*
X73895238Y-50395238D01*
X74485714Y-50280952D02*
X74295238Y-50280952D01*
X74276190Y-50471428D01*
X74295238Y-50452380D01*
X74333333Y-50433333D01*
X74428571Y-50433333D01*
X74466666Y-50452380D01*
X74485714Y-50471428D01*
X74504761Y-50509523D01*
X74504761Y-50604761D01*
X74485714Y-50642857D01*
X74466666Y-50661904D01*
X74428571Y-50680952D01*
X74333333Y-50680952D01*
X74295238Y-50661904D01*
X74276190Y-50642857D01*
%TO.C,R16*%
D11*
X73738095Y-51022380D02*
X73261904Y-51022380D01*
X73214285Y-51498571D01*
X73261904Y-51450952D01*
X73357142Y-51403333D01*
X73595238Y-51403333D01*
X73690476Y-51450952D01*
X73738095Y-51498571D01*
X73785714Y-51593809D01*
X73785714Y-51831904D01*
X73738095Y-51927142D01*
X73690476Y-51974761D01*
X73595238Y-52022380D01*
X73357142Y-52022380D01*
X73261904Y-51974761D01*
X73214285Y-51927142D01*
X74214285Y-52022380D02*
X74214285Y-51022380D01*
X74785714Y-52022380D02*
X74357142Y-51450952D01*
X74785714Y-51022380D02*
X74214285Y-51593809D01*
D13*
X73742857Y-53180952D02*
X73609523Y-52990476D01*
X73514285Y-53180952D02*
X73514285Y-52780952D01*
X73666666Y-52780952D01*
X73704761Y-52800000D01*
X73723809Y-52819047D01*
X73742857Y-52857142D01*
X73742857Y-52914285D01*
X73723809Y-52952380D01*
X73704761Y-52971428D01*
X73666666Y-52990476D01*
X73514285Y-52990476D01*
X74123809Y-53180952D02*
X73895238Y-53180952D01*
X74009523Y-53180952D02*
X74009523Y-52780952D01*
X73971428Y-52838095D01*
X73933333Y-52876190D01*
X73895238Y-52895238D01*
X74466666Y-52780952D02*
X74390476Y-52780952D01*
X74352380Y-52800000D01*
X74333333Y-52819047D01*
X74295238Y-52876190D01*
X74276190Y-52952380D01*
X74276190Y-53104761D01*
X74295238Y-53142857D01*
X74314285Y-53161904D01*
X74352380Y-53180952D01*
X74428571Y-53180952D01*
X74466666Y-53161904D01*
X74485714Y-53142857D01*
X74504761Y-53104761D01*
X74504761Y-53009523D01*
X74485714Y-52971428D01*
X74466666Y-52952380D01*
X74428571Y-52933333D01*
X74352380Y-52933333D01*
X74314285Y-52952380D01*
X74295238Y-52971428D01*
X74276190Y-53009523D01*
%TO.C,R17*%
D11*
X74190476Y-53302380D02*
X74000000Y-53302380D01*
X73904761Y-53350000D01*
X73857142Y-53397619D01*
X73761904Y-53540476D01*
X73714285Y-53730952D01*
X73714285Y-54111904D01*
X73761904Y-54207142D01*
X73809523Y-54254761D01*
X73904761Y-54302380D01*
X74095238Y-54302380D01*
X74190476Y-54254761D01*
X74238095Y-54207142D01*
X74285714Y-54111904D01*
X74285714Y-53873809D01*
X74238095Y-53778571D01*
X74190476Y-53730952D01*
X74095238Y-53683333D01*
X73904761Y-53683333D01*
X73809523Y-53730952D01*
X73761904Y-53778571D01*
X73714285Y-53873809D01*
X74714285Y-54302380D02*
X74714285Y-53302380D01*
X75285714Y-54302380D02*
X74857142Y-53730952D01*
X75285714Y-53302380D02*
X74714285Y-53873809D01*
D14*
X74178571Y-55726190D02*
X74011904Y-55488095D01*
X73892857Y-55726190D02*
X73892857Y-55226190D01*
X74083333Y-55226190D01*
X74130952Y-55250000D01*
X74154761Y-55273809D01*
X74178571Y-55321428D01*
X74178571Y-55392857D01*
X74154761Y-55440476D01*
X74130952Y-55464285D01*
X74083333Y-55488095D01*
X73892857Y-55488095D01*
X74654761Y-55726190D02*
X74369047Y-55726190D01*
X74511904Y-55726190D02*
X74511904Y-55226190D01*
X74464285Y-55297619D01*
X74416666Y-55345238D01*
X74369047Y-55369047D01*
X74821428Y-55226190D02*
X75154761Y-55226190D01*
X74940476Y-55726190D01*
%TO.C,R18*%
D11*
X92254166Y-66302380D02*
X92920833Y-66302380D01*
X92492261Y-67302380D01*
X93301785Y-67302380D02*
X93301785Y-66302380D01*
X93873214Y-67302380D02*
X93444642Y-66730952D01*
X93873214Y-66302380D02*
X93301785Y-66873809D01*
D14*
X92766071Y-68726190D02*
X92599404Y-68488095D01*
X92480357Y-68726190D02*
X92480357Y-68226190D01*
X92670833Y-68226190D01*
X92718452Y-68250000D01*
X92742261Y-68273809D01*
X92766071Y-68321428D01*
X92766071Y-68392857D01*
X92742261Y-68440476D01*
X92718452Y-68464285D01*
X92670833Y-68488095D01*
X92480357Y-68488095D01*
X93242261Y-68726190D02*
X92956547Y-68726190D01*
X93099404Y-68726190D02*
X93099404Y-68226190D01*
X93051785Y-68297619D01*
X93004166Y-68345238D01*
X92956547Y-68369047D01*
X93527976Y-68440476D02*
X93480357Y-68416666D01*
X93456547Y-68392857D01*
X93432738Y-68345238D01*
X93432738Y-68321428D01*
X93456547Y-68273809D01*
X93480357Y-68250000D01*
X93527976Y-68226190D01*
X93623214Y-68226190D01*
X93670833Y-68250000D01*
X93694642Y-68273809D01*
X93718452Y-68321428D01*
X93718452Y-68345238D01*
X93694642Y-68392857D01*
X93670833Y-68416666D01*
X93623214Y-68440476D01*
X93527976Y-68440476D01*
X93480357Y-68464285D01*
X93456547Y-68488095D01*
X93432738Y-68535714D01*
X93432738Y-68630952D01*
X93456547Y-68678571D01*
X93480357Y-68702380D01*
X93527976Y-68726190D01*
X93623214Y-68726190D01*
X93670833Y-68702380D01*
X93694642Y-68678571D01*
X93718452Y-68630952D01*
X93718452Y-68535714D01*
X93694642Y-68488095D01*
X93670833Y-68464285D01*
X93623214Y-68440476D01*
%TO.C,R19*%
D11*
X73785714Y-61522380D02*
X73214285Y-61522380D01*
X73500000Y-61522380D02*
X73500000Y-60522380D01*
X73404761Y-60665238D01*
X73309523Y-60760476D01*
X73214285Y-60808095D01*
X74214285Y-61522380D02*
X74214285Y-60522380D01*
X74785714Y-61522380D02*
X74357142Y-60950952D01*
X74785714Y-60522380D02*
X74214285Y-61093809D01*
D13*
X73742857Y-62680952D02*
X73609523Y-62490476D01*
X73514285Y-62680952D02*
X73514285Y-62280952D01*
X73666666Y-62280952D01*
X73704761Y-62300000D01*
X73723809Y-62319047D01*
X73742857Y-62357142D01*
X73742857Y-62414285D01*
X73723809Y-62452380D01*
X73704761Y-62471428D01*
X73666666Y-62490476D01*
X73514285Y-62490476D01*
X74123809Y-62680952D02*
X73895238Y-62680952D01*
X74009523Y-62680952D02*
X74009523Y-62280952D01*
X73971428Y-62338095D01*
X73933333Y-62376190D01*
X73895238Y-62395238D01*
X74314285Y-62680952D02*
X74390476Y-62680952D01*
X74428571Y-62661904D01*
X74447619Y-62642857D01*
X74485714Y-62585714D01*
X74504761Y-62509523D01*
X74504761Y-62357142D01*
X74485714Y-62319047D01*
X74466666Y-62300000D01*
X74428571Y-62280952D01*
X74352380Y-62280952D01*
X74314285Y-62300000D01*
X74295238Y-62319047D01*
X74276190Y-62357142D01*
X74276190Y-62452380D01*
X74295238Y-62490476D01*
X74314285Y-62509523D01*
X74352380Y-62528571D01*
X74428571Y-62528571D01*
X74466666Y-62509523D01*
X74485714Y-62490476D01*
X74504761Y-62452380D01*
%TO.C,R20*%
D11*
X73214285Y-63117619D02*
X73261904Y-63070000D01*
X73357142Y-63022380D01*
X73595238Y-63022380D01*
X73690476Y-63070000D01*
X73738095Y-63117619D01*
X73785714Y-63212857D01*
X73785714Y-63308095D01*
X73738095Y-63450952D01*
X73166666Y-64022380D01*
X73785714Y-64022380D01*
X74214285Y-64022380D02*
X74214285Y-63022380D01*
X74785714Y-64022380D02*
X74357142Y-63450952D01*
X74785714Y-63022380D02*
X74214285Y-63593809D01*
D13*
X73742857Y-65180952D02*
X73609523Y-64990476D01*
X73514285Y-65180952D02*
X73514285Y-64780952D01*
X73666666Y-64780952D01*
X73704761Y-64800000D01*
X73723809Y-64819047D01*
X73742857Y-64857142D01*
X73742857Y-64914285D01*
X73723809Y-64952380D01*
X73704761Y-64971428D01*
X73666666Y-64990476D01*
X73514285Y-64990476D01*
X73895238Y-64819047D02*
X73914285Y-64800000D01*
X73952380Y-64780952D01*
X74047619Y-64780952D01*
X74085714Y-64800000D01*
X74104761Y-64819047D01*
X74123809Y-64857142D01*
X74123809Y-64895238D01*
X74104761Y-64952380D01*
X73876190Y-65180952D01*
X74123809Y-65180952D01*
X74371428Y-64780952D02*
X74409523Y-64780952D01*
X74447619Y-64800000D01*
X74466666Y-64819047D01*
X74485714Y-64857142D01*
X74504761Y-64933333D01*
X74504761Y-65028571D01*
X74485714Y-65104761D01*
X74466666Y-65142857D01*
X74447619Y-65161904D01*
X74409523Y-65180952D01*
X74371428Y-65180952D01*
X74333333Y-65161904D01*
X74314285Y-65142857D01*
X74295238Y-65104761D01*
X74276190Y-65028571D01*
X74276190Y-64933333D01*
X74295238Y-64857142D01*
X74314285Y-64819047D01*
X74333333Y-64800000D01*
X74371428Y-64780952D01*
%TO.C,R21*%
D11*
X73166666Y-65522380D02*
X73785714Y-65522380D01*
X73452380Y-65903333D01*
X73595238Y-65903333D01*
X73690476Y-65950952D01*
X73738095Y-65998571D01*
X73785714Y-66093809D01*
X73785714Y-66331904D01*
X73738095Y-66427142D01*
X73690476Y-66474761D01*
X73595238Y-66522380D01*
X73309523Y-66522380D01*
X73214285Y-66474761D01*
X73166666Y-66427142D01*
X74214285Y-66522380D02*
X74214285Y-65522380D01*
X74785714Y-66522380D02*
X74357142Y-65950952D01*
X74785714Y-65522380D02*
X74214285Y-66093809D01*
D13*
X73742857Y-67680952D02*
X73609523Y-67490476D01*
X73514285Y-67680952D02*
X73514285Y-67280952D01*
X73666666Y-67280952D01*
X73704761Y-67300000D01*
X73723809Y-67319047D01*
X73742857Y-67357142D01*
X73742857Y-67414285D01*
X73723809Y-67452380D01*
X73704761Y-67471428D01*
X73666666Y-67490476D01*
X73514285Y-67490476D01*
X73895238Y-67319047D02*
X73914285Y-67300000D01*
X73952380Y-67280952D01*
X74047619Y-67280952D01*
X74085714Y-67300000D01*
X74104761Y-67319047D01*
X74123809Y-67357142D01*
X74123809Y-67395238D01*
X74104761Y-67452380D01*
X73876190Y-67680952D01*
X74123809Y-67680952D01*
X74504761Y-67680952D02*
X74276190Y-67680952D01*
X74390476Y-67680952D02*
X74390476Y-67280952D01*
X74352380Y-67338095D01*
X74314285Y-67376190D01*
X74276190Y-67395238D01*
%TO.C,R22*%
D11*
X73690476Y-68355714D02*
X73690476Y-69022380D01*
X73452380Y-67974761D02*
X73214285Y-68689047D01*
X73833333Y-68689047D01*
X74214285Y-69022380D02*
X74214285Y-68022380D01*
X74785714Y-69022380D02*
X74357142Y-68450952D01*
X74785714Y-68022380D02*
X74214285Y-68593809D01*
D13*
X73742857Y-70180952D02*
X73609523Y-69990476D01*
X73514285Y-70180952D02*
X73514285Y-69780952D01*
X73666666Y-69780952D01*
X73704761Y-69800000D01*
X73723809Y-69819047D01*
X73742857Y-69857142D01*
X73742857Y-69914285D01*
X73723809Y-69952380D01*
X73704761Y-69971428D01*
X73666666Y-69990476D01*
X73514285Y-69990476D01*
X73895238Y-69819047D02*
X73914285Y-69800000D01*
X73952380Y-69780952D01*
X74047619Y-69780952D01*
X74085714Y-69800000D01*
X74104761Y-69819047D01*
X74123809Y-69857142D01*
X74123809Y-69895238D01*
X74104761Y-69952380D01*
X73876190Y-70180952D01*
X74123809Y-70180952D01*
X74276190Y-69819047D02*
X74295238Y-69800000D01*
X74333333Y-69780952D01*
X74428571Y-69780952D01*
X74466666Y-69800000D01*
X74485714Y-69819047D01*
X74504761Y-69857142D01*
X74504761Y-69895238D01*
X74485714Y-69952380D01*
X74257142Y-70180952D01*
X74504761Y-70180952D01*
%TO.C,R23*%
D11*
X73738095Y-70522380D02*
X73261904Y-70522380D01*
X73214285Y-70998571D01*
X73261904Y-70950952D01*
X73357142Y-70903333D01*
X73595238Y-70903333D01*
X73690476Y-70950952D01*
X73738095Y-70998571D01*
X73785714Y-71093809D01*
X73785714Y-71331904D01*
X73738095Y-71427142D01*
X73690476Y-71474761D01*
X73595238Y-71522380D01*
X73357142Y-71522380D01*
X73261904Y-71474761D01*
X73214285Y-71427142D01*
X74214285Y-71522380D02*
X74214285Y-70522380D01*
X74785714Y-71522380D02*
X74357142Y-70950952D01*
X74785714Y-70522380D02*
X74214285Y-71093809D01*
D13*
X73742857Y-72680952D02*
X73609523Y-72490476D01*
X73514285Y-72680952D02*
X73514285Y-72280952D01*
X73666666Y-72280952D01*
X73704761Y-72300000D01*
X73723809Y-72319047D01*
X73742857Y-72357142D01*
X73742857Y-72414285D01*
X73723809Y-72452380D01*
X73704761Y-72471428D01*
X73666666Y-72490476D01*
X73514285Y-72490476D01*
X73895238Y-72319047D02*
X73914285Y-72300000D01*
X73952380Y-72280952D01*
X74047619Y-72280952D01*
X74085714Y-72300000D01*
X74104761Y-72319047D01*
X74123809Y-72357142D01*
X74123809Y-72395238D01*
X74104761Y-72452380D01*
X73876190Y-72680952D01*
X74123809Y-72680952D01*
X74257142Y-72280952D02*
X74504761Y-72280952D01*
X74371428Y-72433333D01*
X74428571Y-72433333D01*
X74466666Y-72452380D01*
X74485714Y-72471428D01*
X74504761Y-72509523D01*
X74504761Y-72604761D01*
X74485714Y-72642857D01*
X74466666Y-72661904D01*
X74428571Y-72680952D01*
X74314285Y-72680952D01*
X74276190Y-72661904D01*
X74257142Y-72642857D01*
%TO.C,R24*%
D11*
X73690476Y-72802380D02*
X73500000Y-72802380D01*
X73404761Y-72850000D01*
X73357142Y-72897619D01*
X73261904Y-73040476D01*
X73214285Y-73230952D01*
X73214285Y-73611904D01*
X73261904Y-73707142D01*
X73309523Y-73754761D01*
X73404761Y-73802380D01*
X73595238Y-73802380D01*
X73690476Y-73754761D01*
X73738095Y-73707142D01*
X73785714Y-73611904D01*
X73785714Y-73373809D01*
X73738095Y-73278571D01*
X73690476Y-73230952D01*
X73595238Y-73183333D01*
X73404761Y-73183333D01*
X73309523Y-73230952D01*
X73261904Y-73278571D01*
X73214285Y-73373809D01*
X74214285Y-73802380D02*
X74214285Y-72802380D01*
X74785714Y-73802380D02*
X74357142Y-73230952D01*
X74785714Y-72802380D02*
X74214285Y-73373809D01*
D14*
X73678571Y-75226190D02*
X73511904Y-74988095D01*
X73392857Y-75226190D02*
X73392857Y-74726190D01*
X73583333Y-74726190D01*
X73630952Y-74750000D01*
X73654761Y-74773809D01*
X73678571Y-74821428D01*
X73678571Y-74892857D01*
X73654761Y-74940476D01*
X73630952Y-74964285D01*
X73583333Y-74988095D01*
X73392857Y-74988095D01*
X73869047Y-74773809D02*
X73892857Y-74750000D01*
X73940476Y-74726190D01*
X74059523Y-74726190D01*
X74107142Y-74750000D01*
X74130952Y-74773809D01*
X74154761Y-74821428D01*
X74154761Y-74869047D01*
X74130952Y-74940476D01*
X73845238Y-75226190D01*
X74154761Y-75226190D01*
X74583333Y-74892857D02*
X74583333Y-75226190D01*
X74464285Y-74702380D02*
X74345238Y-75059523D01*
X74654761Y-75059523D01*
%TO.C,R25*%
D11*
X73166666Y-75802380D02*
X73833333Y-75802380D01*
X73404761Y-76802380D01*
X74214285Y-76802380D02*
X74214285Y-75802380D01*
X74785714Y-76802380D02*
X74357142Y-76230952D01*
X74785714Y-75802380D02*
X74214285Y-76373809D01*
D14*
X73678571Y-78226190D02*
X73511904Y-77988095D01*
X73392857Y-78226190D02*
X73392857Y-77726190D01*
X73583333Y-77726190D01*
X73630952Y-77750000D01*
X73654761Y-77773809D01*
X73678571Y-77821428D01*
X73678571Y-77892857D01*
X73654761Y-77940476D01*
X73630952Y-77964285D01*
X73583333Y-77988095D01*
X73392857Y-77988095D01*
X73869047Y-77773809D02*
X73892857Y-77750000D01*
X73940476Y-77726190D01*
X74059523Y-77726190D01*
X74107142Y-77750000D01*
X74130952Y-77773809D01*
X74154761Y-77821428D01*
X74154761Y-77869047D01*
X74130952Y-77940476D01*
X73845238Y-78226190D01*
X74154761Y-78226190D01*
X74607142Y-77726190D02*
X74369047Y-77726190D01*
X74345238Y-77964285D01*
X74369047Y-77940476D01*
X74416666Y-77916666D01*
X74535714Y-77916666D01*
X74583333Y-77940476D01*
X74607142Y-77964285D01*
X74630952Y-78011904D01*
X74630952Y-78130952D01*
X74607142Y-78178571D01*
X74583333Y-78202380D01*
X74535714Y-78226190D01*
X74416666Y-78226190D01*
X74369047Y-78202380D01*
X74345238Y-78178571D01*
%TO.C,SW1*%
D11*
X67489761Y-54715238D02*
X67537380Y-54572380D01*
X67537380Y-54334285D01*
X67489761Y-54239047D01*
X67442142Y-54191428D01*
X67346904Y-54143809D01*
X67251666Y-54143809D01*
X67156428Y-54191428D01*
X67108809Y-54239047D01*
X67061190Y-54334285D01*
X67013571Y-54524761D01*
X66965952Y-54620000D01*
X66918333Y-54667619D01*
X66823095Y-54715238D01*
X66727857Y-54715238D01*
X66632619Y-54667619D01*
X66585000Y-54620000D01*
X66537380Y-54524761D01*
X66537380Y-54286666D01*
X66585000Y-54143809D01*
X67537380Y-53715238D02*
X66537380Y-53715238D01*
X66537380Y-53477142D01*
X66585000Y-53334285D01*
X66680238Y-53239047D01*
X66775476Y-53191428D01*
X66965952Y-53143809D01*
X67108809Y-53143809D01*
X67299285Y-53191428D01*
X67394523Y-53239047D01*
X67489761Y-53334285D01*
X67537380Y-53477142D01*
X67537380Y-53715238D01*
X66537380Y-52524761D02*
X66537380Y-52429523D01*
X66585000Y-52334285D01*
X66632619Y-52286666D01*
X66727857Y-52239047D01*
X66918333Y-52191428D01*
X67156428Y-52191428D01*
X67346904Y-52239047D01*
X67442142Y-52286666D01*
X67489761Y-52334285D01*
X67537380Y-52429523D01*
X67537380Y-52524761D01*
X67489761Y-52620000D01*
X67442142Y-52667619D01*
X67346904Y-52715238D01*
X67156428Y-52762857D01*
X66918333Y-52762857D01*
X66727857Y-52715238D01*
X66632619Y-52667619D01*
X66585000Y-52620000D01*
X66537380Y-52524761D01*
X66537380Y-51334285D02*
X66537380Y-51524761D01*
X66585000Y-51620000D01*
X66632619Y-51667619D01*
X66775476Y-51762857D01*
X66965952Y-51810476D01*
X67346904Y-51810476D01*
X67442142Y-51762857D01*
X67489761Y-51715238D01*
X67537380Y-51620000D01*
X67537380Y-51429523D01*
X67489761Y-51334285D01*
X67442142Y-51286666D01*
X67346904Y-51239047D01*
X67108809Y-51239047D01*
X67013571Y-51286666D01*
X66965952Y-51334285D01*
X66918333Y-51429523D01*
X66918333Y-51620000D01*
X66965952Y-51715238D01*
X67013571Y-51762857D01*
X67108809Y-51810476D01*
X67537380Y-50810476D02*
X66537380Y-50810476D01*
X67013571Y-50810476D02*
X67013571Y-50239047D01*
X67537380Y-50239047D02*
X66537380Y-50239047D01*
X66537380Y-49572380D02*
X66537380Y-49477142D01*
X66585000Y-49381904D01*
X66632619Y-49334285D01*
X66727857Y-49286666D01*
X66918333Y-49239047D01*
X67156428Y-49239047D01*
X67346904Y-49286666D01*
X67442142Y-49334285D01*
X67489761Y-49381904D01*
X67537380Y-49477142D01*
X67537380Y-49572380D01*
X67489761Y-49667619D01*
X67442142Y-49715238D01*
X67346904Y-49762857D01*
X67156428Y-49810476D01*
X66918333Y-49810476D01*
X66727857Y-49762857D01*
X66632619Y-49715238D01*
X66585000Y-49667619D01*
X66537380Y-49572380D01*
X67489761Y-48858095D02*
X67537380Y-48715238D01*
X67537380Y-48477142D01*
X67489761Y-48381904D01*
X67442142Y-48334285D01*
X67346904Y-48286666D01*
X67251666Y-48286666D01*
X67156428Y-48334285D01*
X67108809Y-48381904D01*
X67061190Y-48477142D01*
X67013571Y-48667619D01*
X66965952Y-48762857D01*
X66918333Y-48810476D01*
X66823095Y-48858095D01*
X66727857Y-48858095D01*
X66632619Y-48810476D01*
X66585000Y-48762857D01*
X66537380Y-48667619D01*
X66537380Y-48429523D01*
X66585000Y-48286666D01*
X67013571Y-47524761D02*
X67061190Y-47381904D01*
X67108809Y-47334285D01*
X67204047Y-47286666D01*
X67346904Y-47286666D01*
X67442142Y-47334285D01*
X67489761Y-47381904D01*
X67537380Y-47477142D01*
X67537380Y-47858095D01*
X66537380Y-47858095D01*
X66537380Y-47524761D01*
X66585000Y-47429523D01*
X66632619Y-47381904D01*
X66727857Y-47334285D01*
X66823095Y-47334285D01*
X66918333Y-47381904D01*
X66965952Y-47429523D01*
X67013571Y-47524761D01*
X67013571Y-47858095D01*
%TO.C,SW2*%
X67489761Y-74215238D02*
X67537380Y-74072380D01*
X67537380Y-73834285D01*
X67489761Y-73739047D01*
X67442142Y-73691428D01*
X67346904Y-73643809D01*
X67251666Y-73643809D01*
X67156428Y-73691428D01*
X67108809Y-73739047D01*
X67061190Y-73834285D01*
X67013571Y-74024761D01*
X66965952Y-74120000D01*
X66918333Y-74167619D01*
X66823095Y-74215238D01*
X66727857Y-74215238D01*
X66632619Y-74167619D01*
X66585000Y-74120000D01*
X66537380Y-74024761D01*
X66537380Y-73786666D01*
X66585000Y-73643809D01*
X67537380Y-73215238D02*
X66537380Y-73215238D01*
X66537380Y-72977142D01*
X66585000Y-72834285D01*
X66680238Y-72739047D01*
X66775476Y-72691428D01*
X66965952Y-72643809D01*
X67108809Y-72643809D01*
X67299285Y-72691428D01*
X67394523Y-72739047D01*
X67489761Y-72834285D01*
X67537380Y-72977142D01*
X67537380Y-73215238D01*
X66537380Y-72024761D02*
X66537380Y-71929523D01*
X66585000Y-71834285D01*
X66632619Y-71786666D01*
X66727857Y-71739047D01*
X66918333Y-71691428D01*
X67156428Y-71691428D01*
X67346904Y-71739047D01*
X67442142Y-71786666D01*
X67489761Y-71834285D01*
X67537380Y-71929523D01*
X67537380Y-72024761D01*
X67489761Y-72120000D01*
X67442142Y-72167619D01*
X67346904Y-72215238D01*
X67156428Y-72262857D01*
X66918333Y-72262857D01*
X66727857Y-72215238D01*
X66632619Y-72167619D01*
X66585000Y-72120000D01*
X66537380Y-72024761D01*
X66537380Y-70834285D02*
X66537380Y-71024761D01*
X66585000Y-71120000D01*
X66632619Y-71167619D01*
X66775476Y-71262857D01*
X66965952Y-71310476D01*
X67346904Y-71310476D01*
X67442142Y-71262857D01*
X67489761Y-71215238D01*
X67537380Y-71120000D01*
X67537380Y-70929523D01*
X67489761Y-70834285D01*
X67442142Y-70786666D01*
X67346904Y-70739047D01*
X67108809Y-70739047D01*
X67013571Y-70786666D01*
X66965952Y-70834285D01*
X66918333Y-70929523D01*
X66918333Y-71120000D01*
X66965952Y-71215238D01*
X67013571Y-71262857D01*
X67108809Y-71310476D01*
X67537380Y-70310476D02*
X66537380Y-70310476D01*
X67013571Y-70310476D02*
X67013571Y-69739047D01*
X67537380Y-69739047D02*
X66537380Y-69739047D01*
X66537380Y-69072380D02*
X66537380Y-68977142D01*
X66585000Y-68881904D01*
X66632619Y-68834285D01*
X66727857Y-68786666D01*
X66918333Y-68739047D01*
X67156428Y-68739047D01*
X67346904Y-68786666D01*
X67442142Y-68834285D01*
X67489761Y-68881904D01*
X67537380Y-68977142D01*
X67537380Y-69072380D01*
X67489761Y-69167619D01*
X67442142Y-69215238D01*
X67346904Y-69262857D01*
X67156428Y-69310476D01*
X66918333Y-69310476D01*
X66727857Y-69262857D01*
X66632619Y-69215238D01*
X66585000Y-69167619D01*
X66537380Y-69072380D01*
X67489761Y-68358095D02*
X67537380Y-68215238D01*
X67537380Y-67977142D01*
X67489761Y-67881904D01*
X67442142Y-67834285D01*
X67346904Y-67786666D01*
X67251666Y-67786666D01*
X67156428Y-67834285D01*
X67108809Y-67881904D01*
X67061190Y-67977142D01*
X67013571Y-68167619D01*
X66965952Y-68262857D01*
X66918333Y-68310476D01*
X66823095Y-68358095D01*
X66727857Y-68358095D01*
X66632619Y-68310476D01*
X66585000Y-68262857D01*
X66537380Y-68167619D01*
X66537380Y-67929523D01*
X66585000Y-67786666D01*
X67013571Y-67024761D02*
X67061190Y-66881904D01*
X67108809Y-66834285D01*
X67204047Y-66786666D01*
X67346904Y-66786666D01*
X67442142Y-66834285D01*
X67489761Y-66881904D01*
X67537380Y-66977142D01*
X67537380Y-67358095D01*
X66537380Y-67358095D01*
X66537380Y-67024761D01*
X66585000Y-66929523D01*
X66632619Y-66881904D01*
X66727857Y-66834285D01*
X66823095Y-66834285D01*
X66918333Y-66881904D01*
X66965952Y-66929523D01*
X67013571Y-67024761D01*
X67013571Y-67358095D01*
%TO.C,R7*%
X45022380Y-57785714D02*
X45022380Y-58357142D01*
X45022380Y-58071428D02*
X44022380Y-58071428D01*
X44165238Y-58166666D01*
X44260476Y-58261904D01*
X44308095Y-58357142D01*
X45022380Y-57357142D02*
X44022380Y-57357142D01*
X44736666Y-57023809D01*
X44022380Y-56690476D01*
X45022380Y-56690476D01*
D13*
X46180952Y-57566666D02*
X45990476Y-57700000D01*
X46180952Y-57795238D02*
X45780952Y-57795238D01*
X45780952Y-57642857D01*
X45800000Y-57604761D01*
X45819047Y-57585714D01*
X45857142Y-57566666D01*
X45914285Y-57566666D01*
X45952380Y-57585714D01*
X45971428Y-57604761D01*
X45990476Y-57642857D01*
X45990476Y-57795238D01*
X45780952Y-57433333D02*
X45780952Y-57166666D01*
X46180952Y-57338095D01*
%TO.C,U1*%
D11*
X81702380Y-61602380D02*
X82273809Y-61602380D01*
X81988095Y-62602380D02*
X81988095Y-61602380D01*
X83083333Y-62602380D02*
X82607142Y-62602380D01*
X82607142Y-61602380D01*
X83607142Y-61602380D02*
X83702380Y-61602380D01*
X83797619Y-61650000D01*
X83845238Y-61697619D01*
X83892857Y-61792857D01*
X83940476Y-61983333D01*
X83940476Y-62221428D01*
X83892857Y-62411904D01*
X83845238Y-62507142D01*
X83797619Y-62554761D01*
X83702380Y-62602380D01*
X83607142Y-62602380D01*
X83511904Y-62554761D01*
X83464285Y-62507142D01*
X83416666Y-62411904D01*
X83369047Y-62221428D01*
X83369047Y-61983333D01*
X83416666Y-61792857D01*
X83464285Y-61697619D01*
X83511904Y-61650000D01*
X83607142Y-61602380D01*
X84511904Y-62030952D02*
X84416666Y-61983333D01*
X84369047Y-61935714D01*
X84321428Y-61840476D01*
X84321428Y-61792857D01*
X84369047Y-61697619D01*
X84416666Y-61650000D01*
X84511904Y-61602380D01*
X84702380Y-61602380D01*
X84797619Y-61650000D01*
X84845238Y-61697619D01*
X84892857Y-61792857D01*
X84892857Y-61840476D01*
X84845238Y-61935714D01*
X84797619Y-61983333D01*
X84702380Y-62030952D01*
X84511904Y-62030952D01*
X84416666Y-62078571D01*
X84369047Y-62126190D01*
X84321428Y-62221428D01*
X84321428Y-62411904D01*
X84369047Y-62507142D01*
X84416666Y-62554761D01*
X84511904Y-62602380D01*
X84702380Y-62602380D01*
X84797619Y-62554761D01*
X84845238Y-62507142D01*
X84892857Y-62411904D01*
X84892857Y-62221428D01*
X84845238Y-62126190D01*
X84797619Y-62078571D01*
X84702380Y-62030952D01*
X85273809Y-61697619D02*
X85321428Y-61650000D01*
X85416666Y-61602380D01*
X85654761Y-61602380D01*
X85750000Y-61650000D01*
X85797619Y-61697619D01*
X85845238Y-61792857D01*
X85845238Y-61888095D01*
X85797619Y-62030952D01*
X85226190Y-62602380D01*
X85845238Y-62602380D01*
X86845238Y-62507142D02*
X86797619Y-62554761D01*
X86654761Y-62602380D01*
X86559523Y-62602380D01*
X86416666Y-62554761D01*
X86321428Y-62459523D01*
X86273809Y-62364285D01*
X86226190Y-62173809D01*
X86226190Y-62030952D01*
X86273809Y-61840476D01*
X86321428Y-61745238D01*
X86416666Y-61650000D01*
X86559523Y-61602380D01*
X86654761Y-61602380D01*
X86797619Y-61650000D01*
X86845238Y-61697619D01*
X87273809Y-62602380D02*
X87273809Y-61602380D01*
X87511904Y-61602380D01*
X87654761Y-61650000D01*
X87750000Y-61745238D01*
X87797619Y-61840476D01*
X87845238Y-62030952D01*
X87845238Y-62173809D01*
X87797619Y-62364285D01*
X87750000Y-62459523D01*
X87654761Y-62554761D01*
X87511904Y-62602380D01*
X87273809Y-62602380D01*
X88273809Y-62078571D02*
X88607142Y-62078571D01*
X88750000Y-62602380D02*
X88273809Y-62602380D01*
X88273809Y-61602380D01*
X88750000Y-61602380D01*
X89607142Y-61935714D02*
X89607142Y-62602380D01*
X89369047Y-61554761D02*
X89130952Y-62269047D01*
X89750000Y-62269047D01*
X85003333Y-58213333D02*
X85003333Y-59006666D01*
X85050000Y-59100000D01*
X85096666Y-59146666D01*
X85190000Y-59193333D01*
X85376666Y-59193333D01*
X85470000Y-59146666D01*
X85516666Y-59100000D01*
X85563333Y-59006666D01*
X85563333Y-58213333D01*
X86543333Y-59193333D02*
X85983333Y-59193333D01*
X86263333Y-59193333D02*
X86263333Y-58213333D01*
X86170000Y-58353333D01*
X86076666Y-58446666D01*
X85983333Y-58493333D01*
%TD*%
M02*
