%FSLAX45Y45*%
G04 Gerber Fmt 4.5, Leading zero omitted, Abs format (unit mm)*
G04 Created by KiCad (PCBNEW 5.1.10-88a1d61d58~88~ubuntu20.04.1) date 2021-07-03 03:40:17*
%MOMM*%
%LPD*%
G01*
G04 APERTURE LIST*
%TA.AperFunction,Profile*%
%ADD10C,0.050000*%
%TD*%
%ADD11C,0.200000*%
%ADD12C,0.300000*%
G04 APERTURE END LIST*
D10*
X3500000Y-8250000D02*
X3500000Y-3250000D01*
X12750000Y-8250000D02*
X3500000Y-8250000D01*
X12750000Y-3250000D02*
X12750000Y-8250000D01*
X3500000Y-3250000D02*
X12750000Y-3250000D01*
D11*
X4330000Y-5880000D02*
X4370000Y-5920000D01*
X4370000Y-5880000D02*
X4330000Y-5920000D01*
X4330000Y-6330000D02*
X4370000Y-6370000D01*
X4370000Y-6330000D02*
X4330000Y-6370000D01*
X4830000Y-5030000D02*
X4870000Y-5070000D01*
X4870000Y-5030000D02*
X4830000Y-5070000D01*
X4830000Y-5630000D02*
X4870000Y-5670000D01*
X4870000Y-5630000D02*
X4830000Y-5670000D01*
X4942240Y-5840970D02*
X4982240Y-5880970D01*
X4982240Y-5840970D02*
X4942240Y-5880970D01*
X5079660Y-6084680D02*
X5119660Y-6124680D01*
X5119660Y-6084680D02*
X5079660Y-6124680D01*
X5330000Y-6130000D02*
X5370000Y-6170000D01*
X5370000Y-6130000D02*
X5330000Y-6170000D01*
X5480000Y-5630000D02*
X5520000Y-5670000D01*
X5520000Y-5630000D02*
X5480000Y-5670000D01*
X5730000Y-7480000D02*
X5770000Y-7520000D01*
X5770000Y-7480000D02*
X5730000Y-7520000D01*
X5880000Y-5330000D02*
X5920000Y-5370000D01*
X5920000Y-5330000D02*
X5880000Y-5370000D01*
X5930000Y-5780000D02*
X5970000Y-5820000D01*
X5970000Y-5780000D02*
X5930000Y-5820000D01*
X6030000Y-5980000D02*
X6070000Y-6020000D01*
X6070000Y-5980000D02*
X6030000Y-6020000D01*
X6080000Y-7030000D02*
X6120000Y-7070000D01*
X6120000Y-7030000D02*
X6080000Y-7070000D01*
X6130000Y-6480000D02*
X6170000Y-6520000D01*
X6170000Y-6480000D02*
X6130000Y-6520000D01*
X6330000Y-4380000D02*
X6370000Y-4420000D01*
X6370000Y-4380000D02*
X6330000Y-4420000D01*
X6430000Y-4780000D02*
X6470000Y-4820000D01*
X6470000Y-4780000D02*
X6430000Y-4820000D01*
X6489260Y-5046780D02*
X6529260Y-5086780D01*
X6529260Y-5046780D02*
X6489260Y-5086780D01*
X6580000Y-7180000D02*
X6620000Y-7220000D01*
X6620000Y-7180000D02*
X6580000Y-7220000D01*
X7230000Y-4880000D02*
X7270000Y-4920000D01*
X7270000Y-4880000D02*
X7230000Y-4920000D01*
X7630000Y-7330000D02*
X7670000Y-7370000D01*
X7670000Y-7330000D02*
X7630000Y-7370000D01*
X7930000Y-4730000D02*
X7970000Y-4770000D01*
X7970000Y-4730000D02*
X7930000Y-4770000D01*
X8880000Y-7580000D02*
X8920000Y-7620000D01*
X8920000Y-7580000D02*
X8880000Y-7620000D01*
X8930000Y-4580000D02*
X8970000Y-4620000D01*
X8970000Y-4580000D02*
X8930000Y-4620000D01*
X9730000Y-6180000D02*
X9770000Y-6220000D01*
X9770000Y-6180000D02*
X9730000Y-6220000D01*
X11030000Y-5330000D02*
X11070000Y-5370000D01*
X11070000Y-5330000D02*
X11030000Y-5370000D01*
X11154390Y-5542490D02*
X11194390Y-5582490D01*
X11194390Y-5542490D02*
X11154390Y-5582490D01*
X11162500Y-6069870D02*
X11202500Y-6109870D01*
X11202500Y-6069870D02*
X11162500Y-6109870D01*
X11530000Y-6330000D02*
X11570000Y-6370000D01*
X11570000Y-6330000D02*
X11530000Y-6370000D01*
X11811110Y-6014190D02*
X11851110Y-6054190D01*
X11851110Y-6014190D02*
X11811110Y-6054190D01*
X11980000Y-5730000D02*
X12020000Y-5770000D01*
X12020000Y-5730000D02*
X11980000Y-5770000D01*
X4160000Y-3800000D02*
G75*
G03*
X4160000Y-3800000I-110000J0D01*
G01*
X4160000Y-5200000D02*
G75*
G03*
X4160000Y-5200000I-110000J0D01*
G01*
X4160000Y-5900000D02*
G75*
G03*
X4160000Y-5900000I-110000J0D01*
G01*
X4160000Y-6650000D02*
G75*
G03*
X4160000Y-6650000I-110000J0D01*
G01*
X4160000Y-7800000D02*
G75*
G03*
X4160000Y-7800000I-110000J0D01*
G01*
X12410000Y-3800000D02*
G75*
G03*
X12410000Y-3800000I-110000J0D01*
G01*
X12410000Y-5350000D02*
G75*
G03*
X12410000Y-5350000I-110000J0D01*
G01*
X12410000Y-6050000D02*
G75*
G03*
X12410000Y-6050000I-110000J0D01*
G01*
X12410000Y-6650000D02*
G75*
G03*
X12410000Y-6650000I-110000J0D01*
G01*
X12410000Y-7800000D02*
G75*
G03*
X12410000Y-7800000I-110000J0D01*
G01*
D12*
X3783928Y-8718214D02*
X3783928Y-8418214D01*
X3855357Y-8418214D01*
X3898214Y-8432500D01*
X3926786Y-8461072D01*
X3941071Y-8489643D01*
X3955357Y-8546786D01*
X3955357Y-8589643D01*
X3941071Y-8646786D01*
X3926786Y-8675357D01*
X3898214Y-8703929D01*
X3855357Y-8718214D01*
X3783928Y-8718214D01*
X4083928Y-8718214D02*
X4083928Y-8518214D01*
X4083928Y-8575357D02*
X4098214Y-8546786D01*
X4112500Y-8532500D01*
X4141071Y-8518214D01*
X4169643Y-8518214D01*
X4269643Y-8718214D02*
X4269643Y-8518214D01*
X4269643Y-8418214D02*
X4255357Y-8432500D01*
X4269643Y-8446786D01*
X4283928Y-8432500D01*
X4269643Y-8418214D01*
X4269643Y-8446786D01*
X4455357Y-8718214D02*
X4426786Y-8703929D01*
X4412500Y-8675357D01*
X4412500Y-8418214D01*
X4612500Y-8718214D02*
X4583928Y-8703929D01*
X4569643Y-8675357D01*
X4569643Y-8418214D01*
X4955357Y-8718214D02*
X4955357Y-8418214D01*
X5055357Y-8632500D01*
X5155357Y-8418214D01*
X5155357Y-8718214D01*
X5426786Y-8718214D02*
X5426786Y-8561072D01*
X5412500Y-8532500D01*
X5383928Y-8518214D01*
X5326786Y-8518214D01*
X5298214Y-8532500D01*
X5426786Y-8703929D02*
X5398214Y-8718214D01*
X5326786Y-8718214D01*
X5298214Y-8703929D01*
X5283928Y-8675357D01*
X5283928Y-8646786D01*
X5298214Y-8618214D01*
X5326786Y-8603929D01*
X5398214Y-8603929D01*
X5426786Y-8589643D01*
X5569643Y-8518214D02*
X5569643Y-8818214D01*
X5569643Y-8532500D02*
X5598214Y-8518214D01*
X5655357Y-8518214D01*
X5683928Y-8532500D01*
X5698214Y-8546786D01*
X5712500Y-8575357D01*
X5712500Y-8661072D01*
X5698214Y-8689643D01*
X5683928Y-8703929D01*
X5655357Y-8718214D01*
X5598214Y-8718214D01*
X5569643Y-8703929D01*
X5841071Y-8689643D02*
X5855357Y-8703929D01*
X5841071Y-8718214D01*
X5826786Y-8703929D01*
X5841071Y-8689643D01*
X5841071Y-8718214D01*
X5841071Y-8532500D02*
X5855357Y-8546786D01*
X5841071Y-8561072D01*
X5826786Y-8546786D01*
X5841071Y-8532500D01*
X5841071Y-8561072D01*
X3457500Y-9192500D02*
X3497500Y-9232500D01*
X3497500Y-9192500D02*
X3457500Y-9232500D01*
X3841071Y-9048214D02*
X3869643Y-9048214D01*
X3898214Y-9062500D01*
X3912500Y-9076786D01*
X3926786Y-9105357D01*
X3941071Y-9162500D01*
X3941071Y-9233929D01*
X3926786Y-9291072D01*
X3912500Y-9319643D01*
X3898214Y-9333929D01*
X3869643Y-9348214D01*
X3841071Y-9348214D01*
X3812500Y-9333929D01*
X3798214Y-9319643D01*
X3783928Y-9291072D01*
X3769643Y-9233929D01*
X3769643Y-9162500D01*
X3783928Y-9105357D01*
X3798214Y-9076786D01*
X3812500Y-9062500D01*
X3841071Y-9048214D01*
X4069643Y-9319643D02*
X4083928Y-9333929D01*
X4069643Y-9348214D01*
X4055357Y-9333929D01*
X4069643Y-9319643D01*
X4069643Y-9348214D01*
X4341071Y-9148214D02*
X4341071Y-9348214D01*
X4269643Y-9033929D02*
X4198214Y-9248214D01*
X4383928Y-9248214D01*
X4555357Y-9048214D02*
X4583928Y-9048214D01*
X4612500Y-9062500D01*
X4626786Y-9076786D01*
X4641071Y-9105357D01*
X4655357Y-9162500D01*
X4655357Y-9233929D01*
X4641071Y-9291072D01*
X4626786Y-9319643D01*
X4612500Y-9333929D01*
X4583928Y-9348214D01*
X4555357Y-9348214D01*
X4526786Y-9333929D01*
X4512500Y-9319643D01*
X4498214Y-9291072D01*
X4483928Y-9233929D01*
X4483928Y-9162500D01*
X4498214Y-9105357D01*
X4512500Y-9076786D01*
X4526786Y-9062500D01*
X4555357Y-9048214D01*
X4841071Y-9048214D02*
X4869643Y-9048214D01*
X4898214Y-9062500D01*
X4912500Y-9076786D01*
X4926786Y-9105357D01*
X4941071Y-9162500D01*
X4941071Y-9233929D01*
X4926786Y-9291072D01*
X4912500Y-9319643D01*
X4898214Y-9333929D01*
X4869643Y-9348214D01*
X4841071Y-9348214D01*
X4812500Y-9333929D01*
X4798214Y-9319643D01*
X4783928Y-9291072D01*
X4769643Y-9233929D01*
X4769643Y-9162500D01*
X4783928Y-9105357D01*
X4798214Y-9076786D01*
X4812500Y-9062500D01*
X4841071Y-9048214D01*
X5069643Y-9348214D02*
X5069643Y-9148214D01*
X5069643Y-9176786D02*
X5083928Y-9162500D01*
X5112500Y-9148214D01*
X5155357Y-9148214D01*
X5183928Y-9162500D01*
X5198214Y-9191072D01*
X5198214Y-9348214D01*
X5198214Y-9191072D02*
X5212500Y-9162500D01*
X5241071Y-9148214D01*
X5283928Y-9148214D01*
X5312500Y-9162500D01*
X5326786Y-9191072D01*
X5326786Y-9348214D01*
X5469643Y-9348214D02*
X5469643Y-9148214D01*
X5469643Y-9176786D02*
X5483928Y-9162500D01*
X5512500Y-9148214D01*
X5555357Y-9148214D01*
X5583928Y-9162500D01*
X5598214Y-9191072D01*
X5598214Y-9348214D01*
X5598214Y-9191072D02*
X5612500Y-9162500D01*
X5641071Y-9148214D01*
X5683928Y-9148214D01*
X5712500Y-9162500D01*
X5726786Y-9191072D01*
X5726786Y-9348214D01*
X6312500Y-9033929D02*
X6055357Y-9419643D01*
X6698214Y-9048214D02*
X6726786Y-9048214D01*
X6755357Y-9062500D01*
X6769643Y-9076786D01*
X6783928Y-9105357D01*
X6798214Y-9162500D01*
X6798214Y-9233929D01*
X6783928Y-9291072D01*
X6769643Y-9319643D01*
X6755357Y-9333929D01*
X6726786Y-9348214D01*
X6698214Y-9348214D01*
X6669643Y-9333929D01*
X6655357Y-9319643D01*
X6641071Y-9291072D01*
X6626786Y-9233929D01*
X6626786Y-9162500D01*
X6641071Y-9105357D01*
X6655357Y-9076786D01*
X6669643Y-9062500D01*
X6698214Y-9048214D01*
X6926786Y-9319643D02*
X6941071Y-9333929D01*
X6926786Y-9348214D01*
X6912500Y-9333929D01*
X6926786Y-9319643D01*
X6926786Y-9348214D01*
X7126786Y-9048214D02*
X7155357Y-9048214D01*
X7183928Y-9062500D01*
X7198214Y-9076786D01*
X7212500Y-9105357D01*
X7226786Y-9162500D01*
X7226786Y-9233929D01*
X7212500Y-9291072D01*
X7198214Y-9319643D01*
X7183928Y-9333929D01*
X7155357Y-9348214D01*
X7126786Y-9348214D01*
X7098214Y-9333929D01*
X7083928Y-9319643D01*
X7069643Y-9291072D01*
X7055357Y-9233929D01*
X7055357Y-9162500D01*
X7069643Y-9105357D01*
X7083928Y-9076786D01*
X7098214Y-9062500D01*
X7126786Y-9048214D01*
X7512500Y-9348214D02*
X7341071Y-9348214D01*
X7426786Y-9348214D02*
X7426786Y-9048214D01*
X7398214Y-9091072D01*
X7369643Y-9119643D01*
X7341071Y-9133929D01*
X7783928Y-9048214D02*
X7641071Y-9048214D01*
X7626786Y-9191072D01*
X7641071Y-9176786D01*
X7669643Y-9162500D01*
X7741071Y-9162500D01*
X7769643Y-9176786D01*
X7783928Y-9191072D01*
X7798214Y-9219643D01*
X7798214Y-9291072D01*
X7783928Y-9319643D01*
X7769643Y-9333929D01*
X7741071Y-9348214D01*
X7669643Y-9348214D01*
X7641071Y-9333929D01*
X7626786Y-9319643D01*
X7898214Y-9048214D02*
X8098214Y-9048214D01*
X7969643Y-9348214D01*
X8198214Y-9048214D02*
X8198214Y-9105357D01*
X8312500Y-9048214D02*
X8312500Y-9105357D01*
X8755357Y-9462500D02*
X8741071Y-9448214D01*
X8712500Y-9405357D01*
X8698214Y-9376786D01*
X8683928Y-9333929D01*
X8669643Y-9262500D01*
X8669643Y-9205357D01*
X8683928Y-9133929D01*
X8698214Y-9091072D01*
X8712500Y-9062500D01*
X8741071Y-9019643D01*
X8755357Y-9005357D01*
X8841071Y-9048214D02*
X9026786Y-9048214D01*
X8926786Y-9162500D01*
X8969643Y-9162500D01*
X8998214Y-9176786D01*
X9012500Y-9191072D01*
X9026786Y-9219643D01*
X9026786Y-9291072D01*
X9012500Y-9319643D01*
X8998214Y-9333929D01*
X8969643Y-9348214D01*
X8883928Y-9348214D01*
X8855357Y-9333929D01*
X8841071Y-9319643D01*
X9212500Y-9048214D02*
X9241071Y-9048214D01*
X9269643Y-9062500D01*
X9283928Y-9076786D01*
X9298214Y-9105357D01*
X9312500Y-9162500D01*
X9312500Y-9233929D01*
X9298214Y-9291072D01*
X9283928Y-9319643D01*
X9269643Y-9333929D01*
X9241071Y-9348214D01*
X9212500Y-9348214D01*
X9183928Y-9333929D01*
X9169643Y-9319643D01*
X9155357Y-9291072D01*
X9141071Y-9233929D01*
X9141071Y-9162500D01*
X9155357Y-9105357D01*
X9169643Y-9076786D01*
X9183928Y-9062500D01*
X9212500Y-9048214D01*
X9669643Y-9348214D02*
X9669643Y-9048214D01*
X9798214Y-9348214D02*
X9798214Y-9191072D01*
X9783928Y-9162500D01*
X9755357Y-9148214D01*
X9712500Y-9148214D01*
X9683928Y-9162500D01*
X9669643Y-9176786D01*
X9983928Y-9348214D02*
X9955357Y-9333929D01*
X9941071Y-9319643D01*
X9926786Y-9291072D01*
X9926786Y-9205357D01*
X9941071Y-9176786D01*
X9955357Y-9162500D01*
X9983928Y-9148214D01*
X10026786Y-9148214D01*
X10055357Y-9162500D01*
X10069643Y-9176786D01*
X10083928Y-9205357D01*
X10083928Y-9291072D01*
X10069643Y-9319643D01*
X10055357Y-9333929D01*
X10026786Y-9348214D01*
X9983928Y-9348214D01*
X10255357Y-9348214D02*
X10226786Y-9333929D01*
X10212500Y-9305357D01*
X10212500Y-9048214D01*
X10483928Y-9333929D02*
X10455357Y-9348214D01*
X10398214Y-9348214D01*
X10369643Y-9333929D01*
X10355357Y-9305357D01*
X10355357Y-9191072D01*
X10369643Y-9162500D01*
X10398214Y-9148214D01*
X10455357Y-9148214D01*
X10483928Y-9162500D01*
X10498214Y-9191072D01*
X10498214Y-9219643D01*
X10355357Y-9248214D01*
X10612500Y-9333929D02*
X10641071Y-9348214D01*
X10698214Y-9348214D01*
X10726786Y-9333929D01*
X10741071Y-9305357D01*
X10741071Y-9291072D01*
X10726786Y-9262500D01*
X10698214Y-9248214D01*
X10655357Y-9248214D01*
X10626786Y-9233929D01*
X10612500Y-9205357D01*
X10612500Y-9191072D01*
X10626786Y-9162500D01*
X10655357Y-9148214D01*
X10698214Y-9148214D01*
X10726786Y-9162500D01*
X10841071Y-9462500D02*
X10855357Y-9448214D01*
X10883928Y-9405357D01*
X10898214Y-9376786D01*
X10912500Y-9333929D01*
X10926786Y-9262500D01*
X10926786Y-9205357D01*
X10912500Y-9133929D01*
X10898214Y-9091072D01*
X10883928Y-9062500D01*
X10855357Y-9019643D01*
X10841071Y-9005357D01*
X3497500Y-9608500D02*
G75*
G03*
X3497500Y-9608500I-110000J0D01*
G01*
X3769643Y-9472786D02*
X3783928Y-9458500D01*
X3812500Y-9444214D01*
X3883928Y-9444214D01*
X3912500Y-9458500D01*
X3926786Y-9472786D01*
X3941071Y-9501357D01*
X3941071Y-9529929D01*
X3926786Y-9572786D01*
X3755357Y-9744214D01*
X3941071Y-9744214D01*
X4069643Y-9715643D02*
X4083928Y-9729929D01*
X4069643Y-9744214D01*
X4055357Y-9729929D01*
X4069643Y-9715643D01*
X4069643Y-9744214D01*
X4198214Y-9472786D02*
X4212500Y-9458500D01*
X4241071Y-9444214D01*
X4312500Y-9444214D01*
X4341071Y-9458500D01*
X4355357Y-9472786D01*
X4369643Y-9501357D01*
X4369643Y-9529929D01*
X4355357Y-9572786D01*
X4183928Y-9744214D01*
X4369643Y-9744214D01*
X4555357Y-9444214D02*
X4583928Y-9444214D01*
X4612500Y-9458500D01*
X4626786Y-9472786D01*
X4641071Y-9501357D01*
X4655357Y-9558500D01*
X4655357Y-9629929D01*
X4641071Y-9687072D01*
X4626786Y-9715643D01*
X4612500Y-9729929D01*
X4583928Y-9744214D01*
X4555357Y-9744214D01*
X4526786Y-9729929D01*
X4512500Y-9715643D01*
X4498214Y-9687072D01*
X4483928Y-9629929D01*
X4483928Y-9558500D01*
X4498214Y-9501357D01*
X4512500Y-9472786D01*
X4526786Y-9458500D01*
X4555357Y-9444214D01*
X4841071Y-9444214D02*
X4869643Y-9444214D01*
X4898214Y-9458500D01*
X4912500Y-9472786D01*
X4926786Y-9501357D01*
X4941071Y-9558500D01*
X4941071Y-9629929D01*
X4926786Y-9687072D01*
X4912500Y-9715643D01*
X4898214Y-9729929D01*
X4869643Y-9744214D01*
X4841071Y-9744214D01*
X4812500Y-9729929D01*
X4798214Y-9715643D01*
X4783928Y-9687072D01*
X4769643Y-9629929D01*
X4769643Y-9558500D01*
X4783928Y-9501357D01*
X4798214Y-9472786D01*
X4812500Y-9458500D01*
X4841071Y-9444214D01*
X5069643Y-9744214D02*
X5069643Y-9544214D01*
X5069643Y-9572786D02*
X5083928Y-9558500D01*
X5112500Y-9544214D01*
X5155357Y-9544214D01*
X5183928Y-9558500D01*
X5198214Y-9587072D01*
X5198214Y-9744214D01*
X5198214Y-9587072D02*
X5212500Y-9558500D01*
X5241071Y-9544214D01*
X5283928Y-9544214D01*
X5312500Y-9558500D01*
X5326786Y-9587072D01*
X5326786Y-9744214D01*
X5469643Y-9744214D02*
X5469643Y-9544214D01*
X5469643Y-9572786D02*
X5483928Y-9558500D01*
X5512500Y-9544214D01*
X5555357Y-9544214D01*
X5583928Y-9558500D01*
X5598214Y-9587072D01*
X5598214Y-9744214D01*
X5598214Y-9587072D02*
X5612500Y-9558500D01*
X5641071Y-9544214D01*
X5683928Y-9544214D01*
X5712500Y-9558500D01*
X5726786Y-9587072D01*
X5726786Y-9744214D01*
X6312500Y-9429929D02*
X6055357Y-9815643D01*
X6698214Y-9444214D02*
X6726786Y-9444214D01*
X6755357Y-9458500D01*
X6769643Y-9472786D01*
X6783928Y-9501357D01*
X6798214Y-9558500D01*
X6798214Y-9629929D01*
X6783928Y-9687072D01*
X6769643Y-9715643D01*
X6755357Y-9729929D01*
X6726786Y-9744214D01*
X6698214Y-9744214D01*
X6669643Y-9729929D01*
X6655357Y-9715643D01*
X6641071Y-9687072D01*
X6626786Y-9629929D01*
X6626786Y-9558500D01*
X6641071Y-9501357D01*
X6655357Y-9472786D01*
X6669643Y-9458500D01*
X6698214Y-9444214D01*
X6926786Y-9715643D02*
X6941071Y-9729929D01*
X6926786Y-9744214D01*
X6912500Y-9729929D01*
X6926786Y-9715643D01*
X6926786Y-9744214D01*
X7126786Y-9444214D02*
X7155357Y-9444214D01*
X7183928Y-9458500D01*
X7198214Y-9472786D01*
X7212500Y-9501357D01*
X7226786Y-9558500D01*
X7226786Y-9629929D01*
X7212500Y-9687072D01*
X7198214Y-9715643D01*
X7183928Y-9729929D01*
X7155357Y-9744214D01*
X7126786Y-9744214D01*
X7098214Y-9729929D01*
X7083928Y-9715643D01*
X7069643Y-9687072D01*
X7055357Y-9629929D01*
X7055357Y-9558500D01*
X7069643Y-9501357D01*
X7083928Y-9472786D01*
X7098214Y-9458500D01*
X7126786Y-9444214D01*
X7398214Y-9572786D02*
X7369643Y-9558500D01*
X7355357Y-9544214D01*
X7341071Y-9515643D01*
X7341071Y-9501357D01*
X7355357Y-9472786D01*
X7369643Y-9458500D01*
X7398214Y-9444214D01*
X7455357Y-9444214D01*
X7483928Y-9458500D01*
X7498214Y-9472786D01*
X7512500Y-9501357D01*
X7512500Y-9515643D01*
X7498214Y-9544214D01*
X7483928Y-9558500D01*
X7455357Y-9572786D01*
X7398214Y-9572786D01*
X7369643Y-9587072D01*
X7355357Y-9601357D01*
X7341071Y-9629929D01*
X7341071Y-9687072D01*
X7355357Y-9715643D01*
X7369643Y-9729929D01*
X7398214Y-9744214D01*
X7455357Y-9744214D01*
X7483928Y-9729929D01*
X7498214Y-9715643D01*
X7512500Y-9687072D01*
X7512500Y-9629929D01*
X7498214Y-9601357D01*
X7483928Y-9587072D01*
X7455357Y-9572786D01*
X7769643Y-9444214D02*
X7712500Y-9444214D01*
X7683928Y-9458500D01*
X7669643Y-9472786D01*
X7641071Y-9515643D01*
X7626786Y-9572786D01*
X7626786Y-9687072D01*
X7641071Y-9715643D01*
X7655357Y-9729929D01*
X7683928Y-9744214D01*
X7741071Y-9744214D01*
X7769643Y-9729929D01*
X7783928Y-9715643D01*
X7798214Y-9687072D01*
X7798214Y-9615643D01*
X7783928Y-9587072D01*
X7769643Y-9572786D01*
X7741071Y-9558500D01*
X7683928Y-9558500D01*
X7655357Y-9572786D01*
X7641071Y-9587072D01*
X7626786Y-9615643D01*
X8055357Y-9444214D02*
X7998214Y-9444214D01*
X7969643Y-9458500D01*
X7955357Y-9472786D01*
X7926786Y-9515643D01*
X7912500Y-9572786D01*
X7912500Y-9687072D01*
X7926786Y-9715643D01*
X7941071Y-9729929D01*
X7969643Y-9744214D01*
X8026786Y-9744214D01*
X8055357Y-9729929D01*
X8069643Y-9715643D01*
X8083928Y-9687072D01*
X8083928Y-9615643D01*
X8069643Y-9587072D01*
X8055357Y-9572786D01*
X8026786Y-9558500D01*
X7969643Y-9558500D01*
X7941071Y-9572786D01*
X7926786Y-9587072D01*
X7912500Y-9615643D01*
X8198214Y-9444214D02*
X8198214Y-9501357D01*
X8312500Y-9444214D02*
X8312500Y-9501357D01*
X8755357Y-9858500D02*
X8741071Y-9844214D01*
X8712500Y-9801357D01*
X8698214Y-9772786D01*
X8683928Y-9729929D01*
X8669643Y-9658500D01*
X8669643Y-9601357D01*
X8683928Y-9529929D01*
X8698214Y-9487072D01*
X8712500Y-9458500D01*
X8741071Y-9415643D01*
X8755357Y-9401357D01*
X9026786Y-9744214D02*
X8855357Y-9744214D01*
X8941071Y-9744214D02*
X8941071Y-9444214D01*
X8912500Y-9487072D01*
X8883928Y-9515643D01*
X8855357Y-9529929D01*
X9212500Y-9444214D02*
X9241071Y-9444214D01*
X9269643Y-9458500D01*
X9283928Y-9472786D01*
X9298214Y-9501357D01*
X9312500Y-9558500D01*
X9312500Y-9629929D01*
X9298214Y-9687072D01*
X9283928Y-9715643D01*
X9269643Y-9729929D01*
X9241071Y-9744214D01*
X9212500Y-9744214D01*
X9183928Y-9729929D01*
X9169643Y-9715643D01*
X9155357Y-9687072D01*
X9141071Y-9629929D01*
X9141071Y-9558500D01*
X9155357Y-9501357D01*
X9169643Y-9472786D01*
X9183928Y-9458500D01*
X9212500Y-9444214D01*
X9669643Y-9744214D02*
X9669643Y-9444214D01*
X9798214Y-9744214D02*
X9798214Y-9587072D01*
X9783928Y-9558500D01*
X9755357Y-9544214D01*
X9712500Y-9544214D01*
X9683928Y-9558500D01*
X9669643Y-9572786D01*
X9983928Y-9744214D02*
X9955357Y-9729929D01*
X9941071Y-9715643D01*
X9926786Y-9687072D01*
X9926786Y-9601357D01*
X9941071Y-9572786D01*
X9955357Y-9558500D01*
X9983928Y-9544214D01*
X10026786Y-9544214D01*
X10055357Y-9558500D01*
X10069643Y-9572786D01*
X10083928Y-9601357D01*
X10083928Y-9687072D01*
X10069643Y-9715643D01*
X10055357Y-9729929D01*
X10026786Y-9744214D01*
X9983928Y-9744214D01*
X10255357Y-9744214D02*
X10226786Y-9729929D01*
X10212500Y-9701357D01*
X10212500Y-9444214D01*
X10483928Y-9729929D02*
X10455357Y-9744214D01*
X10398214Y-9744214D01*
X10369643Y-9729929D01*
X10355357Y-9701357D01*
X10355357Y-9587072D01*
X10369643Y-9558500D01*
X10398214Y-9544214D01*
X10455357Y-9544214D01*
X10483928Y-9558500D01*
X10498214Y-9587072D01*
X10498214Y-9615643D01*
X10355357Y-9644214D01*
X10612500Y-9729929D02*
X10641071Y-9744214D01*
X10698214Y-9744214D01*
X10726786Y-9729929D01*
X10741071Y-9701357D01*
X10741071Y-9687072D01*
X10726786Y-9658500D01*
X10698214Y-9644214D01*
X10655357Y-9644214D01*
X10626786Y-9629929D01*
X10612500Y-9601357D01*
X10612500Y-9587072D01*
X10626786Y-9558500D01*
X10655357Y-9544214D01*
X10698214Y-9544214D01*
X10726786Y-9558500D01*
X10841071Y-9858500D02*
X10855357Y-9844214D01*
X10883928Y-9801357D01*
X10898214Y-9772786D01*
X10912500Y-9729929D01*
X10926786Y-9658500D01*
X10926786Y-9601357D01*
X10912500Y-9529929D01*
X10898214Y-9487072D01*
X10883928Y-9458500D01*
X10855357Y-9415643D01*
X10841071Y-9401357D01*
M02*
